<svg width="44" height="44" viewBox="0 0 44 44" fill="none" xmlns="http://www.w3.org/2000/svg">
<rect width="44" height="44" rx="22" fill="#1FA2D0" fill-opacity="0.2"/>
<g clip-path="url(#clip0_125_48)">
<path d="M28.7368 20.7368H23.2632V15.2632C23.2632 14.5666 22.6965 14 22 14C21.3035 14 20.7368 14.5666 20.7368 15.2632V20.7368H15.2632C14.5666 20.7368 14 21.3035 14 22C14 22.6965 14.5666 23.2632 15.2632 23.2632H20.7368V28.7368C20.7368 29.4334 21.3035 30 22 30C22.6965 30 23.2632 29.4334 23.2632 28.7368V23.2632H28.7368C29.4334 23.2632 30 22.6965 30 22C30 21.3035 29.4334 20.7368 28.7368 20.7368Z" fill="#1FA2D0"/>
</g>
<defs>
<clipPath id="clip0_125_48">
<rect width="16" height="16" fill="white" transform="translate(14 14)"/>
</clipPath>
</defs>
</svg>
