<svg width="826" height="321" viewBox="0 0 826 321" fill="none" xmlns="http://www.w3.org/2000/svg">
<path d="M475.78 4.53712C447.987 -7.39749 371.104 13.8078 300.717 45.1361C300.717 45.1361 369.081 212.54 401.985 231.614C401.985 231.614 478.549 128.146 493.776 83.7105C516.777 16.2586 475.78 4.53712 475.78 4.53712Z" fill="url(#paint0_linear_38_92)"/>
<path d="M475.78 4.53707C472.266 3.04524 468.539 2.29933 464.706 1.87309C460.979 1.44686 457.145 1.23374 453.312 1.3403C445.751 1.44686 438.191 2.29933 430.63 3.47148C415.616 5.81578 400.814 9.54534 386.225 13.8077C378.984 15.9389 371.743 18.2832 364.502 20.734C357.261 23.1849 350.126 25.6358 342.992 28.2997C335.857 30.8571 328.723 33.6277 321.695 36.3982C318.181 37.7835 314.667 39.2753 311.152 40.7671C307.638 42.1524 304.124 43.6442 300.61 45.1361V45.0295C314.454 38.636 328.51 32.7752 342.672 27.3407C356.942 22.0127 371.424 17.2176 386.012 12.9552C400.601 8.79943 415.509 5.17642 430.524 2.93868C438.084 1.76653 445.645 1.02062 453.312 0.914062C457.145 0.914062 460.979 1.02062 464.706 1.55342C468.539 2.19277 472.373 2.93868 475.78 4.53707Z" fill="#053661"/>
<path d="M254.396 62.6115C230.969 52.5949 165.905 70.4968 106.486 96.9235C106.486 96.9235 164.308 238.327 191.995 254.418C191.995 254.418 256.738 167.039 269.517 129.424C289.004 72.5215 254.396 62.6115 254.396 62.6115Z" fill="url(#paint1_linear_38_92)"/>
<path d="M254.395 62.6116C251.413 61.3329 248.219 60.6935 245.131 60.3738C241.936 59.9476 238.742 59.841 235.547 59.9476C229.158 60.0541 222.769 60.8001 216.379 61.7591C203.708 63.7837 191.249 66.8739 178.896 70.4969C172.72 72.3084 166.65 74.2265 160.581 76.3577C154.511 78.3823 148.441 80.5135 142.478 82.7512C130.445 87.1201 118.519 91.9153 106.592 96.9236V96.817C118.199 91.3825 130.126 86.3742 142.158 81.7922C154.191 77.3167 166.437 73.1609 178.79 69.6445C191.142 66.128 203.708 63.1444 216.379 61.1197C222.769 60.1607 229.158 59.5214 235.547 59.4148C238.742 59.4148 241.936 59.5214 245.131 59.9476C248.325 60.5869 251.52 61.2263 254.395 62.6116Z" fill="#053661"/>
<path d="M73.4753 126.014C54.7337 117.916 2.76839 132.301 -44.7245 153.4C-44.7245 153.4 1.49055 266.459 23.6397 279.246C23.6397 279.246 75.392 209.343 85.6147 179.4C101.162 134.006 73.4753 126.014 73.4753 126.014Z" fill="url(#paint2_linear_38_92)"/>
<path d="M73.4753 126.014C71.1326 125.055 68.5769 124.522 66.0212 124.203C63.4656 123.883 60.9099 123.776 58.3542 123.883C53.2429 123.99 48.1315 124.522 43.0202 125.375C32.904 126.973 22.8943 129.531 13.0976 132.408C8.19918 133.9 3.30082 135.391 -1.59755 137.096C-6.49592 138.695 -11.2878 140.4 -16.0797 142.211C-25.7699 145.728 -35.2472 149.564 -44.7245 153.4V153.293C-35.4602 148.924 -25.9829 144.875 -16.3991 141.252C-11.6073 139.441 -6.70889 137.736 -1.81052 136.137C3.08784 134.539 7.98621 133.047 12.8846 131.662C22.7878 128.891 32.7975 126.44 43.0202 124.949C48.1315 124.203 53.2429 123.67 58.3542 123.67C60.9099 123.67 63.4656 123.776 66.0212 124.096C68.5769 124.416 71.1326 124.949 73.4753 126.014Z" fill="#053661"/>
<path d="M-46.6412 378.559C-27.5802 280.632 122.459 148.818 73.4753 126.014C115.218 142.851 177.086 288.623 362.16 297.042L353.321 378.559H-46.6412Z" fill="url(#paint3_linear_38_92)"/>
<path d="M-46.6412 378.559C-44.2985 366.624 -40.2521 355.01 -35.5667 343.821C-30.7748 332.632 -25.131 321.763 -19.1678 311.214C-7.13483 290.009 6.49541 269.869 20.3386 249.836L41.2099 219.893C48.1315 209.876 55.0531 199.966 61.6553 189.63C64.9564 184.515 68.151 179.4 71.1326 174.072C74.1142 168.744 76.8828 163.416 79.119 157.769C80.1839 154.998 81.2488 152.121 81.8877 149.138C82.6331 146.154 83.059 143.17 82.8461 140.187C82.7396 137.203 81.8877 134.219 80.2904 131.662C78.5866 129.104 76.0309 127.293 73.3688 126.014V125.908C76.1374 127.186 78.6931 128.998 80.5034 131.555C82.3136 134.113 83.1655 137.096 83.272 140.187C83.485 143.277 83.059 146.367 82.3136 149.351C81.5682 152.334 80.6098 155.211 79.545 158.089C77.3088 163.736 74.5401 169.277 71.665 174.605C68.6834 179.933 65.5953 185.155 62.2942 190.269C49.1964 210.729 34.7143 230.442 20.7646 250.262C6.81487 270.189 -6.92186 290.328 -18.9548 311.427C-25.0245 321.976 -30.6683 332.739 -35.4602 343.927C-40.0391 355.116 -44.1921 366.624 -46.6412 378.559Z" fill="#165A93"/>
<path d="M104.249 378.559C128.209 256.016 315.837 91.1694 254.501 62.6116C306.786 83.6037 384.202 266.033 615.703 276.582L604.735 378.559H104.249Z" fill="url(#paint4_linear_38_92)"/>
<path d="M104.143 378.559C107.018 363.641 112.13 349.149 118.093 335.19C124.056 321.124 131.084 307.697 138.645 294.377C153.766 267.951 170.804 242.696 188.161 217.655L214.357 180.253C223.088 167.785 231.714 155.211 239.913 142.424C244.066 136.031 248.006 129.531 251.733 122.924C255.46 116.317 258.868 109.498 261.743 102.465C263.127 98.9482 264.299 95.3252 265.257 91.7022C266.109 87.9726 266.641 84.2431 266.535 80.5135C266.428 76.7839 265.364 72.9478 263.234 69.8576C261.104 66.6608 257.909 64.4231 254.502 62.7181V62.6116C257.909 64.21 261.211 66.4477 263.34 69.6445C265.576 72.8412 266.641 76.6774 266.854 80.4069C267.067 84.2431 266.535 88.0792 265.683 91.8087C264.831 95.5383 263.553 99.1613 262.275 102.678C259.507 109.817 256.099 116.637 252.372 123.244C248.645 129.957 244.705 136.457 240.659 142.851C224.26 168.531 206.157 193.04 188.693 217.975C171.23 242.909 154.085 268.057 138.964 294.484C131.404 307.697 124.376 321.23 118.306 335.19C112.343 349.149 107.231 363.641 104.143 378.559Z" fill="#165A93"/>
<path d="M297.948 378.559C326.274 233.426 548.404 38.3163 475.78 4.53711C537.649 29.4719 629.334 245.36 903.323 257.828L890.225 378.559H297.948Z" fill="url(#paint5_linear_38_92)"/>
<path d="M297.948 378.559C301.356 360.87 307.319 343.714 314.454 327.198C317.968 318.886 321.801 310.788 325.954 302.689C330.001 294.697 334.26 286.705 338.732 278.927C356.622 247.598 376.748 217.655 397.406 188.138L428.394 143.916C438.723 129.105 448.946 114.293 458.636 99.1615C463.534 91.5958 468.22 83.9236 472.586 76.0382C476.952 68.1528 481.105 60.1609 484.406 51.8493C486.003 47.6935 487.494 43.4312 488.559 39.0622C489.624 34.6933 490.262 30.2178 490.049 25.7424C489.837 21.2669 488.665 16.7914 486.109 13.0618C483.66 9.33226 479.827 6.56173 475.78 4.64367V4.53711C479.827 6.45517 483.66 9.11915 486.322 12.8487C488.985 16.5783 490.156 21.1603 490.475 25.6358C490.688 30.2178 490.156 34.6933 489.091 39.0622C488.026 43.4312 486.642 47.8001 485.045 51.9559C481.744 60.374 477.697 68.4725 473.331 76.3579C468.965 84.2432 464.28 92.0221 459.488 99.5877C440.001 129.957 418.704 159.048 398.045 188.565C377.387 218.081 357.155 247.918 339.158 279.14C334.686 286.919 330.427 294.91 326.274 302.902C322.121 310.894 318.287 318.993 314.667 327.304C307.532 343.821 301.569 360.87 297.948 378.559Z" fill="#1F6CA0"/>
<defs>
<linearGradient id="paint0_linear_38_92" x1="314.838" y1="27.6178" x2="433.331" y2="119.793" gradientUnits="userSpaceOnUse">
<stop stop-color="#022140"/>
<stop offset="1" stop-color="#00041F"/>
</linearGradient>
<linearGradient id="paint1_linear_38_92" x1="117.615" y1="88.6222" x2="216.002" y2="159.554" gradientUnits="userSpaceOnUse">
<stop stop-color="#022140"/>
<stop offset="1" stop-color="#00041F"/>
</linearGradient>
<linearGradient id="paint2_linear_38_92" x1="-38.1591" y1="155.861" x2="45.3773" y2="207.309" gradientUnits="userSpaceOnUse">
<stop stop-color="#022140"/>
<stop offset="1" stop-color="#00041F"/>
</linearGradient>
<linearGradient id="paint3_linear_38_92" x1="9.6829" y1="251.109" x2="130.013" y2="300.182" gradientUnits="userSpaceOnUse">
<stop stop-color="#022140"/>
<stop offset="1" stop-color="#021B34"/>
</linearGradient>
<linearGradient id="paint4_linear_38_92" x1="191.446" y1="225.29" x2="352.913" y2="303.02" gradientUnits="userSpaceOnUse">
<stop stop-color="#053661"/>
<stop offset="0.015935" stop-color="#053560"/>
<stop offset="0.3155" stop-color="#032A4E"/>
<stop offset="0.6335" stop-color="#022343"/>
<stop offset="1" stop-color="#022140"/>
</linearGradient>
<linearGradient id="paint5_linear_38_92" x1="365.385" y1="188.435" x2="885.415" y2="318.168" gradientUnits="userSpaceOnUse">
<stop stop-color="#165A93"/>
<stop offset="0.1814" stop-color="#104D81"/>
<stop offset="0.4305" stop-color="#0A406F"/>
<stop offset="0.6953" stop-color="#063864"/>
<stop offset="1" stop-color="#053661"/>
</linearGradient>
</defs>
</svg>
