<svg width="16" height="16" viewBox="0 0 16 16" fill="none" xmlns="http://www.w3.org/2000/svg">
<path d="M10.5416 12.1849C10.1692 11.7247 9.97238 11.1678 9.97238 10.5744V6.72916H8.43744V2.30209C8.43744 1.03272 7.40472 0 6.13535 0C4.86597 0 3.83325 1.03272 3.83325 2.30209V6.72919H2.33325V12.4999C2.33328 14.4298 3.90341 16 5.83338 16L9.92785 15.9984C11.2599 15.9646 12.3333 14.8713 12.3333 13.5312V13.1565L11.9678 13.074C11.4102 12.9481 10.9037 12.6324 10.5416 12.1849ZM9.89853 15.0618C9.18216 15.046 8.6041 14.4588 8.6041 13.7388H7.6666C7.6666 14.2328 7.82635 14.6901 8.09625 15.0625H7.3541C6.62416 15.0625 6.03031 14.4687 6.03031 13.7388H5.09281C5.09281 14.2234 5.2466 14.6725 5.50719 15.041C4.24772 14.8802 3.27075 13.8024 3.27075 12.4999V10H9.03488V10.5744C9.03488 11.3733 9.31119 12.1547 9.81285 12.7747C10.2182 13.2755 10.7566 13.6556 11.3578 13.871C11.2053 14.5417 10.6111 15.0461 9.89853 15.0618ZM6.13535 0.9375C6.88778 0.9375 7.49994 1.54966 7.49994 2.30209V6.72919H4.77078V2.30209C4.77078 1.54966 5.38294 0.9375 6.13535 0.9375ZM9.03488 7.66666V9.0625H3.27078V7.66666H9.03488Z" fill="#B3261E"/>
<path d="M5.6665 2.3335H6.604V3.271H5.6665V2.3335Z" fill="#B3261E"/>
<path d="M13.6666 9.36444H12.9687V8.6665H12.0312V9.36444H11.3333V10.3019H12.0312V10.9998H12.9687V10.3019H13.6666V9.36444Z" fill="#B3261E"/>
<path d="M11.3333 5.92725H12.2708V6.86475H11.3333V5.92725Z" fill="#B3261E"/>
</svg>
