<svg width="16" height="16" viewBox="0 0 16 16" fill="none" xmlns="http://www.w3.org/2000/svg">
<g clip-path="url(#clip0_153_52)">
<path d="M11.8414 0.972503C12.2986 0.0897752 13.3848 -0.25517 14.2676 0.202056C15.1517 0.660004 15.496 1.74877 15.0361 2.63188L13.1875 6.1814C13.1135 6.32348 13.0218 6.45313 12.9158 6.5681C13.421 7.31613 13.5776 8.27796 13.2575 9.18847C13.1845 9.39594 13.1075 9.61222 13.0275 9.83333C12.9934 9.92745 12.8841 9.96977 12.7954 9.92342L6.83035 6.80613C6.73374 6.75565 6.71138 6.62726 6.78441 6.54634C6.93288 6.38188 7.07742 6.21678 7.2162 6.05437C7.86866 5.29076 8.83556 4.85881 9.81214 4.89082C9.8232 4.86807 9.83486 4.84542 9.84711 4.82285L11.8414 0.972503Z" fill="#B3261E"/>
<path d="M5.95579 7.56375C5.89309 7.531 5.81659 7.54176 5.76477 7.5899C5.39759 7.93108 5.03127 8.22888 4.6895 8.44089C3.53546 9.15683 2.5814 9.41485 1.98892 9.50643C1.64241 9.55999 1.36116 9.78309 1.22416 10.0724C1.08105 10.3746 1.09184 10.7706 1.36994 11.077C1.67637 11.4147 2.13029 11.8616 2.78498 12.3993C2.82337 12.4308 2.87397 12.4432 2.92267 12.4334C3.38063 12.3414 3.85743 12.2545 4.27353 12.0369C4.39463 11.9736 4.57594 11.8608 4.80331 11.6658C5.02972 11.4717 5.37432 11.4925 5.573 11.7124C5.77166 11.9323 5.74918 12.2679 5.52277 12.4621C5.23527 12.7086 4.98529 12.8689 4.78706 12.9726C4.62488 13.0573 4.45517 13.1278 4.28189 13.1878C4.15026 13.2334 4.11945 13.4108 4.23376 13.4905C4.56354 13.7203 4.92319 13.9603 5.31515 14.2096C5.51561 14.3371 5.71327 14.4569 5.90705 14.5695C5.96235 14.6016 6.03132 14.5987 6.08335 14.5615C6.36306 14.3614 6.60396 14.1606 6.80034 13.9763C7.24462 13.5595 7.62798 13.1003 7.93799 12.5721C8.08884 12.3151 8.42065 12.2247 8.67908 12.3701C8.93751 12.5156 9.0247 12.8419 8.87383 13.0989C8.51098 13.7172 8.06194 14.2585 7.54137 14.7469C7.45129 14.8314 7.35336 14.9188 7.24795 15.0078C7.15468 15.0865 7.17132 15.2365 7.28195 15.2882C7.94117 15.596 8.49593 15.8038 8.87766 15.9327C9.4314 16.1198 10.0232 15.9059 10.3409 15.43C10.7426 14.8284 11.4481 13.6938 12.0538 12.3132C12.211 11.955 12.3709 11.5645 12.5276 11.1642C12.5583 11.0857 12.5248 10.9967 12.4501 10.9576L5.95579 7.56375Z" fill="#B3261E"/>
<path d="M2.90292 6.09736C3.33361 6.09736 3.68277 5.74819 3.68277 5.31747C3.68277 4.88676 3.33361 4.5376 2.90292 4.5376C2.47221 4.5376 2.12305 4.88676 2.12305 5.31747C2.12305 5.74819 2.47221 6.09736 2.90292 6.09736Z" fill="#B3261E"/>
<path d="M0.77987 8.49433C1.21056 8.49433 1.55972 8.14516 1.55972 7.71444C1.55972 7.28374 1.21056 6.93457 0.77987 6.93457C0.349155 6.93457 2.07044e-06 7.28374 0 7.71444C0 8.14516 0.349155 8.49433 0.77987 8.49433Z" fill="#B3261E"/>
</g>
<defs>
<clipPath id="clip0_153_52">
<rect width="16" height="16" fill="white"/>
</clipPath>
</defs>
</svg>
