<svg width="227" height="36" viewBox="0 0 227 36" fill="none" xmlns="http://www.w3.org/2000/svg">
<rect width="227" height="36" rx="18" fill="#34C759" fill-opacity="0.2"/>
<g clip-path="url(#clip0_354_1686)">
<path d="M17.3668 15.9845L13.7529 19.5976C12.0824 21.2678 12.0824 23.9853 13.7529 25.6555L13.8431 25.7457C14.6524 26.5546 15.7282 27.0002 16.8727 27.0002C18.0172 27.0002 19.0932 26.5546 19.9023 25.7457L23.3796 22.2692C23.1249 22.306 22.8659 22.325 22.6039 22.325C21.883 22.325 21.1841 22.183 20.539 21.9124L18.3487 24.1021C17.9544 24.4963 17.4303 24.7134 16.8727 24.7134C16.3153 24.7134 15.7911 24.4964 15.3968 24.1023C15.0031 23.7087 14.7863 23.1846 14.7863 22.6265C14.7863 22.0686 15.0031 21.5444 15.3967 21.1508L18.9204 17.628C19.3147 17.2338 19.8389 17.0168 20.3964 17.0168C20.9356 17.0168 21.4431 17.2202 21.8326 17.59C21.8468 17.6015 21.8604 17.6138 21.8735 17.6269C22.0687 17.8219 22.328 17.9293 22.6039 17.9293C22.8796 17.9293 23.139 17.8219 23.334 17.6269L24.123 16.8383C23.9512 16.5628 23.7484 16.3067 23.5163 16.0747L23.4262 15.9846C22.6169 15.1755 21.5409 14.73 20.3966 14.73C19.2521 14.73 18.1761 15.1755 17.3668 15.9845Z" fill="#34C759"/>
<path d="M29.2472 16.4026C30.0551 15.5951 30.4999 14.5194 30.4999 13.3737C30.4999 12.2281 30.055 11.1524 29.2472 10.3447L29.1571 10.2546C28.3478 9.44563 27.2719 9 26.1273 9C24.983 9 23.907 9.44563 23.0977 10.2546L19.6204 13.731C19.8752 13.6942 20.1343 13.6752 20.3963 13.6752C21.117 13.6752 21.8159 13.8174 22.4611 14.0878L24.6513 11.8981C25.0456 11.5039 25.5698 11.2868 26.1273 11.2868C26.6849 11.2868 27.2091 11.5038 27.6034 11.8981C27.9971 12.2916 28.2138 12.8157 28.2138 13.3737C28.2138 13.9318 27.9971 14.4558 27.6034 14.8493L24.0796 18.3722C23.6854 18.7664 23.1612 18.9834 22.6036 18.9834C22.0646 18.9834 21.557 18.78 21.1676 18.4102C21.1534 18.3987 21.1397 18.3864 21.1265 18.3733C20.9315 18.1783 20.6721 18.0709 20.3963 18.0709C20.1204 18.0709 19.8612 18.1783 19.6662 18.3733L18.8772 19.1621C19.0489 19.4374 19.2517 19.6934 19.4838 19.9255L19.574 20.0157C20.3833 20.8247 21.4591 21.2702 22.6036 21.2702C23.7481 21.2702 24.8241 20.8247 25.6332 20.0157L29.2472 16.4026Z" fill="#34C759"/>
</g>
<path d="M55.2422 19.7578H57.3906C57.3333 20.5182 57.1224 21.1927 56.7578 21.7812C56.3932 22.3646 55.8854 22.8229 55.2344 23.1562C54.5833 23.4896 53.7943 23.6562 52.8672 23.6562C52.1536 23.6562 51.5104 23.5312 50.9375 23.2812C50.3698 23.026 49.8828 22.6641 49.4766 22.1953C49.0755 21.7214 48.7682 21.1536 48.5547 20.4922C48.3411 19.8255 48.2344 19.0781 48.2344 18.25V17.3828C48.2344 16.5547 48.3438 15.8073 48.5625 15.1406C48.7812 14.474 49.0938 13.9062 49.5 13.4375C49.9115 12.9635 50.4036 12.599 50.9766 12.3438C51.5547 12.0885 52.2005 11.9609 52.9141 11.9609C53.8411 11.9609 54.625 12.1328 55.2656 12.4766C55.9062 12.8151 56.4036 13.2812 56.7578 13.875C57.112 14.4688 57.3255 15.151 57.3984 15.9219H55.25C55.2083 15.4427 55.1042 15.0365 54.9375 14.7031C54.776 14.3698 54.5312 14.1172 54.2031 13.9453C53.8802 13.7682 53.4505 13.6797 52.9141 13.6797C52.4974 13.6797 52.1302 13.7578 51.8125 13.9141C51.5 14.0703 51.2396 14.3047 51.0312 14.6172C50.8229 14.9245 50.6667 15.3099 50.5625 15.7734C50.4583 16.2318 50.4062 16.763 50.4062 17.3672V18.25C50.4062 18.8281 50.4531 19.3464 50.5469 19.8047C50.6406 20.263 50.7865 20.651 50.9844 20.9688C51.1823 21.2865 51.4375 21.5286 51.75 21.6953C52.0625 21.862 52.4349 21.9453 52.8672 21.9453C53.3932 21.9453 53.8203 21.862 54.1484 21.6953C54.4818 21.5286 54.7344 21.2839 54.9062 20.9609C55.0833 20.638 55.1953 20.237 55.2422 19.7578ZM58.5312 19.3594V19.1953C58.5312 18.5755 58.6198 18.0052 58.7969 17.4844C58.974 16.9583 59.2318 16.5026 59.5703 16.1172C59.9089 15.7318 60.3229 15.4323 60.8125 15.2188C61.3021 15 61.8594 14.8906 62.4844 14.8906C63.1198 14.8906 63.6823 15 64.1719 15.2188C64.6667 15.4323 65.0833 15.7318 65.4219 16.1172C65.7604 16.5026 66.0182 16.9583 66.1953 17.4844C66.3724 18.0052 66.4609 18.5755 66.4609 19.1953V19.3594C66.4609 19.974 66.3724 20.5443 66.1953 21.0703C66.0182 21.5911 65.7604 22.0469 65.4219 22.4375C65.0833 22.8229 64.6693 23.1224 64.1797 23.3359C63.6901 23.5495 63.1302 23.6562 62.5 23.6562C61.875 23.6562 61.3151 23.5495 60.8203 23.3359C60.3255 23.1224 59.9089 22.8229 59.5703 22.4375C59.2318 22.0469 58.974 21.5911 58.7969 21.0703C58.6198 20.5443 58.5312 19.974 58.5312 19.3594ZM60.5938 19.1953V19.3594C60.5938 19.7292 60.6302 20.0755 60.7031 20.3984C60.776 20.7214 60.888 21.0052 61.0391 21.25C61.1901 21.4948 61.3854 21.6875 61.625 21.8281C61.8698 21.9635 62.1615 22.0312 62.5 22.0312C62.8333 22.0312 63.1198 21.9635 63.3594 21.8281C63.599 21.6875 63.7943 21.4948 63.9453 21.25C64.1016 21.0052 64.2161 20.7214 64.2891 20.3984C64.362 20.0755 64.3984 19.7292 64.3984 19.3594V19.1953C64.3984 18.8307 64.362 18.4896 64.2891 18.1719C64.2161 17.849 64.1016 17.5651 63.9453 17.3203C63.7943 17.0703 63.5964 16.875 63.3516 16.7344C63.112 16.5885 62.8229 16.5156 62.4844 16.5156C62.151 16.5156 61.8646 16.5885 61.625 16.7344C61.3854 16.875 61.1901 17.0703 61.0391 17.3203C60.888 17.5651 60.776 17.849 60.7031 18.1719C60.6302 18.4896 60.5938 18.8307 60.5938 19.1953ZM69.9844 16.8516V23.5H67.9219V15.0469H69.8594L69.9844 16.8516ZM69.6562 18.9688H69.0469C69.0521 18.3542 69.1354 17.7969 69.2969 17.2969C69.4583 16.7969 69.6849 16.3672 69.9766 16.0078C70.2734 15.6484 70.625 15.3724 71.0312 15.1797C71.4375 14.987 71.8906 14.8906 72.3906 14.8906C72.7969 14.8906 73.1641 14.9479 73.4922 15.0625C73.8203 15.1771 74.1016 15.3594 74.3359 15.6094C74.5755 15.8594 74.7578 16.1875 74.8828 16.5938C75.013 16.9948 75.0781 17.4896 75.0781 18.0781V23.5H73V18.0625C73 17.6771 72.9427 17.3724 72.8281 17.1484C72.7188 16.9245 72.5573 16.7656 72.3438 16.6719C72.1354 16.5781 71.8776 16.5312 71.5703 16.5312C71.2526 16.5312 70.974 16.5964 70.7344 16.7266C70.5 16.8516 70.3021 17.026 70.1406 17.25C69.9844 17.474 69.8646 17.7318 69.7812 18.0234C69.6979 18.3151 69.6562 18.6302 69.6562 18.9688ZM78.9219 16.8516V23.5H76.8594V15.0469H78.7969L78.9219 16.8516ZM78.5938 18.9688H77.9844C77.9896 18.3542 78.0729 17.7969 78.2344 17.2969C78.3958 16.7969 78.6224 16.3672 78.9141 16.0078C79.2109 15.6484 79.5625 15.3724 79.9688 15.1797C80.375 14.987 80.8281 14.8906 81.3281 14.8906C81.7344 14.8906 82.1016 14.9479 82.4297 15.0625C82.7578 15.1771 83.0391 15.3594 83.2734 15.6094C83.513 15.8594 83.6953 16.1875 83.8203 16.5938C83.9505 16.9948 84.0156 17.4896 84.0156 18.0781V23.5H81.9375V18.0625C81.9375 17.6771 81.8802 17.3724 81.7656 17.1484C81.6562 16.9245 81.4948 16.7656 81.2812 16.6719C81.0729 16.5781 80.8151 16.5312 80.5078 16.5312C80.1901 16.5312 79.9115 16.5964 79.6719 16.7266C79.4375 16.8516 79.2396 17.026 79.0781 17.25C78.9219 17.474 78.8021 17.7318 78.7188 18.0234C78.6354 18.3151 78.5938 18.6302 78.5938 18.9688ZM89.6328 23.6562C88.9922 23.6562 88.4167 23.5521 87.9062 23.3438C87.3958 23.1354 86.9609 22.8464 86.6016 22.4766C86.2474 22.1016 85.974 21.6667 85.7812 21.1719C85.5938 20.6719 85.5 20.1354 85.5 19.5625V19.25C85.5 18.599 85.5938 18.0078 85.7812 17.4766C85.9688 16.9401 86.2344 16.4792 86.5781 16.0938C86.9219 15.7083 87.3333 15.4115 87.8125 15.2031C88.2917 14.9948 88.8203 14.8906 89.3984 14.8906C89.9974 14.8906 90.526 14.9922 90.9844 15.1953C91.4427 15.3932 91.8255 15.6745 92.1328 16.0391C92.4401 16.4036 92.6719 16.8411 92.8281 17.3516C92.9844 17.8568 93.0625 18.4167 93.0625 19.0312V19.8984H86.4375V18.4766H91.0312V18.3203C91.0208 17.9922 90.9583 17.6927 90.8438 17.4219C90.7292 17.1458 90.5521 16.9271 90.3125 16.7656C90.0729 16.599 89.763 16.5156 89.3828 16.5156C89.0755 16.5156 88.8073 16.5833 88.5781 16.7188C88.3542 16.849 88.1667 17.0365 88.0156 17.2812C87.8698 17.5208 87.7604 17.8073 87.6875 18.1406C87.6146 18.474 87.5781 18.8438 87.5781 19.25V19.5625C87.5781 19.9167 87.625 20.2448 87.7188 20.5469C87.8177 20.849 87.9609 21.112 88.1484 21.3359C88.3411 21.5547 88.5703 21.7266 88.8359 21.8516C89.1068 21.9714 89.4141 22.0312 89.7578 22.0312C90.1901 22.0312 90.5807 21.9479 90.9297 21.7812C91.2839 21.6094 91.5911 21.3568 91.8516 21.0234L92.8906 22.1016C92.7135 22.362 92.474 22.612 92.1719 22.8516C91.875 23.0911 91.5156 23.2865 91.0938 23.4375C90.6719 23.5833 90.1849 23.6562 89.6328 23.6562ZM97.9141 22.0312C98.2057 22.0312 98.4661 21.974 98.6953 21.8594C98.9245 21.7448 99.1068 21.5833 99.2422 21.375C99.3828 21.1667 99.4583 20.9245 99.4688 20.6484H101.414C101.404 21.2214 101.242 21.7344 100.93 22.1875C100.617 22.6406 100.201 23 99.6797 23.2656C99.1641 23.526 98.5859 23.6562 97.9453 23.6562C97.2943 23.6562 96.7266 23.5469 96.2422 23.3281C95.7578 23.1094 95.3542 22.8047 95.0312 22.4141C94.7135 22.0234 94.474 21.5703 94.3125 21.0547C94.1562 20.5391 94.0781 19.987 94.0781 19.3984V19.1484C94.0781 18.5599 94.1562 18.0078 94.3125 17.4922C94.474 16.9766 94.7135 16.5234 95.0312 16.1328C95.3542 15.7422 95.7578 15.4375 96.2422 15.2188C96.7266 15 97.2917 14.8906 97.9375 14.8906C98.6198 14.8906 99.2188 15.0234 99.7344 15.2891C100.255 15.5547 100.661 15.9297 100.953 16.4141C101.25 16.8984 101.404 17.4688 101.414 18.125H99.4688C99.4583 17.8229 99.3906 17.5521 99.2656 17.3125C99.1406 17.0729 98.9635 16.8802 98.7344 16.7344C98.5052 16.5885 98.2266 16.5156 97.8984 16.5156C97.5495 16.5156 97.2578 16.5885 97.0234 16.7344C96.7943 16.8802 96.6146 17.0807 96.4844 17.3359C96.3594 17.5859 96.2708 17.8672 96.2188 18.1797C96.1719 18.487 96.1484 18.8099 96.1484 19.1484V19.3984C96.1484 19.7422 96.1719 20.0703 96.2188 20.3828C96.2708 20.6953 96.3594 20.9766 96.4844 21.2266C96.6146 21.4714 96.7943 21.6667 97.0234 21.8125C97.2578 21.9583 97.5547 22.0312 97.9141 22.0312ZM106.789 15.0469V16.5312H101.945V15.0469H106.789ZM103.242 12.9688H105.312V21.0625C105.312 21.3125 105.346 21.5052 105.414 21.6406C105.482 21.776 105.583 21.8672 105.719 21.9141C105.854 21.9609 106.016 21.9844 106.203 21.9844C106.339 21.9844 106.464 21.9766 106.578 21.9609C106.693 21.9453 106.789 21.9297 106.867 21.9141L106.875 23.4609C106.703 23.5182 106.508 23.5651 106.289 23.6016C106.076 23.638 105.833 23.6562 105.562 23.6562C105.099 23.6562 104.693 23.5781 104.344 23.4219C103.995 23.2604 103.724 23.0026 103.531 22.6484C103.339 22.2891 103.242 21.8151 103.242 21.2266V12.9688ZM111.961 23.6562C111.32 23.6562 110.745 23.5521 110.234 23.3438C109.724 23.1354 109.289 22.8464 108.93 22.4766C108.576 22.1016 108.302 21.6667 108.109 21.1719C107.922 20.6719 107.828 20.1354 107.828 19.5625V19.25C107.828 18.599 107.922 18.0078 108.109 17.4766C108.297 16.9401 108.562 16.4792 108.906 16.0938C109.25 15.7083 109.661 15.4115 110.141 15.2031C110.62 14.9948 111.148 14.8906 111.727 14.8906C112.326 14.8906 112.854 14.9922 113.312 15.1953C113.771 15.3932 114.154 15.6745 114.461 16.0391C114.768 16.4036 115 16.8411 115.156 17.3516C115.312 17.8568 115.391 18.4167 115.391 19.0312V19.8984H108.766V18.4766H113.359V18.3203C113.349 17.9922 113.286 17.6927 113.172 17.4219C113.057 17.1458 112.88 16.9271 112.641 16.7656C112.401 16.599 112.091 16.5156 111.711 16.5156C111.404 16.5156 111.135 16.5833 110.906 16.7188C110.682 16.849 110.495 17.0365 110.344 17.2812C110.198 17.5208 110.089 17.8073 110.016 18.1406C109.943 18.474 109.906 18.8438 109.906 19.25V19.5625C109.906 19.9167 109.953 20.2448 110.047 20.5469C110.146 20.849 110.289 21.112 110.477 21.3359C110.669 21.5547 110.898 21.7266 111.164 21.8516C111.435 21.9714 111.742 22.0312 112.086 22.0312C112.518 22.0312 112.909 21.9479 113.258 21.7812C113.612 21.6094 113.919 21.3568 114.18 21.0234L115.219 22.1016C115.042 22.362 114.802 22.612 114.5 22.8516C114.203 23.0911 113.844 23.2865 113.422 23.4375C113 23.5833 112.513 23.6562 111.961 23.6562ZM121.844 21.7031V11.5H123.922V23.5H122.047L121.844 21.7031ZM116.414 19.375V19.2109C116.414 18.5651 116.487 17.9792 116.633 17.4531C116.784 16.9219 117.003 16.4661 117.289 16.0859C117.576 15.7057 117.922 15.4115 118.328 15.2031C118.74 14.9948 119.206 14.8906 119.727 14.8906C120.232 14.8906 120.672 14.9922 121.047 15.1953C121.427 15.3984 121.75 15.6875 122.016 16.0625C122.286 16.4375 122.503 16.8828 122.664 17.3984C122.826 17.9089 122.943 18.4714 123.016 19.0859V19.5312C122.943 20.1302 122.826 20.6797 122.664 21.1797C122.503 21.6797 122.286 22.1172 122.016 22.4922C121.75 22.862 121.427 23.1484 121.047 23.3516C120.667 23.5547 120.221 23.6562 119.711 23.6562C119.195 23.6562 118.732 23.5495 118.32 23.3359C117.914 23.1224 117.568 22.8229 117.281 22.4375C117 22.0521 116.784 21.599 116.633 21.0781C116.487 20.5573 116.414 19.9896 116.414 19.375ZM118.484 19.2109V19.375C118.484 19.7396 118.516 20.0807 118.578 20.3984C118.641 20.7161 118.742 20.9974 118.883 21.2422C119.023 21.4818 119.203 21.6693 119.422 21.8047C119.646 21.9401 119.917 22.0078 120.234 22.0078C120.641 22.0078 120.974 21.9193 121.234 21.7422C121.5 21.5599 121.706 21.3125 121.852 21C121.997 20.6823 122.091 20.3255 122.133 19.9297V18.7031C122.112 18.3906 122.057 18.1016 121.969 17.8359C121.885 17.5703 121.766 17.3411 121.609 17.1484C121.458 16.9557 121.271 16.8047 121.047 16.6953C120.823 16.5859 120.557 16.5312 120.25 16.5312C119.932 16.5312 119.661 16.6016 119.438 16.7422C119.214 16.8776 119.031 17.0677 118.891 17.3125C118.75 17.5573 118.646 17.8411 118.578 18.1641C118.516 18.487 118.484 18.8359 118.484 19.2109ZM133.773 15.0469V16.5312H128.93V15.0469H133.773ZM130.227 12.9688H132.297V21.0625C132.297 21.3125 132.331 21.5052 132.398 21.6406C132.466 21.776 132.568 21.8672 132.703 21.9141C132.839 21.9609 133 21.9844 133.188 21.9844C133.323 21.9844 133.448 21.9766 133.562 21.9609C133.677 21.9453 133.773 21.9297 133.852 21.9141L133.859 23.4609C133.688 23.5182 133.492 23.5651 133.273 23.6016C133.06 23.638 132.818 23.6562 132.547 23.6562C132.083 23.6562 131.677 23.5781 131.328 23.4219C130.979 23.2604 130.708 23.0026 130.516 22.6484C130.323 22.2891 130.227 21.8151 130.227 21.2266V12.9688ZM134.578 19.3594V19.1953C134.578 18.5755 134.667 18.0052 134.844 17.4844C135.021 16.9583 135.279 16.5026 135.617 16.1172C135.956 15.7318 136.37 15.4323 136.859 15.2188C137.349 15 137.906 14.8906 138.531 14.8906C139.167 14.8906 139.729 15 140.219 15.2188C140.714 15.4323 141.13 15.7318 141.469 16.1172C141.807 16.5026 142.065 16.9583 142.242 17.4844C142.419 18.0052 142.508 18.5755 142.508 19.1953V19.3594C142.508 19.974 142.419 20.5443 142.242 21.0703C142.065 21.5911 141.807 22.0469 141.469 22.4375C141.13 22.8229 140.716 23.1224 140.227 23.3359C139.737 23.5495 139.177 23.6562 138.547 23.6562C137.922 23.6562 137.362 23.5495 136.867 23.3359C136.372 23.1224 135.956 22.8229 135.617 22.4375C135.279 22.0469 135.021 21.5911 134.844 21.0703C134.667 20.5443 134.578 19.974 134.578 19.3594ZM136.641 19.1953V19.3594C136.641 19.7292 136.677 20.0755 136.75 20.3984C136.823 20.7214 136.935 21.0052 137.086 21.25C137.237 21.4948 137.432 21.6875 137.672 21.8281C137.917 21.9635 138.208 22.0312 138.547 22.0312C138.88 22.0312 139.167 21.9635 139.406 21.8281C139.646 21.6875 139.841 21.4948 139.992 21.25C140.148 21.0052 140.263 20.7214 140.336 20.3984C140.409 20.0755 140.445 19.7292 140.445 19.3594V19.1953C140.445 18.8307 140.409 18.4896 140.336 18.1719C140.263 17.849 140.148 17.5651 139.992 17.3203C139.841 17.0703 139.643 16.875 139.398 16.7344C139.159 16.5885 138.87 16.5156 138.531 16.5156C138.198 16.5156 137.911 16.5885 137.672 16.7344C137.432 16.875 137.237 17.0703 137.086 17.3203C136.935 17.5651 136.823 17.849 136.75 18.1719C136.677 18.4896 136.641 18.8307 136.641 19.1953ZM151.547 23.5H149.094L149.109 21.8125H151.547C152.208 21.8125 152.763 21.6667 153.211 21.375C153.659 21.0781 153.997 20.6536 154.227 20.1016C154.456 19.5443 154.57 18.8776 154.57 18.1016V17.5156C154.57 16.9167 154.505 16.388 154.375 15.9297C154.245 15.4714 154.052 15.0859 153.797 14.7734C153.547 14.4609 153.237 14.224 152.867 14.0625C152.497 13.901 152.073 13.8203 151.594 13.8203H149.047V12.125H151.594C152.354 12.125 153.047 12.2526 153.672 12.5078C154.302 12.763 154.846 13.1302 155.305 13.6094C155.768 14.0833 156.122 14.651 156.367 15.3125C156.617 15.974 156.742 16.7135 156.742 17.5312V18.1016C156.742 18.9141 156.617 19.6536 156.367 20.3203C156.122 20.9818 155.768 21.5495 155.305 22.0234C154.846 22.4974 154.299 22.862 153.664 23.1172C153.029 23.3724 152.323 23.5 151.547 23.5ZM150.297 12.125V23.5H148.148V12.125H150.297ZM163.07 21.7031V17.8047C163.07 17.5182 163.021 17.2708 162.922 17.0625C162.823 16.8542 162.672 16.6927 162.469 16.5781C162.266 16.4635 162.008 16.4062 161.695 16.4062C161.419 16.4062 161.177 16.4531 160.969 16.5469C160.766 16.6406 160.609 16.7734 160.5 16.9453C160.391 17.112 160.336 17.3047 160.336 17.5234H158.266C158.266 17.1745 158.349 16.8438 158.516 16.5312C158.682 16.2135 158.919 15.9323 159.227 15.6875C159.539 15.4375 159.911 15.2422 160.344 15.1016C160.781 14.9609 161.271 14.8906 161.812 14.8906C162.453 14.8906 163.023 15 163.523 15.2188C164.029 15.4323 164.424 15.7552 164.711 16.1875C165.003 16.6198 165.148 17.1641 165.148 17.8203V21.5078C165.148 21.9297 165.174 22.2917 165.227 22.5938C165.284 22.8906 165.367 23.1484 165.477 23.3672V23.5H163.375C163.276 23.2865 163.201 23.0156 163.148 22.6875C163.096 22.3542 163.07 22.026 163.07 21.7031ZM163.359 18.3516L163.375 19.5781H162.07C161.747 19.5781 161.464 19.612 161.219 19.6797C160.974 19.7422 160.773 19.8359 160.617 19.9609C160.461 20.0807 160.344 20.2266 160.266 20.3984C160.188 20.5651 160.148 20.7552 160.148 20.9688C160.148 21.1771 160.195 21.3646 160.289 21.5312C160.388 21.6979 160.529 21.8307 160.711 21.9297C160.898 22.0234 161.117 22.0703 161.367 22.0703C161.732 22.0703 162.049 21.9974 162.32 21.8516C162.591 21.7005 162.802 21.5182 162.953 21.3047C163.104 21.0911 163.185 20.888 163.195 20.6953L163.789 21.5859C163.716 21.7995 163.607 22.026 163.461 22.2656C163.315 22.5052 163.128 22.7292 162.898 22.9375C162.669 23.1458 162.393 23.3177 162.07 23.4531C161.747 23.5885 161.372 23.6562 160.945 23.6562C160.398 23.6562 159.909 23.5469 159.477 23.3281C159.044 23.1094 158.703 22.8099 158.453 22.4297C158.203 22.0495 158.078 21.6172 158.078 21.1328C158.078 20.6849 158.161 20.2891 158.328 19.9453C158.495 19.6016 158.742 19.3125 159.07 19.0781C159.398 18.8385 159.805 18.6589 160.289 18.5391C160.779 18.4141 161.339 18.3516 161.969 18.3516H163.359ZM171.008 15.0469V16.5312H166.164V15.0469H171.008ZM167.461 12.9688H169.531V21.0625C169.531 21.3125 169.565 21.5052 169.633 21.6406C169.701 21.776 169.802 21.8672 169.938 21.9141C170.073 21.9609 170.234 21.9844 170.422 21.9844C170.557 21.9844 170.682 21.9766 170.797 21.9609C170.911 21.9453 171.008 21.9297 171.086 21.9141L171.094 23.4609C170.922 23.5182 170.727 23.5651 170.508 23.6016C170.294 23.638 170.052 23.6562 169.781 23.6562C169.318 23.6562 168.911 23.5781 168.562 23.4219C168.214 23.2604 167.943 23.0026 167.75 22.6484C167.557 22.2891 167.461 21.8151 167.461 21.2266V12.9688ZM177.039 21.7031V17.8047C177.039 17.5182 176.99 17.2708 176.891 17.0625C176.792 16.8542 176.641 16.6927 176.438 16.5781C176.234 16.4635 175.977 16.4062 175.664 16.4062C175.388 16.4062 175.146 16.4531 174.938 16.5469C174.734 16.6406 174.578 16.7734 174.469 16.9453C174.359 17.112 174.305 17.3047 174.305 17.5234H172.234C172.234 17.1745 172.318 16.8438 172.484 16.5312C172.651 16.2135 172.888 15.9323 173.195 15.6875C173.508 15.4375 173.88 15.2422 174.312 15.1016C174.75 14.9609 175.24 14.8906 175.781 14.8906C176.422 14.8906 176.992 15 177.492 15.2188C177.997 15.4323 178.393 15.7552 178.68 16.1875C178.971 16.6198 179.117 17.1641 179.117 17.8203V21.5078C179.117 21.9297 179.143 22.2917 179.195 22.5938C179.253 22.8906 179.336 23.1484 179.445 23.3672V23.5H177.344C177.245 23.2865 177.169 23.0156 177.117 22.6875C177.065 22.3542 177.039 22.026 177.039 21.7031ZM177.328 18.3516L177.344 19.5781H176.039C175.716 19.5781 175.432 19.612 175.188 19.6797C174.943 19.7422 174.742 19.8359 174.586 19.9609C174.43 20.0807 174.312 20.2266 174.234 20.3984C174.156 20.5651 174.117 20.7552 174.117 20.9688C174.117 21.1771 174.164 21.3646 174.258 21.5312C174.357 21.6979 174.497 21.8307 174.68 21.9297C174.867 22.0234 175.086 22.0703 175.336 22.0703C175.701 22.0703 176.018 21.9974 176.289 21.8516C176.56 21.7005 176.771 21.5182 176.922 21.3047C177.073 21.0911 177.154 20.888 177.164 20.6953L177.758 21.5859C177.685 21.7995 177.576 22.026 177.43 22.2656C177.284 22.5052 177.096 22.7292 176.867 22.9375C176.638 23.1458 176.362 23.3177 176.039 23.4531C175.716 23.5885 175.341 23.6562 174.914 23.6562C174.367 23.6562 173.878 23.5469 173.445 23.3281C173.013 23.1094 172.672 22.8099 172.422 22.4297C172.172 22.0495 172.047 21.6172 172.047 21.1328C172.047 20.6849 172.13 20.2891 172.297 19.9453C172.464 19.6016 172.711 19.3125 173.039 19.0781C173.367 18.8385 173.773 18.6589 174.258 18.5391C174.747 18.4141 175.307 18.3516 175.938 18.3516H177.328ZM180.969 11.5H183.039V21.6328L182.836 23.5H180.969V11.5ZM188.477 19.1875V19.3516C188.477 19.9818 188.406 20.5599 188.266 21.0859C188.13 21.612 187.924 22.0677 187.648 22.4531C187.372 22.8333 187.029 23.1302 186.617 23.3438C186.211 23.5521 185.734 23.6562 185.188 23.6562C184.667 23.6562 184.214 23.5547 183.828 23.3516C183.448 23.1484 183.128 22.862 182.867 22.4922C182.607 22.1172 182.398 21.6771 182.242 21.1719C182.086 20.6615 181.969 20.1042 181.891 19.5V19.0547C181.969 18.4453 182.086 17.888 182.242 17.3828C182.398 16.8776 182.607 16.4375 182.867 16.0625C183.128 15.6875 183.448 15.3984 183.828 15.1953C184.208 14.9922 184.656 14.8906 185.172 14.8906C185.724 14.8906 186.206 14.9974 186.617 15.2109C187.034 15.4193 187.378 15.7161 187.648 16.1016C187.924 16.4818 188.13 16.9349 188.266 17.4609C188.406 17.9818 188.477 18.5573 188.477 19.1875ZM186.406 19.3516V19.1875C186.406 18.8281 186.378 18.4896 186.32 18.1719C186.263 17.849 186.169 17.5651 186.039 17.3203C185.909 17.0755 185.732 16.8828 185.508 16.7422C185.284 16.6016 185.003 16.5312 184.664 16.5312C184.341 16.5312 184.065 16.5859 183.836 16.6953C183.612 16.8047 183.424 16.9557 183.273 17.1484C183.128 17.3411 183.013 17.5677 182.93 17.8281C182.852 18.0885 182.799 18.3698 182.773 18.6719V19.8906C182.81 20.2917 182.896 20.6536 183.031 20.9766C183.167 21.2943 183.367 21.5469 183.633 21.7344C183.904 21.9219 184.253 22.0156 184.68 22.0156C185.013 22.0156 185.292 21.9505 185.516 21.8203C185.74 21.6849 185.917 21.4974 186.047 21.2578C186.177 21.013 186.268 20.7292 186.32 20.4062C186.378 20.0833 186.406 19.7318 186.406 19.3516ZM194.633 21.7031V17.8047C194.633 17.5182 194.583 17.2708 194.484 17.0625C194.385 16.8542 194.234 16.6927 194.031 16.5781C193.828 16.4635 193.57 16.4062 193.258 16.4062C192.982 16.4062 192.74 16.4531 192.531 16.5469C192.328 16.6406 192.172 16.7734 192.062 16.9453C191.953 17.112 191.898 17.3047 191.898 17.5234H189.828C189.828 17.1745 189.911 16.8438 190.078 16.5312C190.245 16.2135 190.482 15.9323 190.789 15.6875C191.102 15.4375 191.474 15.2422 191.906 15.1016C192.344 14.9609 192.833 14.8906 193.375 14.8906C194.016 14.8906 194.586 15 195.086 15.2188C195.591 15.4323 195.987 15.7552 196.273 16.1875C196.565 16.6198 196.711 17.1641 196.711 17.8203V21.5078C196.711 21.9297 196.737 22.2917 196.789 22.5938C196.846 22.8906 196.93 23.1484 197.039 23.3672V23.5H194.938C194.839 23.2865 194.763 23.0156 194.711 22.6875C194.659 22.3542 194.633 22.026 194.633 21.7031ZM194.922 18.3516L194.938 19.5781H193.633C193.31 19.5781 193.026 19.612 192.781 19.6797C192.536 19.7422 192.336 19.8359 192.18 19.9609C192.023 20.0807 191.906 20.2266 191.828 20.3984C191.75 20.5651 191.711 20.7552 191.711 20.9688C191.711 21.1771 191.758 21.3646 191.852 21.5312C191.951 21.6979 192.091 21.8307 192.273 21.9297C192.461 22.0234 192.68 22.0703 192.93 22.0703C193.294 22.0703 193.612 21.9974 193.883 21.8516C194.154 21.7005 194.365 21.5182 194.516 21.3047C194.667 21.0911 194.747 20.888 194.758 20.6953L195.352 21.5859C195.279 21.7995 195.169 22.026 195.023 22.2656C194.878 22.5052 194.69 22.7292 194.461 22.9375C194.232 23.1458 193.956 23.3177 193.633 23.4531C193.31 23.5885 192.935 23.6562 192.508 23.6562C191.961 23.6562 191.471 23.5469 191.039 23.3281C190.607 23.1094 190.266 22.8099 190.016 22.4297C189.766 22.0495 189.641 21.6172 189.641 21.1328C189.641 20.6849 189.724 20.2891 189.891 19.9453C190.057 19.6016 190.305 19.3125 190.633 19.0781C190.961 18.8385 191.367 18.6589 191.852 18.5391C192.341 18.4141 192.901 18.3516 193.531 18.3516H194.922ZM203.219 21.1875C203.219 21.0104 203.172 20.8516 203.078 20.7109C202.984 20.5703 202.807 20.4427 202.547 20.3281C202.292 20.2083 201.917 20.0964 201.422 19.9922C200.984 19.8984 200.581 19.7812 200.211 19.6406C199.841 19.5 199.523 19.3307 199.258 19.1328C198.992 18.9297 198.784 18.6927 198.633 18.4219C198.487 18.1458 198.414 17.8281 198.414 17.4688C198.414 17.1198 198.49 16.7917 198.641 16.4844C198.792 16.1719 199.01 15.8984 199.297 15.6641C199.583 15.4245 199.932 15.237 200.344 15.1016C200.755 14.9609 201.219 14.8906 201.734 14.8906C202.453 14.8906 203.07 15.0078 203.586 15.2422C204.107 15.4766 204.505 15.7995 204.781 16.2109C205.057 16.6172 205.195 17.0755 205.195 17.5859H203.133C203.133 17.362 203.081 17.1589 202.977 16.9766C202.878 16.7943 202.724 16.6484 202.516 16.5391C202.307 16.4245 202.044 16.3672 201.727 16.3672C201.44 16.3672 201.198 16.4141 201 16.5078C200.807 16.6016 200.661 16.724 200.562 16.875C200.464 17.026 200.414 17.1927 200.414 17.375C200.414 17.5104 200.44 17.6328 200.492 17.7422C200.549 17.8464 200.641 17.9427 200.766 18.0312C200.891 18.1198 201.06 18.2005 201.273 18.2734C201.492 18.3464 201.76 18.4167 202.078 18.4844C202.708 18.6094 203.258 18.776 203.727 18.9844C204.201 19.1875 204.57 19.4583 204.836 19.7969C205.102 20.1354 205.234 20.5677 205.234 21.0938C205.234 21.4688 205.154 21.8125 204.992 22.125C204.831 22.4323 204.596 22.7005 204.289 22.9297C203.982 23.1589 203.615 23.3385 203.188 23.4688C202.76 23.5938 202.279 23.6562 201.742 23.6562C200.966 23.6562 200.31 23.5182 199.773 23.2422C199.237 22.9609 198.831 22.6068 198.555 22.1797C198.279 21.7474 198.141 21.2995 198.141 20.8359H200.117C200.133 21.1641 200.221 21.4271 200.383 21.625C200.544 21.8229 200.747 21.9661 200.992 22.0547C201.242 22.138 201.505 22.1797 201.781 22.1797C202.094 22.1797 202.357 22.138 202.57 22.0547C202.784 21.9661 202.945 21.849 203.055 21.7031C203.164 21.5521 203.219 21.3802 203.219 21.1875ZM210.602 23.6562C209.961 23.6562 209.385 23.5521 208.875 23.3438C208.365 23.1354 207.93 22.8464 207.57 22.4766C207.216 22.1016 206.943 21.6667 206.75 21.1719C206.562 20.6719 206.469 20.1354 206.469 19.5625V19.25C206.469 18.599 206.562 18.0078 206.75 17.4766C206.938 16.9401 207.203 16.4792 207.547 16.0938C207.891 15.7083 208.302 15.4115 208.781 15.2031C209.26 14.9948 209.789 14.8906 210.367 14.8906C210.966 14.8906 211.495 14.9922 211.953 15.1953C212.411 15.3932 212.794 15.6745 213.102 16.0391C213.409 16.4036 213.641 16.8411 213.797 17.3516C213.953 17.8568 214.031 18.4167 214.031 19.0312V19.8984H207.406V18.4766H212V18.3203C211.99 17.9922 211.927 17.6927 211.812 17.4219C211.698 17.1458 211.521 16.9271 211.281 16.7656C211.042 16.599 210.732 16.5156 210.352 16.5156C210.044 16.5156 209.776 16.5833 209.547 16.7188C209.323 16.849 209.135 17.0365 208.984 17.2812C208.839 17.5208 208.729 17.8073 208.656 18.1406C208.583 18.474 208.547 18.8438 208.547 19.25V19.5625C208.547 19.9167 208.594 20.2448 208.688 20.5469C208.786 20.849 208.93 21.112 209.117 21.3359C209.31 21.5547 209.539 21.7266 209.805 21.8516C210.076 21.9714 210.383 22.0312 210.727 22.0312C211.159 22.0312 211.549 21.9479 211.898 21.7812C212.253 21.6094 212.56 21.3568 212.82 21.0234L213.859 22.1016C213.682 22.362 213.443 22.612 213.141 22.8516C212.844 23.0911 212.484 23.2865 212.062 23.4375C211.641 23.5833 211.154 23.6562 210.602 23.6562Z" fill="#34C759"/>
<defs>
<clipPath id="clip0_354_1686">
<rect width="18" height="18" fill="white" transform="translate(12.5 9)"/>
</clipPath>
</defs>
</svg>
