<svg width="16" height="16" viewBox="0 0 16 16" fill="none" xmlns="http://www.w3.org/2000/svg">
<path d="M10.56 14.8332H5.43998C4.92772 14.8258 4.43715 14.6253 4.06634 14.2718C3.69554 13.9183 3.47184 13.4378 3.43998 12.9265L2.83331 3.69984C2.8302 3.63294 2.84038 3.56609 2.86327 3.50316C2.88615 3.44022 2.92129 3.38244 2.96664 3.33317C3.01337 3.28211 3.06994 3.24102 3.13295 3.21238C3.19596 3.18373 3.26411 3.16813 3.33331 3.16651H12.6666C12.7352 3.16635 12.8031 3.1803 12.866 3.20749C12.929 3.23467 12.9856 3.27451 13.0325 3.32453C13.0794 3.37455 13.1155 3.43368 13.1386 3.49825C13.1617 3.56281 13.1712 3.63143 13.1666 3.69984L12.5866 12.9265C12.5544 13.4424 12.327 13.9266 11.9505 14.2808C11.5741 14.635 11.0769 14.8325 10.56 14.8332ZM3.89331 4.16651L4.40664 12.8665C4.4236 13.1288 4.53992 13.3749 4.7319 13.5545C4.92388 13.734 5.17709 13.8337 5.43998 13.8332H10.56C10.8224 13.8321 11.0747 13.7319 11.2664 13.5527C11.458 13.3734 11.5748 13.1283 11.5933 12.8665L12.1333 4.19984L3.89331 4.16651Z" fill="#B3261E"/>
<path d="M14 4.1665H2C1.86739 4.1665 1.74021 4.11383 1.64645 4.02006C1.55268 3.92629 1.5 3.79911 1.5 3.6665C1.5 3.5339 1.55268 3.40672 1.64645 3.31295C1.74021 3.21918 1.86739 3.1665 2 3.1665H14C14.1326 3.1665 14.2598 3.21918 14.3536 3.31295C14.4473 3.40672 14.5 3.5339 14.5 3.6665C14.5 3.79911 14.4473 3.92629 14.3536 4.02006C14.2598 4.11383 14.1326 4.1665 14 4.1665Z" fill="#B3261E"/>
<path d="M10 4.1665H6C5.86793 4.16478 5.74175 4.11154 5.64836 4.01815C5.55496 3.92475 5.50173 3.79858 5.5 3.6665V2.4665C5.50845 2.12438 5.64813 1.79861 5.89012 1.55662C6.13211 1.31463 6.45788 1.17496 6.8 1.1665H9.2C9.54781 1.1752 9.87845 1.31951 10.1213 1.56862C10.3642 1.81773 10.5001 2.15192 10.5 2.49984V3.6665C10.4983 3.79858 10.445 3.92475 10.3516 4.01815C10.2582 4.11154 10.1321 4.16478 10 4.1665ZM6.5 3.1665H9.5V2.49984C9.5 2.42027 9.46839 2.34397 9.41213 2.28771C9.35587 2.23144 9.27957 2.19984 9.2 2.19984H6.8C6.72043 2.19984 6.64413 2.23144 6.58787 2.28771C6.53161 2.34397 6.5 2.42027 6.5 2.49984V3.1665Z" fill="#B3261E"/>
<path d="M10 12.1668C9.86793 12.1651 9.74175 12.1119 9.64836 12.0185C9.55496 11.9251 9.50173 11.7989 9.5 11.6668V6.3335C9.5 6.20089 9.55268 6.07371 9.64645 5.97994C9.74022 5.88617 9.86739 5.8335 10 5.8335C10.1326 5.8335 10.2598 5.88617 10.3536 5.97994C10.4473 6.07371 10.5 6.20089 10.5 6.3335V11.6668C10.4983 11.7989 10.445 11.9251 10.3516 12.0185C10.2582 12.1119 10.1321 12.1651 10 12.1668Z" fill="#B3261E"/>
<path d="M6 12.1668C5.86793 12.1651 5.74175 12.1119 5.64836 12.0185C5.55496 11.9251 5.50173 11.7989 5.5 11.6668V6.3335C5.5 6.20089 5.55268 6.07371 5.64645 5.97994C5.74022 5.88617 5.86739 5.8335 6 5.8335C6.13261 5.8335 6.25978 5.88617 6.35355 5.97994C6.44732 6.07371 6.5 6.20089 6.5 6.3335V11.6668C6.49827 11.7989 6.44504 11.9251 6.35164 12.0185C6.25825 12.1119 6.13207 12.1651 6 12.1668Z" fill="#B3261E"/>
<path d="M8 12.1668C7.86793 12.1651 7.74175 12.1119 7.64836 12.0185C7.55496 11.9251 7.50173 11.7989 7.5 11.6668V6.3335C7.5 6.20089 7.55268 6.07371 7.64645 5.97994C7.74022 5.88617 7.86739 5.8335 8 5.8335C8.13261 5.8335 8.25978 5.88617 8.35355 5.97994C8.44732 6.07371 8.5 6.20089 8.5 6.3335V11.6668C8.49827 11.7989 8.44504 11.9251 8.35164 12.0185C8.25825 12.1119 8.13207 12.1651 8 12.1668Z" fill="#B3261E"/>
</svg>
