<svg width="16" height="16" viewBox="0 0 16 16" fill="none" xmlns="http://www.w3.org/2000/svg">
<path d="M7.33791 6.5434L6.70058 8.45606C6.6634 8.57335 6.65916 8.6986 6.68833 8.81813C6.71751 8.93766 6.77897 9.04687 6.86601 9.13384C6.95304 9.22081 7.06231 9.28218 7.18186 9.31126C7.30141 9.34034 7.42666 9.33601 7.54391 9.29873L9.45658 8.6614C9.55445 8.62854 9.64342 8.57356 9.71658 8.50073L14.2072 4.01006C14.5011 3.71581 14.6662 3.31694 14.6662 2.90106C14.6662 2.48519 14.5011 2.08631 14.2072 1.79206C13.9129 1.4987 13.5142 1.33398 13.0986 1.33398C12.683 1.33398 12.2843 1.4987 11.9899 1.79206L7.49925 6.2834C7.42604 6.35638 7.37081 6.44539 7.33791 6.5434Z" fill="black"/>
<path d="M13.9999 6.00016C13.8231 6.00016 13.6535 6.0704 13.5285 6.19542C13.4035 6.32045 13.3333 6.49002 13.3333 6.66683V11.3335C13.3333 11.8639 13.1225 12.3726 12.7475 12.7477C12.3724 13.1228 11.8637 13.3335 11.3333 13.3335H4.66658C4.13615 13.3335 3.62744 13.1228 3.25237 12.7477C2.8773 12.3726 2.66659 11.8639 2.66659 11.3335V4.66683C2.66659 4.1364 2.8773 3.62769 3.25237 3.25262C3.62744 2.87754 4.13615 2.66683 4.66658 2.66683H9.33325C9.51006 2.66683 9.67963 2.59659 9.80466 2.47157C9.92968 2.34654 9.99992 2.17697 9.99992 2.00016C9.99992 1.82335 9.92968 1.65378 9.80466 1.52876C9.67963 1.40373 9.51006 1.3335 9.33325 1.3335H4.66658C3.78286 1.33455 2.93562 1.68608 2.31073 2.31098C1.68584 2.93587 1.33431 3.7831 1.33325 4.66683V11.3335C1.33431 12.2172 1.68584 13.0645 2.31073 13.6893C2.93562 14.3142 3.78286 14.6658 4.66658 14.6668H11.3333C12.217 14.6658 13.0642 14.3142 13.6891 13.6893C14.314 13.0645 14.6655 12.2172 14.6666 11.3335V6.66683C14.6666 6.49002 14.5963 6.32045 14.4713 6.19542C14.3463 6.0704 14.1767 6.00016 13.9999 6.00016Z" fill="black"/>
</svg>
