<svg width="16" height="16" viewBox="0 0 16 16" fill="none" xmlns="http://www.w3.org/2000/svg">
<g clip-path="url(#clip0_236_162)">
<path fill-rule="evenodd" clip-rule="evenodd" d="M12.6002 9.52583H9.09569C9.38488 8.65808 9.53856 7.92771 9.56391 7.30496C9.62369 5.8358 8.93 5.25433 8.33756 5.02492C8.31279 5.01519 8.28701 5.00827 8.26069 5.0043C7.80166 4.93177 7.63822 5.14774 7.52994 5.3918L7.51572 5.4238C7.49986 5.45885 7.4895 5.49615 7.485 5.53436C7.33851 6.78765 6.80334 7.96364 5.95456 8.89733V15.8989C6.04924 15.9336 6.14596 15.9624 6.24416 15.9853C6.27075 15.9916 6.29794 15.9949 6.32525 15.9953C6.61863 15.9985 6.96831 16 7.37163 16C7.77394 16 8.22947 15.9984 8.735 15.9953H12.0365C12.2295 15.9954 12.4191 15.9441 12.5859 15.8468C12.7526 15.7495 12.8905 15.6097 12.9854 15.4416C13.0804 15.2736 13.129 15.0833 13.1263 14.8903C13.1235 14.6972 13.0696 14.5084 12.9699 14.3431C13.1903 14.1762 13.3389 13.9316 13.3855 13.6592C13.4321 13.3867 13.3733 13.1067 13.221 12.876C13.4348 12.6947 13.5705 12.4378 13.5996 12.159C13.6288 11.8801 13.5492 11.6008 13.3775 11.3791C13.5281 11.226 13.6301 11.0318 13.6706 10.821C13.7111 10.6101 13.6885 10.392 13.6054 10.1939C13.5223 9.99593 13.3826 9.82688 13.2038 9.70804C13.0249 9.58919 12.8149 9.52586 12.6002 9.52599V9.52583ZM5.22188 3.24027C5.19969 3.17188 5.15832 3.11131 5.1027 3.06576C5.04708 3.0202 4.97954 2.99158 4.90813 2.9833L3.88438 2.86552L3.45625 1.92889C3.4265 1.86338 3.37851 1.80783 3.31802 1.76886C3.25753 1.7299 3.18711 1.70918 3.11516 1.70918C3.04321 1.70918 2.97278 1.7299 2.91229 1.76886C2.8518 1.80783 2.80382 1.86338 2.77406 1.92889L2.34594 2.86552L1.32222 2.9833C1.2508 2.9915 1.18324 3.02005 1.12759 3.06556C1.07194 3.11107 1.03055 3.17162 1.00834 3.23999C0.986127 3.30836 0.984036 3.38168 1.00232 3.4512C1.02059 3.52073 1.05847 3.58354 1.11144 3.63214L1.87025 4.32902L1.66597 5.33892C1.65186 5.40934 1.65824 5.48232 1.68437 5.54922C1.71049 5.61611 1.75525 5.67411 1.81334 5.71633C1.87144 5.75855 1.94042 5.78322 2.01211 5.78742C2.08381 5.79161 2.1552 5.77515 2.21781 5.73999L3.11506 5.23339L4.0125 5.73999C4.0751 5.77531 4.14653 5.79191 4.21829 5.78779C4.29005 5.78367 4.35912 5.75902 4.41726 5.71676C4.47541 5.67451 4.52019 5.61643 4.54626 5.54945C4.57234 5.48247 4.57862 5.4094 4.56435 5.33896L4.36006 4.32905L5.11888 3.63217C5.17179 3.58359 5.20963 3.52083 5.22788 3.45135C5.24614 3.38188 5.24404 3.30862 5.22185 3.2403L5.22188 3.24027ZM14.9917 3.24027C15.0139 3.30858 15.016 3.38184 14.9978 3.45131C14.9795 3.52079 14.9417 3.58356 14.8888 3.63214L14.1299 4.32902L14.3342 5.33892C14.3485 5.40937 14.3422 5.48243 14.3161 5.5494C14.29 5.61638 14.2453 5.67445 14.1871 5.7167C14.129 5.75896 14.0599 5.78362 13.9882 5.78774C13.9164 5.79186 13.845 5.77527 13.7824 5.73996L12.8851 5.23336L11.9878 5.73996C11.9252 5.77528 11.8538 5.79188 11.782 5.78776C11.7103 5.78364 11.6412 5.75899 11.5831 5.71673C11.5249 5.67448 11.4801 5.6164 11.4541 5.54942C11.428 5.48244 11.4217 5.40937 11.436 5.33892L11.6403 4.32902L10.8814 3.63214C10.8285 3.58354 10.7906 3.52073 10.7723 3.4512C10.754 3.38168 10.7561 3.30836 10.7783 3.23999C10.8005 3.17162 10.8419 3.11107 10.8976 3.06556C10.9532 3.02005 11.0208 2.9915 11.0922 2.9833L12.1156 2.86552L12.5439 1.92889C12.5737 1.86339 12.6217 1.80784 12.6821 1.76888C12.7426 1.72992 12.813 1.7092 12.885 1.7092C12.9569 1.7092 13.0273 1.72992 13.0878 1.76888C13.1483 1.80784 13.1963 1.86339 13.226 1.92889L13.6543 2.86552L14.6778 2.9833C14.7492 2.99157 14.8168 3.02018 14.8724 3.06574C14.928 3.1113 14.9694 3.17188 14.9916 3.24027H14.9917ZM10.5243 1.83461C10.502 1.76614 10.4607 1.70547 10.4051 1.65975C10.3495 1.61404 10.2819 1.58519 10.2105 1.57661L8.89253 1.42624L8.3411 0.218674C8.31101 0.153532 8.26291 0.0983662 8.20246 0.059701C8.14202 0.0210358 8.07177 0.000488281 8.00002 0.000488281C7.92826 0.000488281 7.85801 0.0210358 7.79757 0.059701C7.73713 0.0983662 7.68902 0.153532 7.65894 0.218674L7.10744 1.42614L5.78956 1.57652C5.71819 1.58489 5.65072 1.61356 5.59515 1.65913C5.53959 1.7047 5.49826 1.76525 5.47607 1.8336C5.45388 1.90195 5.45176 1.97523 5.46997 2.04475C5.48817 2.11426 5.52594 2.1771 5.57878 2.2258L6.55585 3.12336L6.29278 4.42336C6.27856 4.49379 6.28487 4.56683 6.31096 4.63378C6.33706 4.70073 6.38184 4.75878 6.43998 4.80101C6.49811 4.84324 6.56716 4.86787 6.6389 4.87198C6.71063 4.8761 6.78204 4.85951 6.84463 4.82421L8 4.17249L9.15538 4.82427C9.21796 4.85957 9.28936 4.87614 9.3611 4.87203C9.43283 4.86791 9.50187 4.84327 9.56 4.80104C9.61813 4.75881 9.66291 4.70078 9.689 4.63383C9.7151 4.56689 9.72141 4.49385 9.70719 4.42342L9.44419 3.12342L10.4213 2.2258C10.4741 2.17733 10.512 2.11467 10.5303 2.0453C10.5485 1.97593 10.5465 1.90276 10.5244 1.83452L10.5243 1.83461ZM5.20456 9.59367C5.13852 9.48868 5.04694 9.40214 4.93838 9.34214C4.82982 9.28214 4.70782 9.25064 4.58378 9.25058H1.99541C1.80083 9.25075 1.61427 9.32811 1.47666 9.46568C1.33905 9.60324 1.26164 9.78978 1.26141 9.98436V15.2659C1.26157 15.4605 1.33895 15.6472 1.47655 15.7848C1.61416 15.9225 1.80075 16 1.99541 16.0002H4.58378C4.70779 16.0002 4.82976 15.9687 4.93831 15.9087C5.04687 15.8488 5.13847 15.7623 5.20456 15.6574V9.59367ZM2.20988 10.628C2.20988 10.5286 2.24939 10.4332 2.31971 10.3629C2.39004 10.2926 2.48542 10.253 2.58488 10.253H2.8601C2.95955 10.253 3.05493 10.2926 3.12526 10.3629C3.19559 10.4332 3.2351 10.5286 3.2351 10.628C3.2351 10.7275 3.19559 10.8229 3.12526 10.8932C3.05493 10.9635 2.95955 11.003 2.8601 11.003H2.58491C2.53566 11.0031 2.48689 10.9934 2.44139 10.9745C2.39589 10.9557 2.35455 10.928 2.31972 10.8932C2.2849 10.8584 2.25727 10.8171 2.23842 10.7716C2.21958 10.7261 2.20988 10.6773 2.20988 10.628Z" fill="black"/>
</g>
<defs>
<clipPath id="clip0_236_162">
<rect width="16" height="16" fill="white"/>
</clipPath>
</defs>
</svg>
