<svg width="16" height="16" viewBox="0 0 16 16" fill="none" xmlns="http://www.w3.org/2000/svg">
<g clip-path="url(#clip0_633_2614)">
<path d="M10.6057 9.68036H8.82282L9.19425 8.44607C9.30786 8.07701 9.27214 7.67811 9.09476 7.33511C8.91739 6.99211 8.61251 6.73239 8.24568 6.61179C8.14033 6.57706 8.02894 6.56446 7.91849 6.57478C7.80804 6.58511 7.70092 6.61812 7.60382 6.67177C7.50673 6.72541 7.42176 6.79852 7.35423 6.88653C7.2867 6.97454 7.23808 7.07554 7.2114 7.18321L7.15425 7.42321C6.93875 8.28803 6.49238 9.07806 5.86282 9.70893L5.53711 10.0289C5.45434 9.92467 5.34928 9.84028 5.22963 9.78194C5.10999 9.7236 4.97879 9.69279 4.84568 9.69178H4.42854C4.19408 9.69177 3.96906 9.78411 3.80221 9.94883C3.63536 10.1135 3.54012 10.3373 3.53711 10.5718V14.2518C3.53711 14.4882 3.63103 14.7149 3.7982 14.8821C3.96538 15.0493 4.19212 15.1432 4.42854 15.1432H4.84568C4.99913 15.1429 5.14985 15.1026 5.28308 15.0265C5.41631 14.9504 5.52747 14.8409 5.60568 14.7089L5.68568 14.7489C6.20214 15.0068 6.77126 15.1418 7.34854 15.1432H9.39997C9.73911 15.1449 10.0733 15.0622 10.3726 14.9026C10.6718 14.743 10.9267 14.5115 11.1143 14.2289C11.5135 13.632 11.7263 12.9299 11.7257 12.2118V10.7889C11.7257 10.6424 11.6966 10.4973 11.6402 10.362C11.5838 10.2268 11.5011 10.1041 11.397 10.001C11.2928 9.89789 11.1692 9.81647 11.0334 9.76144C10.8976 9.7064 10.7522 9.67885 10.6057 9.68036ZM5.14282 14.2518C5.14282 14.3367 5.10911 14.418 5.0491 14.4781C4.98909 14.5381 4.90769 14.5718 4.82282 14.5718H4.42854C4.34367 14.5718 4.26228 14.5381 4.20226 14.4781C4.14225 14.418 4.10854 14.3367 4.10854 14.2518V10.5718C4.10854 10.4869 4.14225 10.4055 4.20226 10.3455C4.26228 10.2855 4.34367 10.2518 4.42854 10.2518H4.84568C4.92653 10.2576 5.00217 10.2938 5.05732 10.3532C5.11247 10.4126 5.14303 10.4907 5.14282 10.5718V14.2518ZM11.1428 12.2118C11.1452 12.8216 10.9662 13.4183 10.6285 13.9261C10.4934 14.128 10.3107 14.2936 10.0964 14.4083C9.88215 14.5229 9.64296 14.583 9.39997 14.5832H7.34854C6.86066 14.5827 6.37953 14.4693 5.94282 14.2518L5.71425 14.1375V10.6289L6.23997 10.1032C6.94334 9.39996 7.44296 8.51921 7.68568 7.55464L7.74282 7.32036C7.75979 7.25768 7.80088 7.20426 7.85711 7.17179C7.88595 7.1592 7.91707 7.1527 7.94854 7.1527C7.98 7.1527 8.01113 7.1592 8.03997 7.17179C8.15258 7.20923 8.2567 7.26851 8.34638 7.34624C8.43607 7.42396 8.50954 7.5186 8.56262 7.62475C8.61569 7.73089 8.64732 7.84646 8.65568 7.96484C8.66406 8.08322 8.649 8.20209 8.6114 8.31464L8.1314 9.92036C8.11898 9.96294 8.11664 10.0078 8.12458 10.0515C8.13251 10.0951 8.1505 10.1363 8.17711 10.1718C8.20307 10.208 8.23745 10.2373 8.27727 10.2572C8.3171 10.2771 8.36117 10.287 8.40568 10.2861H10.5714C10.6419 10.2861 10.7118 10.3 10.777 10.327C10.8421 10.354 10.9013 10.3935 10.9512 10.4434C11.0011 10.4933 11.0407 10.5525 11.0677 10.6177C11.0946 10.6828 11.1085 10.7527 11.1085 10.8232L11.1428 12.2118Z" fill="#81817C" stroke="#81817C" stroke-width="0.2"/>
<path d="M6.28553 4.17165L6.10267 5.22879C6.08068 5.34578 6.09267 5.46663 6.13723 5.57701C6.18179 5.6874 6.25705 5.78271 6.3541 5.85165C6.46152 5.93173 6.59155 5.97574 6.72553 5.97736C6.82896 5.97572 6.93063 5.9503 7.02267 5.90307L7.99981 5.40022L8.9541 5.90307C9.05903 5.95848 9.1775 5.98306 9.29582 5.97396C9.41413 5.96486 9.52745 5.92245 9.62267 5.85165C9.71872 5.78315 9.79335 5.68878 9.83786 5.57953C9.88237 5.47027 9.89494 5.35062 9.8741 5.2345L9.7141 4.17165L10.4627 3.42879C10.5491 3.34702 10.6106 3.2424 10.6399 3.12709C10.6693 3.01177 10.6653 2.89049 10.6284 2.77736C10.5915 2.66435 10.5238 2.56385 10.4329 2.48714C10.3421 2.41044 10.2317 2.36055 10.1141 2.34307L9.04553 2.18879L8.57124 1.21165C8.51789 1.10586 8.43622 1.01697 8.33533 0.954859C8.23444 0.892749 8.11829 0.859863 7.99981 0.859863C7.88134 0.859863 7.76519 0.892749 7.6643 0.954859C7.56341 1.01697 7.48174 1.10586 7.42839 1.21165L6.9541 2.17736L5.88553 2.33165C5.76793 2.34912 5.65752 2.39901 5.56668 2.47572C5.47584 2.55242 5.40817 2.65292 5.37124 2.76593C5.332 2.88063 5.32677 3.00423 5.35617 3.12184C5.38557 3.23945 5.44836 3.34605 5.53696 3.42879L6.28553 4.17165ZM5.94267 2.89736L7.15981 2.72022C7.21479 2.72378 7.2696 2.71104 7.31738 2.68359C7.36515 2.65615 7.40376 2.61522 7.42839 2.56593L7.99981 1.46307C8.00483 1.45213 8.01288 1.44286 8.02301 1.43636C8.03314 1.42986 8.04492 1.4264 8.05696 1.4264C8.06899 1.4264 8.08078 1.42986 8.09091 1.43636C8.10104 1.44286 8.10909 1.45213 8.1141 1.46307L8.68553 2.56593C8.70606 2.60766 8.73667 2.64361 8.77458 2.67055C8.81249 2.69749 8.85651 2.71456 8.90267 2.72022L10.1198 2.89736C10.1317 2.89977 10.1426 2.90527 10.1517 2.9133C10.1607 2.92133 10.1675 2.9316 10.1712 2.94307C10.1768 2.95263 10.1797 2.96347 10.1797 2.9745C10.1797 2.98554 10.1768 2.99638 10.1712 3.00593L9.29124 3.86307C9.25796 3.89633 9.23289 3.93689 9.21801 3.98152C9.20313 4.02616 9.19886 4.07364 9.20553 4.12022L9.41696 5.32593C9.42084 5.33809 9.42007 5.35125 9.41479 5.36287C9.40951 5.37448 9.4001 5.38372 9.38839 5.38879C9.37849 5.39621 9.36646 5.40022 9.3541 5.40022C9.34174 5.40022 9.3297 5.39621 9.31981 5.38879L8.2341 4.81736C8.19396 4.79484 8.1487 4.783 8.10267 4.783C8.05664 4.783 8.01138 4.79484 7.97124 4.81736L6.87981 5.38879C6.87081 5.39574 6.85976 5.39951 6.84838 5.39951C6.83701 5.39951 6.82596 5.39574 6.81696 5.38879C6.80524 5.38372 6.79583 5.37448 6.79055 5.36287C6.78527 5.35125 6.7845 5.33809 6.78839 5.32593L6.99981 4.12022C7.00648 4.07364 7.00221 4.02616 6.98733 3.98152C6.97245 3.93689 6.94738 3.89633 6.9141 3.86307L6.0341 3.00593C6.02858 2.99638 6.02568 2.98554 6.02568 2.9745C6.02568 2.96347 6.02858 2.95263 6.0341 2.94307C6.01926 2.94392 6.00455 2.93991 5.99218 2.93167C5.97981 2.92342 5.97046 2.91138 5.96553 2.89736H5.94267Z" fill="#81817C" stroke="#81817C" stroke-width="0.2"/>
<path d="M4.19418 7.57159C4.2793 7.57314 4.36369 7.55565 4.44118 7.52041C4.51867 7.48517 4.58731 7.43305 4.64208 7.36788C4.69685 7.3027 4.73636 7.22611 4.75774 7.14371C4.77911 7.0613 4.7818 6.97516 4.76561 6.89159L4.61132 6.02301L5.25132 5.40016C5.33196 5.32616 5.38964 5.23056 5.41753 5.12473C5.44541 5.0189 5.44231 4.90729 5.40861 4.80317C5.37491 4.69904 5.31201 4.60679 5.2274 4.53737C5.14279 4.46796 5.04002 4.4243 4.93132 4.41159L4.05704 4.28587L3.66275 3.49159C3.61014 3.40019 3.53438 3.32428 3.44309 3.2715C3.35179 3.21871 3.2482 3.19092 3.14275 3.19092C3.0373 3.19092 2.93371 3.21871 2.84242 3.2715C2.75113 3.32428 2.67536 3.40019 2.62275 3.49159L2.22847 4.28587L1.35418 4.41159C1.24548 4.4243 1.14271 4.46796 1.0581 4.53737C0.973495 4.60679 0.910599 4.69904 0.876894 4.80317C0.84319 4.90729 0.840095 5.0189 0.867978 5.12473C0.89586 5.23056 0.953547 5.32616 1.03418 5.40016L1.66847 6.02301L1.51418 6.89159C1.49438 6.99927 1.50594 7.11037 1.54748 7.21168C1.58901 7.31298 1.65877 7.40022 1.74847 7.46301C1.83607 7.52705 1.94009 7.56481 2.04837 7.57189C2.15664 7.57898 2.2647 7.55509 2.3599 7.50301L3.14275 7.09159L3.92561 7.50301C4.00815 7.54757 4.10039 7.57112 4.19418 7.57159ZM3.14275 6.48587C3.0967 6.48559 3.05137 6.49741 3.01132 6.52016L2.0799 6.98873L2.28561 5.97159C2.28879 5.92268 2.28005 5.87372 2.26014 5.82893C2.24024 5.78415 2.20976 5.74486 2.17132 5.71444L1.43418 4.9773L2.46275 4.82873C2.50823 4.82318 2.55153 4.80609 2.58853 4.77908C2.62554 4.75208 2.65502 4.71606 2.67418 4.67444L3.14847 3.74301L3.61132 4.67444C3.63048 4.71606 3.65996 4.75208 3.69697 4.77908C3.73398 4.80609 3.77728 4.82318 3.82275 4.82873L4.85132 4.99444L4.11418 5.71444C4.0809 5.7477 4.05583 5.78826 4.04095 5.83289C4.02607 5.87752 4.0218 5.92501 4.02847 5.97159L4.19418 7.00016L3.27418 6.52016C3.23413 6.49741 3.18881 6.48559 3.14275 6.48587Z" fill="#81817C" stroke="#81817C" stroke-width="0.2"/>
<path d="M15.1143 4.80587C15.0816 4.70246 15.0202 4.61048 14.9372 4.54066C14.8543 4.47084 14.7531 4.42607 14.6457 4.41159L13.7714 4.28587L13.3771 3.49159C13.3245 3.40019 13.2487 3.32428 13.1574 3.2715C13.0662 3.21871 12.9626 3.19092 12.8571 3.19092C12.7517 3.19092 12.6481 3.21871 12.5568 3.2715C12.4655 3.32428 12.3897 3.40019 12.3371 3.49159L11.9428 4.28587L11.0685 4.41159C10.9598 4.4243 10.8571 4.46796 10.7725 4.53737C10.6879 4.60679 10.625 4.69904 10.5912 4.80317C10.5575 4.90729 10.5545 5.0189 10.5823 5.12473C10.6102 5.23056 10.6679 5.32616 10.7485 5.40016L11.3828 6.02301L11.2285 6.89159C11.2087 6.99927 11.2203 7.11037 11.2618 7.21168C11.3034 7.31298 11.3731 7.40022 11.4628 7.46301C11.5504 7.52705 11.6544 7.56481 11.7627 7.57189C11.871 7.57898 11.9791 7.55509 12.0743 7.50301L12.8571 7.09159L13.64 7.50301C13.7225 7.54757 13.8147 7.57112 13.9085 7.57159C13.9937 7.57314 14.078 7.55565 14.1555 7.52041C14.233 7.48517 14.3017 7.43305 14.3564 7.36788C14.4112 7.3027 14.4507 7.22611 14.4721 7.14371C14.4935 7.0613 14.4962 6.97516 14.48 6.89159L14.3257 6.02301L14.96 5.40016C15.0396 5.32605 15.0964 5.23077 15.1237 5.1255C15.151 5.02023 15.1478 4.90934 15.1143 4.80587ZM13.8285 5.71444C13.7953 5.7477 13.7702 5.78826 13.7553 5.83289C13.7404 5.87752 13.7362 5.92501 13.7428 5.97159L13.9085 7.00016L12.9885 6.52016C12.9484 6.49763 12.9031 6.4858 12.8571 6.4858C12.8111 6.4858 12.7658 6.49763 12.7257 6.52016L11.7943 6.98873L12 5.97159C12.0031 5.92268 11.9944 5.87372 11.9745 5.82893C11.9546 5.78415 11.9241 5.74486 11.8857 5.71444L11.1485 4.9773L12.1771 4.82873C12.2226 4.82318 12.2659 4.80609 12.3029 4.77908C12.3399 4.75208 12.3694 4.71606 12.3885 4.67444L12.8628 3.74301L13.3257 4.67444C13.3448 4.71606 13.3743 4.75208 13.4113 4.77908C13.4483 4.80609 13.4916 4.82318 13.5371 4.82873L14.5657 4.99444L13.8285 5.71444Z" fill="#81817C" stroke="#81817C" stroke-width="0.2"/>
</g>
<defs>
<clipPath id="clip0_633_2614">
<rect width="16" height="16" fill="white"/>
</clipPath>
</defs>
</svg>
