<svg width="24" height="24" viewBox="0 0 24 24" fill="none" xmlns="http://www.w3.org/2000/svg">
<g clip-path="url(#clip0_100_465)">
<path d="M11.769 5.729C11.0725 5.729 10.52 6.28145 10.52 6.97801V12.6466C10.52 13.103 10.7842 13.5353 11.1926 13.7515L14.7474 15.649C14.9396 15.7451 15.1317 15.7931 15.3239 15.7931C15.7803 15.7931 16.2126 15.5529 16.4288 15.1206C16.7651 14.5201 16.5249 13.7515 15.9004 13.4152L13.018 11.878V6.97801C13.0421 6.28145 12.4656 5.729 11.769 5.729Z" fill="black"/>
<path d="M20.1518 4.04799C18.0141 1.93428 15.2038 0.757324 12.2014 0.757324C9.22296 0.757324 6.43671 1.88624 4.323 3.97593L3.17006 2.823C2.73771 2.39065 1.99311 2.60682 1.849 3.20731L0.624004 8.5156C0.479887 9.09207 1.00831 9.59647 1.56076 9.45236L6.86905 8.22737C7.46954 8.08325 7.68572 7.33865 7.25337 6.9063L6.12445 5.77738C6.24455 5.65729 6.36465 5.53719 6.48474 5.44111C9.72737 2.55878 14.6514 2.5828 17.918 5.44111C19.8395 7.14649 20.9204 9.59647 20.8724 12.1666C20.8243 14.7366 19.6474 17.1386 17.6538 18.7719C14.5553 21.2939 10.0156 21.342 6.86905 18.892C5.78818 18.0513 4.9475 17.0185 4.37103 15.8175C4.15486 15.3852 3.69849 15.0969 3.2181 15.0969C3.12202 15.0969 3.00193 15.1209 2.90585 15.145C2.54556 15.241 2.23331 15.4812 2.06517 15.8415C1.89703 16.2018 1.89703 16.5861 2.06517 16.9464C2.66566 18.1954 3.48232 19.3003 4.51515 20.2611C8.71855 24.1763 15.3719 24.2483 19.6714 20.4052C21.9773 18.3155 23.3224 15.4572 23.3944 12.3587C23.4905 9.18814 22.3376 6.25777 20.1518 4.04799Z" fill="black"/>
</g>
<defs>
<clipPath id="clip0_100_465">
<rect width="24" height="24" fill="white"/>
</clipPath>
</defs>
</svg>
