<svg width="16" height="16" viewBox="0 0 16 16" fill="none" xmlns="http://www.w3.org/2000/svg">
<g clip-path="url(#clip0_635_667)">
<path d="M15 6.79311C14.9993 6.68659 14.9487 6.58672 14.8635 6.5228L13.6364 5.60244V2.36365C13.6364 1.61156 13.0248 1 12.2727 1H2.72726C1.97521 1 1.36365 1.61156 1.36365 2.36365V5.60247L0.136502 6.5228C0.0512642 6.58672 0.000671165 6.68659 0 6.79311C0 6.79395 0.000543324 6.79462 0.000543324 6.79545H0V14.6364C0 15.3884 0.611559 16 1.36365 16H13.6364C14.3884 16 15 15.3884 15 14.6364V6.79545H14.9995C14.9995 6.79462 15 6.79395 15 6.79311ZM13.6364 6.45443L14.0968 6.79979C13.972 6.89663 13.8134 7.02003 13.6364 7.15785V6.45443ZM2.04546 2.36365C2.04546 1.9878 2.35141 1.68184 2.72726 1.68184H12.2727C12.6486 1.68184 12.9545 1.9878 12.9545 2.36365V7.68986C11.3718 8.92748 8.96846 10.825 7.96443 11.7137C7.8822 11.7866 7.71073 11.9091 7.48934 11.9091C7.32753 11.9091 7.1714 11.8435 7.02493 11.7137C6.01415 10.8187 3.6225 8.9272 2.04546 7.69196V2.36365ZM1.36365 6.45446V7.159C1.18646 7.0208 1.02775 6.89721 0.902877 6.80011L1.36365 6.45446ZM14.3182 14.6364C14.3182 15.0122 14.0122 15.3182 13.6364 15.3182H1.36365C0.987795 15.3182 0.68184 15.0122 0.68184 14.6364V7.49151C2.10375 8.59829 5.39345 11.1796 6.57285 12.2244C6.84384 12.4641 7.16079 12.5909 7.48937 12.5909C7.82029 12.5909 8.14954 12.4608 8.41654 12.2244C9.64221 11.139 12.9972 8.51801 14.3182 7.49129V14.6364Z" fill="#81817C" stroke="#81817C" stroke-width="0.1875"/>
<path d="M7.50005 9.86391C7.58695 9.86391 7.67349 9.83096 7.74007 9.76502L10.3099 7.2192C10.6964 6.83334 10.9091 6.31964 10.9091 5.77299C10.9091 4.64505 9.9916 3.72754 8.86366 3.72754C8.35198 3.72754 7.87222 3.91563 7.50001 4.25389C7.12784 3.91566 6.64808 3.72754 6.1364 3.72754C5.00846 3.72754 4.09094 4.64505 4.09094 5.77299C4.09094 6.31964 4.30367 6.83334 4.69119 7.22019L7.25999 9.76502C7.3266 9.83096 7.41315 9.86391 7.50005 9.86391ZM4.77275 5.77299C4.77275 5.02094 5.38431 4.40935 6.1364 4.40935C6.56719 4.40935 6.96436 4.61111 7.22672 4.96331C7.35523 5.13577 7.64486 5.13577 7.77337 4.96331C8.0357 4.61108 8.43287 4.40935 8.86369 4.40935C9.61575 4.40935 10.2273 5.02091 10.2273 5.77299C10.2273 6.13721 10.0855 6.4798 9.82883 6.73612L7.50005 9.04326L5.17225 6.73714C4.91459 6.4798 4.77275 6.13721 4.77275 5.77299Z" fill="#81817C" stroke="#81817C" stroke-width="0.1875"/>
</g>
<defs>
<clipPath id="clip0_635_667">
<rect width="16" height="16" fill="white"/>
</clipPath>
</defs>
</svg>
