<svg width="16" height="16" viewBox="0 0 16 16" fill="none" xmlns="http://www.w3.org/2000/svg">
<path d="M8.03449 9.6302L14.07 6.50469V2.3337C14.07 1.8457 13.6745 1.4502 13.1865 1.4502H2.81349C2.32549 1.4502 1.92999 1.8457 1.92999 2.3337V6.50469L7.96549 9.6302H8.03449ZM6.35249 7.0727L6.58949 5.69219L5.58649 4.7147C5.41949 4.5522 5.51149 4.2687 5.74199 4.2352L7.12799 4.0337L7.74799 2.7777C7.85099 2.5687 8.14899 2.5687 8.25199 2.7777L8.87199 4.0337L10.258 4.2352C10.4885 4.2687 10.5805 4.5517 10.4135 4.7147L9.41049 5.69219L9.64749 7.0727C9.68699 7.3022 9.44599 7.4772 9.23999 7.3687L7.99999 6.7172L6.75999 7.36919C6.55399 7.47769 6.31299 7.3027 6.35249 7.0727Z" fill="black"/>
<path d="M14.27 6.87925L9.872 9.15675L13.05 11.9098C13.14 11.9898 13.145 12.1248 13.07 12.2098C13.03 12.2598 12.97 12.2848 12.91 12.2848C12.86 12.2848 12.81 12.2698 12.77 12.2348L9.467 9.36625L8.23 10.0068C8.086 10.0813 7.9145 10.0813 7.77 10.0068L6.533 9.36625L3.23 12.2348C3.19 12.2698 3.14 12.2848 3.09 12.2848C3.03 12.2848 2.97 12.2598 2.93 12.2098C2.855 12.1248 2.86 11.9898 2.95 11.9098L6.1245 9.15475L1.7295 6.87875C1.397 6.70675 1 6.94825 1 7.32325V13.0488C1 13.8773 1.6715 14.5488 2.5 14.5488H13.5C14.3285 14.5488 15 13.8773 15 13.0488V7.32325C15 6.94825 14.603 6.70675 14.27 6.87925Z" fill="black"/>
</svg>
