<svg width="18" height="24" viewBox="0 0 18 24" fill="none" xmlns="http://www.w3.org/2000/svg">
<path d="M9.00024 0.5C9.01851 0.500137 9.0333 0.514937 9.03345 0.533203V8.85449L9.36255 8.97461C9.77144 9.12314 10.0627 9.51511 10.0627 9.97363V12.6377L10.4749 12.7109C14.0935 13.3515 16.9219 16.3075 17.3733 19.9863H0.626221C1.07755 16.3075 3.90605 13.3515 7.52466 12.7109L7.93774 12.6377V9.97363C7.93774 9.51521 8.22822 9.12322 8.63696 8.97461L8.96606 8.85449V0.533203C8.96621 0.514851 8.98186 0.5 9.00024 0.5Z" fill="#8B8B8B" stroke="#8B8B8B"/>
<mask id="path-2-inside-1_98_80" fill="white">
<path d="M9.00007 24.0002C10.8664 24.0002 12.5087 23.0231 13.4428 21.5537H4.55737C5.49138 23.0231 7.1337 24.0002 9.00007 24.0002Z"/>
</mask>
<path d="M13.4428 21.5537L17.6624 24.236L22.5459 16.5537H13.4428V21.5537ZM4.55737 21.5537V16.5537H-4.54548L0.337696 24.2359L4.55737 21.5537ZM9.00007 24.0002V29.0002C12.6537 29.0002 15.8528 27.0827 17.6624 24.236L13.4428 21.5537L9.22315 18.8714C9.19694 18.9126 9.15932 18.9478 9.11932 18.9703C9.08578 18.9892 9.05015 19.0002 9.00007 19.0002V24.0002ZM13.4428 21.5537V16.5537H4.55737V21.5537V26.5537H13.4428V21.5537ZM4.55737 21.5537L0.337696 24.2359C2.14728 27.0828 5.34652 29.0002 9.00007 29.0002V24.0002V19.0002C8.94998 19.0002 8.91433 18.9892 8.88078 18.9703C8.84078 18.9478 8.8032 18.9126 8.77705 18.8715L4.55737 21.5537Z" fill="#8B8B8B" mask="url(#path-2-inside-1_98_80)"/>
</svg>
