<svg width="24" height="24" viewBox="0 0 24 24" fill="none" xmlns="http://www.w3.org/2000/svg">
<path d="M21.4546 11.3828L15.9046 5.50273C15.5634 5.14095 14.994 5.12445 14.6323 5.46584C14.271 5.80695 14.2543 6.37663 14.5957 6.73813L19.5628 12.0002L14.5957 17.2628C14.2543 17.6243 14.271 18.1937 14.6323 18.5351C14.8063 18.6992 15.0285 18.7805 15.25 18.7805C15.4891 18.7805 15.7279 18.6857 15.9046 18.4988L21.4546 12.6184C21.7819 12.2714 21.7819 11.7295 21.4546 11.3828Z" fill="#8B8B8B"/>
<path d="M9.10467 17.2626L4.13786 12.0002L9.10467 6.73792C9.44579 6.37642 9.42929 5.80669 9.06778 5.46563C8.70656 5.12452 8.13656 5.14102 7.7955 5.50252L2.24546 11.3826C1.91818 11.7293 1.91818 12.2715 2.24546 12.6183L7.79578 18.4986C7.97278 18.6861 8.21128 18.7806 8.45039 18.7806C8.67178 18.7806 8.89411 18.699 9.06778 18.5349C9.42961 18.1938 9.44579 17.6241 9.10467 17.2626Z" fill="#8B8B8B"/>
</svg>
