<svg width="24" height="24" viewBox="0 0 24 24" fill="none" xmlns="http://www.w3.org/2000/svg">
<g clip-path="url(#clip0_98_55)">
<path d="M10.5769 10.1473L6.82691 21.2904C6.81672 21.3214 6.79862 21.3492 6.77441 21.371L5.56316 22.4567L5.08691 23.8723C5.07433 23.9095 5.05037 23.9419 5.0184 23.9648C4.98644 23.9876 4.94809 23.9999 4.90879 23.9998C4.88894 24.0033 4.86863 24.0033 4.84879 23.9998C4.82536 23.992 4.80371 23.9796 4.78508 23.9634C4.76645 23.9471 4.75121 23.9274 4.74023 23.9053C4.72926 23.8831 4.72276 23.8591 4.72112 23.8344C4.71948 23.8098 4.72272 23.7851 4.73066 23.7617L5.20879 22.3442L4.92191 20.7898C4.91442 20.7584 4.91442 20.7256 4.92191 20.6942L9.00003 8.56104C9.32602 9.2565 9.88339 9.81718 10.5769 10.1473Z" fill="#8B8B8B"/>
<path d="M19.1512 24.0002C19.1314 24.0038 19.1111 24.0038 19.0912 24.0002C19.0519 24.0003 19.0136 23.988 18.9816 23.9652C18.9496 23.9423 18.9257 23.9099 18.9131 23.8727L18.4368 22.4552L17.2256 21.3752C17.2014 21.3533 17.1833 21.3256 17.1731 21.2946L13.4231 10.1514C14.1176 9.81993 14.675 9.25714 15 8.55957L19.08 20.6852C19.0875 20.7166 19.0875 20.7494 19.08 20.7808L18.7931 22.3371L19.2693 23.7546C19.2785 23.7784 19.2826 23.8038 19.2816 23.8293C19.2805 23.8548 19.2743 23.8798 19.2632 23.9028C19.2521 23.9258 19.2365 23.9463 19.2173 23.9631C19.198 23.9798 19.1755 23.9924 19.1512 24.0002Z" fill="#8B8B8B"/>
<path d="M12.6657 6.55137C12.6657 6.68302 12.6267 6.81171 12.5535 6.92117C12.4804 7.03063 12.3764 7.11594 12.2548 7.16632C12.1332 7.2167 11.9994 7.22989 11.8702 7.2042C11.7411 7.17852 11.6225 7.11512 11.5294 7.02204C11.4363 6.92895 11.3729 6.81034 11.3473 6.68122C11.3216 6.55211 11.3348 6.41827 11.3851 6.29664C11.4355 6.17502 11.5208 6.07106 11.6303 5.99792C11.7398 5.92478 11.8684 5.88574 12.0001 5.88574C12.1766 5.88574 12.3459 5.95587 12.4708 6.0807C12.5956 6.20553 12.6657 6.37483 12.6657 6.55137Z" fill="#8B8B8B"/>
<path d="M13.637 3.34521H10.3632C10.0209 3.34571 9.69279 3.48204 9.45092 3.72426C9.20905 3.96648 9.0732 4.29479 9.0732 4.63709V7.16647C9.06331 7.55719 9.13173 7.94593 9.27442 8.3098C9.41711 8.67367 9.63119 9.00529 9.90404 9.28514C10.1769 9.56498 10.503 9.78738 10.8631 9.93923C11.2233 10.0911 11.6102 10.1693 12.001 10.1693C12.3919 10.1693 12.7788 10.0911 13.1389 9.93923C13.499 9.78738 13.8251 9.56498 14.098 9.28514C14.3708 9.00529 14.5849 8.67367 14.7276 8.3098C14.8703 7.94593 14.9387 7.55719 14.9288 7.16647V4.63709C14.9283 4.29462 14.7921 3.96631 14.5499 3.72414C14.3077 3.48198 13.9794 3.34571 13.637 3.34521ZM12.0001 7.59021C11.7942 7.59021 11.5929 7.52914 11.4217 7.41471C11.2506 7.30028 11.1172 7.13764 11.0385 6.94739C10.9598 6.75713 10.9393 6.5478 10.9796 6.34588C11.0199 6.14397 11.1192 5.95855 11.2649 5.81309C11.4106 5.66763 11.5962 5.56867 11.7982 5.52873C12.0002 5.48879 12.2095 5.50967 12.3996 5.58872C12.5897 5.66777 12.7521 5.80144 12.8662 5.97281C12.9804 6.14419 13.0411 6.34557 13.0407 6.55146C13.0402 6.82713 12.9304 7.09134 12.7352 7.28609C12.5401 7.48084 12.2757 7.59022 12.0001 7.59021Z" fill="#8B8B8B"/>
<path d="M13.0405 1.04084V2.97022H10.9611V1.04084C10.9552 0.900594 10.9777 0.76059 11.0272 0.629256C11.0768 0.497922 11.1524 0.377974 11.2495 0.27663C11.3467 0.175285 11.4633 0.0946403 11.5924 0.0395479C11.7215 -0.0155445 11.8605 -0.0439453 12.0008 -0.0439453C12.1412 -0.0439453 12.2801 -0.0155445 12.4092 0.0395479C12.5384 0.0946403 12.655 0.175285 12.7521 0.27663C12.8492 0.377974 12.9249 0.497922 12.9744 0.629256C13.024 0.76059 13.0465 0.900594 13.0405 1.04084Z" fill="#8B8B8B"/>
</g>
<defs>
<clipPath id="clip0_98_55">
<rect width="24" height="24" fill="white"/>
</clipPath>
</defs>
</svg>
