<svg width="24" height="24" viewBox="0 0 24 24" fill="none" xmlns="http://www.w3.org/2000/svg">
<path d="M4.22763 4.00029C3.90011 4.05054 3.94185 4.50029 4.25154 4.50029C4.25154 4.50029 7.2688 4.50445 9.58642 4.93584C10.7642 5.15504 11.6798 5.47685 12.0039 5.88263C12.1483 6.06354 12.1464 6.25487 12.0258 6.47834C11.8798 6.74897 11.5135 7.1165 10.8632 7.54133C10.0732 8.05744 9.58108 8.49073 9.32075 8.90707C9.19059 9.11524 9.1183 9.32439 9.11958 9.53256C9.12053 9.74073 9.20083 9.93666 9.32611 10.0956C9.57658 10.4134 9.98721 10.6201 10.4921 10.8006C10.882 10.9401 11.3382 11.0605 11.8222 11.1703L8.52242 14.4716C7.58266 14.4859 6.7074 14.5706 5.97314 14.8104C5.22582 15.0546 4.61141 15.4722 4.27884 16.1376C3.85622 16.9831 4.06914 17.7641 4.37502 18.308C4.68089 18.852 5.09083 19.1918 5.09083 19.1918C5.34668 19.406 5.66796 19.0222 5.41212 18.808C5.41212 18.808 5.07091 18.5224 4.81447 18.0663C4.56789 17.6278 4.3929 17.0282 4.72565 16.3627C4.98658 15.8407 5.46148 15.5049 6.12846 15.287C6.65484 15.115 7.29816 15.0241 8.00294 14.9882L6.54349 16.4496C6.54066 16.4523 6.53877 16.4557 6.53688 16.4584L6.68922 16.4882L7.89037 16.7299C7.89037 16.7299 7.90625 16.9531 7.96035 17.0625L8.09153 17.686H8.80197C8.80197 17.686 8.90625 17.8125 9.04758 17.8871C9.1412 18.3556 9.28732 19.0868 9.28732 19.0868L9.30924 19.1952L13.3194 15.185C14.4088 15.2307 15.4329 15.2279 16.2818 15.0653C17.157 14.8977 17.8794 14.5461 18.2212 13.8622C18.3549 13.5946 18.4065 13.3331 18.3594 13.0775C18.3136 12.8287 18.1754 12.6128 17.9888 12.4354C17.6867 12.1481 17.2355 11.9318 16.7432 11.7606L17.4405 11.0624L14.6852 8.30746L12.2438 10.7494C11.6491 10.6222 11.0981 10.4863 10.6608 10.3299C10.1951 10.1634 9.86059 9.96403 9.71988 9.78549C9.64949 9.69623 9.6203 9.61372 9.61979 9.53061C9.61926 9.44554 9.65087 9.32168 9.74527 9.17074C9.93401 8.86888 10.3767 8.45491 11.1368 7.95833C11.8233 7.50987 12.2497 7.1147 12.4654 6.71613C12.7055 6.27248 12.6351 5.88066 12.399 5.57647C11.9676 5.02057 10.9093 4.67439 9.67738 4.44512C7.28432 3.99973 4.25218 4.00029 4.25218 4.00029C4.24462 3.9999 4.23557 3.9999 4.22763 4.00029ZM17.7689 5.74688C17.4437 5.74688 17.119 5.87336 16.872 6.12042L15.9222 7.06965L18.678 9.82553L19.6272 8.87582C20.1272 8.3758 20.1213 7.57598 19.6272 7.08186L18.6658 6.12042C18.4188 5.87336 18.0941 5.74688 17.7689 5.74688ZM15.9222 7.06965L14.6852 8.30746L17.4405 11.0624L18.678 9.82553L15.9222 7.06965ZM16.3471 12.1556C16.9557 12.3497 17.4001 12.564 17.6454 12.7972C17.7765 12.9219 17.8433 13.0417 17.8666 13.1683C17.8899 13.2949 17.8722 13.4429 17.7742 13.6386C17.5279 14.1315 16.9875 14.4194 16.1874 14.5726C15.5247 14.6995 14.6979 14.7232 13.8031 14.7001L16.3471 12.1556ZM6.53688 16.4584L6.0445 18.4404L6.21637 18.6122L7.17632 19.5737L7.30814 19.7045L9.30924 19.1952L9.20312 18.6655C9.20312 18.6655 9.20312 18.3906 9.04758 17.8871C8.95166 17.8086 8.80197 17.686 8.80197 17.686H8.09153L7.89037 16.7299L6.9375 16.5381L6.53688 16.4584ZM5.91169 19.016L5.75543 19.6938C5.71395 19.878 5.87516 20.0339 6.05426 19.9936L6.73394 19.8369L5.91169 19.016Z" fill="#8B8B8B"/>
</svg>
