<svg width="234" height="44" viewBox="0 0 234 44" fill="none" xmlns="http://www.w3.org/2000/svg">
<rect width="234" height="44" rx="22" fill="#1FA2D0" fill-opacity="0.2"/>
<g clip-path="url(#clip0_127_111)">
<path d="M84.7368 20.7368H79.2632V15.2632C79.2632 14.5666 78.6965 14 78 14C77.3035 14 76.7368 14.5666 76.7368 15.2632V20.7368H71.2632C70.5666 20.7368 70 21.3035 70 22C70 22.6965 70.5666 23.2632 71.2632 23.2632H76.7368V28.7368C76.7368 29.4334 77.3035 30 78 30C78.6965 30 79.2632 29.4334 79.2632 28.7368V23.2632H84.7368C85.4334 23.2632 86 22.6965 86 22C86 21.3035 85.4334 20.7368 84.7368 20.7368Z" fill="#1FA2D0"/>
</g>
<path d="M104.672 16.125V27.5H102.516L97.6797 19.6094V27.5H95.5312V16.125H97.6797L102.531 24.0234V16.125H104.672ZM110.5 27.6562C109.859 27.6562 109.284 27.5521 108.773 27.3438C108.263 27.1354 107.828 26.8464 107.469 26.4766C107.115 26.1016 106.841 25.6667 106.648 25.1719C106.461 24.6719 106.367 24.1354 106.367 23.5625V23.25C106.367 22.599 106.461 22.0078 106.648 21.4766C106.836 20.9401 107.102 20.4792 107.445 20.0938C107.789 19.7083 108.201 19.4115 108.68 19.2031C109.159 18.9948 109.688 18.8906 110.266 18.8906C110.865 18.8906 111.393 18.9922 111.852 19.1953C112.31 19.3932 112.693 19.6745 113 20.0391C113.307 20.4036 113.539 20.8411 113.695 21.3516C113.852 21.8568 113.93 22.4167 113.93 23.0312V23.8984H107.305V22.4766H111.898V22.3203C111.888 21.9922 111.826 21.6927 111.711 21.4219C111.596 21.1458 111.419 20.9271 111.18 20.7656C110.94 20.599 110.63 20.5156 110.25 20.5156C109.943 20.5156 109.674 20.5833 109.445 20.7188C109.221 20.849 109.034 21.0365 108.883 21.2812C108.737 21.5208 108.628 21.8073 108.555 22.1406C108.482 22.474 108.445 22.8438 108.445 23.25V23.5625C108.445 23.9167 108.492 24.2448 108.586 24.5469C108.685 24.849 108.828 25.112 109.016 25.3359C109.208 25.5547 109.438 25.7266 109.703 25.8516C109.974 25.9714 110.281 26.0312 110.625 26.0312C111.057 26.0312 111.448 25.9479 111.797 25.7812C112.151 25.6094 112.458 25.3568 112.719 25.0234L113.758 26.1016C113.581 26.362 113.341 26.612 113.039 26.8516C112.742 27.0911 112.383 27.2865 111.961 27.4375C111.539 27.5833 111.052 27.6562 110.5 27.6562ZM117.664 25.4688L119.516 19.0469H120.828L120.438 21.2656L118.57 27.5H117.438L117.664 25.4688ZM116.641 19.0469L118.031 25.4844L118.156 27.5H116.852L114.633 19.0469H116.641ZM122.547 25.3906L123.906 19.0469H125.906L123.703 27.5H122.398L122.547 25.3906ZM121.031 19.0469L122.867 25.4062L123.109 27.5H121.977L120.094 21.2656L119.711 19.0469H121.031ZM137.922 23.7578H140.07C140.013 24.5182 139.802 25.1927 139.438 25.7812C139.073 26.3646 138.565 26.8229 137.914 27.1562C137.263 27.4896 136.474 27.6562 135.547 27.6562C134.833 27.6562 134.19 27.5312 133.617 27.2812C133.049 27.026 132.562 26.6641 132.156 26.1953C131.755 25.7214 131.448 25.1536 131.234 24.4922C131.021 23.8255 130.914 23.0781 130.914 22.25V21.3828C130.914 20.5547 131.023 19.8073 131.242 19.1406C131.461 18.474 131.773 17.9062 132.18 17.4375C132.591 16.9635 133.083 16.599 133.656 16.3438C134.234 16.0885 134.88 15.9609 135.594 15.9609C136.521 15.9609 137.305 16.1328 137.945 16.4766C138.586 16.8151 139.083 17.2812 139.438 17.875C139.792 18.4688 140.005 19.151 140.078 19.9219H137.93C137.888 19.4427 137.784 19.0365 137.617 18.7031C137.456 18.3698 137.211 18.1172 136.883 17.9453C136.56 17.7682 136.13 17.6797 135.594 17.6797C135.177 17.6797 134.81 17.7578 134.492 17.9141C134.18 18.0703 133.919 18.3047 133.711 18.6172C133.503 18.9245 133.346 19.3099 133.242 19.7734C133.138 20.2318 133.086 20.763 133.086 21.3672V22.25C133.086 22.8281 133.133 23.3464 133.227 23.8047C133.32 24.263 133.466 24.651 133.664 24.9688C133.862 25.2865 134.117 25.5286 134.43 25.6953C134.742 25.862 135.115 25.9453 135.547 25.9453C136.073 25.9453 136.5 25.862 136.828 25.6953C137.161 25.5286 137.414 25.2839 137.586 24.9609C137.763 24.638 137.875 24.237 137.922 23.7578ZM143.602 15.5V27.5H141.531V15.5H143.602ZM143.273 22.9688H142.664C142.664 22.3802 142.742 21.8385 142.898 21.3438C143.055 20.849 143.276 20.4193 143.562 20.0547C143.849 19.6849 144.19 19.3984 144.586 19.1953C144.987 18.9922 145.43 18.8906 145.914 18.8906C146.331 18.8906 146.708 18.9505 147.047 19.0703C147.391 19.1849 147.685 19.3698 147.93 19.625C148.174 19.8802 148.362 20.2135 148.492 20.625C148.628 21.0312 148.695 21.526 148.695 22.1094V27.5H146.617V22.0938C146.617 21.7031 146.56 21.3958 146.445 21.1719C146.331 20.9427 146.167 20.7786 145.953 20.6797C145.745 20.5807 145.487 20.5312 145.18 20.5312C144.846 20.5312 144.56 20.5964 144.32 20.7266C144.081 20.8516 143.883 21.026 143.727 21.25C143.576 21.474 143.461 21.7318 143.383 22.0234C143.31 22.3151 143.273 22.6302 143.273 22.9688ZM155.172 25.7031V21.8047C155.172 21.5182 155.122 21.2708 155.023 21.0625C154.924 20.8542 154.773 20.6927 154.57 20.5781C154.367 20.4635 154.109 20.4062 153.797 20.4062C153.521 20.4062 153.279 20.4531 153.07 20.5469C152.867 20.6406 152.711 20.7734 152.602 20.9453C152.492 21.112 152.438 21.3047 152.438 21.5234H150.367C150.367 21.1745 150.451 20.8438 150.617 20.5312C150.784 20.2135 151.021 19.9323 151.328 19.6875C151.641 19.4375 152.013 19.2422 152.445 19.1016C152.883 18.9609 153.372 18.8906 153.914 18.8906C154.555 18.8906 155.125 19 155.625 19.2188C156.13 19.4323 156.526 19.7552 156.812 20.1875C157.104 20.6198 157.25 21.1641 157.25 21.8203V25.5078C157.25 25.9297 157.276 26.2917 157.328 26.5938C157.385 26.8906 157.469 27.1484 157.578 27.3672V27.5H155.477C155.378 27.2865 155.302 27.0156 155.25 26.6875C155.198 26.3542 155.172 26.026 155.172 25.7031ZM155.461 22.3516L155.477 23.5781H154.172C153.849 23.5781 153.565 23.612 153.32 23.6797C153.076 23.7422 152.875 23.8359 152.719 23.9609C152.562 24.0807 152.445 24.2266 152.367 24.3984C152.289 24.5651 152.25 24.7552 152.25 24.9688C152.25 25.1771 152.297 25.3646 152.391 25.5312C152.49 25.6979 152.63 25.8307 152.812 25.9297C153 26.0234 153.219 26.0703 153.469 26.0703C153.833 26.0703 154.151 25.9974 154.422 25.8516C154.693 25.7005 154.904 25.5182 155.055 25.3047C155.206 25.0911 155.286 24.888 155.297 24.6953L155.891 25.5859C155.818 25.7995 155.708 26.026 155.562 26.2656C155.417 26.5052 155.229 26.7292 155 26.9375C154.771 27.1458 154.495 27.3177 154.172 27.4531C153.849 27.5885 153.474 27.6562 153.047 27.6562C152.5 27.6562 152.01 27.5469 151.578 27.3281C151.146 27.1094 150.805 26.8099 150.555 26.4297C150.305 26.0495 150.18 25.6172 150.18 25.1328C150.18 24.6849 150.263 24.2891 150.43 23.9453C150.596 23.6016 150.844 23.3125 151.172 23.0781C151.5 22.8385 151.906 22.6589 152.391 22.5391C152.88 22.4141 153.44 22.3516 154.07 22.3516H155.461ZM163.109 19.0469V20.5312H158.266V19.0469H163.109ZM159.562 16.9688H161.633V25.0625C161.633 25.3125 161.667 25.5052 161.734 25.6406C161.802 25.776 161.904 25.8672 162.039 25.9141C162.174 25.9609 162.336 25.9844 162.523 25.9844C162.659 25.9844 162.784 25.9766 162.898 25.9609C163.013 25.9453 163.109 25.9297 163.188 25.9141L163.195 27.4609C163.023 27.5182 162.828 27.5651 162.609 27.6016C162.396 27.638 162.154 27.6562 161.883 27.6562C161.419 27.6562 161.013 27.5781 160.664 27.4219C160.315 27.2604 160.044 27.0026 159.852 26.6484C159.659 26.2891 159.562 25.8151 159.562 25.2266V16.9688Z" fill="#1FA2D0"/>
<defs>
<clipPath id="clip0_127_111">
<rect width="16" height="16" fill="white" transform="translate(70 14)"/>
</clipPath>
</defs>
</svg>
