<svg width="14" height="14" viewBox="0 0 14 14" fill="none" xmlns="http://www.w3.org/2000/svg">
<path d="M12.4665 6.0686H7.988V1.59013C7.988 1.02024 7.5244 0.556641 6.95451 0.556641C6.38462 0.556641 5.92102 1.02024 5.92102 1.59013V6.0686H1.44255C0.87266 6.0686 0.409058 6.53221 0.409058 7.1021C0.409058 7.67198 0.87266 8.13559 1.44255 8.13559H5.92102V12.6141C5.92102 13.1839 6.38462 13.6476 6.95451 13.6476C7.5244 13.6476 7.988 13.1839 7.988 12.6141V8.13559H12.4665C13.0364 8.13559 13.5 7.67198 13.5 7.1021C13.5 6.53221 13.0364 6.0686 12.4665 6.0686Z" fill="#0E5185"/>
</svg>
