<svg width="198" height="43" viewBox="0 0 198 43" fill="none" xmlns="http://www.w3.org/2000/svg">
<g filter="url(#filter0_d_622_1322)">
<rect x="3" y="1.10254" width="191.455" height="36" rx="18" fill="white"/>
<rect x="3.40909" y="1.51163" width="190.636" height="35.1818" rx="17.5909" stroke="#E6E6E6" stroke-width="0.818182"/>
<g clip-path="url(#clip0_622_1322)">
<path d="M70.4665 18.0691H65.988V13.5906C65.988 13.0207 65.5244 12.5571 64.9545 12.5571C64.3847 12.5571 63.9211 13.0207 63.9211 13.5906V18.0691H59.4426C58.8727 18.0691 58.4091 18.5327 58.4091 19.1026C58.4091 19.6725 58.8727 20.1361 59.4426 20.1361H63.9211V24.6145C63.9211 25.1844 64.3847 25.648 64.9545 25.648C65.5244 25.648 65.988 25.1844 65.988 24.6145V20.1361H70.4665C71.0364 20.1361 71.5 19.6725 71.5 19.1026C71.5 18.5327 71.0364 18.0691 70.4665 18.0691Z" fill="#0E5185"/>
</g>
<path d="M87.2583 14.1494V24.1025H85.3716L81.1402 17.1982V24.1025H79.2603V14.1494H81.1402L85.3853 21.0605V14.1494H87.2583ZM92.3579 24.2393C91.7974 24.2393 91.2938 24.1481 90.8472 23.9658C90.4006 23.7835 90.0201 23.5306 89.7056 23.207C89.3957 22.8789 89.1564 22.4984 88.9878 22.0654C88.8238 21.6279 88.7417 21.1585 88.7417 20.6572V20.3838C88.7417 19.8141 88.8238 19.2969 88.9878 18.832C89.1519 18.3626 89.3843 17.9593 89.6851 17.6221C89.9859 17.2848 90.3459 17.0251 90.7652 16.8428C91.1844 16.6605 91.647 16.5693 92.1529 16.5693C92.677 16.5693 93.1395 16.6582 93.5406 16.8359C93.9416 17.0091 94.2766 17.2552 94.5454 17.5742C94.8143 17.8932 95.0171 18.276 95.1538 18.7227C95.2906 19.1647 95.3589 19.6546 95.3589 20.1924V20.9512H89.562V19.707H93.5816V19.5703C93.5725 19.2832 93.5178 19.0212 93.4175 18.7842C93.3173 18.5426 93.1623 18.3512 92.9527 18.21C92.743 18.0641 92.4719 17.9912 92.1392 17.9912C91.8703 17.9912 91.6356 18.0505 91.4351 18.1689C91.2391 18.2829 91.0751 18.4469 90.9429 18.6611C90.8153 18.8708 90.7196 19.1214 90.6558 19.4131C90.592 19.7048 90.5601 20.0283 90.5601 20.3838V20.6572C90.5601 20.9671 90.6011 21.2542 90.6831 21.5186C90.7697 21.7829 90.8951 22.013 91.0591 22.209C91.2277 22.4004 91.4283 22.5508 91.6607 22.6602C91.8977 22.765 92.1665 22.8174 92.4673 22.8174C92.8456 22.8174 93.1874 22.7445 93.4927 22.5986C93.8026 22.4482 94.0715 22.2272 94.2993 21.9355L95.2085 22.8789C95.0536 23.1068 94.8439 23.3255 94.5796 23.5352C94.3199 23.7448 94.0054 23.9157 93.6363 24.0479C93.2671 24.1755 92.841 24.2393 92.3579 24.2393ZM98.6265 22.3252L100.247 16.7061H101.395L101.053 18.6475L99.4195 24.1025H98.4283L98.6265 22.3252ZM97.731 16.7061L98.9478 22.3389L99.0572 24.1025H97.9156L95.9742 16.7061H97.731ZM102.899 22.2568L104.088 16.7061H105.838L103.911 24.1025H102.769L102.899 22.2568ZM101.573 16.7061L103.179 22.2705L103.391 24.1025H102.4L100.752 18.6475L100.418 16.7061H101.573ZM116.352 20.8281H118.232C118.182 21.4935 117.997 22.0837 117.678 22.5986C117.359 23.109 116.915 23.5101 116.345 23.8018C115.776 24.0934 115.085 24.2393 114.274 24.2393C113.65 24.2393 113.087 24.1299 112.585 23.9111C112.089 23.6878 111.663 23.3711 111.307 22.9609C110.956 22.5462 110.687 22.0495 110.501 21.4707C110.314 20.8874 110.22 20.2334 110.22 19.5088V18.75C110.22 18.0254 110.316 17.3714 110.507 16.7881C110.699 16.2048 110.972 15.708 111.328 15.2979C111.688 14.8831 112.118 14.5641 112.62 14.3408C113.126 14.1175 113.691 14.0059 114.315 14.0059C115.126 14.0059 115.812 14.1562 116.373 14.457C116.933 14.7533 117.368 15.1611 117.678 15.6807C117.988 16.2002 118.175 16.7972 118.239 17.4717H116.359C116.322 17.0524 116.231 16.6969 116.085 16.4053C115.944 16.1136 115.73 15.8926 115.443 15.7422C115.16 15.5872 114.784 15.5098 114.315 15.5098C113.95 15.5098 113.629 15.5781 113.351 15.7148C113.078 15.8516 112.85 16.0566 112.668 16.3301C112.485 16.599 112.349 16.9362 112.257 17.3418C112.166 17.7428 112.121 18.2077 112.121 18.7363V19.5088C112.121 20.0146 112.162 20.4681 112.244 20.8691C112.326 21.2702 112.453 21.6097 112.626 21.8877C112.8 22.1657 113.023 22.3776 113.296 22.5234C113.57 22.6693 113.896 22.7422 114.274 22.7422C114.734 22.7422 115.108 22.6693 115.395 22.5234C115.687 22.3776 115.908 22.1634 116.058 21.8809C116.213 21.5983 116.311 21.2474 116.352 20.8281ZM121.322 13.6025V24.1025H119.51V13.6025H121.322ZM121.035 20.1377H120.501C120.501 19.6227 120.57 19.1488 120.707 18.7158C120.843 18.2829 121.037 17.9069 121.288 17.5879C121.538 17.2643 121.837 17.0137 122.183 16.8359C122.534 16.6582 122.921 16.5693 123.345 16.5693C123.71 16.5693 124.04 16.6217 124.336 16.7266C124.637 16.8268 124.895 16.9886 125.109 17.2119C125.323 17.4352 125.487 17.7269 125.601 18.0869C125.72 18.4424 125.779 18.8753 125.779 19.3857V24.1025H123.96V19.3721C123.96 19.0303 123.91 18.7614 123.81 18.5654C123.71 18.3649 123.566 18.2214 123.379 18.1348C123.197 18.0482 122.972 18.0049 122.703 18.0049C122.411 18.0049 122.16 18.0618 121.951 18.1758C121.741 18.2852 121.568 18.4378 121.431 18.6338C121.299 18.8298 121.199 19.0553 121.13 19.3105C121.067 19.5658 121.035 19.8415 121.035 20.1377ZM131.446 22.5303V19.1191C131.446 18.8685 131.403 18.652 131.316 18.4697C131.229 18.2874 131.097 18.1462 130.919 18.0459C130.742 17.9456 130.516 17.8955 130.243 17.8955C130.001 17.8955 129.789 17.9365 129.607 18.0186C129.429 18.1006 129.293 18.2168 129.197 18.3672C129.101 18.513 129.053 18.6816 129.053 18.873H127.242C127.242 18.5677 127.315 18.2783 127.46 18.0049C127.606 17.7269 127.814 17.4808 128.083 17.2666C128.356 17.0479 128.682 16.877 129.06 16.7539C129.443 16.6309 129.871 16.5693 130.345 16.5693C130.906 16.5693 131.405 16.665 131.842 16.8564C132.284 17.0433 132.631 17.3258 132.881 17.7041C133.137 18.0824 133.264 18.5586 133.264 19.1328V22.3594C133.264 22.7285 133.287 23.0452 133.333 23.3096C133.383 23.5693 133.456 23.7949 133.551 23.9863V24.1025H131.712C131.626 23.9157 131.56 23.6787 131.514 23.3916C131.469 23.0999 131.446 22.8128 131.446 22.5303ZM131.699 19.5977L131.712 20.6709H130.571C130.288 20.6709 130.04 20.7005 129.826 20.7598C129.612 20.8145 129.436 20.8965 129.299 21.0059C129.163 21.1107 129.06 21.2383 128.992 21.3887C128.923 21.5345 128.889 21.7008 128.889 21.8877C128.889 22.07 128.93 22.234 129.012 22.3799C129.099 22.5257 129.222 22.6419 129.381 22.7285C129.545 22.8105 129.737 22.8516 129.956 22.8516C130.275 22.8516 130.553 22.7878 130.79 22.6602C131.027 22.528 131.211 22.3685 131.343 22.1816C131.475 21.9948 131.546 21.8171 131.555 21.6484L132.075 22.4277C132.011 22.6146 131.915 22.8128 131.788 23.0225C131.66 23.2321 131.496 23.4281 131.295 23.6104C131.095 23.7926 130.853 23.943 130.571 24.0615C130.288 24.18 129.96 24.2393 129.586 24.2393C129.108 24.2393 128.68 24.1436 128.301 23.9521C127.923 23.7607 127.625 23.4987 127.406 23.166C127.187 22.8333 127.078 22.4551 127.078 22.0312C127.078 21.6393 127.151 21.293 127.296 20.9922C127.442 20.6914 127.659 20.4385 127.946 20.2334C128.233 20.0238 128.588 19.8665 129.012 19.7617C129.441 19.6523 129.931 19.5977 130.482 19.5977H131.699ZM138.391 16.7061V18.0049H134.153V16.7061H138.391ZM135.288 14.8877H137.099V21.9697C137.099 22.1885 137.129 22.3571 137.188 22.4756C137.247 22.5941 137.336 22.6738 137.455 22.7148C137.573 22.7559 137.714 22.7764 137.878 22.7764C137.997 22.7764 138.106 22.7695 138.207 22.7559C138.307 22.7422 138.391 22.7285 138.46 22.7148L138.466 24.0684C138.316 24.1185 138.145 24.1595 137.954 24.1914C137.767 24.2233 137.555 24.2393 137.318 24.2393C136.912 24.2393 136.557 24.1709 136.251 24.0342C135.946 23.8929 135.709 23.6673 135.541 23.3574C135.372 23.043 135.288 22.6283 135.288 22.1133V14.8877Z" fill="#0E5185"/>
</g>
<defs>
<filter id="filter0_d_622_1322" x="0" y="0.102539" width="197.455" height="42" filterUnits="userSpaceOnUse" color-interpolation-filters="sRGB">
<feFlood flood-opacity="0" result="BackgroundImageFix"/>
<feColorMatrix in="SourceAlpha" type="matrix" values="0 0 0 0 0 0 0 0 0 0 0 0 0 0 0 0 0 0 127 0" result="hardAlpha"/>
<feOffset dy="2"/>
<feGaussianBlur stdDeviation="1.5"/>
<feColorMatrix type="matrix" values="0 0 0 0 0 0 0 0 0 0 0 0 0 0 0 0 0 0 0.08 0"/>
<feBlend mode="normal" in2="BackgroundImageFix" result="effect1_dropShadow_622_1322"/>
<feBlend mode="normal" in="SourceGraphic" in2="effect1_dropShadow_622_1322" result="shape"/>
</filter>
<clipPath id="clip0_622_1322">
<rect width="13.0909" height="13.0909" fill="white" transform="translate(58.4091 12.5571)"/>
</clipPath>
</defs>
</svg>
