<svg width="198" height="43" viewBox="0 0 198 43" fill="none" xmlns="http://www.w3.org/2000/svg">
<g filter="url(#filter0_d_633_1634)">
<rect x="3" y="1.10254" width="191.455" height="36" rx="6" fill="white"/>
<rect x="3.40909" y="1.51163" width="190.636" height="35.1818" rx="5.59091" stroke="#E6E6E6" stroke-width="0.818182"/>
<g clip-path="url(#clip0_633_1634)">
<path d="M70.4666 18.0691H65.9881V13.5906C65.9881 13.0207 65.5245 12.5571 64.9546 12.5571C64.3847 12.5571 63.9211 13.0207 63.9211 13.5906V18.0691H59.4427C58.8728 18.0691 58.4092 18.5327 58.4092 19.1026C58.4092 19.6725 58.8728 20.1361 59.4427 20.1361H63.9211V24.6145C63.9211 25.1844 64.3847 25.648 64.9546 25.648C65.5245 25.648 65.9881 25.1844 65.9881 24.6145V20.1361H70.4666C71.0365 20.1361 71.5001 19.6725 71.5001 19.1026C71.5001 18.5327 71.0365 18.0691 70.4666 18.0691Z" fill="#0E5185"/>
</g>
<path d="M87.2585 14.1494V24.1025H85.3718L81.1404 17.1982V24.1025H79.2605V14.1494H81.1404L85.3855 21.0605V14.1494H87.2585ZM92.3582 24.2393C91.7976 24.2393 91.294 24.1481 90.8474 23.9658C90.4008 23.7835 90.0203 23.5306 89.7058 23.207C89.3959 22.8789 89.1567 22.4984 88.988 22.0654C88.824 21.6279 88.7419 21.1585 88.7419 20.6572V20.3838C88.7419 19.8141 88.824 19.2969 88.988 18.832C89.1521 18.3626 89.3845 17.9593 89.6853 17.6221C89.9861 17.2848 90.3461 17.0251 90.7654 16.8428C91.1847 16.6605 91.6472 16.5693 92.1531 16.5693C92.6772 16.5693 93.1397 16.6582 93.5408 16.8359C93.9418 17.0091 94.2768 17.2552 94.5457 17.5742C94.8145 17.8932 95.0173 18.276 95.1541 18.7227C95.2908 19.1647 95.3591 19.6546 95.3591 20.1924V20.9512H89.5623V19.707H93.5818V19.5703C93.5727 19.2832 93.518 19.0212 93.4177 18.7842C93.3175 18.5426 93.1625 18.3512 92.9529 18.21C92.7432 18.0641 92.4721 17.9912 92.1394 17.9912C91.8705 17.9912 91.6358 18.0505 91.4353 18.1689C91.2393 18.2829 91.0753 18.4469 90.9431 18.6611C90.8155 18.8708 90.7198 19.1214 90.656 19.4131C90.5922 19.7048 90.5603 20.0283 90.5603 20.3838V20.6572C90.5603 20.9671 90.6013 21.2542 90.6833 21.5186C90.7699 21.7829 90.8953 22.013 91.0593 22.209C91.2279 22.4004 91.4285 22.5508 91.6609 22.6602C91.8979 22.765 92.1667 22.8174 92.4675 22.8174C92.8458 22.8174 93.1876 22.7445 93.4929 22.5986C93.8028 22.4482 94.0717 22.2272 94.2996 21.9355L95.2087 22.8789C95.0538 23.1068 94.8442 23.3255 94.5798 23.5352C94.3201 23.7448 94.0056 23.9157 93.6365 24.0479C93.2673 24.1755 92.8412 24.2393 92.3582 24.2393ZM98.6267 22.3252L100.247 16.7061H101.395L101.053 18.6475L99.4197 24.1025H98.4285L98.6267 22.3252ZM97.7312 16.7061L98.948 22.3389L99.0574 24.1025H97.9158L95.9744 16.7061H97.7312ZM102.899 22.2568L104.089 16.7061H105.839L103.911 24.1025H102.769L102.899 22.2568ZM101.573 16.7061L103.179 22.2705L103.391 24.1025H102.4L100.753 18.6475L100.418 16.7061H101.573ZM116.352 20.8281H118.232C118.182 21.4935 117.997 22.0837 117.678 22.5986C117.359 23.109 116.915 23.5101 116.345 23.8018C115.776 24.0934 115.085 24.2393 114.274 24.2393C113.65 24.2393 113.087 24.1299 112.586 23.9111C112.089 23.6878 111.663 23.3711 111.307 22.9609C110.956 22.5462 110.688 22.0495 110.501 21.4707C110.314 20.8874 110.22 20.2334 110.22 19.5088V18.75C110.22 18.0254 110.316 17.3714 110.508 16.7881C110.699 16.2048 110.972 15.708 111.328 15.2979C111.688 14.8831 112.119 14.5641 112.62 14.3408C113.126 14.1175 113.691 14.0059 114.315 14.0059C115.126 14.0059 115.812 14.1562 116.373 14.457C116.933 14.7533 117.369 15.1611 117.678 15.6807C117.988 16.2002 118.175 16.7972 118.239 17.4717H116.359C116.323 17.0524 116.232 16.6969 116.086 16.4053C115.944 16.1136 115.73 15.8926 115.443 15.7422C115.161 15.5872 114.785 15.5098 114.315 15.5098C113.951 15.5098 113.629 15.5781 113.351 15.7148C113.078 15.8516 112.85 16.0566 112.668 16.3301C112.485 16.599 112.349 16.9362 112.258 17.3418C112.166 17.7428 112.121 18.2077 112.121 18.7363V19.5088C112.121 20.0146 112.162 20.4681 112.244 20.8691C112.326 21.2702 112.454 21.6097 112.627 21.8877C112.8 22.1657 113.023 22.3776 113.297 22.5234C113.57 22.6693 113.896 22.7422 114.274 22.7422C114.734 22.7422 115.108 22.6693 115.395 22.5234C115.687 22.3776 115.908 22.1634 116.058 21.8809C116.213 21.5983 116.311 21.2474 116.352 20.8281ZM121.322 13.6025V24.1025H119.51V13.6025H121.322ZM121.035 20.1377H120.502C120.502 19.6227 120.57 19.1488 120.707 18.7158C120.844 18.2829 121.037 17.9069 121.288 17.5879C121.538 17.2643 121.837 17.0137 122.183 16.8359C122.534 16.6582 122.922 16.5693 123.345 16.5693C123.71 16.5693 124.04 16.6217 124.337 16.7266C124.637 16.8268 124.895 16.9886 125.109 17.2119C125.323 17.4352 125.487 17.7269 125.601 18.0869C125.72 18.4424 125.779 18.8753 125.779 19.3857V24.1025H123.961V19.3721C123.961 19.0303 123.911 18.7614 123.81 18.5654C123.71 18.3649 123.566 18.2214 123.38 18.1348C123.197 18.0482 122.972 18.0049 122.703 18.0049C122.411 18.0049 122.161 18.0618 121.951 18.1758C121.741 18.2852 121.568 18.4378 121.431 18.6338C121.299 18.8298 121.199 19.0553 121.131 19.3105C121.067 19.5658 121.035 19.8415 121.035 20.1377ZM131.446 22.5303V19.1191C131.446 18.8685 131.403 18.652 131.316 18.4697C131.23 18.2874 131.097 18.1462 130.92 18.0459C130.742 17.9456 130.516 17.8955 130.243 17.8955C130.001 17.8955 129.789 17.9365 129.607 18.0186C129.429 18.1006 129.293 18.2168 129.197 18.3672C129.101 18.513 129.053 18.6816 129.053 18.873H127.242C127.242 18.5677 127.315 18.2783 127.461 18.0049C127.607 17.7269 127.814 17.4808 128.083 17.2666C128.356 17.0479 128.682 16.877 129.06 16.7539C129.443 16.6309 129.872 16.5693 130.345 16.5693C130.906 16.5693 131.405 16.665 131.843 16.8564C132.285 17.0433 132.631 17.3258 132.882 17.7041C133.137 18.0824 133.264 18.5586 133.264 19.1328V22.3594C133.264 22.7285 133.287 23.0452 133.333 23.3096C133.383 23.5693 133.456 23.7949 133.552 23.9863V24.1025H131.713C131.626 23.9157 131.56 23.6787 131.514 23.3916C131.469 23.0999 131.446 22.8128 131.446 22.5303ZM131.699 19.5977L131.713 20.6709H130.571C130.288 20.6709 130.04 20.7005 129.826 20.7598C129.612 20.8145 129.436 20.8965 129.3 21.0059C129.163 21.1107 129.06 21.2383 128.992 21.3887C128.924 21.5345 128.889 21.7008 128.889 21.8877C128.889 22.07 128.93 22.234 129.012 22.3799C129.099 22.5257 129.222 22.6419 129.382 22.7285C129.546 22.8105 129.737 22.8516 129.956 22.8516C130.275 22.8516 130.553 22.7878 130.79 22.6602C131.027 22.528 131.211 22.3685 131.344 22.1816C131.476 21.9948 131.546 21.8171 131.555 21.6484L132.075 22.4277C132.011 22.6146 131.915 22.8128 131.788 23.0225C131.66 23.2321 131.496 23.4281 131.296 23.6104C131.095 23.7926 130.854 23.943 130.571 24.0615C130.288 24.18 129.96 24.2393 129.587 24.2393C129.108 24.2393 128.68 24.1436 128.302 23.9521C127.923 23.7607 127.625 23.4987 127.406 23.166C127.187 22.8333 127.078 22.4551 127.078 22.0312C127.078 21.6393 127.151 21.293 127.297 20.9922C127.442 20.6914 127.659 20.4385 127.946 20.2334C128.233 20.0238 128.589 19.8665 129.012 19.7617C129.441 19.6523 129.931 19.5977 130.482 19.5977H131.699ZM138.391 16.7061V18.0049H134.153V16.7061H138.391ZM135.288 14.8877H137.099V21.9697C137.099 22.1885 137.129 22.3571 137.188 22.4756C137.247 22.5941 137.336 22.6738 137.455 22.7148C137.573 22.7559 137.715 22.7764 137.879 22.7764C137.997 22.7764 138.107 22.7695 138.207 22.7559C138.307 22.7422 138.391 22.7285 138.46 22.7148L138.467 24.0684C138.316 24.1185 138.145 24.1595 137.954 24.1914C137.767 24.2233 137.555 24.2393 137.318 24.2393C136.913 24.2393 136.557 24.1709 136.252 24.0342C135.946 23.8929 135.709 23.6673 135.541 23.3574C135.372 23.043 135.288 22.6283 135.288 22.1133V14.8877Z" fill="#0E5185"/>
</g>
<defs>
<filter id="filter0_d_633_1634" x="0" y="0.102539" width="197.455" height="42" filterUnits="userSpaceOnUse" color-interpolation-filters="sRGB">
<feFlood flood-opacity="0" result="BackgroundImageFix"/>
<feColorMatrix in="SourceAlpha" type="matrix" values="0 0 0 0 0 0 0 0 0 0 0 0 0 0 0 0 0 0 127 0" result="hardAlpha"/>
<feOffset dy="2"/>
<feGaussianBlur stdDeviation="1.5"/>
<feColorMatrix type="matrix" values="0 0 0 0 0 0 0 0 0 0 0 0 0 0 0 0 0 0 0.08 0"/>
<feBlend mode="normal" in2="BackgroundImageFix" result="effect1_dropShadow_633_1634"/>
<feBlend mode="normal" in="SourceGraphic" in2="effect1_dropShadow_633_1634" result="shape"/>
</filter>
<clipPath id="clip0_633_1634">
<rect width="13.0909" height="13.0909" fill="white" transform="translate(58.4092 12.5571)"/>
</clipPath>
</defs>
</svg>
