<svg width="16" height="16" viewBox="0 0 16 16" fill="none" xmlns="http://www.w3.org/2000/svg">
<path d="M8 15.0718C7.80144 15.0717 7.60622 15.0207 7.43294 14.9237L5.1862 13.6757C4.06931 13.0546 3.13867 12.1464 2.49058 11.045C1.84249 9.94356 1.5005 8.68896 1.5 7.41101V3.94716C1.49981 3.65878 1.60663 3.38058 1.79979 3.16643C1.99295 2.95229 2.25869 2.81744 2.54557 2.78798C3.43937 2.6933 4.31903 2.49447 5.16667 2.19556C5.94386 1.92088 6.68943 1.56381 7.39063 1.13045C7.5741 1.01826 7.78499 0.958927 8.00005 0.958984C8.2151 0.959042 8.42596 1.01849 8.60937 1.13078C9.31065 1.56391 10.0562 1.92086 10.8333 2.19556C11.681 2.49448 12.5606 2.69331 13.4544 2.788C13.7413 2.81745 14.007 2.95231 14.2002 3.16645C14.3934 3.38059 14.5002 3.65878 14.5 3.94716V7.41103C14.4995 8.68898 14.1575 9.94357 13.5094 11.045C12.8613 12.1464 11.9307 13.0546 10.8138 13.6757L8.56641 14.9241C8.3933 15.0208 8.19832 15.0717 8 15.0718ZM8 1.9579C7.97062 1.95777 7.94178 1.96577 7.91667 1.98102C7.15461 2.45161 6.34446 2.83976 5.5 3.13822C4.57874 3.46332 3.62257 3.67942 2.65104 3.7821C2.60976 3.78569 2.57133 3.80464 2.54336 3.83521C2.51539 3.86577 2.49991 3.90573 2.5 3.94716V7.41103C2.50039 8.51064 2.79465 9.59016 3.35232 10.5379C3.90999 11.4856 4.7108 12.267 5.67187 12.8013L7.91927 14.0497C7.94381 14.0635 7.97148 14.0708 7.99963 14.0709C8.02779 14.0709 8.05549 14.0637 8.08008 14.05L10.3281 12.8014C11.2892 12.2671 12.09 11.4856 12.6477 10.5379C13.2054 9.59018 13.4996 8.51065 13.5 7.41103V3.94716C13.5001 3.90573 13.4846 3.86578 13.4566 3.83522C13.4287 3.80465 13.3902 3.78571 13.349 3.78212C12.3774 3.67944 11.4213 3.46333 10.5 3.13822C9.65554 2.83975 8.84539 2.45192 8.08333 1.98132C8.05831 1.96584 8.02943 1.95772 8 1.9579Z" fill="#81817C"/>
<path d="M7.66673 9.50044C7.54429 9.50064 7.42608 9.45567 7.33473 9.37414L5.83473 8.04081C5.73607 7.95262 5.6764 7.82892 5.6688 7.69681C5.66119 7.56471 5.70628 7.43497 5.79417 7.33605C5.88206 7.23713 6.00558 7.17709 6.13767 7.1691C6.26975 7.16111 6.39962 7.20581 6.4988 7.29341L7.63486 8.30317L9.8022 5.99165C9.8469 5.9429 9.90084 5.90351 9.96087 5.87575C10.0209 5.84799 10.0859 5.83242 10.152 5.82994C10.2181 5.82746 10.284 5.83812 10.3459 5.8613C10.4079 5.88448 10.4646 5.91972 10.5128 5.96498C10.5611 6.01024 10.5999 6.06462 10.6269 6.12498C10.654 6.18533 10.6688 6.25045 10.6705 6.31657C10.6723 6.38269 10.6608 6.4485 10.637 6.51018C10.6131 6.57186 10.5772 6.62818 10.5314 6.67589L8.03136 9.34256C7.98467 9.39248 7.9282 9.43227 7.86547 9.45943C7.80274 9.48659 7.73509 9.50055 7.66673 9.50044Z" fill="#81817C"/>
</svg>
