<svg width="16" height="16" viewBox="0 0 16 16" fill="none" xmlns="http://www.w3.org/2000/svg">
<path d="M13.4544 2.78773C12.5607 2.69263 11.6811 2.49382 10.8333 2.19531C10.0554 1.92044 9.30913 1.56293 8.60742 1.1289C8.42431 1.01776 8.21421 0.958984 8 0.958984C7.78579 0.958984 7.5757 1.01776 7.39258 1.1289L7.39191 1.12957C6.69034 1.56324 5.94434 1.92052 5.16667 2.19531C4.31912 2.49376 3.43973 2.69258 2.54623 2.78775C2.25921 2.81715 1.99332 2.952 1.80003 3.16621C1.60675 3.38041 1.49984 3.65872 1.5 3.94724V7.41078C1.50047 8.68869 1.84245 9.94325 2.49054 11.0446C3.13864 12.146 4.0693 13.0542 5.1862 13.6751L7.43294 14.9238C7.60597 15.0211 7.80115 15.0722 7.99967 15.0722C8.1982 15.0722 8.39337 15.0211 8.56641 14.9238L10.8138 13.6751C11.9307 13.0542 12.8614 12.146 13.5095 11.0446C14.1576 9.94325 14.4995 8.68869 14.5 7.41078V3.94724C14.5002 3.65882 14.3934 3.38058 14.2002 3.16639C14.0071 2.95219 13.7413 2.81727 13.4544 2.78773ZM10.653 6.78907L8.15299 9.45573C8.03428 9.58262 7.87067 9.65808 7.69709 9.66598C7.52351 9.67389 7.35371 9.61362 7.22396 9.49805L5.72396 8.16472C5.59187 8.04731 5.51183 7.88223 5.50145 7.70581C5.49108 7.52938 5.55121 7.35606 5.66862 7.22397C5.78603 7.09188 5.95111 7.01184 6.12754 7.00146C6.30396 6.99108 6.47728 7.05121 6.60937 7.16863L7.62435 8.07032L9.68035 5.87761C9.74274 5.81115 9.81807 5.75814 9.9017 5.72186C9.98533 5.68558 10.0755 5.66679 10.1667 5.66664C10.2966 5.66671 10.4237 5.70476 10.5324 5.77612C10.641 5.84748 10.7264 5.94903 10.7781 6.06828C10.8297 6.18753 10.8454 6.31929 10.8232 6.44734C10.801 6.5754 10.7418 6.6942 10.653 6.78907Z" fill="black"/>
</svg>
