<svg width="24" height="24" viewBox="0 0 24 24" fill="none" xmlns="http://www.w3.org/2000/svg">
<g clip-path="url(#clip0_622_1489)">
<path d="M18.5996 6.0672C20.422 7.88965 21.3333 10.2783 21.3333 12.6668C21.3333 15.0554 20.4221 17.444 18.5996 19.2665C16.7771 21.0889 14.3885 22.0002 12 22.0002C9.6114 22.0002 7.22278 21.0889 5.40033 19.2665C3.57788 17.444 2.66663 15.0554 2.66663 12.6668C2.66663 10.2783 3.57787 7.88965 5.40033 6.0672C7.22278 4.24475 9.6114 3.3335 12 3.3335C14.3885 3.3335 16.7771 4.24474 18.5996 6.0672ZM20.5555 12.6668C20.5555 10.4773 19.7202 8.28765 18.0497 6.61711C16.3791 4.94657 14.1895 4.1113 12 4.1113C9.81038 4.1113 7.62078 4.94658 5.95024 6.61711C4.2797 8.28765 3.44443 10.4772 3.44443 12.6668C3.44443 14.8564 4.27971 17.046 5.95024 18.7165C7.62078 20.3871 9.81037 21.2224 12 21.2224C14.1895 21.2224 16.3791 20.3871 18.0497 18.7165C19.7202 17.046 20.5555 14.8564 20.5555 12.6668ZM16.2584 8.40843C17.4343 9.58437 18.0223 11.1256 18.0223 12.6668C18.0223 14.208 17.4343 15.7493 16.2584 16.9252C15.0824 18.1012 13.5412 18.6892 12 18.6892C10.4587 18.6892 8.9175 18.1012 7.74156 16.9252C6.56562 15.7493 5.97762 14.208 5.97762 12.6668C5.97762 11.1256 6.56562 9.58437 7.74156 8.40843C8.9175 7.23249 10.4587 6.64449 12 6.64449C13.5412 6.64449 15.0824 7.23249 16.2584 8.40843ZM17.2445 12.6668C17.2445 11.3246 16.7325 9.98237 15.7084 8.95834C14.6844 7.93432 13.3422 7.42228 12 7.42228C10.6577 7.42228 9.31549 7.93432 8.29146 8.95834C7.26744 9.98236 6.7554 11.3246 6.7554 12.6668C6.7554 14.0091 7.26744 15.3513 8.29146 16.3753C9.31548 17.3993 10.6577 17.9114 12 17.9114C13.3422 17.9114 14.6844 17.3993 15.7084 16.3753C16.7325 15.3513 17.2445 14.0091 17.2445 12.6668Z" fill="#81817C"/>
<path d="M17.3334 10.0002L18.0001 9.3335L19.6301 8.78928C19.4517 8.43799 19.2486 8.09788 19.0207 7.77188C18.7402 7.37068 18.0001 8.00016 18.0498 6.61724C17.6829 6.25036 16.6668 6.66683 16.8952 5.64634C16.1607 6.06732 16.229 5.2153 15.8778 5.03693L16.8952 5.64634L18.0498 6.61724C18.3215 6.73215 18.6668 7.3335 19.0207 7.77188C18.6787 7.42984 19.4207 8.01679 19.0207 7.77188C19.3627 8.11391 19.3852 8.3893 19.6301 8.78928C19.7863 9.04438 18.0001 10.0002 17.3334 10.0002ZM20.3497 9.22387L17.613 11.2308C17.5753 11.2628 17.5308 11.288 17.4809 11.3041C17.2765 11.37 17.0573 11.2577 16.9914 11.0533C16.8665 10.6655 16.6955 10.2878 16.4767 9.93041C16.2663 9.58675 16.0103 9.26016 15.7086 8.95846C15.4069 8.65676 15.0803 8.40075 14.7366 8.19033C14.388 7.97683 14.0207 7.80799 13.643 7.68384C13.5939 7.67219 13.5463 7.65074 13.503 7.61904C13.3299 7.49204 13.2924 7.24865 13.4194 7.07546L15.4275 4.3387C15.5301 4.17602 15.74 4.11081 15.9193 4.19372C16.4078 4.41963 16.8828 4.69265 17.3387 5.01136C17.7864 5.32428 18.2088 5.6764 18.5997 6.06732C18.9906 6.45825 19.3427 6.88064 19.6557 7.32829C19.9693 7.777 20.238 8.24447 20.4618 8.72482C20.5539 8.89323 20.5087 9.10727 20.3497 9.22387Z" fill="#81817C"/>
<path d="M18.0496 18.7169C18.4165 18.35 18.7401 17.9635 19.0205 17.5623C18.6666 16.6668 19.4516 16.8962 19.6299 16.5449C19.515 16.8166 19.1767 17.3072 19.0205 17.5623C18.7756 17.9622 18.3917 18.3749 18.0496 18.7169C17.7076 19.0589 17.295 19.4429 16.895 19.6878C16.6399 19.844 16.1493 20.1823 15.8776 20.2972C16.6666 20.6668 15.8776 18.7169 16.895 19.6878C17.2962 19.4073 17.6827 19.0838 18.0496 18.7169ZM19.6555 18.0059C19.3426 18.4535 18.9905 18.8759 18.5995 19.2668C18.2086 19.6577 17.7862 20.0099 17.3386 20.3228C16.8899 20.6364 16.4224 20.9051 15.942 21.129C15.7736 21.221 15.5589 21.1764 15.4423 21.0174L13.4361 18.2802C13.4041 18.2425 13.3788 18.198 13.3627 18.148C13.2968 17.9436 13.4091 17.7244 13.6136 17.6586C14.0013 17.5336 14.3791 17.3626 14.7365 17.1438C15.0801 16.9334 15.4067 16.6774 15.7084 16.3757C16.0101 16.074 16.2661 15.7474 16.4765 15.4037C16.69 15.0551 16.8589 14.6878 16.983 14.3101C16.9947 14.261 17.0161 14.2134 17.0478 14.1702C17.1748 13.997 17.4182 13.9595 17.5914 14.0865L20.3282 16.0946C20.4908 16.1972 20.5561 16.4071 20.4731 16.5864C20.2472 17.075 19.9742 17.5499 19.6555 18.0059Z" fill="#81817C"/>
<path d="M8.12221 20.2973L8.08062 20.4113C7.8089 20.2964 7.58838 20.1564 7.33327 20.0002C6.93329 19.7552 6.34197 19.6755 5.99994 19.3335C5.65792 18.9915 5.024 18.1152 4.77907 17.7152C4.62286 17.4601 4.48477 16.8167 4.36986 16.5449C4.54823 16.8962 4.75141 17.2363 4.97927 17.5623C5.25973 17.9635 5.58329 18.3501 5.95017 18.717C6.31706 19.0839 6.70361 19.4074 7.10481 19.6879C7.43081 19.9157 7.77091 20.1189 8.12221 20.2973ZM10.5798 18.2582L8.57249 20.9955C8.46983 21.1582 8.25992 21.2234 8.08062 21.1405C7.59211 20.9146 7.11714 20.6416 6.66121 20.3229C6.21357 20.0099 5.79118 19.6578 5.40024 19.2669C5.00932 18.876 4.65721 18.4536 4.34429 18.0059C4.03063 17.5572 3.76192 17.0897 3.53811 16.6094C3.44608 16.441 3.49065 16.2263 3.64964 16.1097L6.38687 14.1035C6.4246 14.0715 6.46906 14.0462 6.51906 14.0301C6.72347 13.9642 6.94262 14.0765 7.0085 14.2809C7.13348 14.6687 7.30442 15.0464 7.52325 15.4038C7.73368 15.7475 7.98969 16.074 8.29139 16.3758C8.59309 16.6775 8.91968 16.9335 9.26333 17.1439C9.61198 17.3574 9.97924 17.5262 10.357 17.6504C10.4061 17.662 10.4537 17.6835 10.4969 17.7152C10.6701 17.8422 10.7068 18.085 10.5798 18.2582Z" fill="#81817C"/>
<path d="M6.24641 5.64626C6.58844 5.30424 6.93334 5.57843 7.33333 5.3335C7.58844 5.17729 7.72827 4.78174 8 4.66683L8.12229 5.03684C7.771 5.21522 7.43089 5.41839 7.10489 5.64626C6.70369 5.92671 6.31714 6.25027 5.95025 6.61715C5.58337 6.98405 5.25981 7.37059 4.97935 7.77179C4.75149 8.09779 4.54831 8.4379 4.36994 8.78919L4.34437 8.40846C4.45928 8.13675 5.2441 7.30897 5.40032 7.05387C5.64524 6.65389 5.90438 5.98829 6.24641 5.64626ZM9.2634 8.19024C8.91978 8.40067 8.59318 8.65668 8.29147 8.95838C7.98977 9.26008 7.73376 9.58667 7.52334 9.93032C7.30984 10.279 7.141 10.6462 7.01685 11.024C7.0052 11.0731 6.98375 11.1207 6.95205 11.1639C6.82504 11.3371 6.58166 11.3745 6.40847 11.2475L3.67171 9.23948C3.50903 9.13682 3.44382 8.92692 3.52673 8.74761C3.75264 8.2591 4.02566 7.78414 4.34437 7.32821C4.65729 6.88056 5.0094 6.45817 5.40032 6.06724C5.79126 5.67631 6.21365 5.3242 6.6613 5.01128C7.11001 4.69762 7.57748 4.42891 8.05783 4.20511C8.22624 4.11307 8.44093 4.15764 8.55752 4.31663L10.5637 7.05387C10.5957 7.09159 10.621 7.13605 10.6371 7.18605C10.703 7.39046 10.5907 7.60961 10.3863 7.67549C9.99854 7.80047 9.62081 7.97141 9.2634 8.19024Z" fill="#81817C"/>
<path d="M16.7412 4.75801C16.5894 4.90986 16.5894 5.15608 16.7412 5.30793C16.8931 5.45978 17.1393 5.45978 17.2911 5.30793C17.5765 5.02255 17.9506 4.87985 18.3247 4.87985C18.6988 4.87985 19.0729 5.02255 19.3583 5.30793C19.6437 5.59331 19.7864 5.96742 19.7864 6.34152C19.7864 6.71564 19.6437 7.08975 19.3583 7.37513C19.2065 7.52698 19.2065 7.7732 19.3583 7.92505C19.5102 8.0769 19.7564 8.0769 19.9082 7.92505C20.3455 7.48775 20.5642 6.91462 20.5642 6.34152C20.5642 5.76843 20.3455 5.19531 19.9082 4.75801C19.4709 4.32071 18.8978 4.10205 18.3247 4.10205C17.7516 4.10205 17.1785 4.32071 16.7412 4.75801Z" fill="#81817C"/>
<path d="M19.9082 17.4083C19.7564 17.2565 19.5102 17.2565 19.3583 17.4083C19.2065 17.5602 19.2065 17.8064 19.3583 17.9582C19.6437 18.2436 19.7864 18.6177 19.7864 18.9918C19.7864 19.3659 19.6437 19.7401 19.3583 20.0254C19.0729 20.3108 18.6988 20.4535 18.3247 20.4535C17.9506 20.4535 17.5765 20.3108 17.2911 20.0254C17.1393 19.8736 16.8931 19.8736 16.7412 20.0254C16.5894 20.1773 16.5894 20.4235 16.7412 20.5754C17.1785 21.0127 17.7516 21.2313 18.3247 21.2313C18.8978 21.2313 19.4709 21.0127 19.9082 20.5754C20.3455 20.1381 20.5642 19.5649 20.5642 18.9918C20.5642 18.4188 20.3455 17.8456 19.9082 17.4083Z" fill="#81817C"/>
<path d="M7.25891 20.5754C7.41076 20.4235 7.41076 20.1773 7.25891 20.0254C7.10706 19.8736 6.86084 19.8736 6.70899 20.0254C6.42361 20.3108 6.0495 20.4535 5.67539 20.4535C5.30129 20.4535 4.92717 20.3108 4.64179 20.0254C4.35641 19.7401 4.21371 19.3659 4.21371 18.9918C4.21371 18.6177 4.35641 18.2436 4.64179 17.9582C4.79364 17.8064 4.79364 17.5602 4.64179 17.4083C4.48994 17.2565 4.24372 17.2565 4.09188 17.4083C3.65458 17.8456 3.43591 18.4187 3.43591 18.9918C3.43591 19.5649 3.65458 20.1381 4.09188 20.5754C4.52917 21.0127 5.1023 21.2313 5.67538 21.2313C6.24848 21.2313 6.82161 21.0127 7.25891 20.5754Z" fill="#81817C"/>
<path d="M4.09187 7.92505C4.24372 8.0769 4.48994 8.0769 4.64179 7.92505C4.79364 7.7732 4.79364 7.52698 4.64179 7.37513C4.35641 7.08975 4.21371 6.71564 4.21371 6.34152C4.21371 5.96742 4.35641 5.59331 4.64179 5.30793C4.92717 5.02255 5.30129 4.87985 5.67539 4.87985C6.0495 4.87985 6.42361 5.02255 6.70899 5.30793C6.86084 5.45978 7.10706 5.45978 7.25891 5.30793C7.41076 5.15608 7.41076 4.90986 7.25891 4.75801C6.82161 4.32071 6.24848 4.10205 5.67538 4.10205C5.1023 4.10205 4.52917 4.32071 4.09188 4.75801C3.65458 5.19531 3.43591 5.76844 3.43591 6.34152C3.43591 6.91462 3.65458 7.48775 4.09187 7.92505Z" fill="#81817C"/>
</g>
<defs>
<clipPath id="clip0_622_1489">
<rect width="24" height="24" fill="white"/>
</clipPath>
</defs>
</svg>
