<svg width="16" height="16" viewBox="0 0 16 16" fill="none" xmlns="http://www.w3.org/2000/svg">
<g clip-path="url(#clip0_98_399)">
<path d="M15.1802 12.8915C15.1802 14.5148 13.8595 15.8355 12.2364 15.8355C10.6132 15.8355 9.29253 14.5148 9.29253 12.8915C9.29253 12.5943 9.3377 12.3076 9.42003 12.037L5.9107 10.0111C5.3732 10.5845 4.61153 10.9453 3.76537 10.9453C2.1422 10.9453 0.821533 9.6248 0.821533 8.00163C0.821533 6.3783 2.1422 5.05763 3.76537 5.05763C4.61153 5.05763 5.3732 5.41864 5.9107 5.99197L9.41987 3.96647C9.33753 3.6958 9.29237 3.40914 9.29237 3.11197C9.29237 1.48864 10.613 0.167969 12.2362 0.167969C13.8594 0.167969 15.18 1.48864 15.18 3.11197C15.18 4.73514 13.8594 6.05563 12.2362 6.05563C11.389 6.05563 10.6267 5.69397 10.0892 5.11947L6.5812 7.14447C6.66403 7.4158 6.70937 7.70347 6.70937 8.00163C6.70937 8.2998 6.66403 8.58747 6.5812 8.8588L10.0892 10.8838C10.6269 10.3093 11.3892 9.94763 12.2362 9.94763C13.8595 9.9478 15.1802 11.2681 15.1802 12.8915Z" fill="black"/>
</g>
<defs>
<clipPath id="clip0_98_399">
<rect width="16" height="16" fill="white"/>
</clipPath>
</defs>
</svg>
