<svg width="16" height="16" viewBox="0 0 16 16" fill="none" xmlns="http://www.w3.org/2000/svg">
<path fill-rule="evenodd" clip-rule="evenodd" d="M12.4444 1.18646C12.3521 1.09257 12.2422 1.01791 12.1209 0.9668C11.9996 0.915687 11.8693 0.889135 11.7377 0.888681H4.04883C3.91507 0.888108 3.78253 0.914139 3.65893 0.96526C3.53532 1.01638 3.42311 1.09157 3.32883 1.18646C2.94216 1.56868 2.27994 2.22201 1.89328 2.62646C1.70516 2.81709 1.59976 3.07419 1.59994 3.34201V14.0931C1.59816 14.2269 1.62312 14.3597 1.67336 14.4837C1.7236 14.6077 1.7981 14.7204 1.8925 14.8152C1.98689 14.91 2.09927 14.985 2.22305 15.0358C2.34682 15.0866 2.47949 15.1121 2.61328 15.1109H11.5022L11.1111 14.9242C10.6597 14.7021 10.2803 14.3567 10.0169 13.9281C9.7534 13.4995 9.61657 13.0051 9.62216 12.502V10.0842C9.62304 9.99547 9.65515 9.90985 9.71285 9.8424C9.77055 9.77495 9.85017 9.72996 9.93772 9.71535C10.7502 9.57512 11.5144 9.23277 12.1599 8.71979C12.2242 8.67216 12.3021 8.64645 12.3822 8.64645C12.4622 8.64645 12.5401 8.67216 12.6044 8.71979L12.7377 8.81757V1.90646C12.7394 1.77294 12.7143 1.64044 12.6639 1.51679C12.6135 1.39313 12.5389 1.28081 12.4444 1.18646ZM5.65328 3.55535H8.69328C8.78697 3.5655 8.87362 3.6099 8.93657 3.68004C8.99952 3.75018 9.03434 3.8411 9.03434 3.93535C9.03434 4.02959 8.99952 4.12052 8.93657 4.19065C8.87362 4.26079 8.78697 4.3052 8.69328 4.31535H5.65328C5.55958 4.3052 5.47293 4.26079 5.40998 4.19065C5.34703 4.12052 5.31221 4.02959 5.31221 3.93535C5.31221 3.8411 5.34703 3.75018 5.40998 3.68004C5.47293 3.6099 5.55958 3.5655 5.65328 3.55535ZM7.67994 11.9376H4.12439C4.03069 11.9274 3.94404 11.883 3.88109 11.8129C3.81814 11.7427 3.78332 11.6518 3.78332 11.5576C3.78332 11.4633 3.81814 11.3724 3.88109 11.3023C3.94404 11.2321 4.03069 11.1877 4.12439 11.1776H7.67994C7.77364 11.1877 7.86029 11.2321 7.92324 11.3023C7.98619 11.3724 8.02101 11.4633 8.02101 11.5576C8.02101 11.6518 7.98619 11.7427 7.92324 11.8129C7.86029 11.883 7.77364 11.9274 7.67994 11.9376ZM7.67994 9.39979H4.12439C4.03069 9.38964 3.94404 9.34524 3.88109 9.2751C3.81814 9.20496 3.78332 9.11404 3.78332 9.01979C3.78332 8.92555 3.81814 8.83462 3.88109 8.76449C3.94404 8.69435 4.03069 8.64994 4.12439 8.63979H7.67994C7.77364 8.64994 7.86029 8.69435 7.92324 8.76449C7.98619 8.83462 8.02101 8.92555 8.02101 9.01979C8.02101 9.11404 7.98619 9.20496 7.92324 9.2751C7.86029 9.34524 7.77364 9.38964 7.67994 9.39979ZM10.2222 6.85757H4.13328C4.03958 6.84742 3.95293 6.80301 3.88998 6.73288C3.82703 6.66274 3.79221 6.57182 3.79221 6.47757C3.79221 6.38332 3.82703 6.2924 3.88998 6.22226C3.95293 6.15213 4.03958 6.10772 4.13328 6.09757H10.2222C10.3159 6.10772 10.4025 6.15213 10.4655 6.22226C10.5284 6.2924 10.5632 6.38332 10.5632 6.47757C10.5632 6.57182 10.5284 6.66274 10.4655 6.73288C10.4025 6.80301 10.3159 6.84742 10.2222 6.85757Z" fill="black"/>
<path fill-rule="evenodd" clip-rule="evenodd" d="M14.4 10.404V12.5018C14.4 12.8594 14.3002 13.2099 14.1117 13.5138C13.9233 13.8177 13.6537 14.0629 13.3334 14.2218L12.3823 14.6662L11.4311 14.2218C11.1109 14.0593 10.8426 13.8104 10.6564 13.5033C10.4703 13.1962 10.3738 12.8431 10.3778 12.484V10.404C11.112 10.274 11.8041 9.9691 12.3956 9.51514C12.5111 9.59514 12.6267 9.67069 12.7511 9.75069C13.2527 10.0743 13.8129 10.2963 14.4 10.404Z" fill="black"/>
</svg>
