<svg width="14" height="14" viewBox="0 0 14 14" fill="none" xmlns="http://www.w3.org/2000/svg">
<path d="M5.50327 5.84766H2.3374C2.11089 5.84766 1.92725 6.0313 1.92725 6.25781C1.92725 6.48433 2.11089 6.66797 2.3374 6.66797H5.50324C5.72976 6.66797 5.9134 6.48433 5.9134 6.25781C5.9134 6.0313 5.72978 5.84766 5.50327 5.84766Z" fill="#81817C"/>
<path d="M5.50327 4.20654H2.3374C2.11089 4.20654 1.92725 4.39018 1.92725 4.6167C1.92725 4.84322 2.11089 5.02686 2.3374 5.02686H5.50324C5.72976 5.02686 5.9134 4.84322 5.9134 4.6167C5.9134 4.39018 5.72978 4.20654 5.50327 4.20654Z" fill="#81817C"/>
<path d="M2.3374 3.38623H8.45419C8.6807 3.38623 8.86434 3.20259 8.86434 2.97608C8.86434 2.74956 8.6807 2.56592 8.45419 2.56592H2.3374C2.11089 2.56592 1.92725 2.74956 1.92725 2.97608C1.92725 3.20259 2.11089 3.38623 2.3374 3.38623Z" fill="#81817C"/>
<path d="M5.50327 7.47705H2.3374C2.11089 7.47705 1.92725 7.66069 1.92725 7.88721C1.92725 8.11372 2.11089 8.29736 2.3374 8.29736H5.50324C5.72976 8.29736 5.9134 8.11372 5.9134 7.88721C5.9134 7.66069 5.72978 7.47705 5.50327 7.47705Z" fill="#81817C"/>
<path d="M5.50327 8.84424H2.3374C2.11089 8.84424 1.92725 9.02788 1.92725 9.2544C1.92725 9.48091 2.11089 9.66455 2.3374 9.66455H5.50324C5.72976 9.66455 5.9134 9.48091 5.9134 9.2544C5.9134 9.02788 5.72978 8.84424 5.50327 8.84424Z" fill="#81817C"/>
<path d="M5.50327 10.4849H2.3374C2.11089 10.4849 1.92725 10.6685 1.92725 10.895C1.92725 11.1215 2.11089 11.3052 2.3374 11.3052H5.50324C5.72976 11.3052 5.9134 11.1215 5.9134 10.895C5.9134 10.6685 5.72978 10.4849 5.50327 10.4849Z" fill="#81817C"/>
<path d="M13.9855 7.21138C13.9838 6.9859 13.8004 6.80434 13.5754 6.80434C13.5712 6.80437 13.5668 6.8044 13.5626 6.8044C13.0607 6.8044 12.5998 6.51668 12.3866 6.06931C12.3185 5.92647 12.1744 5.83563 12.0164 5.83563C12.0154 5.83563 12.0143 5.83563 12.0133 5.83563L10.8175 5.84446V0.683595C10.8175 0.306661 10.5108 0 10.1339 0H0.683595C0.306661 0 0 0.306661 0 0.683595V13.3164C0 13.6933 0.306661 14 0.683595 14L10.4309 14C10.4396 14 10.4684 13.998 10.4721 13.9975C10.5299 13.9915 10.5866 13.9733 10.6383 13.9428L11.5696 13.3915C12.3147 12.9504 12.9334 12.322 13.3589 11.5741C13.7847 10.8255 14.0065 9.97592 13.9999 9.11724L13.9855 7.21138ZM0.820314 0.820314H9.99714V5.85053L8.72806 5.85991C8.56876 5.86109 8.42454 5.95439 8.35821 6.09917C8.15048 6.55248 7.68957 6.84779 7.18401 6.85154C7.07521 6.85233 6.97119 6.89633 6.89485 6.97385C6.81851 7.05134 6.77604 7.15601 6.77689 7.26481L6.79135 9.17065C6.79786 10.0293 7.03239 10.8755 7.46959 11.6177C7.83425 12.2368 8.33264 12.7701 8.92455 13.1797L0.820314 13.1797V0.820314ZM11.1518 12.6855L10.4258 13.1152L9.69341 12.6963C8.42031 11.968 7.62263 10.6147 7.61164 9.16438L7.59996 7.62878C8.16757 7.51271 8.66842 7.16873 8.97579 6.6784L11.7777 6.6577C12.0926 7.14357 12.5985 7.48009 13.168 7.58771L13.1796 9.12342C13.1906 10.5737 12.4136 11.9386 11.1518 12.6855Z" fill="#81817C"/>
<path d="M11.2984 8.71706L10.1355 9.95355L9.72778 9.45272C9.58477 9.27703 9.3264 9.25056 9.15074 9.3936C8.97506 9.53661 8.94859 9.79495 9.0916 9.97064L9.79516 10.8348C9.8698 10.9265 9.98041 10.9816 10.0986 10.9858C10.1035 10.986 10.1084 10.986 10.1133 10.986C10.2262 10.986 10.3344 10.9395 10.412 10.8569L11.896 9.27903C12.0512 9.11401 12.0432 8.85443 11.8782 8.69926C11.7131 8.54408 11.4536 8.55204 11.2984 8.71706Z" fill="#81817C"/>
</svg>
