<svg width="431" height="325" viewBox="0 0 431 325" fill="none" xmlns="http://www.w3.org/2000/svg">
<path d="M175.376 14.4436C177.856 12.6832 180.53 11.2897 183.32 10.2694L184.41 2.0203L198.118 0.76416L200.689 8.67682C203.618 9.17283 206.502 10.0565 209.26 11.3372L215.86 6.27678L226.442 15.0819L222.667 22.4911C224.428 24.9711 225.821 27.6468 226.841 30.4366L235.089 31.5264L236.346 45.2342L228.433 47.8062C227.937 50.7343 227.053 53.6177 225.773 56.376L230.833 62.9773L222.029 73.5589L214.618 69.7836C212.139 71.5443 209.464 72.9372 206.674 73.9574L205.584 82.2066L191.876 83.4628L189.304 75.5495C186.376 75.0535 183.492 74.1692 180.734 72.8891L174.133 77.9496L163.552 69.1449L167.327 61.7352C165.566 59.2552 164.172 56.5808 163.152 53.7903L154.904 52.7007L153.647 38.9929L161.561 36.4205C162.057 33.4924 162.941 30.6086 164.221 27.8509L159.161 21.2501L167.965 10.6683L175.376 14.4436ZM184.046 32.1872C178.829 38.4566 179.683 47.7672 185.953 52.9834C192.222 58.1999 201.533 57.346 206.749 51.0769C211.965 44.8076 211.112 35.4965 204.842 30.2805C198.573 25.0646 189.262 25.9182 184.046 32.1872Z" fill="#BAECFE"/>
<path d="M427.15 205.229C428.987 203.925 430.968 202.893 433.035 202.137L433.842 196.027L443.996 195.096L445.901 200.957C448.07 201.325 450.206 201.979 452.249 202.928L457.138 199.179L464.976 205.702L462.18 211.19C463.485 213.027 464.517 215.009 465.272 217.075L471.382 217.882L472.313 228.036L466.451 229.941C466.084 232.11 465.429 234.246 464.481 236.289L468.229 241.179L461.708 249.017L456.219 246.221C454.382 247.525 452.4 248.557 450.334 249.312L449.526 255.423L439.373 256.353L437.468 250.492C435.298 250.124 433.162 249.469 431.119 248.521L426.23 252.27L418.392 245.748L421.188 240.259C419.884 238.422 418.852 236.441 418.096 234.374L411.986 233.567L411.056 223.413L416.917 221.508C417.285 219.339 417.94 217.203 418.888 215.16L415.14 210.271L421.661 202.432L427.15 205.229ZM433.572 218.372C429.708 223.016 430.341 229.913 434.985 233.777C439.628 237.641 446.525 237.008 450.389 232.365C454.252 227.721 453.621 220.824 448.976 216.96C444.333 213.096 437.436 213.729 433.572 218.372Z" fill="#BAECFE"/>
<path d="M421.558 318.4H106.198C95.7737 318.4 87.3235 309.95 87.3235 299.526V83.0902C87.3235 75.4864 93.4876 69.3221 101.091 69.3221H427.421C434.607 69.3221 440.432 75.1473 440.432 82.3328V299.526C440.432 309.95 431.982 318.4 421.558 318.4Z" fill="#0E5185"/>
<path d="M440.063 322.192H90.8034C80.726 322.192 72.5566 314.023 72.5566 303.945V301.102C72.5566 300.713 72.8715 300.398 73.2598 300.398H454.42C454.808 300.398 455.123 300.713 455.123 301.102V307.132C455.123 315.449 448.38 322.192 440.063 322.192Z" fill="#0E5185"/>
<path d="M440.063 322.192C440.063 322.192 440.236 322.177 440.578 322.156C440.918 322.117 441.436 322.15 442.102 322.018C443.433 321.848 445.454 321.403 447.721 320.037C448.866 319.384 450.029 318.448 451.128 317.252C452.222 316.054 453.236 314.559 453.959 312.773C454.693 310.99 455.083 308.918 455.056 306.697C455.055 305.584 455.053 304.435 455.052 303.25C455.051 302.658 455.05 302.057 455.05 301.447C455.053 301.137 455.078 300.833 454.848 300.642C454.646 300.428 454.33 300.478 454.013 300.474C433.924 300.489 404.862 300.51 368.952 300.536C297.124 300.551 197.905 300.571 88.3208 300.593C84.8951 300.593 81.4794 300.593 78.0746 300.593H75.5228H74.2485H73.6118H73.2935C73.198 300.593 73.1342 300.603 73.0599 300.634C72.9197 300.695 72.8067 300.822 72.7696 300.97C72.7365 301.093 72.7581 301.357 72.7518 301.554V302.825C72.7358 303.676 72.7734 304.514 72.8228 305.348C72.9669 307.011 73.2845 308.67 73.8964 310.223C74.1485 311.021 74.5595 311.751 74.9089 312.506C75.3497 313.21 75.7288 313.958 76.2567 314.602C78.2034 317.302 80.936 319.386 83.978 320.653C85.5098 321.27 87.118 321.672 88.7504 321.873C90.3809 322.03 92.0433 321.999 93.7002 321.999C97.0114 321.999 100.31 321.999 103.595 321.999C110.166 322 116.683 322 123.143 322.001C148.984 322.005 173.91 322.009 197.654 322.012C245.142 322.028 287.906 322.042 323.819 322.054C359.729 322.08 388.789 322.102 408.875 322.116C418.914 322.132 426.71 322.144 432 322.153C434.641 322.161 436.655 322.168 438.014 322.172C439.369 322.179 440.063 322.192 440.063 322.192C440.063 322.192 439.369 322.205 438.014 322.212C436.656 322.217 434.641 322.223 432 322.232C426.71 322.24 418.914 322.252 408.875 322.268C388.789 322.283 359.729 322.304 323.819 322.33C287.906 322.342 245.142 322.356 197.654 322.372C173.91 322.375 148.984 322.379 123.143 322.383C116.683 322.384 110.166 322.384 103.595 322.385C100.31 322.385 97.0115 322.386 93.7003 322.386C92.0475 322.386 90.3859 322.42 88.707 322.259C87.0395 322.054 85.3963 321.643 83.8312 321.012C80.723 319.719 77.9324 317.59 75.9431 314.833C75.4046 314.174 75.0159 313.411 74.5665 312.691C74.2085 311.92 73.7898 311.174 73.5313 310.359C72.9066 308.772 72.5812 307.077 72.4343 305.378C72.3834 304.523 72.3462 303.67 72.3621 302.826V301.554C72.374 301.33 72.3341 301.164 72.393 300.87C72.4603 300.606 72.657 300.384 72.9062 300.276C73.027 300.222 73.1774 300.201 73.2936 300.204H73.6119H74.2486H75.5229H78.0747C81.4796 300.204 84.8951 300.204 88.321 300.204C197.905 300.226 297.124 300.246 368.952 300.261C404.862 300.287 433.924 300.308 454.013 300.323L454.489 300.327C454.66 300.342 454.827 300.415 454.95 300.533C455.076 300.65 455.161 300.808 455.187 300.976C455.208 301.153 455.192 301.289 455.197 301.447C455.196 302.057 455.196 302.658 455.195 303.251C455.193 304.435 455.192 305.584 455.19 306.697C455.212 308.931 454.811 311.024 454.066 312.816C453.332 314.615 452.305 316.116 451.199 317.318C450.089 318.517 448.915 319.454 447.761 320.105C445.476 321.467 443.443 321.9 442.107 322.058C441.439 322.184 440.92 322.144 440.579 322.176C440.236 322.19 440.063 322.192 440.063 322.192Z" fill="#263238"/>
<path d="M421.039 288.56H105.728C103.557 288.56 101.798 286.801 101.798 284.63V88.4565C101.798 86.2863 103.557 84.527 105.728 84.527H421.039C423.21 84.527 424.969 86.2863 424.969 88.4565V284.63C424.969 286.8 423.21 288.56 421.039 288.56Z" fill="#F5F5F5"/>
<path d="M421.039 288.56C421.038 288.544 421.271 288.57 421.716 288.487C422.155 288.409 422.827 288.214 423.523 287.649C424.201 287.094 424.892 286.097 424.932 284.764C424.932 283.439 424.931 281.902 424.93 280.158C424.921 273.177 424.909 262.886 424.893 249.634C424.878 223.123 424.857 184.767 424.831 137.372C424.827 125.523 424.823 113.108 424.818 100.173C424.817 96.9396 424.816 93.6732 424.815 90.3749L424.815 89.1367C424.812 88.7208 424.83 88.3079 424.772 87.9195C424.671 87.1281 424.284 86.3845 423.73 85.8108C423.165 85.2461 422.424 84.848 421.627 84.7332C421.236 84.6652 420.821 84.6858 420.398 84.6831L419.139 84.6835C412.416 84.6853 405.569 84.6871 398.602 84.689C370.735 84.6947 340.96 84.7006 309.627 84.7071C246.962 84.7118 178.067 84.7169 105.753 84.7225C104.671 84.709 103.612 85.1996 102.909 86.0117C102.555 86.4148 102.29 86.8956 102.144 87.4113C101.986 87.929 101.988 88.4587 101.993 89.0326C101.993 91.2864 101.993 93.5368 101.993 95.7837C101.993 100.277 101.993 104.757 101.993 109.222C101.992 118.152 101.992 127.023 101.992 135.829C101.991 153.441 101.99 170.795 101.989 187.848C101.987 204.9 101.986 221.65 101.984 238.054C101.983 246.257 101.982 254.372 101.981 262.396C101.98 266.408 101.98 270.397 101.979 274.362C101.979 276.344 101.979 278.321 101.978 280.292C101.978 281.277 101.978 282.261 101.978 283.243C102 284.232 101.873 285.218 102.267 286.077C102.627 286.94 103.323 287.656 104.172 288.04C104.595 288.233 105.054 288.345 105.519 288.37C105.986 288.392 106.487 288.376 106.969 288.381C108.916 288.382 110.856 288.382 112.79 288.382C116.657 288.383 120.5 288.384 124.317 288.384C131.951 288.386 139.482 288.387 146.905 288.389C161.75 288.392 176.162 288.395 190.096 288.398C217.965 288.407 243.924 288.415 267.622 288.422C315.018 288.448 353.371 288.469 379.878 288.484C393.129 288.5 403.418 288.512 410.398 288.521C413.885 288.529 416.544 288.536 418.335 288.54C420.123 288.546 421.039 288.56 421.039 288.56C421.039 288.56 420.123 288.573 418.335 288.58C416.545 288.584 413.885 288.591 410.398 288.599C403.419 288.608 393.129 288.62 379.879 288.636C353.371 288.651 315.018 288.672 267.623 288.698C243.924 288.705 217.965 288.713 190.097 288.722C176.162 288.725 161.751 288.728 146.905 288.732C139.482 288.733 131.951 288.734 124.317 288.736C120.5 288.736 116.658 288.737 112.79 288.738C110.856 288.738 108.916 288.739 106.97 288.739C106.479 288.734 106.006 288.75 105.499 288.728C104.991 288.7 104.487 288.577 104.023 288.366C103.092 287.945 102.331 287.162 101.936 286.215C101.736 285.743 101.632 285.231 101.623 284.719L101.618 283.243C101.618 282.261 101.618 281.277 101.617 280.292C101.617 278.321 101.617 276.344 101.617 274.362C101.616 270.397 101.615 266.408 101.615 262.396C101.614 254.372 101.613 246.257 101.612 238.054C101.61 221.65 101.608 204.9 101.607 187.848C101.606 170.796 101.605 153.441 101.604 135.829C101.604 127.023 101.603 118.152 101.603 109.222C101.603 104.757 101.603 100.277 101.603 95.7837C101.603 93.5368 101.603 91.2864 101.603 89.0326C101.597 88.4832 101.594 87.8693 101.77 87.302C101.932 86.7321 102.225 86.2009 102.615 85.756C103.388 84.8592 104.565 84.317 105.753 84.3322C178.067 84.3376 246.962 84.3429 309.627 84.3476C340.96 84.3539 370.735 84.3598 398.602 84.3655C405.569 84.3674 412.416 84.3691 419.139 84.3709L420.398 84.3713C420.811 84.3748 421.24 84.352 421.675 84.4259C422.538 84.5512 423.341 84.982 423.951 85.5936C424.55 86.2139 424.968 87.0197 425.077 87.876C425.14 88.3083 425.12 88.7274 425.123 89.1367L425.123 90.3749C425.121 93.6734 425.12 96.9396 425.12 100.173C425.115 113.108 425.111 125.523 425.107 137.372C425.081 184.767 425.06 223.123 425.045 249.634C425.029 262.886 425.017 273.177 425.008 280.158C425.002 281.903 424.997 283.44 424.992 284.766C424.945 286.119 424.237 287.124 423.549 287.68C422.842 288.245 422.162 288.435 421.719 288.507C421.495 288.547 421.325 288.556 421.211 288.556C421.097 288.56 421.039 288.56 421.039 288.56Z" fill="#263238"/>
<path d="M229.068 299.979L233.816 308.034H300.616L305.025 299.979H229.068Z" fill="#263238"/>
<path d="M266.489 77.6187C266.489 79.0818 265.303 80.2679 263.84 80.2679C262.377 80.2679 261.191 79.0818 261.191 77.6187C261.191 76.1556 262.377 74.9695 263.84 74.9695C265.303 74.9695 266.489 76.1556 266.489 77.6187Z" fill="#263238"/>
<path d="M120.659 142.232C122.496 140.928 124.477 139.896 126.543 139.14L127.35 133.03L137.504 132.099L139.409 137.96C141.579 138.328 143.715 138.982 145.758 139.931L150.647 136.182L158.485 142.705L155.689 148.193C156.993 150.03 158.025 152.012 158.781 154.078L164.89 154.885L165.821 165.039L159.96 166.944C159.592 169.113 158.938 171.249 157.989 173.292L161.737 178.182L155.216 186.02L149.727 183.223C147.89 184.528 145.909 185.56 143.842 186.315L143.035 192.426L132.881 193.356L130.976 187.495C128.807 187.127 126.671 186.472 124.628 185.524L119.739 189.272L111.901 182.75L114.697 177.262C113.393 175.425 112.361 173.444 111.605 171.377L105.495 170.57L104.564 160.416L110.426 158.511C110.793 156.342 111.449 154.205 112.397 152.163L108.649 147.273L115.17 139.435L120.659 142.232ZM127.081 155.375C123.217 160.019 123.849 166.916 128.493 170.78C133.137 174.644 140.034 174.011 143.897 169.367C147.761 164.724 147.129 157.827 142.485 153.963C137.841 150.099 130.945 150.732 127.081 155.375Z" fill="#BAECFE"/>
<path d="M410.409 110.823C411.713 112.659 412.745 114.641 413.501 116.707L419.611 117.514L420.542 127.668L414.681 129.573C414.313 131.742 413.659 133.879 412.71 135.921L416.459 140.811L409.936 148.649L404.448 145.852C402.611 147.157 400.629 148.189 398.563 148.944L397.756 155.054L387.602 155.985L385.697 150.124C383.528 149.756 381.392 149.101 379.349 148.153L374.459 151.901L366.621 145.38L369.418 139.891C368.113 138.054 367.082 136.072 366.326 134.006L360.215 133.198L359.285 123.045L365.147 121.14C365.514 118.97 366.169 116.834 367.117 114.791L363.369 109.902L369.891 102.064L375.379 104.86C377.216 103.556 379.197 102.524 381.264 101.768L382.071 95.6584L392.225 94.7278L394.131 100.589C396.3 100.957 398.436 101.612 400.478 102.56L405.368 98.8118L413.206 105.333L410.409 110.823ZM397.266 117.245C392.622 113.381 385.725 114.013 381.861 118.657C377.997 123.301 378.63 130.198 383.274 134.061C387.918 137.925 394.815 137.293 398.678 132.649C402.542 128.005 401.909 121.109 397.266 117.245Z" fill="#BAECFE"/>
<path d="M395.584 234.916H130.429C129.244 234.916 128.283 233.955 128.283 232.77V51.9396C128.283 50.684 129.301 49.6661 130.556 49.6661H396.211C397.466 49.6661 398.484 50.6841 398.484 51.9395V232.016C398.484 233.618 397.185 234.916 395.584 234.916Z" fill="#4AC6F2"/>
<path d="M181.832 76.2349H162.774V80.3908H181.832V76.2349Z" fill="white"/>
<path d="M172.303 94.8485H162.774V99.0043H172.303V94.8485Z" fill="#FF4D6B"/>
<path d="M183.363 104.21H169.945V108.365H183.363V104.21Z" fill="white"/>
<path d="M193.315 104.21H185.497V108.366H193.315V104.21Z" fill="white"/>
<path d="M263.41 104.21H247.332V108.366H263.41V104.21Z" fill="white"/>
<path d="M310.401 113.336H283.238V117.492H310.401V113.336Z" fill="white"/>
<path d="M352.303 104.21H339.259V108.366H352.303V104.21Z" fill="white"/>
<path d="M382.531 104.21H356.304V108.366H382.531V104.21Z" fill="white"/>
<path d="M183.363 113.336H169.945V117.492H183.363V113.336Z" fill="white"/>
<path d="M175.119 122.438H161.701V126.594H175.119V122.438Z" fill="#FF4D6B"/>
<path d="M175.119 131.54H168.85V135.695H175.119V131.54Z" fill="white"/>
<path d="M198.131 150.715H191.862V154.871H198.131V150.715Z" fill="white"/>
<path d="M290.343 185.359H278.095V189.515H290.343V185.359Z" fill="white"/>
<path d="M358.771 185.359H328.765V189.515H358.771V185.359Z" fill="white"/>
<path d="M244.228 176.265H231.981V180.421H244.228V176.265Z" fill="#E0E0E0"/>
<path d="M199.848 168.461H187.6V172.617H199.848V168.461Z" fill="white"/>
<path d="M275.554 185.359H256.242V189.515H275.554V185.359Z" fill="white"/>
<path d="M179.023 140.811H168.85V144.967H179.023V140.811Z" fill="white"/>
<path d="M187.72 150.87H168.85V155.026H187.72V150.87Z" fill="white"/>
<path d="M196.459 158.572H168.85V162.728H196.459V158.572Z" fill="white"/>
<path d="M246.481 158.572H218.871V162.728H246.481V158.572Z" fill="white"/>
<path d="M226.123 176.265H187.357V180.421H226.123V176.265Z" fill="white"/>
<path d="M252.926 185.359H187.357V189.515H252.926V185.359Z" fill="white"/>
<path d="M233.089 194.453H167.521V198.609H233.089V194.453Z" fill="white"/>
<path d="M215.937 158.572H199.374V162.728H215.937V158.572Z" fill="white"/>
<path d="M194.684 131.54H177.593V135.695H194.684V131.54Z" fill="white"/>
<path d="M198.449 140.813H181.358V144.969H198.449V140.813Z" fill="white"/>
<path d="M264.666 140.813H219.412V144.969H264.666V140.813Z" fill="white"/>
<path d="M318.165 140.813H265.898V144.969H318.165V140.813Z" fill="white"/>
<path d="M215.405 140.813H201.259V144.969H215.405V140.813Z" fill="white"/>
<path d="M219.43 131.54H197.026V135.695H219.43V131.54Z" fill="white"/>
<path d="M234.373 131.54H221.902V135.695H234.373V131.54Z" fill="#E0E0E0"/>
<path d="M199.485 113.336H185.497V117.492H199.485V113.336Z" fill="white"/>
<path d="M278.055 113.336H208.988V117.492H278.055V113.336Z" fill="white"/>
<path d="M355.588 140.813H322.93V144.969H355.588V140.813Z" fill="white"/>
<path d="M326.181 185.359H293.524V189.515H326.181V185.359Z" fill="white"/>
<path d="M334.18 104.21H266.144V108.366H334.18V104.21Z" fill="white"/>
<path d="M243.103 104.21H195.758V108.366H243.103V104.21Z" fill="white"/>
<path d="M194.651 85.0458H162.774V89.2017H194.651V85.0458Z" fill="white"/>
<path d="M241.481 85.0458H197.833V89.2017H241.481V85.0458Z" fill="white"/>
<path d="M198.842 76.2349H184.809V80.3908H198.842V76.2349Z" fill="#E0E0E0"/>
<path d="M148.227 76.2349H144.203V80.3908H148.227V76.2349Z" fill="white"/>
<path d="M148.227 85.3285H144.203V89.4843H148.227V85.3285Z" fill="white"/>
<path d="M148.227 94.4222H144.203V98.5781H148.227V94.4222Z" fill="white"/>
<path d="M148.227 103.516H144.203V107.672H148.227V103.516Z" fill="white"/>
<path d="M148.227 112.61H144.203V116.765H148.227V112.61Z" fill="white"/>
<path d="M148.227 121.703H144.203V125.859H148.227V121.703Z" fill="white"/>
<path d="M148.227 130.797H144.203V134.953H148.227V130.797Z" fill="white"/>
<path d="M148.227 139.891H144.203V144.046H148.227V139.891Z" fill="white"/>
<path d="M148.227 148.984H144.203V153.14H148.227V148.984Z" fill="white"/>
<path d="M196.593 214.097H190.324V218.253H196.593V214.097Z" fill="#E0E0E0"/>
<path d="M186.514 214.097H167.643V218.253H186.514V214.097Z" fill="#FF4D6B"/>
<path d="M148.227 213.636H144.203V217.792H148.227V213.636Z" fill="white"/>
<path d="M148.227 158.078H144.203V162.234H148.227V158.078Z" fill="white"/>
<path d="M148.227 167.172H144.203V171.328H148.227V167.172Z" fill="white"/>
<path d="M148.227 176.265H144.203V180.421H148.227V176.265Z" fill="white"/>
<path d="M148.227 185.359H144.203V189.515H148.227V185.359Z" fill="white"/>
<path d="M148.227 194.453H144.203V198.609H148.227V194.453Z" fill="white"/>
<path d="M186.636 204.022H167.521V208.178H186.636V204.022Z" fill="white"/>
<path d="M233.565 204.022H190.324V208.178H233.565V204.022Z" fill="white"/>
<path d="M148.227 204.022H144.203V208.178H148.227V204.022Z" fill="white"/>
<path d="M260.839 85.0189H246.807V89.1747H260.839V85.0189Z" fill="#E0E0E0"/>
<path d="M145.377 63.6657C146.492 62.5508 146.492 60.7432 145.377 59.6284C144.262 58.5135 142.454 58.5135 141.339 59.6284C140.225 60.7433 140.225 62.5508 141.339 63.6657C142.454 64.7805 144.262 64.7805 145.377 63.6657Z" fill="white"/>
<path d="M153.3 63.6657C154.415 62.5508 154.415 60.7433 153.3 59.6284C152.185 58.5135 150.377 58.5135 149.263 59.6284C148.148 60.7433 148.148 62.5508 149.263 63.6657C150.377 64.7805 152.185 64.7805 153.3 63.6657Z" fill="white"/>
<path d="M161.223 63.6657C162.338 62.5508 162.338 60.7432 161.223 59.6284C160.108 58.5135 158.3 58.5135 157.186 59.6284C156.071 60.7433 156.071 62.5508 157.186 63.6657C158.3 64.7805 160.108 64.7805 161.223 63.6657Z" fill="white"/>
<path d="M155.338 75.0489C155.446 75.0489 155.533 110.822 155.533 154.94C155.533 199.074 155.446 234.839 155.338 234.839C155.231 234.839 155.144 199.074 155.144 154.94C155.144 110.822 155.231 75.0489 155.338 75.0489Z" fill="white"/>
<path d="M380.194 270.01H164.917C161.261 270.01 158.297 267.046 158.297 263.389C158.297 259.733 161.261 256.769 164.917 256.769H380.194C383.851 256.769 386.815 259.733 386.815 263.389C386.815 267.046 383.851 270.01 380.194 270.01Z" fill="#BAECFE"/>
<path d="M164.917 256.769C161.261 256.769 158.297 259.733 158.297 263.389C158.297 267.046 161.261 270.01 164.917 270.01H274.644L281.542 256.769H164.917Z" fill="#FF4D6B"/>
<g opacity="0.3">
<path d="M246.955 270.01L253.582 256.769H247.31L240.385 270.01H246.955Z" fill="white"/>
</g>
<g opacity="0.3">
<path d="M229.001 270.01L235.629 256.769H229.356L222.432 270.01H229.001Z" fill="white"/>
</g>
<g opacity="0.3">
<path d="M211.048 270.01L217.676 256.769H211.403L204.479 270.01H211.048Z" fill="white"/>
</g>
<g opacity="0.3">
<path d="M193.095 270.01L199.722 256.769H193.449L186.525 270.01H193.095Z" fill="white"/>
</g>
<g opacity="0.3">
<path d="M175.142 270.01L181.769 256.769H175.496L168.572 270.01H175.142Z" fill="white"/>
</g>
<g opacity="0.3">
<path d="M264.186 270.01L270.813 256.769H264.541L257.616 270.01H264.186Z" fill="white"/>
</g>
<path d="M393.826 176.102C384.209 186.37 371.17 192.278 357.11 192.737C343.05 193.197 329.652 188.154 319.384 178.538C298.189 158.684 297.097 125.289 316.949 104.095C326.566 93.8269 339.605 87.9194 353.666 87.4595C367.726 86.9999 381.124 92.0429 391.391 101.659C399.727 109.467 404.952 119.368 407.018 129.8C410.206 145.89 405.87 163.243 393.826 176.102ZM321.795 175.963C331.375 184.936 343.875 189.642 356.994 189.212C370.112 188.783 382.279 183.271 391.252 173.691C400.225 164.112 404.93 151.611 404.5 138.493C404.073 125.373 398.56 113.207 388.98 104.234C379.4 95.2609 366.9 90.555 353.781 90.9851C340.663 91.4138 328.495 96.9264 319.523 106.506C308.285 118.505 304.24 134.693 307.214 149.708C309.142 159.44 314.018 168.68 321.795 175.963Z" fill="#FF4D6B"/>
<path d="M430.12 221L431.796 219.378C433.291 217.932 433.141 215.337 432.094 214.27L392.932 173.792L385.064 181.403L424.169 221.822C425.507 223.1 428.196 222.862 430.12 221Z" fill="#FF4D6B"/>
<path d="M364.787 137.805C367.305 137.381 369.556 135.914 371.039 133.849C372.625 131.638 373.106 128.761 372.526 126.127C372.238 124.816 370.227 125.371 370.515 126.681C370.979 128.791 370.509 131.048 369.238 132.796C368.05 134.43 366.204 135.462 364.233 135.794C363.677 135.888 363.366 136.574 363.504 137.077C363.666 137.666 364.23 137.899 364.787 137.805Z" fill="#FF4D6B"/>
<path d="M365.63 145.019C369.877 142.821 374.673 141.952 379.425 142.435C379.986 142.492 380.468 141.914 380.468 141.392C380.468 140.78 379.988 140.406 379.425 140.349C374.312 139.829 369.137 140.859 364.577 143.219C363.385 143.836 364.438 145.636 365.63 145.019Z" fill="#FF4D6B"/>
<path d="M365.103 153.096C369.282 153.612 373.137 156.155 375.338 159.724C376.042 160.865 377.847 159.818 377.139 158.672C374.516 154.419 370.046 151.621 365.103 151.01C364.543 150.941 364.06 151.539 364.06 152.053C364.06 152.674 364.542 153.026 365.103 153.096Z" fill="#FF4D6B"/>
<path d="M346.542 134.846C344.571 134.514 342.724 133.482 341.537 131.848C340.267 130.099 339.795 127.844 340.26 125.733C340.547 124.425 338.537 123.867 338.248 125.179C337.669 127.813 338.149 130.69 339.736 132.901C341.219 134.966 343.47 136.433 345.988 136.857C346.543 136.951 347.111 136.711 347.271 136.129C347.408 135.629 347.101 134.94 346.542 134.846Z" fill="#FF4D6B"/>
<path d="M346.198 142.27C341.638 139.911 336.463 138.881 331.35 139.401C330.79 139.458 330.307 139.84 330.307 140.444C330.307 140.964 330.786 141.544 331.35 141.487C336.102 141.004 340.898 141.873 345.145 144.072C346.335 144.687 347.391 142.888 346.198 142.27Z" fill="#FF4D6B"/>
<path d="M345.672 150.28C340.729 150.89 336.259 153.688 333.636 157.941C332.929 159.087 334.732 160.135 335.436 158.994C337.638 155.424 341.492 152.881 345.672 152.365C346.23 152.296 346.714 151.935 346.714 151.322C346.714 150.812 346.234 150.21 345.672 150.28Z" fill="#FF4D6B"/>
<path d="M347.75 131.602C347.75 131.602 347.016 124.126 355.455 124.126C363.894 124.126 363.527 131.464 363.527 131.464L347.75 131.602Z" fill="#FF4D6B"/>
<path d="M347.495 121.531C347.58 122.194 347.737 122.785 348.012 123.396C348.248 123.919 348.587 124.399 348.973 124.822C349.73 125.649 350.781 126.244 351.875 126.482C352.406 126.597 353.028 126.323 353.157 125.753C353.277 125.227 352.999 124.594 352.429 124.47C352.212 124.423 351.998 124.363 351.79 124.286C351.744 124.269 351.69 124.235 351.642 124.228C351.784 124.289 351.818 124.303 351.745 124.271C351.716 124.258 351.687 124.245 351.659 124.231C351.563 124.186 351.469 124.137 351.377 124.085C351.285 124.034 351.194 123.979 351.106 123.921C351.053 123.886 351 123.85 350.949 123.813C350.918 123.791 350.759 123.686 350.902 123.781C351.043 123.874 350.89 123.768 350.859 123.743C350.819 123.708 350.779 123.674 350.74 123.638C350.654 123.56 350.571 123.478 350.491 123.394C350.417 123.315 350.348 123.233 350.278 123.151C350.135 122.983 350.375 123.289 350.302 123.182C350.272 123.137 350.239 123.095 350.209 123.05C350.081 122.862 349.967 122.665 349.868 122.461C349.852 122.428 349.83 122.336 349.799 122.314C349.857 122.454 349.871 122.487 349.842 122.413C349.829 122.383 349.818 122.353 349.806 122.323C349.768 122.221 349.733 122.119 349.702 122.015C349.671 121.912 349.644 121.807 349.62 121.701C349.606 121.638 349.593 121.575 349.582 121.511C349.569 121.438 349.541 121.22 349.581 121.531C349.544 121.244 349.489 121.007 349.275 120.794C349.094 120.613 348.798 120.477 348.538 120.488C348.268 120.501 347.989 120.589 347.801 120.794C347.627 120.983 347.461 121.264 347.495 121.531Z" fill="#FF4D6B"/>
<path d="M361.032 121.531C361.076 121.188 361.018 121.587 361 121.67C360.977 121.775 360.95 121.88 360.92 121.984C360.887 122.098 360.849 122.211 360.807 122.323C360.794 122.359 360.733 122.542 360.787 122.379C360.84 122.217 360.777 122.395 360.76 122.432C360.662 122.637 360.549 122.835 360.423 123.023C360.393 123.068 360.36 123.112 360.33 123.156C360.225 123.311 360.438 123.028 360.355 123.126C360.279 123.216 360.203 123.307 360.122 123.394C360.05 123.471 359.974 123.545 359.897 123.617C359.838 123.671 359.688 123.756 359.656 123.824C359.776 123.732 359.804 123.71 359.742 123.757C359.716 123.777 359.691 123.795 359.665 123.814C359.622 123.844 359.578 123.874 359.534 123.903C359.446 123.962 359.356 124.017 359.264 124.07C359.163 124.127 359.06 124.181 358.955 124.231C358.919 124.248 358.743 124.317 358.905 124.256C359.069 124.195 358.89 124.261 358.854 124.275C358.635 124.357 358.412 124.421 358.184 124.471C357.651 124.587 357.289 125.238 357.456 125.754C357.638 126.315 358.167 126.606 358.739 126.482C359.833 126.244 360.882 125.649 361.64 124.822C362.019 124.408 362.353 123.937 362.588 123.426C362.872 122.807 363.032 122.205 363.118 121.531C363.149 121.286 362.979 120.96 362.813 120.794C362.632 120.613 362.335 120.477 362.075 120.489C361.806 120.501 361.526 120.589 361.338 120.794C361.138 121.012 361.07 121.24 361.032 121.531Z" fill="#FF4D6B"/>
<path d="M354.391 134.271C354.391 133.969 354.469 133.72 354.591 133.511L347.478 133.374C347.478 133.374 340.36 139.087 341.953 150.139C343.394 160.142 348.795 163.465 354.391 163.381C354.391 153.678 354.391 143.975 354.391 134.271Z" fill="#FF4D6B"/>
<path d="M364.341 133.375L357.228 133.511C357.351 133.719 357.429 133.969 357.429 134.271C357.429 143.974 357.429 153.678 357.429 163.381C363.025 163.465 368.426 160.142 369.867 150.139C371.459 139.088 364.341 133.375 364.341 133.375Z" fill="#FF4D6B"/>
<path d="M114.299 271.982H54.3003C53.215 271.982 52.3352 271.102 52.3352 270.017V231.678C52.3352 230.593 53.215 229.713 54.3003 229.713H114.299C115.384 229.713 116.264 230.593 116.264 231.678V270.017C116.264 271.102 115.384 271.982 114.299 271.982Z" fill="#FF4D6B"/>
<path d="M77.3912 248.473L68.6782 251.559L77.3912 254.646V258.634L63.9255 253.663V249.456L77.3912 244.485V248.473Z" fill="white"/>
<path d="M86.9788 238.121H91.5942L82.5811 263.85H77.9651L86.9788 238.121Z" fill="white"/>
<path d="M105.36 249.456V253.662L91.8948 258.633V254.646L100.608 251.559L91.8948 248.473V244.485L105.36 249.456Z" fill="white"/>
<path d="M69.9786 132.148C72.2084 119.418 79.4922 97.1024 72.9759 94.3255C64.4824 90.7056 41.5715 91.0008 41.5715 91.0008L41.6266 91.3869C41.6266 91.3869 19.2046 96.511 12.0555 102.354C6.57155 106.836 20.1205 127.215 25.8083 138.819C27.1736 141.603 31.3902 154.418 32.6763 166.077C32.9941 168.952 33.5729 182.288 34.7422 187.674C35.0917 189.282 53.3899 195.643 60.0317 195.866C65.2368 196.04 82.0954 182.208 81.9828 180.567C81.6051 175.067 76.3774 162.393 75.881 159.542C73.8684 147.986 69.4436 135.202 69.9786 132.148Z" fill="#FFBD95"/>
<path d="M16.142 101.771C20.7424 102.434 23.6603 108.28 22.287 116.828C20.9142 125.376 19.0405 131.054 18.6275 133.266C18.2009 135.551 16.717 148.967 15.7445 152.481C14.7726 155.995 11.9423 158.804 8.29836 158.218C5.25005 157.728 2.4141 151.695 2.1985 145.411C1.98317 139.128 3.78491 99.9902 16.142 101.771Z" fill="#FFBD95"/>
<path d="M50.4578 86.0602C49.6135 83.8158 46.6975 72.54 46.6975 72.54L39.1015 73.6198L39.1562 74.006L31.5597 75.0857C31.5597 75.0857 31.9011 86.7275 31.7156 89.1178C31.5295 91.5083 25.7754 95.8944 25.7754 95.8944L60.1636 91.9179C60.1636 91.9179 51.3023 88.3042 50.4578 86.0602Z" fill="#FFBD95"/>
<path d="M49.4853 82.8994C48.5049 79.4584 47.2183 74.5438 46.8209 73.0152L46.2628 72.6017L39.1015 73.6199L39.1562 74.006L31.5597 75.0858C31.5597 75.0858 31.9011 86.7275 31.7156 89.1179C31.5295 91.5083 25.7754 95.8944 25.7754 95.8944L26.5387 95.7857C33.4796 92.8378 40.3805 89.9006 41.3068 89.4861C43.2422 88.6197 49.4853 82.8998 49.4853 82.8998V82.8994Z" fill="#FFA47C"/>
<path d="M47.277 169.608C37.9161 169.399 34.1501 175.859 34.0253 195.886C33.9 215.914 37.594 242.254 38.8339 245.4C40.0743 248.545 51.447 247.355 52.7821 245.56C54.1172 243.764 58.9333 199.227 59.0581 192.726C59.1833 186.225 57.4734 169.835 47.277 169.608Z" fill="#FFBD95"/>
<path d="M45.0174 240.617C42.1566 240.613 35.4587 244.453 35.8213 263.123C36.183 281.794 43.7586 309.164 43.7586 309.164L50.521 309.175C50.521 309.175 54.1913 272.826 54.2172 266.195C54.2762 251.11 54.0554 240.63 45.0174 240.617Z" fill="#FFBD95"/>
<path d="M69.3136 171.6C78.6045 170.44 83.009 176.482 85.1733 196.393C87.3382 216.303 86.6355 240.167 85.7219 243.422C84.8083 246.678 73.726 246.606 72.2149 244.956C70.7037 243.306 60.7348 202.253 59.9484 195.799C59.1614 189.344 59.1935 172.865 69.3136 171.6Z" fill="#FFBD95"/>
<path d="M59.9486 103.356C57.8308 99.2188 60.9158 93.4583 68.6851 89.6393C76.4544 85.8196 82.1713 84.0673 84.2155 83.126C86.3263 82.1539 98.1323 75.6115 101.562 74.3738C104.992 73.1363 108.919 73.8234 110.548 77.1354C111.91 79.9058 108.624 85.7071 103.621 89.5145C98.6183 93.3213 65.6364 114.47 59.9486 103.356Z" fill="#FFBD95"/>
<path d="M79.9188 239.55C77.1403 238.869 69.1629 240.056 65.0903 258.281C61.0183 276.506 61.8933 304.515 61.8933 304.515L69.1925 304.842C69.1925 304.842 80.6383 272.06 82.2347 265.624C85.8666 250.982 88.6964 241.705 79.9188 239.55Z" fill="#FFBD95"/>
<path d="M7.4675 148.095C3.90121 149.35 1.62245 152.254 4.60757 162.416C7.59322 172.578 17.5655 195.232 17.5655 195.232L23.3343 193.203C23.3343 193.203 22.1249 171.671 20.7485 166.082C19.372 160.493 16.8027 144.812 7.4675 148.095Z" fill="#FFBD95"/>
<path d="M50.921 57.334C56.1379 65.7107 55.004 77.9962 49.6297 81.3435C44.4939 84.541 32.7292 80.2887 27.5124 71.9118C22.296 63.535 23.3071 53.4808 29.7709 49.4554C36.2348 45.4296 45.7042 48.9573 50.921 57.334Z" fill="#FFBD95"/>
<path d="M31.6031 76.662C30.5167 76.0738 23.3111 70.2156 22.6029 68.2315C21.8941 66.2475 20.0104 62.2762 21.5541 59.6047C21.8823 59.0367 23.4863 58.3502 22.6189 56.6647C21.2896 54.0821 26.0759 50.9444 26.5784 50.5705C27.4429 49.9268 29.7322 48.1848 31.8207 47.3055C33.9097 46.4268 38.2535 45.0466 45.815 49.1356C47.2268 49.8989 41.3978 49.4704 40.8483 48.7578C40.2992 48.0453 31.2118 57.2048 30.5553 58.3515C30.3316 58.7419 30.0288 60.6335 29.7264 62.9581C29.6458 63.5806 31.5474 66.6774 31.4683 67.3414C31.3652 68.2046 28.9889 69.3813 28.8947 70.2356C28.5364 73.4781 31.6031 76.662 31.6031 76.662Z" fill="#1C1919"/>
<path d="M26.0563 207.094L26.062 207.091C26.6832 206.76 26.9223 205.98 26.5937 205.358L24.0271 200.497C23.6956 199.869 22.9125 199.629 22.2865 199.963L22.2809 199.966C21.6597 200.298 21.4201 201.077 21.7488 201.7L24.3153 206.56C24.6468 207.188 25.43 207.428 26.0563 207.094Z" fill="#FFBD95"/>
<path d="M28.2895 206.172L28.2952 206.169C28.9162 205.838 29.1555 205.058 28.8273 204.435L26.2607 199.574C25.9292 198.947 25.146 198.707 24.5197 199.041L24.5141 199.043C23.893 199.375 23.6533 200.155 23.9825 200.777L26.5485 205.638C26.8795 206.266 27.6632 206.506 28.2895 206.172Z" fill="#FFBD95"/>
<path d="M30.4078 205.143L30.4134 205.14C31.035 204.808 31.2742 204.028 30.9455 203.406L28.3791 198.545C28.0476 197.917 27.2644 197.677 26.6381 198.011L26.6325 198.015C26.0118 198.346 25.7721 199.125 26.1009 199.749L28.6669 204.609C28.9983 205.236 29.782 205.476 30.4078 205.143Z" fill="#FFBD95"/>
<path d="M32.3571 203.956L32.3628 203.953C32.9839 203.622 33.2237 202.841 32.8944 202.219L30.3284 197.358C29.9969 196.731 29.2132 196.491 28.5874 196.824L28.5817 196.828C27.9605 197.159 27.7213 197.939 28.0496 198.562L30.6162 203.422C30.9477 204.05 31.7308 204.29 32.3571 203.956Z" fill="#FFBD95"/>
<path d="M21.8352 187.595C21.8352 187.595 28.9806 193.224 29.9963 194.679C31.0121 196.134 33.0329 202.774 33.0329 202.774C33.0329 202.774 30.0048 201.995 28.7159 202.927C27.4261 203.858 24.3189 206.568 24.3189 206.568C24.3189 206.568 20.2256 202.142 19.07 199.586C17.9144 197.03 17.3638 194.247 17.3638 194.247L21.8352 187.595Z" fill="#FFBD95"/>
<path d="M102.365 84.2218C105.638 86.1145 109.326 85.9562 115.103 77.0788C120.879 68.201 131.599 45.8907 131.599 45.8907L126.305 42.8292C126.305 42.8292 110.737 57.7537 107.388 62.4346C104.038 67.116 93.7993 79.2672 102.365 84.2218Z" fill="#FFBD95"/>
<path d="M61.7082 304.594C61.7082 304.594 60.2799 311.89 61.3928 315.043C61.6908 315.888 82.4015 318.328 85.4474 317.181C88.4933 316.034 91.0048 314.874 91.0048 314.874C91.0048 314.874 90.4217 311.744 89.0792 311.596C87.7365 311.448 75.0717 307.791 73.7624 305.939C72.4537 304.086 71.3895 301.127 70.6303 302.195C69.8711 303.263 65.4176 305.294 61.7082 304.594Z" fill="#191919"/>
<path d="M85.4475 317.18C87.149 316.54 88.6644 315.903 89.6877 315.459C87.633 315.921 85.7366 316.236 84.864 316.075C82.4708 315.634 74.255 312.972 68.8179 311.139C64.0569 309.533 62.9285 305.639 62.7214 304.695C62.3814 304.673 62.04 304.656 61.7085 304.594C61.7085 304.594 60.2801 311.89 61.393 315.043C61.691 315.888 82.4016 318.328 85.4475 317.18Z" fill="#080808"/>
<path d="M91.0048 314.874C91.0048 314.874 85.8063 317.31 84.5961 317.385C83.7484 317.438 71.8355 314.555 65.2953 313.849C63.3792 313.642 61.7502 313.235 60.9779 313.151C60.6238 313.112 61.0589 315.139 61.0589 315.139L61.6061 316.586C61.6061 316.586 83.8073 318.661 84.5872 318.607C85.3676 318.553 91.8555 315.884 91.8555 315.884L91.0048 314.874Z" fill="#22272C"/>
<path d="M50.8102 309.611L42.0298 309.17C42.0298 309.17 41.8386 311.205 39.6663 314.601C38.1617 316.953 35.8565 319.379 35.9343 321.242C35.9841 322.448 36.5695 323.708 37.696 323.849C40.6143 324.215 46.1679 324.61 47.7055 323.556C49.1107 322.592 50.109 320.58 50.976 319.281C51.8966 317.901 51.5166 315.622 51.4578 314.475C51.3898 313.152 50.8102 309.611 50.8102 309.611Z" fill="#22272C"/>
<path d="M50.8102 308.632L42.0298 308.191C42.0298 308.191 41.8386 310.227 39.6663 313.622C38.1617 315.974 35.8565 318.4 35.9343 320.263C35.9841 321.469 36.4904 322.45 37.6173 322.592C40.5356 322.958 46.0888 323.331 47.6263 322.277C49.032 321.313 49.8594 319.679 50.7263 318.379C51.647 316.999 51.5165 314.643 51.4576 313.497C51.3898 312.173 50.8102 308.632 50.8102 308.632Z" fill="#191919"/>
<path d="M44.0796 306.874C43.0652 307.482 42.5632 313.23 42.5632 313.57C42.5632 313.909 44.3701 314.071 45.0252 313.958C47.7453 313.486 48.7903 308.87 48.1781 307.503C47.7406 306.526 44.9664 306.344 44.0796 306.874Z" fill="#191919"/>
<path d="M51.4574 313.497C51.4061 312.495 51.0623 310.23 50.898 309.184C50.9766 309.795 51.0401 310.365 51.0595 310.746C51.1184 311.893 51.2488 314.249 50.3282 315.629C49.4613 316.928 48.6339 318.563 47.2286 319.527C45.6909 320.581 40.1374 320.208 37.2191 319.841C36.7355 319.78 36.387 319.542 36.119 319.221C36.0012 319.582 35.9198 319.934 35.934 320.264C35.9838 321.469 36.4901 322.45 37.617 322.592C40.5353 322.958 46.0885 323.332 47.626 322.277C49.0317 321.313 49.859 319.678 50.726 318.38C51.6468 317 51.5163 314.643 51.4574 313.497Z" fill="#080808"/>
<path d="M32.967 47.4305C36.2337 45.4004 45.8081 42.5829 48.642 49.4743C49.5994 51.803 46.2634 56.0795 46.2634 56.0795C46.2634 56.0795 46.7338 51.1998 42.87 52.0145C39.0061 52.8286 38.4307 57.8812 35.1611 58.9643C31.8919 60.0469 30.3482 61.3316 28.9967 59.5101C27.6446 57.6882 29.1972 49.7729 32.967 47.4305Z" fill="#1C1919"/>
<path d="M124.524 44.597C126.846 42.1844 127.718 39.4621 130.019 38.5711C133.003 37.4164 137.318 38.2777 139.811 37.8219C142.303 37.3651 143.631 36.403 143.898 36.6451C145.149 37.7777 143.184 39.3097 143.184 39.3097C143.168 39.3181 146.145 39.3968 148.676 38.447C151.619 37.3427 154.93 36.6066 155.225 37.3431C155.646 38.3966 148.888 40.6561 147.172 41.5102C145.456 42.365 129.471 49.1161 129.471 49.1161L124.524 44.597Z" fill="#FFBD95"/>
<path d="M32.7913 172.669H58.507L59.9485 195.799C59.9485 195.799 54.2838 241.709 55.2248 241.945C56.1652 242.18 57.5765 243.474 56.6356 243.944C55.6948 244.414 54.6366 245.256 55.4596 246.07C56.2828 246.884 54.9892 249.354 55.342 250.648C55.6946 251.941 54.0483 303.334 53.3428 305.686C52.6369 308.038 44.7575 308.627 41.6998 307.45C38.642 306.274 38.8776 304.594 38.8776 304.594C38.8776 304.594 33.989 266.172 34.0224 263.113C34.0558 260.056 35.114 247.424 34.7612 246.566C34.4086 245.708 35.7945 244.414 35.8071 243.239C35.8198 242.062 36.0295 240.886 35.8071 240.063C35.5844 239.24 33.2326 207.002 32.5267 201.129C31.8211 195.256 32.7913 172.669 32.7913 172.669Z" fill="#211A1A"/>
<path d="M58.5066 172.67L78.599 166.888C78.599 166.888 83.0572 179.066 85.0955 189.572C87.1341 200.078 88.2318 241.945 88.2318 242.729C88.2318 243.513 87.4822 248.845 86.6024 253.392C85.7227 257.939 73.1245 303.235 73.1245 303.235C73.1245 303.235 69.572 306.428 65.0247 304.842C60.477 303.256 59.6463 300.747 59.6463 300.747C59.6463 300.747 61.1251 258.723 64.5543 254.646C66.9363 251.814 68.4742 248.845 68.0038 248.688C67.5334 248.531 66.9061 247.111 67.8469 246.566C68.7879 246.022 69.1014 244.14 68.0038 243.983C66.9061 243.826 67.3765 238.733 66.7492 234.537C66.122 230.342 59.6463 193.335 59.6463 193.335L58.5066 172.67Z" fill="#211A1A"/>
<path d="M30.0957 91.9181C30.0957 91.9181 37.2744 97.0845 44.3675 95.8945C51.461 94.704 54.2983 89.1208 54.2983 89.1208L65.3975 90.995L77.4357 102.122C77.4357 102.122 71.2816 126.206 71.454 133.749C71.6259 141.291 79.0358 168.115 79.0358 168.115C79.0358 168.115 68.3958 173.384 56.6355 173.206C44.8752 173.029 31.9389 173.206 31.9389 173.206C31.9389 173.206 30.2714 153.137 26.7187 143.442C23.1666 133.747 12.405 113.311 12.405 113.311L18.5134 98.2944L30.0957 91.9181Z" fill="white"/>
<path d="M26.7403 93.5437C26.7403 93.5437 35.9759 130.473 37.6298 139.106C39.2838 147.74 41.0878 188.719 39.1066 190.108C37.1253 191.496 28.5221 190.108 28.5221 190.108C28.5221 190.108 21.2238 130.826 19.6123 127.554C18.0008 124.281 11.4262 102.021 12.4044 100.844C13.3831 99.6666 26.7403 93.5437 26.7403 93.5437Z" fill="#1FA2D0"/>
<path d="M57.5635 89.6722C57.5635 89.6722 67.5838 104.572 68.641 122.232C69.6977 139.891 72.0378 182.914 73.1247 183.87C74.211 184.825 84.1707 183.844 85.0771 182.863C85.9841 181.882 78.9552 138.365 79.0356 130.004C79.1162 121.643 78.9203 104.179 77.5466 100.647C76.173 97.1156 71.6742 87.6298 67.401 89.1207C63.128 90.6117 57.5635 89.6722 57.5635 89.6722Z" fill="#1FA2D0"/>
<path d="M12.405 100.844C11.0049 100.027 4.32391 110.84 2.18219 124.777C0.0408789 138.714 0.829302 157.143 0.829302 157.143L14.8308 194.492C14.8308 194.492 18.2821 194.02 21.6916 192.895C25.101 191.769 27.4133 189.363 27.4133 189.363C27.4133 189.363 23.7364 169.716 22.0415 163.315C20.6838 158.185 17.3638 153.234 17.3638 153.234L21.9449 125.214C21.9449 125.214 19.4716 104.965 12.405 100.844Z" fill="#1FA2D0"/>
<path d="M68.0305 88.963C68.0305 88.963 97.7636 75.3355 98.3985 74.8452C99.0327 74.3545 104.331 65.6246 108.157 60.4242C111.983 55.2234 123.07 44.4311 123.07 44.4311C123.07 44.4311 126.699 44.9322 128.76 46.4965C130.82 48.0614 133.175 52.4067 133.175 52.4067C133.175 52.4067 110.708 85.7352 109.923 86.4219C109.138 87.1084 77.2528 106.044 77.2528 106.044L68.0305 88.963Z" fill="#1FA2D0"/>
</svg>
