<svg width="401" height="410" viewBox="0 0 401 410" fill="none" xmlns="http://www.w3.org/2000/svg">
<g clip-path="url(#clip0_2031_2133)">
<path d="M401 0H-111V409.6H401V0Z" fill="white"/>
<g opacity="0.2">
<path d="M20.5001 116.934C14.8369 114.271 5.47142 118.601 2.48523 124.938C-3.21517 137.033 15.2215 154.551 21.9263 152.671C29.4186 150.57 30.8976 121.824 20.5001 116.934Z" stroke="#1FA2D0" stroke-width="16.384" stroke-miterlimit="10" stroke-linecap="round" stroke-dasharray="40.96 40.96 40.96 40.96 40.96 40.96"/>
<path d="M-7.82539 144.331C-9.84646 143.162 -31.255 130.778 -43.3707 140.579C-51.8777 147.461 -51.9591 162.171 -45.5662 170.438C-32.9047 186.812 6.35763 179.471 10.4314 167.755C13.1747 159.865 0.294934 149.029 -7.82539 144.331Z" stroke="#1FA2D0" stroke-width="16.384" stroke-miterlimit="10" stroke-linecap="round" stroke-dasharray="40.96 40.96 40.96 40.96 40.96 40.96"/>
<path d="M19.7215 346.522C71.8318 333.588 131.043 320.42 222.985 322.663C274.406 323.917 286.058 307.96 325.028 288.12C359.763 270.437 376.823 235.275 366.345 215.347C355.768 195.229 323.548 203.239 297.162 173.291C285.145 159.651 287.26 150.091 280.322 134.965C258.352 87.0718 176.009 49.6375 135.405 69.4488C81.7605 95.6212 127.621 208.709 67.6569 239.601C29.727 259.143 1.05803 221.629 -36.3937 250.266C-54.9507 264.455 -77.6465 284.36 -79.4017 305.971C-79.4017 305.971 -81.8593 358.81 19.7215 346.522Z" stroke="#1FA2D0" stroke-width="16.384" stroke-miterlimit="10" stroke-linecap="round" stroke-dasharray="40.96 40.96 40.96 40.96 40.96 40.96"/>
<path d="M307.625 287.672C307.625 287.672 298.186 300.188 288.745 317.359C280.233 332.844 273.761 353.709 272.331 371.129C268.322 370.94 263.919 370.762 259.158 370.593C230.964 369.592 190.26 368.966 145 368.966C93.5459 368.966 47.981 369.777 19.9899 371.024C19.0264 371.067 18.0833 371.11 17.1617 371.154C-17.7844 327.84 -88.1547 252.378 -23.3949 221.335C-23.3949 221.335 -18.6507 219.89 -11.538 216.786C10.9736 206.961 57.2339 180.522 52.0883 130.673C52.0883 130.673 50.3352 121.371 50.3352 108.427C50.3352 78.162 59.9167 27.9942 123.884 30.2839C162.621 31.6724 198.296 51.3844 219.865 82.9359C241.02 113.882 274.847 151.958 302.395 130.22C308.754 125.2 317.162 123.341 325.012 125.548C344.841 131.117 367.367 159.95 307.625 287.672Z" fill="#ACE9FF"/>
</g>
<path opacity="0.15" d="M359.065 372.815C359.065 374.863 263.225 376.524 145 376.524C78.2932 376.524 18.7134 375.996 -20.5459 375.167C-29.5886 374.976 -37.5519 374.769 -44.276 374.549C-48.7051 374.404 -52.5965 374.253 -55.9047 374.097C-64.416 373.699 -69.0647 373.267 -69.0647 372.815C-69.0647 372.24 -61.5197 371.696 -48.0531 371.211C-42.5382 371.012 -36.0309 370.823 -28.6417 370.646C10.2384 369.714 73.5291 369.106 145 369.106C207.867 369.106 264.405 369.576 303.568 370.324C338.052 370.982 359.065 371.856 359.065 372.815Z" fill="#040C2B"/>
<path d="M264.29 175.403H28.0857V330.37H264.29V175.403Z" fill="#E3E9F7"/>
<path d="M264.29 198.246H28.0857V330.37H264.29V198.246Z" fill="#F9FBFD"/>
<path d="M264.571 159.985H27.8047V175.447H264.571V159.985Z" fill="#ACE9FF"/>
<path d="M36.2943 170.19C37.7312 170.19 38.8962 169.082 38.8962 167.716C38.8962 166.349 37.7312 165.242 36.2943 165.242C34.8573 165.242 33.6924 166.349 33.6924 167.716C33.6924 169.082 34.8573 170.19 36.2943 170.19Z" fill="#E3E9F7"/>
<path d="M43.8831 170.19C45.3201 170.19 46.485 169.082 46.485 167.716C46.485 166.349 45.3201 165.242 43.8831 165.242C42.4462 165.242 41.2812 166.349 41.2812 167.716C41.2812 169.082 42.4462 170.19 43.8831 170.19Z" fill="#E3E9F7"/>
<path d="M51.4718 170.19C52.9087 170.19 54.0736 169.082 54.0736 167.716C54.0736 166.349 52.9087 165.242 51.4718 165.242C50.0348 165.242 48.8699 166.349 48.8699 167.716C48.8699 169.082 50.0348 170.19 51.4718 170.19Z" fill="#E3E9F7"/>
<path d="M54.6645 204.216H31.7837V211.728H54.6645V204.216Z" fill="#A9E1F5" stroke="#0E5185" stroke-width="1.6384" stroke-miterlimit="10"/>
<path d="M77.5453 204.216H54.6646V211.728H77.5453V204.216Z" fill="#A9E1F5" stroke="#0E5185" stroke-width="1.6384" stroke-miterlimit="10"/>
<path d="M100.426 204.216H77.5454V211.728H100.426V204.216Z" fill="#A9E1F5" stroke="#0E5185" stroke-width="1.6384" stroke-miterlimit="10"/>
<path d="M123.307 204.216H100.426V211.728H123.307V204.216Z" fill="#A9E1F5" stroke="#0E5185" stroke-width="1.6384" stroke-miterlimit="10"/>
<path d="M146.188 204.216H123.307V211.728H146.188V204.216Z" fill="#A9E1F5" stroke="#0E5185" stroke-width="1.6384" stroke-miterlimit="10"/>
<path d="M169.068 204.216H146.188V211.728H169.068V204.216Z" fill="#A9E1F5" stroke="#0E5185" stroke-width="1.6384" stroke-miterlimit="10"/>
<path d="M191.949 204.216H169.068V211.728H191.949V204.216Z" fill="#A9E1F5" stroke="#0E5185" stroke-width="1.6384" stroke-miterlimit="10"/>
<path d="M214.83 204.216H191.949V211.728H214.83V204.216Z" fill="#A9E1F5" stroke="#0E5185" stroke-width="1.6384" stroke-miterlimit="10"/>
<path d="M237.711 204.216H214.83V211.728H237.711V204.216Z" fill="#A9E1F5" stroke="#0E5185" stroke-width="1.6384" stroke-miterlimit="10"/>
<path d="M260.591 204.216H237.711V211.728H260.591V204.216Z" fill="#A9E1F5" stroke="#0E5185" stroke-width="1.6384" stroke-miterlimit="10"/>
<path d="M54.6645 211.728H31.7837V219.239H54.6645V211.728Z" fill="#A9E1F5" stroke="#0E5185" stroke-width="1.6384" stroke-miterlimit="10"/>
<path d="M77.5453 211.728H54.6646V219.239H77.5453V211.728Z" fill="white" stroke="#0E5185" stroke-width="1.6384" stroke-miterlimit="10"/>
<path d="M100.426 211.728H77.5454V219.239H100.426V211.728Z" fill="white" stroke="#0E5185" stroke-width="1.6384" stroke-miterlimit="10"/>
<path d="M123.307 211.728H100.426V219.239H123.307V211.728Z" fill="white" stroke="#0E5185" stroke-width="1.6384" stroke-miterlimit="10"/>
<path d="M146.188 211.728H123.307V219.239H146.188V211.728Z" fill="white" stroke="#0E5185" stroke-width="1.6384" stroke-miterlimit="10"/>
<path d="M169.068 211.728H146.188V219.239H169.068V211.728Z" fill="white" stroke="#0E5185" stroke-width="1.6384" stroke-miterlimit="10"/>
<path d="M191.949 211.728H169.068V219.239H191.949V211.728Z" fill="white" stroke="#0E5185" stroke-width="1.6384" stroke-miterlimit="10"/>
<path d="M214.83 211.728H191.949V219.239H214.83V211.728Z" fill="white" stroke="#0E5185" stroke-width="1.6384" stroke-miterlimit="10"/>
<path d="M237.711 211.728H214.83V219.239H237.711V211.728Z" fill="white" stroke="#0E5185" stroke-width="1.6384" stroke-miterlimit="10"/>
<path d="M260.591 211.728H237.711V219.239H260.591V211.728Z" fill="white" stroke="#0E5185" stroke-width="1.6384" stroke-miterlimit="10"/>
<path d="M54.6645 219.239H31.7837V226.751H54.6645V219.239Z" fill="#A9E1F5" stroke="#0E5185" stroke-width="1.6384" stroke-miterlimit="10"/>
<path d="M77.5453 219.239H54.6646V226.751H77.5453V219.239Z" fill="white" stroke="#0E5185" stroke-width="1.6384" stroke-miterlimit="10"/>
<path d="M100.426 219.239H77.5454V226.751H100.426V219.239Z" fill="white" stroke="#0E5185" stroke-width="1.6384" stroke-miterlimit="10"/>
<path d="M123.307 219.239H100.426V226.751H123.307V219.239Z" fill="white" stroke="#0E5185" stroke-width="1.6384" stroke-miterlimit="10"/>
<path d="M146.188 219.239H123.307V226.751H146.188V219.239Z" fill="white" stroke="#0E5185" stroke-width="1.6384" stroke-miterlimit="10"/>
<path d="M169.068 219.239H146.188V226.751H169.068V219.239Z" fill="white" stroke="#0E5185" stroke-width="1.6384" stroke-miterlimit="10"/>
<path d="M191.949 219.239H169.068V226.751H191.949V219.239Z" fill="white" stroke="#0E5185" stroke-width="1.6384" stroke-miterlimit="10"/>
<path d="M214.83 219.239H191.949V226.751H214.83V219.239Z" fill="white" stroke="#0E5185" stroke-width="1.6384" stroke-miterlimit="10"/>
<path d="M237.711 219.239H214.83V226.751H237.711V219.239Z" fill="white" stroke="#0E5185" stroke-width="1.6384" stroke-miterlimit="10"/>
<path d="M260.591 219.239H237.711V226.751H260.591V219.239Z" fill="white" stroke="#0E5185" stroke-width="1.6384" stroke-miterlimit="10"/>
<path d="M54.6645 226.751H31.7837V234.262H54.6645V226.751Z" fill="#A9E1F5" stroke="#0E5185" stroke-width="1.6384" stroke-miterlimit="10"/>
<path d="M77.5453 226.751H54.6646V234.262H77.5453V226.751Z" fill="white" stroke="#0E5185" stroke-width="1.6384" stroke-miterlimit="10"/>
<path d="M100.426 226.751H77.5454V234.262H100.426V226.751Z" fill="white" stroke="#0E5185" stroke-width="1.6384" stroke-miterlimit="10"/>
<path d="M123.307 226.751H100.426V234.262H123.307V226.751Z" fill="white" stroke="#0E5185" stroke-width="1.6384" stroke-miterlimit="10"/>
<path d="M146.188 226.751H123.307V234.262H146.188V226.751Z" fill="white" stroke="#0E5185" stroke-width="1.6384" stroke-miterlimit="10"/>
<path d="M169.068 226.751H146.188V234.262H169.068V226.751Z" fill="white" stroke="#0E5185" stroke-width="1.6384" stroke-miterlimit="10"/>
<path d="M191.949 226.751H169.068V234.262H191.949V226.751Z" fill="white" stroke="#0E5185" stroke-width="1.6384" stroke-miterlimit="10"/>
<path d="M214.83 226.751H191.949V234.262H214.83V226.751Z" fill="white" stroke="#0E5185" stroke-width="1.6384" stroke-miterlimit="10"/>
<path d="M237.711 226.751H214.83V234.262H237.711V226.751Z" fill="white" stroke="#0E5185" stroke-width="1.6384" stroke-miterlimit="10"/>
<path d="M260.591 226.751H237.711V234.262H260.591V226.751Z" fill="white" stroke="#0E5185" stroke-width="1.6384" stroke-miterlimit="10"/>
<path d="M54.6645 234.262H31.7837V241.774H54.6645V234.262Z" fill="#A9E1F5" stroke="#0E5185" stroke-width="1.6384" stroke-miterlimit="10"/>
<path d="M77.5453 234.262H54.6646V241.774H77.5453V234.262Z" fill="white" stroke="#0E5185" stroke-width="1.6384" stroke-miterlimit="10"/>
<path d="M100.426 234.262H77.5454V241.774H100.426V234.262Z" fill="white" stroke="#0E5185" stroke-width="1.6384" stroke-miterlimit="10"/>
<path d="M123.307 234.262H100.426V241.774H123.307V234.262Z" fill="white" stroke="#0E5185" stroke-width="1.6384" stroke-miterlimit="10"/>
<path d="M146.188 234.262H123.307V241.774H146.188V234.262Z" fill="white" stroke="#0E5185" stroke-width="1.6384" stroke-miterlimit="10"/>
<path d="M169.068 234.262H146.188V241.774H169.068V234.262Z" fill="white" stroke="#0E5185" stroke-width="1.6384" stroke-miterlimit="10"/>
<path d="M191.949 234.262H169.068V241.774H191.949V234.262Z" fill="white" stroke="#0E5185" stroke-width="1.6384" stroke-miterlimit="10"/>
<path d="M214.83 234.262H191.949V241.774H214.83V234.262Z" fill="white" stroke="#0E5185" stroke-width="1.6384" stroke-miterlimit="10"/>
<path d="M237.711 234.262H214.83V241.774H237.711V234.262Z" fill="white" stroke="#0E5185" stroke-width="1.6384" stroke-miterlimit="10"/>
<path d="M260.591 234.262H237.711V241.774H260.591V234.262Z" fill="white" stroke="#0E5185" stroke-width="1.6384" stroke-miterlimit="10"/>
<path d="M54.6645 241.774H31.7837V249.285H54.6645V241.774Z" fill="#A9E1F5" stroke="#0E5185" stroke-width="1.6384" stroke-miterlimit="10"/>
<path d="M77.5453 241.774H54.6646V249.285H77.5453V241.774Z" fill="white" stroke="#0E5185" stroke-width="1.6384" stroke-miterlimit="10"/>
<path d="M100.426 241.774H77.5454V249.285H100.426V241.774Z" fill="white" stroke="#0E5185" stroke-width="1.6384" stroke-miterlimit="10"/>
<path d="M123.307 241.774H100.426V249.285H123.307V241.774Z" fill="white" stroke="#0E5185" stroke-width="1.6384" stroke-miterlimit="10"/>
<path d="M146.188 241.774H123.307V249.285H146.188V241.774Z" fill="white" stroke="#0E5185" stroke-width="1.6384" stroke-miterlimit="10"/>
<path d="M169.068 241.774H146.188V249.285H169.068V241.774Z" fill="white" stroke="#0E5185" stroke-width="1.6384" stroke-miterlimit="10"/>
<path d="M191.949 241.774H169.068V249.285H191.949V241.774Z" fill="white" stroke="#0E5185" stroke-width="1.6384" stroke-miterlimit="10"/>
<path d="M214.83 241.774H191.949V249.285H214.83V241.774Z" fill="white" stroke="#0E5185" stroke-width="1.6384" stroke-miterlimit="10"/>
<path d="M237.711 241.774H214.83V249.285H237.711V241.774Z" fill="white" stroke="#0E5185" stroke-width="1.6384" stroke-miterlimit="10"/>
<path d="M260.591 241.774H237.711V249.285H260.591V241.774Z" fill="white" stroke="#0E5185" stroke-width="1.6384" stroke-miterlimit="10"/>
<path d="M54.6645 249.285H31.7837V256.797H54.6645V249.285Z" fill="#A9E1F5" stroke="#0E5185" stroke-width="1.6384" stroke-miterlimit="10"/>
<path d="M77.5453 249.285H54.6646V256.797H77.5453V249.285Z" fill="white" stroke="#0E5185" stroke-width="1.6384" stroke-miterlimit="10"/>
<path d="M100.426 249.285H77.5454V256.797H100.426V249.285Z" fill="white" stroke="#0E5185" stroke-width="1.6384" stroke-miterlimit="10"/>
<path d="M123.307 249.285H100.426V256.797H123.307V249.285Z" fill="white" stroke="#0E5185" stroke-width="1.6384" stroke-miterlimit="10"/>
<path d="M146.188 249.285H123.307V256.797H146.188V249.285Z" fill="white" stroke="#0E5185" stroke-width="1.6384" stroke-miterlimit="10"/>
<path d="M169.068 249.285H146.188V256.797H169.068V249.285Z" fill="white" stroke="#0E5185" stroke-width="1.6384" stroke-miterlimit="10"/>
<path d="M191.949 249.285H169.068V256.797H191.949V249.285Z" fill="white" stroke="#0E5185" stroke-width="1.6384" stroke-miterlimit="10"/>
<path d="M214.83 249.285H191.949V256.797H214.83V249.285Z" fill="white" stroke="#0E5185" stroke-width="1.6384" stroke-miterlimit="10"/>
<path d="M237.711 249.285H214.83V256.797H237.711V249.285Z" fill="white" stroke="#0E5185" stroke-width="1.6384" stroke-miterlimit="10"/>
<path d="M260.591 249.285H237.711V256.797H260.591V249.285Z" fill="white" stroke="#0E5185" stroke-width="1.6384" stroke-miterlimit="10"/>
<path d="M54.6645 256.797H31.7837V264.308H54.6645V256.797Z" fill="#A9E1F5" stroke="#0E5185" stroke-width="1.6384" stroke-miterlimit="10"/>
<path d="M77.5453 256.797H54.6646V264.308H77.5453V256.797Z" fill="white" stroke="#0E5185" stroke-width="1.6384" stroke-miterlimit="10"/>
<path d="M100.426 256.797H77.5454V264.308H100.426V256.797Z" fill="white" stroke="#0E5185" stroke-width="1.6384" stroke-miterlimit="10"/>
<path d="M123.307 256.797H100.426V264.308H123.307V256.797Z" fill="white" stroke="#0E5185" stroke-width="1.6384" stroke-miterlimit="10"/>
<path d="M146.188 256.797H123.307V264.308H146.188V256.797Z" fill="white" stroke="#0E5185" stroke-width="1.6384" stroke-miterlimit="10"/>
<path d="M169.068 256.797H146.188V264.308H169.068V256.797Z" fill="white" stroke="#0E5185" stroke-width="1.6384" stroke-miterlimit="10"/>
<path d="M191.949 256.797H169.068V264.308H191.949V256.797Z" fill="white" stroke="#0E5185" stroke-width="1.6384" stroke-miterlimit="10"/>
<path d="M214.83 256.797H191.949V264.308H214.83V256.797Z" fill="white" stroke="#0E5185" stroke-width="1.6384" stroke-miterlimit="10"/>
<path d="M237.711 256.797H214.83V264.308H237.711V256.797Z" fill="white" stroke="#0E5185" stroke-width="1.6384" stroke-miterlimit="10"/>
<path d="M260.591 256.797H237.711V264.308H260.591V256.797Z" fill="white" stroke="#0E5185" stroke-width="1.6384" stroke-miterlimit="10"/>
<path d="M54.6645 264.308H31.7837V271.82H54.6645V264.308Z" fill="#A9E1F5" stroke="#0E5185" stroke-width="1.6384" stroke-miterlimit="10"/>
<path d="M77.5453 264.308H54.6646V271.82H77.5453V264.308Z" fill="white" stroke="#0E5185" stroke-width="1.6384" stroke-miterlimit="10"/>
<path d="M100.426 264.308H77.5454V271.82H100.426V264.308Z" fill="white" stroke="#0E5185" stroke-width="1.6384" stroke-miterlimit="10"/>
<path d="M123.307 264.308H100.426V271.82H123.307V264.308Z" fill="white" stroke="#0E5185" stroke-width="1.6384" stroke-miterlimit="10"/>
<path d="M146.188 264.308H123.307V271.82H146.188V264.308Z" fill="white" stroke="#0E5185" stroke-width="1.6384" stroke-miterlimit="10"/>
<path d="M169.068 264.308H146.188V271.82H169.068V264.308Z" fill="white" stroke="#0E5185" stroke-width="1.6384" stroke-miterlimit="10"/>
<path d="M191.949 264.308H169.068V271.82H191.949V264.308Z" fill="white" stroke="#0E5185" stroke-width="1.6384" stroke-miterlimit="10"/>
<path d="M214.83 264.308H191.949V271.82H214.83V264.308Z" fill="white" stroke="#0E5185" stroke-width="1.6384" stroke-miterlimit="10"/>
<path d="M237.711 264.308H214.83V271.82H237.711V264.308Z" fill="white" stroke="#0E5185" stroke-width="1.6384" stroke-miterlimit="10"/>
<path d="M260.591 264.308H237.711V271.82H260.591V264.308Z" fill="white" stroke="#0E5185" stroke-width="1.6384" stroke-miterlimit="10"/>
<path d="M54.6645 271.82H31.7837V279.331H54.6645V271.82Z" fill="#A9E1F5" stroke="#0E5185" stroke-width="1.6384" stroke-miterlimit="10"/>
<path d="M77.5453 271.82H54.6646V279.331H77.5453V271.82Z" fill="white" stroke="#0E5185" stroke-width="1.6384" stroke-miterlimit="10"/>
<path d="M100.426 271.82H77.5454V279.331H100.426V271.82Z" fill="white" stroke="#0E5185" stroke-width="1.6384" stroke-miterlimit="10"/>
<path d="M123.307 271.82H100.426V279.331H123.307V271.82Z" fill="white" stroke="#0E5185" stroke-width="1.6384" stroke-miterlimit="10"/>
<path d="M146.188 271.82H123.307V279.331H146.188V271.82Z" fill="white" stroke="#0E5185" stroke-width="1.6384" stroke-miterlimit="10"/>
<path d="M169.068 271.82H146.188V279.331H169.068V271.82Z" fill="white" stroke="#0E5185" stroke-width="1.6384" stroke-miterlimit="10"/>
<path d="M191.949 271.82H169.068V279.331H191.949V271.82Z" fill="white" stroke="#0E5185" stroke-width="1.6384" stroke-miterlimit="10"/>
<path d="M214.83 271.82H191.949V279.331H214.83V271.82Z" fill="white" stroke="#0E5185" stroke-width="1.6384" stroke-miterlimit="10"/>
<path d="M237.711 271.82H214.83V279.331H237.711V271.82Z" fill="white" stroke="#0E5185" stroke-width="1.6384" stroke-miterlimit="10"/>
<path d="M260.591 271.82H237.711V279.331H260.591V271.82Z" fill="white" stroke="#0E5185" stroke-width="1.6384" stroke-miterlimit="10"/>
<path d="M54.6645 279.331H31.7837V286.843H54.6645V279.331Z" fill="#A9E1F5" stroke="#0E5185" stroke-width="1.6384" stroke-miterlimit="10"/>
<path d="M77.5453 279.331H54.6646V286.843H77.5453V279.331Z" fill="white" stroke="#0E5185" stroke-width="1.6384" stroke-miterlimit="10"/>
<path d="M100.426 279.331H77.5454V286.843H100.426V279.331Z" fill="white" stroke="#0E5185" stroke-width="1.6384" stroke-miterlimit="10"/>
<path d="M123.307 279.331H100.426V286.843H123.307V279.331Z" fill="white" stroke="#0E5185" stroke-width="1.6384" stroke-miterlimit="10"/>
<path d="M146.188 279.331H123.307V286.843H146.188V279.331Z" fill="white" stroke="#0E5185" stroke-width="1.6384" stroke-miterlimit="10"/>
<path d="M169.068 279.331H146.188V286.843H169.068V279.331Z" fill="white" stroke="#0E5185" stroke-width="1.6384" stroke-miterlimit="10"/>
<path d="M191.949 279.331H169.068V286.843H191.949V279.331Z" fill="white" stroke="#0E5185" stroke-width="1.6384" stroke-miterlimit="10"/>
<path d="M214.83 279.331H191.949V286.843H214.83V279.331Z" fill="white" stroke="#0E5185" stroke-width="1.6384" stroke-miterlimit="10"/>
<path d="M237.711 279.331H214.83V286.843H237.711V279.331Z" fill="white" stroke="#0E5185" stroke-width="1.6384" stroke-miterlimit="10"/>
<path d="M260.591 279.331H237.711V286.843H260.591V279.331Z" fill="white" stroke="#0E5185" stroke-width="1.6384" stroke-miterlimit="10"/>
<path d="M54.6645 286.843H31.7837V294.354H54.6645V286.843Z" fill="#A9E1F5" stroke="#0E5185" stroke-width="1.6384" stroke-miterlimit="10"/>
<path d="M77.5453 286.843H54.6646V294.354H77.5453V286.843Z" fill="white" stroke="#0E5185" stroke-width="1.6384" stroke-miterlimit="10"/>
<path d="M100.426 286.843H77.5454V294.354H100.426V286.843Z" fill="white" stroke="#0E5185" stroke-width="1.6384" stroke-miterlimit="10"/>
<path d="M123.307 286.843H100.426V294.354H123.307V286.843Z" fill="white" stroke="#0E5185" stroke-width="1.6384" stroke-miterlimit="10"/>
<path d="M146.188 286.843H123.307V294.354H146.188V286.843Z" fill="white" stroke="#0E5185" stroke-width="1.6384" stroke-miterlimit="10"/>
<path d="M169.068 286.843H146.188V294.354H169.068V286.843Z" fill="white" stroke="#0E5185" stroke-width="1.6384" stroke-miterlimit="10"/>
<path d="M191.949 286.843H169.068V294.354H191.949V286.843Z" fill="white" stroke="#0E5185" stroke-width="1.6384" stroke-miterlimit="10"/>
<path d="M214.83 286.843H191.949V294.354H214.83V286.843Z" fill="white" stroke="#0E5185" stroke-width="1.6384" stroke-miterlimit="10"/>
<path d="M237.711 286.843H214.83V294.354H237.711V286.843Z" fill="white" stroke="#0E5185" stroke-width="1.6384" stroke-miterlimit="10"/>
<path d="M260.591 286.843H237.711V294.354H260.591V286.843Z" fill="white" stroke="#0E5185" stroke-width="1.6384" stroke-miterlimit="10"/>
<path d="M54.6645 294.354H31.7837V301.866H54.6645V294.354Z" fill="#A9E1F5" stroke="#0E5185" stroke-width="1.6384" stroke-miterlimit="10"/>
<path d="M77.5453 294.354H54.6646V301.866H77.5453V294.354Z" fill="white" stroke="#0E5185" stroke-width="1.6384" stroke-miterlimit="10"/>
<path d="M100.426 294.354H77.5454V301.866H100.426V294.354Z" fill="white" stroke="#0E5185" stroke-width="1.6384" stroke-miterlimit="10"/>
<path d="M123.307 294.354H100.426V301.866H123.307V294.354Z" fill="white" stroke="#0E5185" stroke-width="1.6384" stroke-miterlimit="10"/>
<path d="M146.188 294.354H123.307V301.866H146.188V294.354Z" fill="white" stroke="#0E5185" stroke-width="1.6384" stroke-miterlimit="10"/>
<path d="M169.068 294.354H146.188V301.866H169.068V294.354Z" fill="white" stroke="#0E5185" stroke-width="1.6384" stroke-miterlimit="10"/>
<path d="M191.949 294.354H169.068V301.866H191.949V294.354Z" fill="white" stroke="#0E5185" stroke-width="1.6384" stroke-miterlimit="10"/>
<path d="M214.83 294.354H191.949V301.866H214.83V294.354Z" fill="white" stroke="#0E5185" stroke-width="1.6384" stroke-miterlimit="10"/>
<path d="M237.711 294.354H214.83V301.866H237.711V294.354Z" fill="white" stroke="#0E5185" stroke-width="1.6384" stroke-miterlimit="10"/>
<path d="M260.591 294.354H237.711V301.866H260.591V294.354Z" fill="white" stroke="#0E5185" stroke-width="1.6384" stroke-miterlimit="10"/>
<path d="M54.6645 301.866H31.7837V309.377H54.6645V301.866Z" fill="#A9E1F5" stroke="#0E5185" stroke-width="1.6384" stroke-miterlimit="10"/>
<path d="M77.5453 301.866H54.6646V309.377H77.5453V301.866Z" fill="white" stroke="#0E5185" stroke-width="1.6384" stroke-miterlimit="10"/>
<path d="M100.426 301.866H77.5454V309.377H100.426V301.866Z" fill="white" stroke="#0E5185" stroke-width="1.6384" stroke-miterlimit="10"/>
<path d="M123.307 301.866H100.426V309.377H123.307V301.866Z" fill="white" stroke="#0E5185" stroke-width="1.6384" stroke-miterlimit="10"/>
<path d="M146.188 301.866H123.307V309.377H146.188V301.866Z" fill="white" stroke="#0E5185" stroke-width="1.6384" stroke-miterlimit="10"/>
<path d="M169.068 301.866H146.188V309.377H169.068V301.866Z" fill="white" stroke="#0E5185" stroke-width="1.6384" stroke-miterlimit="10"/>
<path d="M191.949 301.866H169.068V309.377H191.949V301.866Z" fill="white" stroke="#0E5185" stroke-width="1.6384" stroke-miterlimit="10"/>
<path d="M214.83 301.866H191.949V309.377H214.83V301.866Z" fill="white" stroke="#0E5185" stroke-width="1.6384" stroke-miterlimit="10"/>
<path d="M237.711 301.866H214.83V309.377H237.711V301.866Z" fill="white" stroke="#0E5185" stroke-width="1.6384" stroke-miterlimit="10"/>
<path d="M260.591 301.866H237.711V309.377H260.591V301.866Z" fill="white" stroke="#0E5185" stroke-width="1.6384" stroke-miterlimit="10"/>
<path d="M54.6645 309.377H31.7837V316.889H54.6645V309.377Z" fill="#A9E1F5" stroke="#0E5185" stroke-width="1.6384" stroke-miterlimit="10"/>
<path d="M77.5453 309.377H54.6646V316.889H77.5453V309.377Z" fill="white" stroke="#0E5185" stroke-width="1.6384" stroke-miterlimit="10"/>
<path d="M100.426 309.377H77.5454V316.889H100.426V309.377Z" fill="white" stroke="#0E5185" stroke-width="1.6384" stroke-miterlimit="10"/>
<path d="M123.307 309.377H100.426V316.889H123.307V309.377Z" fill="white" stroke="#0E5185" stroke-width="1.6384" stroke-miterlimit="10"/>
<path d="M146.188 309.377H123.307V316.889H146.188V309.377Z" fill="white" stroke="#0E5185" stroke-width="1.6384" stroke-miterlimit="10"/>
<path d="M169.068 309.377H146.188V316.889H169.068V309.377Z" fill="white" stroke="#0E5185" stroke-width="1.6384" stroke-miterlimit="10"/>
<path d="M191.949 309.377H169.068V316.889H191.949V309.377Z" fill="white" stroke="#0E5185" stroke-width="1.6384" stroke-miterlimit="10"/>
<path d="M214.83 309.377H191.949V316.889H214.83V309.377Z" fill="white" stroke="#0E5185" stroke-width="1.6384" stroke-miterlimit="10"/>
<path d="M237.711 309.377H214.83V316.889H237.711V309.377Z" fill="white" stroke="#0E5185" stroke-width="1.6384" stroke-miterlimit="10"/>
<path d="M260.591 309.377H237.711V316.889H260.591V309.377Z" fill="white" stroke="#0E5185" stroke-width="1.6384" stroke-miterlimit="10"/>
<path d="M54.6645 316.889H31.7837V324.4H54.6645V316.889Z" fill="#A9E1F5" stroke="#0E5185" stroke-width="1.6384" stroke-miterlimit="10"/>
<path d="M77.5453 316.889H54.6646V324.4H77.5453V316.889Z" fill="white" stroke="#0E5185" stroke-width="1.6384" stroke-miterlimit="10"/>
<path d="M100.426 316.889H77.5454V324.4H100.426V316.889Z" fill="white" stroke="#0E5185" stroke-width="1.6384" stroke-miterlimit="10"/>
<path d="M123.307 316.889H100.426V324.4H123.307V316.889Z" fill="white" stroke="#0E5185" stroke-width="1.6384" stroke-miterlimit="10"/>
<path d="M146.188 316.889H123.307V324.4H146.188V316.889Z" fill="white" stroke="#0E5185" stroke-width="1.6384" stroke-miterlimit="10"/>
<path d="M169.068 316.889H146.188V324.4H169.068V316.889Z" fill="white" stroke="#0E5185" stroke-width="1.6384" stroke-miterlimit="10"/>
<path d="M191.949 316.889H169.068V324.4H191.949V316.889Z" fill="white" stroke="#0E5185" stroke-width="1.6384" stroke-miterlimit="10"/>
<path d="M214.83 316.889H191.949V324.4H214.83V316.889Z" fill="white" stroke="#0E5185" stroke-width="1.6384" stroke-miterlimit="10"/>
<path d="M237.711 316.889H214.83V324.4H237.711V316.889Z" fill="white" stroke="#0E5185" stroke-width="1.6384" stroke-miterlimit="10"/>
<path d="M260.591 316.889H237.711V324.4H260.591V316.889Z" fill="white" stroke="#0E5185" stroke-width="1.6384" stroke-miterlimit="10"/>
<path d="M44.4346 191.242H37.3875C37.1047 191.242 36.8755 191.012 36.8755 190.73V181.146C36.8755 180.863 37.1047 180.634 37.3875 180.634H44.4346C44.7173 180.634 44.9466 180.863 44.9466 181.146V190.73C44.9466 191.012 44.7174 191.242 44.4346 191.242Z" fill="#FDB606"/>
<path d="M45.6517 192.933H41.4231C41.1404 192.933 40.9111 192.703 40.9111 192.421V185.261C40.9111 184.978 41.1404 184.749 41.4231 184.749H45.6517C45.9345 184.749 46.1637 184.978 46.1637 185.261V192.421C46.1637 192.703 45.9345 192.933 45.6517 192.933Z" fill="white"/>
<path d="M58.3349 188.612H48.5974C48.3147 188.612 48.0854 188.383 48.0854 188.1V185.466C48.0854 185.183 48.3147 184.954 48.5974 184.954H58.3349C58.6176 184.954 58.8469 185.183 58.8469 185.466V188.1C58.8469 188.383 58.6177 188.612 58.3349 188.612Z" fill="#A9E1F5"/>
<path d="M88.3771 192.933H78.6397C78.357 192.933 78.1277 192.703 78.1277 192.421V189.787C78.1277 189.504 78.357 189.275 78.6397 189.275H88.3771C88.6598 189.275 88.8891 189.504 88.8891 189.787V192.421C88.8891 192.703 88.6599 192.933 88.3771 192.933Z" fill="#A9E1F5"/>
<path d="M113.039 186.029H107.785C107.503 186.029 107.273 185.8 107.273 185.517V181.237C107.273 180.954 107.503 180.725 107.785 180.725H113.039C113.322 180.725 113.551 180.954 113.551 181.237V185.517C113.551 185.8 113.322 186.029 113.039 186.029Z" fill="white"/>
<path d="M108.042 192.933H105.351C105.068 192.933 104.839 192.703 104.839 192.421V189.742C104.839 189.459 105.068 189.23 105.351 189.23H108.042C108.325 189.23 108.554 189.459 108.554 189.742V192.421C108.554 192.703 108.325 192.933 108.042 192.933Z" fill="#FDDAD2"/>
<path d="M113.039 192.933H110.348C110.065 192.933 109.836 192.703 109.836 192.421V189.742C109.836 189.459 110.065 189.23 110.348 189.23H113.039C113.322 189.23 113.551 189.459 113.551 189.742V192.421C113.551 192.703 113.322 192.933 113.039 192.933Z" fill="#AAC8D3"/>
<path d="M123.032 185.587H120.34C120.058 185.587 119.828 185.357 119.828 185.075V181.237C119.828 180.954 120.058 180.725 120.34 180.725H123.032C123.314 180.725 123.544 180.954 123.544 181.237V185.075C123.544 185.357 123.314 185.587 123.032 185.587Z" fill="#A9E1F5"/>
<path d="M123.032 192.933H120.34C120.058 192.933 119.828 192.703 119.828 192.421V188.583C119.828 188.3 120.058 188.071 120.34 188.071H123.032C123.314 188.071 123.544 188.3 123.544 188.583V192.421C123.544 192.703 123.314 192.933 123.032 192.933Z" fill="#A9E1F5"/>
<path d="M131.039 185.587H125.209C124.926 185.587 124.697 185.357 124.697 185.075V181.237C124.697 180.954 124.926 180.725 125.209 180.725H131.039C131.322 180.725 131.551 180.954 131.551 181.237V185.075C131.551 185.357 131.322 185.587 131.039 185.587Z" fill="#A9E1F5"/>
<path d="M131.039 192.933H125.209C124.926 192.933 124.697 192.703 124.697 192.421V188.583C124.697 188.3 124.926 188.071 125.209 188.071H131.039C131.322 188.071 131.551 188.3 131.551 188.583V192.421C131.551 192.703 131.322 192.933 131.039 192.933Z" fill="#A9E1F5"/>
<path d="M164.604 185.587H133.408C133.125 185.587 132.896 185.357 132.896 185.075V181.237C132.896 180.954 133.125 180.725 133.408 180.725H164.604C164.887 180.725 165.116 180.954 165.116 181.237V185.075C165.116 185.357 164.887 185.587 164.604 185.587Z" fill="#A9E1F5"/>
<path d="M182.22 192.979H171.714C171.431 192.979 171.202 192.75 171.202 192.467V181.237C171.202 180.954 171.431 180.725 171.714 180.725H182.22C182.503 180.725 182.732 180.954 182.732 181.237V192.467C182.732 192.75 182.503 192.979 182.22 192.979Z" fill="white"/>
<path d="M196.44 192.979H185.934C185.651 192.979 185.422 192.75 185.422 192.467V181.237C185.422 180.954 185.651 180.725 185.934 180.725H196.44C196.723 180.725 196.952 180.954 196.952 181.237V192.467C196.952 192.75 196.723 192.979 196.44 192.979Z" fill="white"/>
<path d="M210.661 192.979H200.155C199.872 192.979 199.643 192.75 199.643 192.467V181.237C199.643 180.954 199.872 180.725 200.155 180.725H210.661C210.943 180.725 211.173 180.954 211.173 181.237V192.467C211.173 192.75 210.943 192.979 210.661 192.979Z" fill="white"/>
<path d="M224.881 192.979H214.375C214.092 192.979 213.863 192.75 213.863 192.467V181.237C213.863 180.954 214.092 180.725 214.375 180.725H224.881C225.164 180.725 225.393 180.954 225.393 181.237V192.467C225.393 192.75 225.164 192.979 224.881 192.979Z" fill="white"/>
<path d="M239.102 192.979H228.595C228.313 192.979 228.083 192.75 228.083 192.467V181.237C228.083 180.954 228.313 180.725 228.595 180.725H239.102C239.384 180.725 239.614 180.954 239.614 181.237V192.467C239.614 192.75 239.384 192.979 239.102 192.979Z" fill="white"/>
<path d="M164.604 192.933H133.408C133.125 192.933 132.896 192.703 132.896 192.421V188.583C132.896 188.3 133.125 188.071 133.408 188.071H164.604C164.887 188.071 165.116 188.3 165.116 188.583V192.421C165.116 192.703 164.887 192.933 164.604 192.933Z" fill="#A9E1F5"/>
<path d="M74.7333 192.933H64.9959C64.7132 192.933 64.4839 192.703 64.4839 192.421V189.787C64.4839 189.504 64.7132 189.275 64.9959 189.275H74.7333C75.016 189.275 75.2453 189.504 75.2453 189.787V192.421C75.2453 192.703 75.0161 192.933 74.7333 192.933Z" fill="#A9E1F5"/>
<path d="M102.021 192.933H92.2837C92.001 192.933 91.7717 192.703 91.7717 192.421V189.787C91.7717 189.504 92.001 189.275 92.2837 189.275H102.021C102.304 189.275 102.533 189.504 102.533 189.787V192.421C102.533 192.703 102.304 192.933 102.021 192.933Z" fill="#A9E1F5"/>
<path d="M105.608 186.121H64.9959C64.7132 186.121 64.4839 185.891 64.4839 185.609V181.146C64.4839 180.863 64.7132 180.634 64.9959 180.634H105.608C105.891 180.634 106.12 180.863 106.12 181.146V185.609C106.12 185.891 105.891 186.121 105.608 186.121Z" fill="white"/>
<path d="M58.3349 184.292H48.5974C48.3147 184.292 48.0854 184.062 48.0854 183.78V181.146C48.0854 180.863 48.3147 180.634 48.5974 180.634H58.3349C58.6176 180.634 58.8469 180.863 58.8469 181.146V183.78C58.8469 184.062 58.6177 184.292 58.3349 184.292Z" fill="#A9E1F5"/>
<path d="M58.3349 192.933H48.5974C48.3147 192.933 48.0854 192.703 48.0854 192.421V189.787C48.0854 189.504 48.3147 189.275 48.5974 189.275H58.3349C58.6176 189.275 58.8469 189.504 58.8469 189.787V192.421C58.8469 192.703 58.6177 192.933 58.3349 192.933Z" fill="#A9E1F5"/>
<path d="M254.988 188.704H245.25C244.968 188.704 244.738 188.474 244.738 188.192V185.558C244.738 185.275 244.968 185.046 245.25 185.046H254.988C255.27 185.046 255.5 185.275 255.5 185.558V188.192C255.5 188.474 255.271 188.704 254.988 188.704Z" fill="#A9E1F5"/>
<path d="M254.988 184.383H245.25C244.968 184.383 244.738 184.154 244.738 183.871V181.237C244.738 180.954 244.968 180.725 245.25 180.725H254.988C255.27 180.725 255.5 180.954 255.5 181.237V183.871C255.5 184.154 255.271 184.383 254.988 184.383Z" fill="#A9E1F5"/>
<path d="M254.988 193.024H245.25C244.968 193.024 244.738 192.795 244.738 192.512V189.878C244.738 189.595 244.968 189.366 245.25 189.366H254.988C255.27 189.366 255.5 189.595 255.5 189.878V192.512C255.5 192.795 255.271 193.024 254.988 193.024Z" fill="#A9E1F5"/>
<path d="M260.591 219.341H191.83V294.4H260.591V219.341Z" fill="white" stroke="#0E5185" stroke-width="2.31948" stroke-miterlimit="10"/>
<path d="M146.029 219.29H77.5232V226.765H146.029V219.29Z" fill="#FBB5A5" stroke="#0E5185" stroke-width="0.730644" stroke-miterlimit="10"/>
<path d="M146.029 226.765H77.5232V234.24H146.029V226.765Z" fill="#F4F6FC" stroke="#0E5185" stroke-width="0.731054" stroke-miterlimit="10"/>
<path d="M146.029 234.24H77.5232V241.715H146.029V234.24Z" fill="#F4F6FC" stroke="#0E5185" stroke-width="0.731054" stroke-miterlimit="10"/>
<path d="M146.029 241.715H77.5232V249.19H146.029V241.715Z" fill="#F4F6FC" stroke="#0E5185" stroke-width="0.731054" stroke-miterlimit="10"/>
<path d="M146.029 249.19H77.5232V256.666H146.029V249.19Z" fill="#F4F6FC" stroke="#0E5185" stroke-width="0.731054" stroke-miterlimit="10"/>
<path d="M146.234 226.765H168.864V219.29H146.234V226.765Z" fill="#FBB5A5" stroke="#0E5185" stroke-width="0.419922" stroke-miterlimit="10"/>
<path d="M146.234 234.24H168.864V226.765H146.234V234.24Z" fill="#F4F6FC" stroke="#0E5185" stroke-width="0.420168" stroke-miterlimit="10"/>
<path d="M146.234 241.715H168.864V234.24H146.234V241.715Z" fill="#F4F6FC" stroke="#0E5185" stroke-width="0.420168" stroke-miterlimit="10"/>
<path d="M146.029 271.923H77.5232V279.398H146.029V271.923Z" fill="#A2E0AF" stroke="#0E5185" stroke-width="0.730644" stroke-miterlimit="10"/>
<path d="M146.029 279.398H77.5232V286.874H146.029V279.398Z" fill="#F4F6FC" stroke="#0E5185" stroke-width="0.731054" stroke-miterlimit="10"/>
<path d="M146.029 286.874H77.5232V294.349H146.029V286.874Z" fill="#F4F6FC" stroke="#0E5185" stroke-width="0.731054" stroke-miterlimit="10"/>
<path d="M146.234 279.398H168.864V271.923H146.234V279.398Z" fill="#A2E0AF" stroke="#0E5185" stroke-width="0.419922" stroke-miterlimit="10"/>
<path d="M146.234 286.874H168.864V279.398H146.234V286.874Z" fill="#F4F6FC" stroke="#0E5185" stroke-width="0.420168" stroke-miterlimit="10"/>
<path d="M146.234 294.349H168.864V286.874H146.234V294.349Z" fill="#F4F6FC" stroke="#0E5185" stroke-width="0.420168" stroke-miterlimit="10"/>
<path d="M146.234 249.19H168.864V241.715H146.234V249.19Z" fill="#F4F6FC" stroke="#0E5185" stroke-width="0.420168" stroke-miterlimit="10"/>
<path d="M146.234 256.666H168.864V249.19H146.234V256.666Z" fill="#F4F6FC" stroke="#0E5185" stroke-width="0.420168" stroke-miterlimit="10"/>
<path d="M85.9199 222.976H124.721" stroke="white" stroke-width="4.096" stroke-miterlimit="10" stroke-linecap="round"/>
<path d="M85.9199 276.019H121.47" stroke="white" stroke-width="4.096" stroke-miterlimit="10" stroke-linecap="round"/>
<path d="M164.563 222.976H152.143" stroke="white" stroke-width="4.096" stroke-miterlimit="10" stroke-linecap="round"/>
<path d="M164.043 276.019H152.664" stroke="white" stroke-width="4.096" stroke-miterlimit="10" stroke-linecap="round"/>
<path d="M85.9199 230.554H129.747" stroke="#0E5185" stroke-width="4.096" stroke-miterlimit="10" stroke-linecap="round"/>
<path d="M85.9199 238.131H112.158" stroke="#0E5185" stroke-width="4.096" stroke-miterlimit="10" stroke-linecap="round"/>
<path d="M85.9199 245.709H120.272" stroke="#0E5185" stroke-width="4.096" stroke-miterlimit="10" stroke-linecap="round"/>
<path d="M85.9199 253.286H115.557" stroke="#0E5185" stroke-width="4.096" stroke-miterlimit="10" stroke-linecap="round"/>
<path d="M85.9199 283.597H105.943" stroke="#0E5185" stroke-width="4.096" stroke-miterlimit="10" stroke-linecap="round"/>
<path d="M85.9199 291.174H119.396" stroke="#0E5185" stroke-width="4.096" stroke-miterlimit="10" stroke-linecap="round"/>
<path d="M163.729 230.554H152.977" stroke="#0E5185" stroke-width="3.58588" stroke-miterlimit="10" stroke-linecap="round"/>
<path d="M162.553 238.131H154.154" stroke="#0E5185" stroke-width="4.096" stroke-miterlimit="10" stroke-linecap="round"/>
<path d="M162.567 245.709H154.139" stroke="#0E5185" stroke-width="3.58588" stroke-miterlimit="10" stroke-linecap="round"/>
<path d="M163.096 253.286H153.61" stroke="#0E5185" stroke-width="4.096" stroke-miterlimit="10" stroke-linecap="round"/>
<path d="M161.558 283.597H155.149" stroke="#0E5185" stroke-width="4.096" stroke-miterlimit="10" stroke-linecap="round"/>
<path d="M162.46 291.174H154.247" stroke="#0E5185" stroke-width="3.58588" stroke-miterlimit="10" stroke-linecap="round"/>
<path d="M232.512 269.186H212.467C212.267 269.186 212.104 269.024 212.104 268.823V268.674C212.104 268.473 212.267 268.311 212.467 268.311H232.512C232.713 268.311 232.875 268.473 232.875 268.674V268.823C232.875 269.024 232.713 269.186 232.512 269.186Z" fill="#ACE9FF"/>
<path d="M243.81 271.298H212.468C212.267 271.298 212.105 271.136 212.105 270.935V270.81C212.105 270.61 212.267 270.447 212.468 270.447H243.81C244.01 270.447 244.173 270.61 244.173 270.81V270.935C244.173 271.136 244.01 271.298 243.81 271.298Z" fill="#ACE9FF"/>
<path d="M224.794 273.781H212.468C212.267 273.781 212.105 273.618 212.105 273.418V273.125C212.105 272.924 212.267 272.762 212.468 272.762H224.794C224.995 272.762 225.157 272.924 225.157 273.125V273.418C225.157 273.618 224.995 273.781 224.794 273.781Z" fill="#ACE9FF"/>
<path d="M240.988 275.719H212.468C212.267 275.719 212.105 275.557 212.105 275.356V275.261C212.105 275.061 212.267 274.898 212.468 274.898H240.988C241.188 274.898 241.351 275.061 241.351 275.261V275.356C241.351 275.557 241.188 275.719 240.988 275.719Z" fill="#ACE9FF"/>
<path d="M227.193 278.111H212.468C212.267 278.111 212.105 277.948 212.105 277.748V277.576C212.105 277.375 212.267 277.213 212.468 277.213H227.193C227.394 277.213 227.556 277.375 227.556 277.576V277.748C227.556 277.948 227.394 278.111 227.193 278.111Z" fill="#ACE9FF"/>
<path d="M246.739 280.17H212.468C212.267 280.17 212.105 280.008 212.105 279.807V279.712C212.105 279.512 212.267 279.349 212.468 279.349H246.739C246.939 279.349 247.102 279.512 247.102 279.712V279.807C247.102 280.008 246.939 280.17 246.739 280.17Z" fill="#ACE9FF"/>
<path d="M206.325 270.335C206.88 270.335 207.33 269.885 207.33 269.33C207.33 268.775 206.88 268.325 206.325 268.325C205.77 268.325 205.32 268.775 205.32 269.33C205.32 269.885 205.77 270.335 206.325 270.335Z" fill="#82DFFF"/>
<path d="M206.325 274.786C206.88 274.786 207.33 274.336 207.33 273.781C207.33 273.226 206.88 272.776 206.325 272.776C205.77 272.776 205.32 273.226 205.32 273.781C205.32 274.336 205.77 274.786 206.325 274.786Z" fill="#ACE9FF"/>
<path d="M207.304 278.492C207.432 277.952 207.097 277.41 206.557 277.283C206.017 277.155 205.475 277.49 205.348 278.03C205.22 278.57 205.555 279.111 206.095 279.239C206.635 279.366 207.177 279.032 207.304 278.492Z" fill="#E3E9F7"/>
<path d="M222.695 241.557C222.036 240 221.094 238.602 219.894 237.402C218.694 236.201 217.295 235.259 215.738 234.6C214.128 233.919 212.421 233.573 210.663 233.571V236.995C215.981 237.004 220.291 241.314 220.301 246.632H223.724C223.722 244.874 223.376 243.167 222.695 241.557Z" fill="#E3E9F7"/>
<path d="M220.59 255.144C220.369 255.403 220.136 255.654 219.893 255.897C218.693 257.097 217.295 258.039 215.737 258.698C214.123 259.381 212.41 259.727 210.646 259.727C208.882 259.727 207.169 259.381 205.554 258.698C203.997 258.039 202.598 257.097 201.398 255.897C200.198 254.697 199.256 253.298 198.597 251.741C197.914 250.126 197.568 248.413 197.568 246.649C197.568 244.885 197.914 243.172 198.597 241.557C199.256 240 200.198 238.602 201.398 237.402C202.598 236.201 203.997 235.259 205.554 234.6C207.169 233.917 208.882 233.571 210.646 233.571H210.663V236.995H210.646C205.314 236.995 200.991 241.317 200.991 246.649C200.991 251.981 205.314 256.304 210.646 256.304C213.586 256.304 216.22 254.989 217.991 252.915L220.59 255.144Z" fill="#82DFFF"/>
<path d="M223.724 246.632V246.649C223.724 248.413 223.378 250.126 222.695 251.741C222.169 252.983 221.463 254.124 220.59 255.144L217.991 252.915C219.431 251.229 220.3 249.041 220.3 246.649V246.632H223.724Z" fill="#ACE9FF"/>
<path d="M253.824 241.557C253.165 240 252.223 238.602 251.023 237.402C249.823 236.201 248.425 235.259 246.867 234.6C245.258 233.919 243.551 233.573 241.792 233.571V236.995C247.111 237.004 251.421 241.314 251.43 246.632H254.854C254.851 244.874 254.505 243.167 253.824 241.557Z" fill="#82DFFF"/>
<path d="M251.72 255.144C251.498 255.403 251.266 255.654 251.023 255.897C249.823 257.097 248.425 258.039 246.867 258.698C245.253 259.381 243.54 259.727 241.775 259.727C240.011 259.727 238.299 259.381 236.684 258.698C235.126 258.039 233.728 257.097 232.528 255.897C231.328 254.697 230.385 253.298 229.726 251.741C229.043 250.126 228.697 248.413 228.697 246.649C228.697 244.885 229.043 243.172 229.726 241.557C230.385 240 231.328 238.602 232.528 237.402C233.728 236.201 235.126 235.259 236.684 234.6C238.299 233.917 240.011 233.571 241.775 233.571H241.793V236.995H241.775C236.444 236.995 232.121 241.317 232.121 246.649C232.121 251.981 236.444 256.304 241.775 256.304C244.716 256.304 247.35 254.989 249.121 252.915L251.72 255.144Z" fill="#ACE9FF"/>
<path d="M254.854 246.632V246.649C254.854 248.413 254.507 250.126 253.824 251.741C253.299 252.983 252.593 254.124 251.72 255.144L249.12 252.915C250.561 251.229 251.43 249.041 251.43 246.649V246.632H254.854Z" fill="#E3E9F7"/>
<path d="M4.95641 364.36C4.95641 364.36 2.38177 370.6 4.16425 370.655C4.16425 370.655 5.68263 371.483 9.57772 370.655C9.57772 370.655 10.634 370.213 12.0204 370.269C12.0204 370.269 15.7834 370.158 16.3776 370.213C16.9717 370.268 12.7466 365.741 12.7466 365.741L10.9641 364.084L4.95641 364.36Z" fill="#040C2B"/>
<path d="M4.60449 365.275C4.60449 365.275 7.34092 367.27 11.4677 364.867C11.5365 364.827 11.6051 364.787 11.6744 364.744C11.6744 364.744 11.4928 361.367 11.9213 356.326C12.1272 353.898 12.0665 350.53 13.0106 348.016L19.3285 318.955L19.3482 318.863L18.8221 318.906L10.6617 319.584L10.0398 319.636C10.0398 319.636 7.46513 322.949 8.32334 328.636C8.32334 328.636 8.78547 333.716 8.32334 337.305L7.72922 343.268C7.72922 343.268 5.02248 349.563 4.75839 356.741L4.60449 365.275Z" fill="#081956"/>
<path opacity="0.15" d="M11.9213 331.645L11.4677 364.867C11.5365 364.828 11.6051 364.787 11.6744 364.744C11.6744 364.744 11.4928 361.367 11.9213 356.327C12.1272 353.898 12.0665 350.53 13.0106 348.017L19.3285 318.955L18.8221 318.906L11.0657 318.164C11.0657 318.164 10.8564 318.65 10.6617 319.584C10.2385 321.619 9.88464 325.778 11.9213 331.645Z" fill="black"/>
<path d="M19.3481 366.956L24.2995 370.379C24.2995 370.379 26.8082 371.428 30.5712 371.538C30.5712 371.538 33.9381 373.802 29.2508 374.52C29.2508 374.52 27.1383 375.293 22.2529 374.906C22.2529 374.906 17.3016 374.906 15.9812 375.017C15.9812 375.017 11.624 375.238 11.9541 372.919C11.9541 372.919 12.0202 370.103 13.5386 367.563L19.3481 366.956Z" fill="#040C2B"/>
<path d="M23.9695 319.691C23.9695 319.691 26.1481 326.151 24.4977 334.986L21.3949 348.569C21.3949 348.569 19.0842 366.182 20.4046 367.563C20.4046 367.563 16.5755 369.772 13.0106 368.225C13.0106 368.225 11.096 352.378 12.4165 347.133L12.9579 333.143C12.9913 332.28 12.8641 331.418 12.5809 330.587C11.625 327.784 9.54925 320.787 11.4261 317.648L23.9695 319.691Z" fill="#081956"/>
<path d="M31.3635 313.341L28.7227 312.513L39.9137 312.169L37.8991 313.175L31.3635 313.341Z" fill="black"/>
<path d="M30.1089 313.396C30.1089 313.396 33.938 312.568 35.5224 313.01C35.5224 313.01 37.635 312.955 39.0213 312.513C39.0213 312.513 40.8038 313.065 37.5029 313.948C37.5029 313.948 31.4293 316.047 29.9109 315.218L30.1089 313.396Z" fill="#DE995F"/>
<path d="M45.1612 302.85L39.3517 304.506L36.3809 312.292L41.4642 312.513L45.1612 302.85Z" fill="#0E5185"/>
<path d="M44.647 303.288L39.6155 304.723L36.8254 312.035L41.2273 312.226L44.647 303.288Z" fill="white"/>
<path d="M41.1341 312.126V312.623L28.7227 312.789V312.237L41.1341 312.126Z" fill="#0E5185"/>
<path d="M23.1111 312.513L23.4861 312.468L24.5701 312.338L25.5187 312.225L25.8838 312.181C27.2371 312.485 29.2507 311.077 29.2507 311.077C30.6371 310.525 32.7496 311.685 32.7496 311.685C34.136 312.181 34.0039 311.464 34.0039 311.464C33.4659 309.618 30.9981 309.424 30.1036 309.415C29.9075 309.413 29.7121 309.439 29.5252 309.49L25.0776 310.697L24.6953 310.801H23.441L23.3994 311.016L23.1111 312.513Z" fill="#DE995F"/>
<path d="M11.5581 295.285L18.8564 296.43L18.9521 296.445C18.9521 296.445 19.3264 295.554 19.9034 294.79C19.6446 294.697 19.3792 294.576 19.1158 294.416L19.5132 291.338L20.2104 291.657L18.4239 286.23L16.9491 286.835L11.5581 289.046C11.5581 289.046 13.4727 292.746 11.5581 295.285Z" fill="#DE995F"/>
<path opacity="0.15" d="M18.8564 296.43L18.9522 296.445C18.9522 296.445 19.3265 295.554 19.9035 294.79C19.6447 294.697 19.3793 294.575 19.1159 294.416L18.8564 296.43Z" fill="black"/>
<path d="M5.55056 307.157L9.39283 320.728C9.39283 320.728 22.8598 323.172 24.6687 322.756C24.6687 322.756 24.9268 320.436 25.245 316.145C25.2997 315.406 25.0529 314.627 24.868 313.817C24.8257 313.63 24.7795 313.441 24.7301 313.252C24.7188 313.208 24.7077 313.164 24.6958 313.12L24.5703 312.338L24.3227 310.801L23.6705 306.743L22.121 297.108C22.121 297.108 17.6979 294.513 16.1795 294.347H11.9544C11.9544 294.347 3.57005 297.384 5.55056 307.157Z" fill="white"/>
<path opacity="0.15" d="M23.1443 306.743L23.3998 311.016L23.4862 312.468L23.5404 313.369L24.73 313.252C24.7188 313.208 24.7076 313.164 24.6957 313.12L24.5703 312.338L25.5189 312.225L25.0779 310.697L24.6956 310.801H24.3226L23.6703 306.743H23.1443V306.743Z" fill="black"/>
<path opacity="0.15" d="M16.0804 308.565C16.0804 308.565 15.2222 316.682 19.9095 316.35L25.245 316.145C25.173 315.407 25.0529 314.628 24.8681 313.817L20.2396 312.54L18.5515 298.151C18.5515 298.151 14.8921 300.89 16.0804 308.565Z" fill="black"/>
<path d="M24.1676 299.647C24.1676 299.647 23.5074 294.568 18.226 298.378C18.226 298.378 16.2124 300.779 16.4765 305.583L16.7736 312.734C16.7736 312.734 16.9716 316.599 21.0648 315.991L30.9344 315.412C30.9344 315.412 31.904 313.783 30.3794 313.341C30.3794 313.341 27.3034 312.761 23.8044 311.988C23.8044 311.988 24.8278 301.911 24.1676 299.647Z" fill="white"/>
<path d="M16.9493 286.835C18.1323 284.79 20.9328 284.518 20.9328 284.518C20.9328 284.518 24.1676 286.009 24.1676 290.979C24.1676 290.979 24.2817 292.145 23.9186 293.24C23.6645 294.006 23.1766 294.737 22.253 295.009C22.253 295.009 21.2086 295.228 19.9971 294.823C19.9661 294.812 19.9351 294.802 19.9033 294.79C19.6446 294.697 19.3791 294.576 19.1158 294.416C18.0034 293.746 16.9253 292.415 16.5094 289.819C16.3056 288.545 16.5215 287.575 16.9493 286.835Z" fill="#DE995F"/>
<path opacity="0.15" d="M19.1157 294.416C19.3791 294.575 19.6445 294.697 19.9033 294.79C20.2003 294.397 20.551 294.038 20.9325 293.85L20.2103 291.657L19.5131 291.337L19.1157 294.416Z" fill="black"/>
<path d="M13.9348 283.469C13.9348 283.469 8.10886 286.45 12.4082 292.442L14.7931 292.414C14.7931 292.414 15.8494 288.273 17.6979 287.5C17.6979 287.5 19.1054 287.096 19.1939 288.568L19.2163 290.482L19.7869 290.369L19.8104 288.66C19.8104 288.66 20.359 285.618 21.9662 285.261C21.9662 285.261 20.5365 281.537 13.9348 283.469Z" fill="black"/>
<path d="M19.9973 294.823C21.2087 295.228 22.2532 295.009 22.2532 295.009C23.1768 294.737 23.6647 294.006 23.9189 293.24C21.0874 294.583 19.7776 290.344 19.7776 290.344H19.2494C19.215 292.673 19.6105 294.044 19.9973 294.823Z" fill="black"/>
<path opacity="0.15" d="M23.8705 311.988C23.8705 311.988 22.22 312.043 20.8997 313.369C20.8997 313.369 22.418 311.546 23.8705 311.988Z" fill="black"/>
<path d="M259.548 317.54H241.626L233.74 296.192H251.662L259.548 317.54Z" fill="#82DFFF"/>
<path d="M248.946 302.744H237.477L236.878 301.123H248.347L248.946 302.744Z" fill="#ACE9FF"/>
<path d="M248.957 302.754H237.473L236.867 301.113H248.351L248.957 302.754ZM237.481 302.734H248.934L248.343 301.133H236.889L237.481 302.734Z" fill="#0E5185"/>
<path d="M248.946 302.744H237.477L238.076 304.365H249.545L248.946 302.744Z" fill="white"/>
<path d="M249.556 304.375H238.072L237.466 302.734H248.95L249.556 304.375ZM238.08 304.355H249.534L248.942 302.754H237.489L238.08 304.355Z" fill="#0E5185"/>
<path d="M249.545 304.365H238.076L238.674 305.986H250.143L249.545 304.365Z" fill="white"/>
<path d="M250.155 305.996H238.671L238.065 304.355H249.549L250.155 305.996ZM238.679 305.976H250.132L249.541 304.375H238.087L238.679 305.976Z" fill="#0E5185"/>
<path d="M250.143 305.986H238.674L239.273 307.607H250.742L250.143 305.986Z" fill="white"/>
<path d="M250.753 307.617H239.269L238.663 305.976H250.147L250.753 307.617ZM239.277 307.597H250.731L250.139 305.996H238.686L239.277 307.597Z" fill="#0E5185"/>
<path d="M250.742 307.607H239.273L239.872 309.228H251.341L250.742 307.607Z" fill="white"/>
<path d="M251.352 309.238H239.868L239.262 307.597H250.746L251.352 309.238ZM239.876 309.218H251.33L250.738 307.617H239.285L239.876 309.218Z" fill="#0E5185"/>
<path d="M248.98 302.744H252.769L252.17 301.123H248.382L248.98 302.744Z" fill="#ACE9FF"/>
<path d="M252.775 302.75H248.978L248.375 301.117H252.172L252.775 302.75ZM248.983 302.738H252.763L252.168 301.129H248.388L248.983 302.738Z" fill="#0E5185"/>
<path d="M248.98 302.744H252.769L253.368 304.365H249.579L248.98 302.744Z" fill="white"/>
<path d="M253.374 304.371H249.577L248.974 302.738H252.771L253.374 304.371ZM249.581 304.359H253.361L252.767 302.75H248.987L249.581 304.359Z" fill="#0E5185"/>
<path d="M249.579 304.365H253.368L253.967 305.986H250.178L249.579 304.365Z" fill="white"/>
<path d="M253.973 305.992H250.175L249.573 304.359H253.37L253.973 305.992ZM250.18 305.98H253.96L253.365 304.371H249.586L250.18 305.98Z" fill="#0E5185"/>
<path d="M250.178 305.986H253.966L254.565 307.607H250.777L250.178 305.986Z" fill="white"/>
<path d="M254.572 307.613H250.774L250.171 305.981H253.969L254.572 307.613ZM250.779 307.601H254.559L253.964 305.992H250.184L250.779 307.601Z" fill="#0E5185"/>
<path d="M250.777 307.607H254.565L255.164 309.228H251.375L250.777 307.607Z" fill="white"/>
<path d="M255.171 309.234H251.373L250.77 307.602H254.568L255.171 309.234ZM251.378 309.223H255.158L254.563 307.613H250.783L251.378 309.223Z" fill="#0E5185"/>
<path d="M245.096 301.978H238.6C238.576 301.978 238.548 301.953 238.536 301.923C238.525 301.892 238.535 301.867 238.559 301.867H245.055C245.078 301.867 245.107 301.892 245.118 301.923C245.129 301.953 245.119 301.978 245.096 301.978Z" fill="white"/>
<path d="M251.766 301.978H249.687C249.663 301.978 249.635 301.953 249.623 301.923C249.612 301.892 249.622 301.867 249.646 301.867H251.725C251.749 301.867 251.777 301.892 251.788 301.923C251.8 301.953 251.79 301.978 251.766 301.978Z" fill="white"/>
<path d="M246.544 303.621H239.207C239.183 303.621 239.155 303.596 239.144 303.566C239.132 303.535 239.142 303.51 239.166 303.51H246.503C246.527 303.51 246.555 303.535 246.567 303.566C246.578 303.596 246.568 303.621 246.544 303.621Z" fill="#0E5185"/>
<path d="M244.207 305.264H239.814C239.79 305.264 239.762 305.24 239.751 305.209C239.739 305.178 239.749 305.153 239.773 305.153H244.166C244.189 305.153 244.218 305.178 244.229 305.209C244.24 305.24 244.23 305.264 244.207 305.264Z" fill="#0E5185"/>
<path d="M246.172 306.908H240.421C240.397 306.908 240.369 306.883 240.357 306.852C240.346 306.821 240.356 306.797 240.38 306.797H246.131C246.155 306.797 246.183 306.822 246.194 306.852C246.206 306.883 246.196 306.908 246.172 306.908Z" fill="#0E5185"/>
<path d="M245.989 308.551H241.028C241.004 308.551 240.976 308.526 240.964 308.495C240.953 308.465 240.963 308.44 240.987 308.44H245.948C245.972 308.44 246 308.465 246.012 308.495C246.023 308.526 246.013 308.551 245.989 308.551Z" fill="#0E5185"/>
<path d="M252.231 303.614H250.431C250.41 303.614 250.385 303.593 250.375 303.566C250.365 303.539 250.374 303.517 250.395 303.517H252.195C252.216 303.517 252.24 303.539 252.25 303.566C252.26 303.593 252.251 303.614 252.231 303.614Z" fill="#0E5185"/>
<path d="M252.643 305.264H251.237C251.214 305.264 251.185 305.24 251.174 305.209C251.163 305.178 251.173 305.153 251.196 305.153H252.602C252.626 305.153 252.654 305.178 252.666 305.209C252.677 305.24 252.667 305.264 252.643 305.264Z" fill="#0E5185"/>
<path d="M253.25 306.901H251.839C251.819 306.901 251.794 306.879 251.784 306.852C251.774 306.825 251.783 306.803 251.803 306.803H253.214C253.235 306.803 253.26 306.825 253.27 306.852C253.28 306.879 253.271 306.901 253.25 306.901Z" fill="#0E5185"/>
<path d="M253.948 308.551H252.36C252.336 308.551 252.308 308.526 252.297 308.495C252.285 308.465 252.295 308.44 252.319 308.44H253.907C253.931 308.44 253.959 308.465 253.971 308.495C253.982 308.526 253.972 308.551 253.948 308.551Z" fill="#0E5185"/>
<path d="M284.456 303.507L280.396 305.758L282.912 311.671L277.175 321.6C277.175 321.6 275.719 321.732 273.998 322.836C273.998 323.175 274.339 323.409 274.656 323.286L275.586 322.924C275.586 322.924 273.336 324.777 273.512 326.41C273.512 326.41 273.909 328.705 275.939 328.263C275.939 328.263 277.881 328.44 279.47 324.248L286.133 312.746C286.458 312.185 286.548 311.517 286.385 310.89L284.456 303.507Z" fill="#DB965F"/>
<path d="M280.769 370.457L276.875 370.605L276.763 367.64L276.738 366.982L276.677 365.38L280.571 365.824L280.621 366.982L280.664 367.992L280.769 370.457Z" fill="#DB965F"/>
<path d="M281.463 372.138C281.631 371.214 281.726 369.568 280.732 368.122C280.732 368.122 278.562 369.541 276.84 367.688C276.84 367.688 275.234 367.923 271.183 370.207C270.729 370.463 270.263 370.697 269.787 370.911C269.133 371.206 268.106 371.752 267.593 372.462C267.064 373.194 267.436 374.229 268.303 374.482C269.965 374.967 274.633 375.869 280.676 373.149C281.089 372.963 281.381 372.583 281.463 372.138Z" fill="#040C2B"/>
<path d="M281.212 366.612H276.529L272.98 342.509L267.961 318.677L267.707 317.47L278.648 317.167L280.177 317.125C280.177 317.125 282.346 320.378 280.67 327.821L280.177 340.045C280.177 340.045 283.184 348.917 281.212 366.612Z" fill="#040C2B"/>
<path opacity="0.15" d="M277.053 366.612H276.529L272.981 342.509L267.961 318.677L272.24 317.711L275.921 317.934C275.921 323.363 276.424 324.683 274.527 332.103L273.188 336.286L277.053 366.612Z" fill="black"/>
<path d="M278.668 364.082L278.105 364.461L275.436 366.258L274.583 364.991L273.779 363.797L272.872 362.448L272.777 362.307L272.517 361.921L272.793 361.79L276.061 360.247L276.072 360.264L277.281 362.042L278.668 364.082Z" fill="#DB965F"/>
<path d="M279.853 366.469C276.206 372.019 271.762 373.725 270.209 374.172C269.448 374.391 268.672 373.855 268.62 373.066C268.56 372.144 269.193 370.995 269.617 370.338C269.909 369.883 270.181 369.415 270.431 368.936C271.824 366.281 272.823 364.905 273.349 364.267C273.632 363.926 273.779 363.797 273.779 363.797C276.233 364.413 277.281 362.042 277.281 362.042C278.468 362.535 279.224 363.436 279.686 364.223C279.8 364.418 279.896 364.606 279.976 364.779C280.229 365.326 280.184 365.966 279.853 366.469Z" fill="#040C2B"/>
<path d="M277.133 359.539L276.415 360.03L276.072 360.264L272.872 362.448L272.77 362.518L272.065 362.999L262.698 348.467L261.394 346.428C260.474 344.99 260.16 343.247 260.521 341.58L265.64 317.912L266.621 317.876L275.885 317.53L275.922 318.499C276.105 323.347 275.25 328.178 273.414 332.669L269.382 342.53C269.178 343.311 269.269 344.14 269.636 344.859L274.252 353.896L277.133 359.539Z" fill="#040C2B"/>
<path opacity="0.15" d="M280.621 366.982H276.738L276.677 365.38L280.571 365.824L280.621 366.982Z" fill="black"/>
<path d="M276.034 289.815L276.025 294.546L270.678 296.29C270.678 296.29 269.504 292.272 268.022 291.916C266.54 291.561 268.031 291.8 268.031 291.8L274.525 284.941L276.034 289.815Z" fill="#C9885B"/>
<path d="M267.56 283.706C267.56 283.706 265.178 289.335 267.182 293.737C267.403 294.222 267.934 294.464 268.43 294.301C269.812 293.845 272.64 292.367 275.021 287.64C275.021 287.64 270.76 280.605 267.56 283.706Z" fill="#DB965F"/>
<path d="M274.259 289.572C274.259 289.572 274.244 291.35 276.029 292.053C276.029 292.053 277.764 287.826 277.346 284.624C277.346 284.624 276.05 280.608 272.63 281.775C272.63 281.775 269.01 279.836 267.121 281.676C267.121 281.676 265.556 284.637 267.683 284.968C267.683 284.968 268.623 284.106 269.72 284.548C269.72 284.548 269.176 286.576 270.63 287.281L270.642 289.902L271.055 289.936L271.439 288.481C271.439 288.481 273.138 285.727 274.259 289.572Z" fill="black"/>
<path d="M281.797 297.796C281.797 297.796 284.5 297.726 285.471 306.993L280.793 308.714C280.793 308.714 277.197 298.394 281.797 297.796Z" fill="white"/>
<path opacity="0.15" d="M282.836 311.305L281.593 308.385L280.849 308.659C280.849 308.659 279.62 305.132 279.518 302.082L282.396 303.667L282.45 304.595L282.646 307.998L282.836 311.305Z" fill="black"/>
<path d="M276.18 293.99L277.419 294.8L277.625 294.935L282.029 297.815L282.363 304.17L282.424 305.318C282.425 305.347 282.426 305.375 282.425 305.403L282.188 317.14L282.177 317.678C282.167 318.169 281.855 318.605 281.392 318.768C278.336 319.841 274.482 319.841 271.169 319.518H271.167V319.517C268.489 319.256 266.165 318.782 264.902 318.493C264.323 318.361 263.934 317.819 263.991 317.228L264.767 309.188C264.772 309.137 264.774 309.086 264.772 309.035L264.39 297.735C264.382 297.517 264.851 296.742 265.05 296.656L268.52 295.586L268.673 295.519L270.061 294.921L276.18 293.99Z" fill="white"/>
<path opacity="0.15" d="M264.823 309.133C264.828 309.081 264.829 309.03 264.828 308.979L264.648 303.667L266.402 303.19L264.061 317.024L264.823 309.133Z" fill="black"/>
<path d="M256.212 311.894L256.15 311.636L255.806 310.201L255.134 307.396L255.998 306.78L257.51 305.703L265.128 300.273L263.031 308.603L256.212 311.894Z" fill="#DB965F"/>
<path d="M252.2 307.726L245.84 307.966C244.572 307.949 243.177 307.585 242.287 307.306C241.805 307.155 241.341 306.947 240.915 306.676C240.048 306.127 239.002 305.704 238.173 305.417C237.344 305.13 236.732 304.981 236.732 304.981C236.596 305.396 236.799 305.848 237.201 306.02L238.873 306.74L237.938 306.995C237.733 307.2 237.597 306.937 237.426 307.507C237.185 308.311 238.08 310.377 238.476 311.228C238.635 311.572 238.988 311.794 239.365 311.763C240.182 311.697 240.938 310.914 240.938 310.914L254.413 312.331C255.277 312.421 256.071 312.098 256.623 311.535C257.165 310.984 257.473 310.201 257.381 309.353L255.161 307.424L252.2 307.726Z" fill="#DB965F"/>
<path d="M269.536 304.592L265.195 307.697L261.649 309.991L257.956 304.775C261.923 299.483 264.359 296.943 264.994 296.704C265.222 296.618 265.906 296.702 265.906 296.702C268.318 297.843 269.793 300.336 269.632 303L269.536 304.592Z" fill="white"/>
<path d="M345.352 204.02L324.9 204.436C322.628 204.482 320.749 202.678 320.703 200.407L320.34 182.558C320.293 180.286 322.097 178.408 324.369 178.361L344.821 177.945C347.093 177.899 348.972 179.703 349.018 181.974L349.381 199.823C349.428 202.095 347.624 203.974 345.352 204.02Z" fill="#E8F9FF"/>
<path d="M343.673 195.429L343.601 196.763L343.599 196.79L343.606 196.792L344.218 197.001C344.109 197.402 343.942 197.777 343.728 198.115C343.724 198.121 343.72 198.127 343.717 198.133L343.481 198.018L343.093 197.828L342.291 198.898L342.576 199.301C342.242 199.523 341.873 199.692 341.481 199.797L341.354 199.168L340.067 199.142L339.872 199.854C339.441 199.772 339.035 199.612 338.668 199.39L339.042 198.76L338.165 197.766L337.449 198.198L337.443 198.202C337.426 198.176 337.409 198.15 337.393 198.124C337.115 197.681 336.919 197.177 336.826 196.635L337.456 196.495L337.527 195.134L336.877 194.931C336.991 194.443 337.19 193.99 337.454 193.59L338.122 193.989L339.023 193.012L338.666 192.411C339.127 192.127 339.648 191.942 340.202 191.884L340.344 192.693L341.63 192.757L341.832 192.086C341.948 192.038 342.65 192.48 342.991 192.777L342.577 193.383L343.438 194.431L343.992 194.125C344.159 194.489 344.275 194.885 344.331 195.3L343.673 195.429ZM340.623 193.338C340.144 193.328 339.682 193.466 339.286 193.733C339.15 193.824 339.021 193.93 338.902 194.051C338.436 194.524 338.172 195.16 338.156 195.842C338.141 196.524 338.378 197.17 338.822 197.661C339.267 198.153 339.867 198.431 340.51 198.444C341.154 198.457 341.765 198.203 342.231 197.73C342.697 197.257 342.962 196.621 342.977 195.939C342.992 195.258 342.756 194.611 342.311 194.12C342.266 194.07 342.219 194.022 342.171 193.977C341.744 193.575 341.202 193.35 340.623 193.338Z" fill="white"/>
<path d="M342.564 186.681L342.482 188.247L342.481 188.278L342.488 188.281L343.157 188.525C343.036 188.995 342.853 189.435 342.619 189.832C342.615 189.84 342.611 189.847 342.607 189.854L342.349 189.719L341.925 189.496L341.047 190.754L341.357 191.226C340.991 191.487 340.588 191.686 340.16 191.809L340.021 191.072L338.614 191.044L338.4 191.879C337.928 191.783 337.485 191.596 337.084 191.336L337.494 190.597L336.536 189.433L335.753 189.94L335.746 189.945C335.728 189.914 335.71 189.884 335.692 189.853C335.389 189.334 335.175 188.743 335.074 188.108L335.763 187.943L335.844 186.345L335.133 186.108C335.259 185.535 335.477 185.004 335.767 184.534L336.497 185.001L337.484 183.853L337.094 183.148C337.598 182.815 338.168 182.597 338.774 182.528L338.928 183.477L340.334 183.55L340.557 182.763C340.684 182.706 341.45 183.223 341.823 183.571L341.369 184.283L342.308 185.51L342.915 185.151C343.097 185.578 343.223 186.042 343.284 186.529L342.564 186.681ZM339.232 184.233C338.708 184.222 338.203 184.385 337.769 184.698C337.62 184.805 337.48 184.93 337.349 185.072C336.839 185.628 336.548 186.375 336.53 187.175C336.513 187.975 336.77 188.733 337.256 189.308C337.741 189.884 338.396 190.209 339.1 190.223C339.804 190.237 340.473 189.939 340.983 189.383C341.493 188.828 341.784 188.081 341.802 187.281C341.819 186.481 341.562 185.723 341.077 185.148C341.027 185.089 340.976 185.033 340.923 184.979C340.457 184.509 339.865 184.246 339.232 184.233Z" fill="white"/>
<path d="M335.688 192.401L335.576 194.558L335.574 194.601L335.584 194.604L336.504 194.941C336.338 195.588 336.086 196.194 335.764 196.741C335.759 196.751 335.753 196.761 335.747 196.771L335.393 196.585L334.81 196.278L333.602 198.01L334.029 198.66C333.526 199.02 332.972 199.293 332.382 199.463L332.192 198.449L330.257 198.41L329.963 199.559C329.314 199.427 328.704 199.171 328.153 198.812L328.717 197.794L327.4 196.191L326.323 196.89L326.314 196.896C326.288 196.855 326.263 196.813 326.239 196.77C325.823 196.056 325.529 195.242 325.39 194.367L326.337 194.139L326.448 191.939L325.471 191.613C325.644 190.824 325.944 190.092 326.343 189.446L327.346 190.089L328.703 188.508L328.168 187.537C328.861 187.078 329.644 186.778 330.478 186.682L330.689 187.989L332.622 188.09L332.928 187.006C333.103 186.928 334.157 187.64 334.669 188.119L334.045 189.099L335.337 190.79L336.171 190.295C336.421 190.883 336.595 191.522 336.678 192.193L335.688 192.401ZM331.107 189.031C330.387 189.016 329.693 189.24 329.096 189.672C328.891 189.819 328.697 189.991 328.518 190.187C327.817 190.952 327.417 191.98 327.392 193.082C327.368 194.184 327.722 195.227 328.389 196.02C329.057 196.813 329.957 197.26 330.925 197.28C331.893 197.299 332.813 196.888 333.515 196.123C334.216 195.358 334.616 194.33 334.64 193.228C334.665 192.127 334.311 191.083 333.644 190.29C333.576 190.21 333.505 190.132 333.432 190.059C332.792 189.411 331.977 189.049 331.107 189.031Z" fill="white"/>
</g>
<defs>
<clipPath id="clip0_2031_2133">
<rect width="512" height="409.6" fill="white" transform="translate(-111)"/>
</clipPath>
</defs>
</svg>
