<svg width="20" height="20" viewBox="0 0 20 20" fill="none" xmlns="http://www.w3.org/2000/svg">
<path d="M19.2188 10.7812H10.7812V19.2188C10.7812 19.6502 10.4315 20 10 20C9.56852 20 9.21875 19.6502 9.21875 19.2188V10.7812H0.78125C0.349766 10.7812 0 10.4315 0 10C0 9.56852 0.349766 9.21875 0.78125 9.21875H9.21875V0.78125C9.21875 0.349766 9.56852 0 10 0C10.4315 0 10.7812 0.349766 10.7812 0.78125V9.21875H19.2188C19.6502 9.21875 20 9.56852 20 10C20 10.4315 19.6502 10.7812 19.2188 10.7812Z" fill="#1E1D1D"/>
</svg>
