<svg width="120" height="121" viewBox="0 0 120 121" fill="none" xmlns="http://www.w3.org/2000/svg">
<path fill-rule="evenodd" clip-rule="evenodd" d="M113.75 30.5C113.75 24.2 111.25 18.16 106.795 13.705C102.34 9.25 96.3 6.75 90 6.75H30C23.7 6.75 17.66 9.25 13.205 13.705C8.75 18.16 6.25 24.2 6.25 30.5V90.5C6.25 96.8 8.75 102.84 13.205 107.295C17.66 111.75 23.7 114.25 30 114.25H90C96.3 114.25 102.34 111.75 106.795 107.295C111.25 102.84 113.75 96.8 113.75 90.5V30.5ZM62.44 41.315L50.44 77.315C49.79 79.28 50.85 81.405 52.815 82.06C54.78 82.71 56.905 81.65 57.56 79.685L69.56 43.685C70.21 41.72 69.15 39.595 67.185 38.94C65.22 38.29 63.095 39.35 62.44 41.315ZM75.35 51.15L84.695 60.5L75.35 69.85C73.885 71.31 73.885 73.69 75.35 75.15C76.81 76.615 79.19 76.615 80.65 75.15L92.65 63.15C94.115 61.685 94.115 59.315 92.65 57.85L80.65 45.85C79.19 44.385 76.81 44.385 75.35 45.85C73.885 47.31 73.885 49.69 75.35 51.15ZM39.35 45.85L27.35 57.85C25.885 59.315 25.885 61.685 27.35 63.15L39.35 75.15C40.81 76.615 43.19 76.615 44.65 75.15C46.115 73.69 46.115 71.31 44.65 69.85L35.305 60.5L44.65 51.15C46.115 49.69 46.115 47.31 44.65 45.85C43.19 44.385 40.81 44.385 39.35 45.85Z" fill="#1FA2D0"/>
</svg>
