<svg width="120" height="120" viewBox="0 0 120 120" fill="none" xmlns="http://www.w3.org/2000/svg">
<g clip-path="url(#clip0_1289_7948)">
<path d="M87.1972 24.0307H84.1989V17.4794C88.3296 16.0197 90.8084 11.7946 90.0671 7.4761C89.3257 3.1565 85.5816 0 81.1994 0C76.8172 0 73.0731 3.1565 72.3318 7.4761C71.5904 11.7946 74.0693 16.0197 78.2 17.4794V24.0307H42.211V17.4794C46.3428 16.0197 48.8206 11.7946 48.0803 7.4761C47.339 3.1565 43.5949 0 39.2127 0C34.8305 0 31.0853 3.1565 30.345 7.4761C29.6037 11.7946 32.0814 16.0197 36.2132 17.4794V24.0307H33.2138C24.9359 24.0395 18.2275 30.7479 18.2188 39.0257V90.0097C18.2275 98.2887 24.9359 104.997 33.2138 105.006H42.211V117.001C42.2121 118.092 42.8041 119.096 43.7574 119.624C44.7107 120.152 45.876 120.122 46.7997 119.544L70.0638 105.006H87.1972C95.4762 104.998 102.186 98.2887 102.193 90.0097V39.0257C102.186 30.7479 95.4762 24.0384 87.1972 24.0307ZM45.2105 42.0252C50.177 42.0307 54.2022 46.0559 54.2077 51.0224C54.2077 52.6787 52.8656 54.0208 51.2083 54.0208C49.552 54.0208 48.2099 52.6787 48.2099 51.0224C48.2099 49.3662 46.8667 48.023 45.2105 48.023C43.5542 48.023 42.211 49.3662 42.211 51.0224C42.211 52.6787 40.8689 54.0208 39.2127 54.0208C37.5564 54.0208 36.2132 52.6787 36.2132 51.0224C36.2187 46.0559 40.244 42.0307 45.2105 42.0252ZM82.5404 79.197C75.5608 82.4886 67.9221 84.1481 60.2055 84.0471C52.4889 84.1481 44.8513 82.4897 37.8706 79.197C36.389 78.4567 35.7893 76.6544 36.5295 75.1728C37.2709 73.6912 39.0721 73.0905 40.5537 73.8318C51.7563 79.4309 68.658 79.4309 79.8584 73.8318C81.34 73.0905 83.1412 73.6912 83.8826 75.1728C84.6228 76.6544 84.022 78.4567 82.5404 79.197ZM81.1994 54.0208C80.4043 54.0219 79.6409 53.7056 79.0786 53.1432C78.5163 52.5809 78.2 51.8176 78.2 51.0224C78.2 49.3662 76.8579 48.023 75.2016 48.023C73.5454 48.023 72.2022 49.3662 72.2022 51.0224C72.2022 52.6787 70.8601 54.0208 69.2027 54.0208C67.5465 54.0208 66.2044 52.6787 66.2044 51.0224C66.2044 46.0526 70.2318 42.0252 75.2016 42.0252C80.1703 42.0252 84.1989 46.0526 84.1989 51.0224C84.1989 51.8176 83.8837 52.5809 83.3202 53.1432C82.7579 53.7056 81.9946 54.0219 81.1994 54.0208Z" fill="#1FA2D0"/>
<path d="M111.19 48.0229H108.191V78.0141H111.19C116.157 78.0086 120.182 73.9834 120.188 69.0169V57.0202C120.182 52.0537 116.157 48.0284 111.19 48.0229Z" fill="#1FA2D0"/>
<path d="M0.224121 57.0202V69.0169C0.229613 73.9834 4.25487 78.0086 9.22136 78.0141H12.2208V48.0229H9.22136C4.25487 48.0284 0.229613 52.0537 0.224121 57.0202Z" fill="#1FA2D0"/>
</g>
<defs>
<clipPath id="clip0_1289_7948">
<rect width="120" height="120" fill="white"/>
</clipPath>
</defs>
</svg>
