<svg width="9" height="12" viewBox="0 0 9 12" fill="none" xmlns="http://www.w3.org/2000/svg">
<g opacity="0.65">
<path fill-rule="evenodd" clip-rule="evenodd" d="M3.63713 1.01385C3.89634 0.787049 4.28337 0.787049 4.54258 1.01385L7.29258 3.4201C7.57836 3.67014 7.6073 4.10447 7.35725 4.39022C7.10722 4.67597 6.67288 4.70493 6.38713 4.4549L4.08985 2.44478L1.79258 4.4549C1.50682 4.70493 1.07249 4.67597 0.822458 4.39022C0.572426 4.10447 0.601382 3.67014 0.887132 3.4201L3.63713 1.01385ZM0.821514 7.62099C1.07095 7.33471 1.50522 7.30484 1.7915 7.5543L4.08985 9.55692L6.38821 7.5543C6.67449 7.30484 7.10876 7.33471 7.35819 7.62099C7.60764 7.90726 7.57774 8.34149 7.2915 8.59098L4.5415 10.9871C4.28264 11.2126 3.89707 11.2126 3.63821 10.9871L0.888213 8.59098C0.601941 8.34149 0.572079 7.90726 0.821514 7.62099Z" fill="#202123"/>
</g>
</svg>
