<svg width="14" height="14" viewBox="0 0 14 14" fill="none" xmlns="http://www.w3.org/2000/svg">
<path fill-rule="evenodd" clip-rule="evenodd" d="M1.66634 7.00004C1.66634 5.58555 2.22824 4.229 3.22844 3.2288C4.22863 2.22861 5.58519 1.66671 6.99967 1.66671C8.41416 1.66671 9.77072 2.22861 10.7709 3.2288C11.7711 4.229 12.333 5.58555 12.333 7.00004C12.333 8.41453 11.7711 9.77108 10.7709 10.7713C9.77072 11.7715 8.41416 12.3334 6.99967 12.3334C5.58519 12.3334 4.22863 11.7715 3.22844 10.7713C2.22824 9.77108 1.66634 8.41453 1.66634 7.00004ZM6.99967 0.333374C3.31767 0.333374 0.333008 3.31804 0.333008 7.00004C0.333008 10.682 3.31767 13.6667 6.99967 13.6667C10.6817 13.6667 13.6663 10.682 13.6663 7.00004C13.6663 3.31804 10.6817 0.333374 6.99967 0.333374ZM7.66634 3.66671C7.66634 3.4899 7.5961 3.32033 7.47108 3.1953C7.34606 3.07028 7.17649 3.00004 6.99967 3.00004C6.82286 3.00004 6.65329 3.07028 6.52827 3.1953C6.40325 3.32033 6.33301 3.4899 6.33301 3.66671V6.72404L4.86167 8.19537C4.798 8.25687 4.74721 8.33044 4.71227 8.41177C4.67733 8.49311 4.65894 8.58059 4.65817 8.66911C4.6574 8.75763 4.67427 8.84541 4.70779 8.92734C4.74131 9.00927 4.79082 9.08371 4.85341 9.1463C4.91601 9.2089 4.99044 9.2584 5.07237 9.29192C5.1543 9.32544 5.24209 9.34231 5.33061 9.34154C5.41913 9.34077 5.50661 9.32238 5.58794 9.28744C5.66928 9.2525 5.74284 9.20171 5.80434 9.13804L7.47101 7.47137C7.59604 7.34638 7.6663 7.17684 7.66634 7.00004V3.66671Z" fill="#6E6E80"/>
</svg>
