<svg width="14" height="14" viewBox="0 0 14 14" fill="none" xmlns="http://www.w3.org/2000/svg">
<path fill-rule="evenodd" clip-rule="evenodd" d="M3.66634 2.33337C3.66634 1.80294 3.87705 1.29423 4.25213 0.919161C4.6272 0.544088 5.13591 0.333374 5.66634 0.333374H11.6663C12.1968 0.333374 12.7055 0.544088 13.0806 0.919161C13.4556 1.29423 13.6663 1.80294 13.6663 2.33337V8.33337C13.6663 8.86381 13.4556 9.37252 13.0806 9.74759C12.7055 10.1227 12.1968 10.3334 11.6663 10.3334H10.333V11.6667C10.333 12.1971 10.1223 12.7058 9.74722 13.0809C9.37215 13.456 8.86344 13.6667 8.33301 13.6667H2.33301C1.80257 13.6667 1.29387 13.456 0.918794 13.0809C0.543722 12.7058 0.333008 12.1971 0.333008 11.6667V5.66671C0.333008 5.13627 0.543722 4.62757 0.918794 4.25249C1.29387 3.87742 1.80257 3.66671 2.33301 3.66671H3.66634V2.33337ZM4.99967 3.66671H8.33301C8.86344 3.66671 9.37215 3.87742 9.74722 4.25249C10.1223 4.62757 10.333 5.13627 10.333 5.66671V9.00004H11.6663C11.8432 9.00004 12.0127 8.9298 12.1377 8.80478C12.2628 8.67975 12.333 8.51019 12.333 8.33337V2.33337C12.333 2.15656 12.2628 1.98699 12.1377 1.86197C12.0127 1.73695 11.8432 1.66671 11.6663 1.66671H5.66634C5.48953 1.66671 5.31996 1.73695 5.19494 1.86197C5.06991 1.98699 4.99967 2.15656 4.99967 2.33337V3.66671ZM2.33301 5.00004C2.1562 5.00004 1.98663 5.07028 1.8616 5.1953C1.73658 5.32033 1.66634 5.4899 1.66634 5.66671V11.6667C1.66634 11.8435 1.73658 12.0131 1.8616 12.1381C1.98663 12.2631 2.1562 12.3334 2.33301 12.3334H8.33301C8.50982 12.3334 8.67939 12.2631 8.80441 12.1381C8.92944 12.0131 8.99967 11.8435 8.99967 11.6667V5.66671C8.99967 5.4899 8.92944 5.32033 8.80441 5.1953C8.67939 5.07028 8.50982 5.00004 8.33301 5.00004H2.33301Z" fill="#353740"/>
</svg>
