<svg width="120" height="121" viewBox="0 0 120 121" fill="none" xmlns="http://www.w3.org/2000/svg">
<path fill-rule="evenodd" clip-rule="evenodd" d="M54.9839 3.35522H65.0161C66.4453 3.35522 67.6146 4.52452 67.6146 5.95397V10.6867C67.6146 13.5494 69.2477 15.9937 71.8924 17.0891C74.5371 18.1846 77.4204 17.6111 79.4445 15.587L82.7911 12.2404C83.8017 11.2298 85.4555 11.2298 86.4661 12.2404L93.5599 19.3342C94.5705 20.3448 94.5705 21.9986 93.5599 23.0092L90.2135 26.3559C88.1892 28.3799 87.6159 31.2632 88.7112 33.9079C89.8066 36.5526 92.2509 38.1857 95.1136 38.1857H99.8463C101.276 38.1857 102.445 39.3552 102.445 40.7844V41.0615C96.9166 41.6319 91.4775 43.0848 86.1478 45.3365C84.3305 46.1043 83.418 48.1537 84.0635 50.0179L84.5191 51.3337C82.1812 51.0787 80.0173 50.5591 77.8903 49.9422C78.1973 48.6112 78.3595 47.2246 78.3595 45.8005C78.3595 35.6608 70.1395 27.4408 59.9998 27.4408C49.86 27.4408 41.6402 35.6608 41.6402 45.8005C41.6402 48.6686 42.2984 51.3829 43.4709 53.8012C42.0973 53.8356 40.7496 53.7852 39.3998 53.643C37.9413 53.4892 36.4718 53.2272 34.9556 52.8491L35.936 50.0179C36.5815 48.1537 35.6691 46.1043 33.8517 45.3365C28.522 43.0848 23.0829 41.6319 17.5542 41.0615V40.7844C17.5542 39.3552 18.7237 38.1857 20.153 38.1857H24.8857C27.7484 38.1857 30.1927 36.5526 31.2881 33.9079C32.3836 31.2632 31.8101 28.3799 29.7858 26.3559L26.4398 23.009C25.4292 21.9984 25.4292 20.3446 26.4398 19.334L33.5337 12.2401C34.5443 11.2295 36.198 11.2295 37.2087 12.2401L40.5551 15.5868C42.5794 17.6109 45.4624 18.1844 48.1071 17.0891C50.7518 15.9937 52.3849 13.5494 52.3849 10.6867V5.95374C52.3852 4.52452 53.5547 3.35522 54.9839 3.35522ZM48.9188 101.792C48.2438 101.098 48.2592 99.9885 48.953 99.3135C49.6467 98.6385 50.7567 98.654 51.4317 99.348C55.8581 103.884 60.2566 108.43 64.7346 112.908C66.2447 114.418 68.7101 114.418 70.2199 112.908C71.726 111.402 71.7258 108.929 70.2197 107.423C70.2262 107.417 60.3874 97.3422 59.4912 96.4237C58.8162 95.7297 58.8316 94.6199 59.5256 93.9449C60.2196 93.2699 61.3294 93.2854 62.0044 93.9791C66.0816 98.1569 70.1323 102.364 74.2561 106.489C75.7622 107.995 78.2348 107.994 79.7407 106.488C81.2503 104.979 81.2515 102.514 79.7412 101.003C79.7477 100.997 69.9089 90.9222 69.0127 90.0037C68.3377 89.3097 68.3531 88.1999 69.0471 87.5249C69.7411 86.8499 70.8509 86.8654 71.5259 87.5594C75.4369 91.5667 79.3237 95.6146 83.2788 99.5699C84.7767 101.068 87.266 101.068 88.7639 99.5699C90.2972 98.0366 90.2091 95.5898 88.7365 94.0501C87.9138 93.1867 87.0912 92.323 86.2666 91.461C85.0603 90.9698 83.9384 90.2301 82.962 89.2546L62.5357 68.841C60.8145 70.244 58.3233 72.4583 58.3233 75.4895C58.3233 79.4891 56.4279 82.7664 53.5441 85.1008C50.464 87.5941 46.2412 88.9891 42.06 88.9891C41.0892 88.9891 40.3022 88.202 40.3022 87.2312V68.4674C40.3022 65.664 41.3885 63.1616 43.4302 61.2419L47.9951 56.9495C44.8896 57.3625 41.9862 57.4417 39.0431 57.1314C37.3165 56.9493 35.5863 56.6343 33.8041 56.1754L23.3004 86.5056C28.6603 89.1974 32.3152 92.9237 36.4087 97.1186C38.014 98.7634 55.6355 116.881 55.669 116.847C56.7532 117.932 58.5412 117.894 59.628 116.834C60.7444 115.737 60.754 113.899 59.6473 112.792L48.9188 101.792ZM85.7925 55.0103C81.3197 54.7415 77.4867 53.529 73.5462 52.2817C66.8194 50.1526 61.4873 49.0766 55.7191 54.5003L45.8334 63.7954C44.4715 65.076 43.8178 66.598 43.8178 68.4665V85.375C46.6193 85.0647 49.3057 84.0217 51.333 82.3806C53.4295 80.6835 54.8074 78.3297 54.8074 75.4886C54.8074 70.5702 58.496 67.593 60.697 65.8166C60.7615 65.7646 61.4829 65.1651 61.4834 65.1658C62.1701 64.5536 63.2236 64.5749 63.8848 65.2323L85.4339 86.7681C87.3185 88.6516 89.9297 89.1744 92.3958 88.168C93.8923 87.5573 95.2652 86.8942 96.6031 86.2274L85.7925 55.0103ZM117.422 45.2793C107.453 43.2648 97.4845 44.3633 87.5159 48.5746C87.402 48.6226 87.345 48.7504 87.3855 48.8671L101.589 89.8806C101.622 89.9767 101.708 90.0383 101.81 90.0383H117.422V45.2793ZM2.57812 45.2793V90.0383H18.1898C18.2916 90.0383 18.378 89.9767 18.4113 89.8806L32.6145 48.8671C32.655 48.7501 32.598 48.6226 32.4841 48.5746C22.5155 44.3633 12.5468 43.2648 2.57812 45.2793Z" fill="#1FA2D0"/>
</svg>
