<svg width="120" height="121" viewBox="0 0 120 121" fill="none" xmlns="http://www.w3.org/2000/svg">
<g clip-path="url(#clip0_1289_7988)">
<path d="M116.202 0.5H17.6304C15.5329 0.5 13.8328 2.20013 13.8328 4.2976V70.361H44.7675C75.5273 39.6003 68.9575 46.1701 77.7667 37.3636H60.4632C58.417 37.3636 56.6574 35.7898 56.5631 33.7464C56.4633 31.5656 58.1982 29.7684 60.357 29.7684H86.9338C89.175 29.7684 90.7314 31.6196 90.7314 33.566V60.0357C90.7314 62.0801 89.1622 63.8388 87.1206 63.9368C84.9398 64.0402 83.1371 62.3035 83.1371 60.1437V42.7332C74.3298 51.5424 80.9014 44.9707 50.1398 75.7324V106.667H116.202C118.3 106.667 120 104.967 120 102.869V4.2976C120 2.20013 118.3 0.5 116.202 0.5Z" fill="#1FA2D0"/>
<path d="M17.3162 103.184C15.8349 101.7 15.8349 99.2944 17.3162 97.8112L37.1722 77.9553C36.4297 77.9553 4.31213 77.9553 3.7976 77.9553C1.70013 77.9553 0 79.6564 0 81.7529V116.702C0 118.8 1.70013 120.5 3.7976 120.5H38.7469C40.8443 120.5 42.5445 118.8 42.5445 116.702C42.5445 115.918 42.5445 84.3851 42.5445 83.3276L22.6886 103.184C21.2072 104.665 18.7994 104.667 17.3162 103.184Z" fill="#1FA2D0"/>
</g>
<defs>
<clipPath id="clip0_1289_7988">
<rect width="120" height="120" fill="white" transform="translate(0 0.5)"/>
</clipPath>
</defs>
</svg>
