<svg width="120" height="121" viewBox="0 0 120 121" fill="none" xmlns="http://www.w3.org/2000/svg">
<path d="M111.388 105.693L85.2575 78.4639C91.9762 70.4619 95.6574 60.3938 95.6574 49.9125C95.6574 25.4238 75.7712 5.5 51.3287 5.5C26.8862 5.5 7 25.4238 7 49.9125C7 74.4011 26.8862 94.3249 51.3287 94.3249C60.5048 94.3249 69.2491 91.552 76.7252 86.2882L103.055 113.724C104.155 114.869 105.635 115.5 107.221 115.5C108.723 115.5 110.147 114.926 111.228 113.884C113.526 111.669 113.599 107.996 111.388 105.693ZM51.3287 17.0859C69.3956 17.0859 84.0934 31.8115 84.0934 49.9125C84.0934 68.0134 69.3956 82.7391 51.3287 82.7391C33.2619 82.7391 18.564 68.0134 18.564 49.9125C18.564 31.8115 33.2619 17.0859 51.3287 17.0859Z" fill="#1FA2D0"/>
</svg>
