<svg width="121" height="120" viewBox="0 0 121 120" fill="none" xmlns="http://www.w3.org/2000/svg">
<path d="M46.0208 20.5665H4.5V8.28869C4.5 6.47333 5.97333 5 7.78869 5H59.9867L54.852 15.1094C53.1682 18.4748 49.783 20.5665 46.0208 20.5665Z" fill="#1FA2D0"/>
<path d="M60.6269 43.0021C60.1555 42.7193 59.5921 42.5527 58.9957 42.5527H56.242C56.2442 43.6116 56.2508 46.8104 56.2552 47.8211C57.2922 47.8168 58.338 47.8124 58.9957 47.8124C60.475 47.8343 61.9643 46.6826 61.9599 45.1836C61.9599 44.2869 61.425 43.4779 60.6269 43.0021ZM60.6269 43.0021C60.1555 42.7193 59.5921 42.5527 58.9957 42.5527H56.242C56.2442 43.6116 56.2508 46.8104 56.2552 47.8211C57.2922 47.8168 58.338 47.8124 58.9957 47.8124C60.475 47.8343 61.9643 46.6826 61.9599 45.1836C61.9599 44.2869 61.425 43.4779 60.6269 43.0021ZM24.2321 80.6883V95.2199H50.7609V80.6883H24.2321ZM60.6269 43.0021C60.1555 42.7193 59.5921 42.5527 58.9957 42.5527H56.242C56.2442 43.6116 56.2508 46.8104 56.2552 47.8211C57.2922 47.8168 58.338 47.8124 58.9957 47.8124C60.475 47.8343 61.9643 46.6826 61.9599 45.1836C61.9599 44.2869 61.425 43.4779 60.6269 43.0021ZM60.6269 43.0021C60.1555 42.7193 59.5921 42.5527 58.9957 42.5527H56.242C56.2442 43.6116 56.2508 46.8104 56.2552 47.8211C57.2922 47.8168 58.338 47.8124 58.9957 47.8124C60.475 47.8343 61.9643 46.6826 61.9599 45.1836C61.9599 44.2869 61.425 43.4779 60.6269 43.0021ZM24.2321 80.6883V95.2199H50.7609V80.6883H24.2321ZM113.465 5.00244H67.3665L60.7256 18.0717C57.9302 23.6625 52.2912 27.1463 46.0208 27.1463H4.5V111.712C4.5 113.527 5.97333 115 7.78869 115H113.465C115.281 115 116.754 113.527 116.754 111.712V8.29113C116.754 6.47577 115.281 5.00244 113.465 5.00244ZM89.3481 13.7723C91.1635 13.7723 92.6368 15.2456 92.6368 17.061C92.6368 18.8763 91.1635 20.3496 89.3481 20.3496C87.5328 20.3496 86.0594 18.8763 86.0594 17.061C86.0594 15.2456 87.5328 13.7723 89.3481 13.7723ZM73.0647 61.2763L77.0682 39.0974C77.0704 39.0864 77.0726 39.0732 77.0747 39.0601C77.4014 37.3653 78.8331 36.1003 80.5564 35.9841C82.2775 35.8679 83.867 36.9312 84.4151 38.569C84.4283 38.6084 84.4414 38.6457 84.4524 38.6852L88.2519 51.5637L91.9133 38.7181C91.9243 38.6808 91.9374 38.6413 91.9484 38.6041C92.4811 36.9619 94.0509 35.881 95.7808 35.9819C97.5041 36.0783 98.9489 37.328 99.2931 39.0184L99.2997 39.0579L103.54 61.2434C103.882 63.028 102.711 64.7513 100.929 65.0911C99.144 65.4332 97.4208 64.2624 97.0809 62.4777L95.0332 51.7676L91.9506 62.5852C91.9396 62.6224 91.9265 62.6619 91.9155 62.6992C91.4068 64.2624 89.962 65.3192 88.3177 65.3279H88.2979C86.6602 65.3279 85.2132 64.2887 84.6913 62.7342C84.6804 62.697 84.6672 62.6575 84.6563 62.618L81.4619 51.7917L79.5391 62.4448C79.2146 64.2339 77.5045 65.4178 75.7176 65.0977C73.9308 64.7754 72.7425 63.0653 73.0647 61.2763ZM32.3311 35.9753C35.2711 35.9753 38.1104 36.8413 40.5396 38.4835C42.0437 39.5008 42.4405 41.5441 41.4232 43.0504C40.4059 44.5544 38.3625 44.9512 36.8563 43.9339C35.5189 43.0306 33.9557 42.5527 32.3311 42.5527C27.865 42.5527 24.2321 46.1856 24.2321 50.6516C24.2321 55.1176 27.865 58.7506 32.3311 58.7506C33.9623 58.7506 35.3303 58.2704 36.3937 57.3211C36.602 57.1369 36.8015 56.9308 36.9856 56.7094C38.1542 55.3194 40.2283 55.1374 41.6205 56.306C43.0105 57.4723 43.1925 59.5464 42.0239 60.9386C41.6337 61.4034 41.2127 61.8397 40.7676 62.2344C38.4963 64.258 35.5781 65.3279 32.3311 65.3279C24.2387 65.3279 17.6547 58.744 17.6547 50.6516C17.6547 42.5592 24.2387 35.9753 32.3311 35.9753ZM57.3382 98.5086C57.3382 100.324 55.8649 101.797 54.0496 101.797H20.9434C19.1281 101.797 17.6547 100.324 17.6547 98.5086V77.3996C17.6547 75.5842 19.1281 74.1109 20.9434 74.1109H54.0496C55.8649 74.1109 57.3382 75.5842 57.3382 77.3996V98.5086ZM62.7799 64.212L56.2245 56.762V62.0392C56.2245 63.8546 54.7511 65.3279 52.9358 65.3279C51.1182 65.3279 49.6471 63.8546 49.6471 62.0392V39.264C49.6471 37.4464 51.1182 35.9753 52.9358 35.9753H52.938H52.9424H58.9957C64.0866 35.9238 68.5794 40.0704 68.5373 45.1836C68.5373 49.1125 65.9721 52.4735 62.3721 53.7934L67.7173 59.8665C68.9188 61.2302 68.7851 63.3087 67.4214 64.5079C66.7965 65.0583 66.0226 65.3279 65.2508 65.3279C64.3388 65.3279 63.4311 64.9508 62.7799 64.212ZM103.599 98.5086C103.599 100.324 102.126 101.797 100.31 101.797H67.2043C65.3889 101.797 63.9156 100.324 63.9156 98.5086V77.3996C63.9156 75.5842 65.3889 74.1109 67.2043 74.1109H100.31C102.126 74.1109 103.599 75.5842 103.599 77.3996V98.5086ZM102.503 20.3496C100.688 20.3496 99.2142 18.8763 99.2142 17.061C99.2142 15.2456 100.688 13.7723 102.503 13.7723C104.318 13.7723 105.792 15.2456 105.792 17.061C105.792 18.8763 104.318 20.3496 102.503 20.3496ZM70.493 95.2199H97.0217V80.6883H70.493V95.2199ZM60.6269 43.0021C60.1555 42.7193 59.5921 42.5527 58.9957 42.5527H56.242C56.2442 43.6116 56.2508 46.8104 56.2552 47.8211C57.2922 47.8168 58.338 47.8124 58.9957 47.8124C60.475 47.8343 61.9643 46.6826 61.9599 45.1836C61.9599 44.2869 61.425 43.4779 60.6269 43.0021ZM24.2321 95.2199H50.7609V80.6883H24.2321V95.2199ZM60.6269 43.0021C60.1555 42.7193 59.5921 42.5527 58.9957 42.5527H56.242C56.2442 43.6116 56.2508 46.8104 56.2552 47.8211C57.2922 47.8168 58.338 47.8124 58.9957 47.8124C60.475 47.8343 61.9643 46.6826 61.9599 45.1836C61.9599 44.2869 61.425 43.4779 60.6269 43.0021ZM60.6269 43.0021C60.1555 42.7193 59.5921 42.5527 58.9957 42.5527H56.242C56.2442 43.6116 56.2508 46.8104 56.2552 47.8211C57.2922 47.8168 58.338 47.8124 58.9957 47.8124C60.475 47.8343 61.9643 46.6826 61.9599 45.1836C61.9599 44.2869 61.425 43.4779 60.6269 43.0021Z" fill="#1FA2D0"/>
</svg>
