<svg width="120" height="121" viewBox="0 0 120 121" fill="none" xmlns="http://www.w3.org/2000/svg">
<g clip-path="url(#clip0_1289_7956)">
<path d="M0 0.5H120V120.5H0V0.5Z" fill="#1FA2D0"/>
<path d="M80.6096 94.2504C83.0267 98.197 86.1716 101.098 91.7335 101.098C96.4058 101.098 99.3906 98.7626 99.3906 95.5359C99.3906 91.6692 96.324 90.2998 91.1811 88.0502L88.3621 86.8406C80.2248 83.374 74.8192 79.031 74.8192 69.8501C74.8192 61.3929 81.2631 54.9548 91.3335 54.9548C98.503 54.9548 103.657 57.45 107.372 63.9834L98.5907 69.6216C96.6573 66.1549 94.5716 64.7892 91.3335 64.7892C88.0306 64.7892 85.9372 66.8845 85.9372 69.6216C85.9372 73.0045 88.0325 74.374 92.8705 76.4693L95.6896 77.6768C105.271 81.7854 110.68 85.9739 110.68 95.3911C110.68 105.544 102.705 111.105 91.9942 111.105C81.5218 111.105 74.7561 106.115 71.4456 99.574L80.6096 94.2504ZM40.7753 95.2275C42.5467 98.3705 44.1582 101.028 48.0324 101.028C51.7372 101.028 54.0744 99.578 54.0744 93.9419V55.5989H65.3507V94.0941C65.3507 105.77 58.505 111.085 48.5124 111.085C39.4838 111.085 34.2554 106.412 31.5962 100.785L40.7753 95.2275Z" fill="white"/>
</g>
<defs>
<clipPath id="clip0_1289_7956">
<rect width="120" height="120" fill="white" transform="translate(0 0.5)"/>
</clipPath>
</defs>
</svg>
