<svg width="120" height="121" viewBox="0 0 120 121" fill="none" xmlns="http://www.w3.org/2000/svg">
<path fill-rule="evenodd" clip-rule="evenodd" d="M61.4037 112.939C104.441 94.6667 110.948 62.5312 108.664 20.8603C108.566 19.0677 107.185 17.6434 105.396 17.4898C94.5391 16.5579 80.2719 13.3635 60.9777 7.90691C60.3119 7.71853 59.695 7.71853 59.0293 7.90691C39.7349 13.3636 25.4677 16.5579 14.6108 17.4899C12.8223 17.6433 11.4414 19.0674 11.343 20.8598C9.01312 63.2661 15.7335 94.749 58.6035 112.939C59.532 113.333 60.4753 113.333 61.4037 112.939ZM43.3099 52.1209H44.7358V42.0126C44.7358 33.6069 51.5927 26.7501 59.9984 26.7501C68.404 26.7501 75.2608 33.6069 75.2608 42.0126V52.1209H76.6868C78.1773 52.1209 79.3968 53.3404 79.3968 54.8309V81.9311C79.3968 83.4217 78.1773 84.6412 76.6868 84.6412H43.3099C41.8193 84.6412 40.5999 83.4217 40.5999 81.9311V54.8309C40.5999 53.3404 41.8193 52.1209 43.3099 52.1209ZM50.5173 52.1209H69.4794V42.0125C69.4794 36.7981 65.2129 32.5316 59.9984 32.5316C54.7838 32.5316 50.5173 36.7979 50.5173 42.0125V52.1209ZM59.9984 58.5392C63.0443 58.5392 65.5136 61.0085 65.5136 64.0545C65.5136 65.9345 64.5727 67.5944 63.1364 68.5901V75.085C63.1364 76.8108 61.7243 78.2229 59.9984 78.2229C58.2725 78.2229 56.8603 76.8108 56.8603 75.085V68.5902C55.424 67.5945 54.483 65.9345 54.483 64.0545C54.483 61.0085 56.9524 58.5392 59.9984 58.5392Z" fill="#1FA2D0"/>
</svg>
