<svg width="120" height="121" viewBox="0 0 120 121" fill="none" xmlns="http://www.w3.org/2000/svg">
<path d="M20.4125 63C20.1395 62.1948 20.0001 61.3503 20 60.5C20.179 58.0187 21.3295 55.7081 23.2018 54.0699C25.074 52.4317 27.5169 51.5981 30 51.75C32.4831 51.5981 34.926 52.4317 36.7982 54.0699C38.6705 55.7081 39.821 58.0187 40 60.5C39.9999 61.3503 39.8605 62.1948 39.5875 63H52.5V48.0725C52.5 47.3845 52.6885 46.7097 53.0451 46.1213C53.4016 45.5329 53.9126 45.0534 54.5225 44.735C55.1151 44.4209 55.7825 44.2754 56.452 44.3142C57.1215 44.353 57.7676 44.5746 58.32 44.955C58.8101 45.3062 59.3971 45.4966 60 45.5C62.0325 45.5 63.75 43.21 63.75 40.5C63.75 37.79 62.0325 35.5 60 35.5C59.3979 35.5034 58.8113 35.6919 58.32 36.04C57.7671 36.4203 57.1207 36.6419 56.4507 36.6807C55.7808 36.7195 55.1131 36.574 54.52 36.26C53.9099 35.9428 53.3987 35.4639 53.0425 34.8757C52.6862 34.2875 52.4986 33.6127 52.5 32.925V18H17.5C14.8478 18 12.3043 19.0536 10.4289 20.9289C8.55357 22.8043 7.5 25.3478 7.5 28V63H20.4125Z" fill="#1FA2D0"/>
<path d="M63.7499 28.8125C64.3953 28.2587 65.1265 27.8137 65.9149 27.495C68.2836 26.7328 70.8572 26.9353 73.0775 28.0586C75.2978 29.1818 76.9857 31.1353 77.7749 33.495C78.8454 35.7407 78.9872 38.3178 78.1695 40.6673C77.3519 43.0168 75.6408 44.9492 73.4074 46.045C72.6185 46.3615 71.7835 46.5481 70.9349 46.5975L75.7724 58.57L89.6124 52.9775C90.2497 52.7186 90.946 52.6399 91.6251 52.7501C92.3041 52.8603 92.9397 53.1552 93.4624 53.6025C93.9755 54.0348 94.3604 54.5993 94.5754 55.2348C94.7905 55.8703 94.8275 56.5525 94.6824 57.2075C94.5422 57.7898 94.5859 58.4011 94.8074 58.9575C95.505 59.8438 96.4715 60.4796 97.5615 60.7694C98.6515 61.0592 99.8062 60.9872 100.852 60.5643C101.897 60.1415 102.777 59.3905 103.36 58.4245C103.942 57.4585 104.195 56.3296 104.08 55.2075C103.85 54.6504 103.455 54.1774 102.947 53.8525C102.387 53.4828 101.939 52.9661 101.653 52.359C101.366 51.7519 101.252 51.0777 101.322 50.41C101.388 49.726 101.641 49.0731 102.053 48.5229C102.465 47.9727 103.02 47.5462 103.657 47.29L117.5 41.7075L104.39 9.25004C103.898 8.03204 103.171 6.92286 102.251 5.98585C101.33 5.04884 100.234 4.30236 99.025 3.78906C97.8159 3.27576 96.5176 3.00569 95.2041 2.99427C93.8906 2.98286 92.5877 3.23033 91.3699 3.72254L58.9199 16.8425L63.7499 28.8125Z" fill="#1FA2D0"/>
<path d="M89.5875 68C89.8605 68.8052 89.9999 69.6497 90 70.5C89.821 72.9813 88.6705 75.2919 86.7982 76.9301C84.926 78.5683 82.4831 79.4019 80 79.25C77.5169 79.4019 75.074 78.5683 73.2018 76.9301C71.3295 75.2919 70.179 72.9813 70 70.5C70.0001 69.6497 70.1395 68.8052 70.4125 68H57.5V82.925C57.5014 83.6127 57.3138 84.2875 56.9575 84.8757C56.6013 85.4639 56.0901 85.9428 55.48 86.26C54.8879 86.5748 54.2207 86.7212 53.5512 86.6833C52.8817 86.6454 52.2353 86.4246 51.6825 86.045C51.1915 85.6938 50.6037 85.5034 50 85.5C47.9675 85.5 46.25 87.79 46.25 90.5C46.25 93.21 47.9675 95.5 50 95.5C50.6048 95.4962 51.1935 95.305 51.685 94.9525C52.2374 94.5742 52.8826 94.3541 53.551 94.3157C54.2193 94.2774 54.8855 94.4224 55.4775 94.735C56.0876 95.0532 56.5987 95.5326 56.9553 96.121C57.3119 96.7095 57.5003 97.3844 57.5 98.0725V113H92.5C95.1522 113 97.6957 111.946 99.5711 110.071C101.446 108.196 102.5 105.652 102.5 103V68H89.5875Z" fill="#1FA2D0"/>
<path d="M52.5 100.087C51.6948 100.361 50.8503 100.5 50 100.5C47.5187 100.321 45.2081 99.1705 43.5699 97.2982C41.9317 95.426 41.0981 92.9831 41.25 90.5C41.0981 88.0169 41.9317 85.574 43.5699 83.7018C45.2081 81.8295 47.5187 80.679 50 80.5C50.8503 80.5001 51.6948 80.6395 52.5 80.9125V68H37.575C36.8873 68.0014 36.2125 67.8138 35.6243 67.4575C35.0361 67.1013 34.5572 66.5901 34.24 65.98C33.9252 65.3879 33.7788 64.7207 33.8167 64.0512C33.8546 63.3817 34.0754 62.7353 34.455 62.1825C34.8062 61.6915 34.9966 61.1037 35 60.5C35 58.4675 32.71 56.75 30 56.75C27.29 56.75 25 58.4675 25 60.5C25.0038 61.1048 25.195 61.6935 25.5475 62.185C25.9265 62.7371 26.1472 63.3823 26.1855 64.0509C26.2239 64.7194 26.0784 65.3857 25.765 65.9775C25.4468 66.5876 24.9674 67.0987 24.379 67.4553C23.7905 67.8119 23.1156 68.0003 22.4275 68H7.5V103C7.5 105.652 8.55357 108.196 10.4289 110.071C12.3043 111.946 14.8478 113 17.5 113H52.5V100.087Z" fill="#1FA2D0"/>
</svg>
