<svg width="234" height="234" viewBox="0 0 234 234" fill="none" xmlns="http://www.w3.org/2000/svg">
<g filter="url(#filter0_dd_1286_7339)">
<path d="M118.048 9C113.63 9.00015 110.048 12.5818 110.048 17V83.0479C110.048 93.5413 101.541 102.048 91.0479 102.048H25C20.5818 102.048 17.0002 105.63 17 110.048V201C17 205.418 20.5817 209 25 209H115.952C120.37 209 123.952 205.418 123.952 201V134.952C123.952 124.459 132.459 115.952 142.952 115.952H209C213.418 115.952 217 112.37 217 107.952V17C217 12.5817 213.418 9 209 9H118.048Z" fill="white"/>
<path d="M118.048 9L118.048 8H118.048V9ZM110.048 17H109.048H110.048ZM17 110.048H16V110.048L17 110.048ZM25 209V210V209ZM115.952 209L115.952 210H115.952V209ZM123.952 201H124.952H123.952ZM217 107.952H218V107.952L217 107.952ZM209 9V8V9ZM118.048 9L118.048 10C114.182 10.0001 111.048 13.1341 111.048 17H110.048H109.048C109.048 12.0295 113.077 8.00016 118.048 8L118.048 9ZM110.048 17H111.048V83.0479H110.048H109.048V17H110.048ZM91.0479 102.048V103.048H25V102.048V101.048H91.0479V102.048ZM25 102.048V103.048C21.1341 103.048 18.0001 106.182 18 110.048L17 110.048L16 110.048C16.0002 105.077 20.0295 101.048 25 101.048V102.048ZM17 110.048H18V201H17H16V110.048H17ZM17 201H18C18 204.866 21.134 208 25 208V209V210C20.0294 210 16 205.971 16 201H17ZM25 209V208H115.952V209V210H25V209ZM115.952 209L115.952 208C119.818 208 122.952 204.866 122.952 201H123.952H124.952C124.952 205.971 120.923 210 115.952 210L115.952 209ZM123.952 201H122.952V134.952H123.952H124.952V201H123.952ZM142.952 115.952V114.952H209V115.952V116.952H142.952V115.952ZM209 115.952V114.952C212.866 114.952 216 111.818 216 107.952L217 107.952L218 107.952C218 112.923 213.971 116.952 209 116.952V115.952ZM217 107.952H216V17H217H218V107.952H217ZM217 17H216C216 13.134 212.866 10 209 10V9V8C213.971 8 218 12.0294 218 17H217ZM209 9V10H118.048V9V8H209V9ZM123.952 134.952H122.952C122.952 123.906 131.906 114.952 142.952 114.952V115.952V116.952C133.011 116.952 124.952 125.011 124.952 134.952H123.952ZM110.048 83.0479H111.048C111.048 94.0935 102.094 103.048 91.0479 103.048V102.048V101.048C100.989 101.048 109.048 92.989 109.048 83.0479H110.048Z" fill="url(#paint0_linear_1286_7339)"/>
</g>
<defs>
<filter id="filter0_dd_1286_7339" x="0" y="0" width="234" height="234" filterUnits="userSpaceOnUse" color-interpolation-filters="sRGB">
<feFlood flood-opacity="0" result="BackgroundImageFix"/>
<feColorMatrix in="SourceAlpha" type="matrix" values="0 0 0 0 0 0 0 0 0 0 0 0 0 0 0 0 0 0 127 0" result="hardAlpha"/>
<feOffset dy="8"/>
<feGaussianBlur stdDeviation="8"/>
<feColorMatrix type="matrix" values="0 0 0 0 0 0 0 0 0 0 0 0 0 0 0 0 0 0 0.08 0"/>
<feBlend mode="normal" in2="BackgroundImageFix" result="effect1_dropShadow_1286_7339"/>
<feColorMatrix in="SourceAlpha" type="matrix" values="0 0 0 0 0 0 0 0 0 0 0 0 0 0 0 0 0 0 127 0" result="hardAlpha"/>
<feOffset/>
<feGaussianBlur stdDeviation="2"/>
<feColorMatrix type="matrix" values="0 0 0 0 0 0 0 0 0 0 0 0 0 0 0 0 0 0 0.04 0"/>
<feBlend mode="normal" in2="effect1_dropShadow_1286_7339" result="effect2_dropShadow_1286_7339"/>
<feBlend mode="normal" in="SourceGraphic" in2="effect2_dropShadow_1286_7339" result="shape"/>
</filter>
<linearGradient id="paint0_linear_1286_7339" x1="217" y1="9" x2="17" y2="209" gradientUnits="userSpaceOnUse">
<stop stop-color="#0E5185"/>
<stop offset="0.225983" stop-color="#083050"/>
<stop offset="0.567345" stop-color="#1FA2D0"/>
<stop offset="0.769277" stop-color="white"/>
</linearGradient>
</defs>
</svg>
