<svg width="221" height="221" viewBox="0 0 221 221" fill="none" xmlns="http://www.w3.org/2000/svg">
<g opacity="0.5" filter="url(#filter0_dd_1286_7345)">
<path d="M112 196C107.582 196 104 192.418 104 188V128C104 117.507 95.4934 109 85 109H25C20.5817 109 17 105.418 17 101V17C17 12.5817 20.5817 9 25 9H109C113.418 9 117 12.5817 117 17V77C117 87.4934 125.507 96 136 96H196C200.418 96 204 99.5817 204 104V188C204 192.418 200.418 196 196 196H112Z" fill="white"/>
<path d="M112 196V195C108.134 195 105 191.866 105 188H104H103C103 192.971 107.029 197 112 197V196ZM104 188H105V128H104H103V188H104ZM85 109V108H25V109V110H85V109ZM25 109V108C21.134 108 18 104.866 18 101H17H16C16 105.971 20.0294 110 25 110V109ZM17 101H18V17H17H16V101H17ZM17 17H18C18 13.134 21.134 10 25 10V9V8C20.0294 8 16 12.0294 16 17H17ZM25 9V10H109V9V8H25V9ZM109 9V10C112.866 10 116 13.134 116 17H117H118C118 12.0294 113.971 8 109 8V9ZM117 17H116V77H117H118V17H117ZM136 96V97H196V96V95H136V96ZM196 96V97C199.866 97 203 100.134 203 104H204H205C205 99.0294 200.971 95 196 95V96ZM204 104H203V188H204H205V104H204ZM204 188H203C203 191.866 199.866 195 196 195V196V197C200.971 197 205 192.971 205 188H204ZM196 196V195H112V196V197H196V196ZM117 77H116C116 88.0457 124.954 97 136 97V96V95C126.059 95 118 86.9411 118 77H117ZM104 128H105C105 116.954 96.0457 108 85 108V109V110C94.9411 110 103 118.059 103 128H104Z" fill="url(#paint0_linear_1286_7345)"/>
</g>
<defs>
<filter id="filter0_dd_1286_7345" x="0" y="0" width="221" height="221" filterUnits="userSpaceOnUse" color-interpolation-filters="sRGB">
<feFlood flood-opacity="0" result="BackgroundImageFix"/>
<feColorMatrix in="SourceAlpha" type="matrix" values="0 0 0 0 0 0 0 0 0 0 0 0 0 0 0 0 0 0 127 0" result="hardAlpha"/>
<feOffset dy="8"/>
<feGaussianBlur stdDeviation="8"/>
<feColorMatrix type="matrix" values="0 0 0 0 0 0 0 0 0 0 0 0 0 0 0 0 0 0 0.08 0"/>
<feBlend mode="normal" in2="BackgroundImageFix" result="effect1_dropShadow_1286_7345"/>
<feColorMatrix in="SourceAlpha" type="matrix" values="0 0 0 0 0 0 0 0 0 0 0 0 0 0 0 0 0 0 127 0" result="hardAlpha"/>
<feOffset/>
<feGaussianBlur stdDeviation="2"/>
<feColorMatrix type="matrix" values="0 0 0 0 0 0 0 0 0 0 0 0 0 0 0 0 0 0 0.04 0"/>
<feBlend mode="normal" in2="effect1_dropShadow_1286_7345" result="effect2_dropShadow_1286_7345"/>
<feBlend mode="normal" in="SourceGraphic" in2="effect2_dropShadow_1286_7345" result="shape"/>
</filter>
<linearGradient id="paint0_linear_1286_7345" x1="204" y1="196" x2="17" y2="9" gradientUnits="userSpaceOnUse">
<stop stop-color="#0E5185"/>
<stop offset="0.461571" stop-color="white"/>
<stop offset="1" stop-color="#1FA2D0"/>
</linearGradient>
</defs>
</svg>
