<svg width="19" height="19" viewBox="0 0 19 19" fill="none" xmlns="http://www.w3.org/2000/svg">
<g clip-path="url(#clip0_186_108)">
<path d="M8.69668 19C10.1305 19 11.3298 17.9779 11.6053 16.625H5.78809C6.06365 17.9779 7.26304 19 8.69668 19Z" fill="#868686"/>
<path d="M14.2476 9.49939C14.2444 9.49939 14.2412 9.50011 14.238 9.50011C11.183 9.50011 8.69641 7.01422 8.69641 3.9585C8.69641 3.11846 8.88964 2.32438 9.22609 1.61031C9.05185 1.59379 8.87529 1.5835 8.69641 1.5835C5.6359 1.5835 3.15479 4.06446 3.15479 7.12511V9.33225C3.15479 10.899 2.46841 12.3778 1.26424 13.3959C0.862851 13.7387 0.684697 14.2849 0.828786 14.8178C0.996648 15.4376 1.60939 15.8335 2.25228 15.8335H15.1366C15.8111 15.8335 16.4469 15.3964 16.5837 14.7354C16.6899 14.224 16.5078 13.7133 16.1112 13.3801C14.9601 12.4151 14.2943 10.9971 14.2476 9.49939Z" fill="#868686"/>
<path d="M18.1959 3.95838C18.1959 6.1445 16.4238 7.91662 14.2375 7.91662C12.0514 7.91662 10.2793 6.1445 10.2793 3.95838C10.2793 1.77226 12.0514 0 14.2375 0C16.4238 0 18.1959 1.77226 18.1959 3.95838Z" fill="#868686"/>
</g>
<defs>
<clipPath id="clip0_186_108">
<rect width="19" height="19" fill="white"/>
</clipPath>
</defs>
</svg>
