<svg width="41" height="42" viewBox="0 0 41 42" fill="none" xmlns="http://www.w3.org/2000/svg">
<g filter="url(#filter0_d_622_1477)">
<rect x="3" y="1" width="35" height="36" rx="17.5" fill="white"/>
<rect x="3.40909" y="1.40909" width="34.1818" height="35.1818" rx="17.0909" stroke="#E6E6E6" stroke-width="0.818182"/>
<g clip-path="url(#clip0_622_1477)">
<path d="M26.012 17.9666H21.5335V13.4881C21.5335 12.9182 21.0699 12.4546 20.5 12.4546C19.9302 12.4546 19.4666 12.9182 19.4666 13.4881V17.9666H14.9881C14.4182 17.9666 13.9546 18.4302 13.9546 19C13.9546 19.5699 14.4182 20.0335 14.9881 20.0335H19.4666V24.512C19.4666 25.0819 19.9302 25.5455 20.5 25.5455C21.0699 25.5455 21.5335 25.0819 21.5335 24.512V20.0335H26.012C26.5819 20.0335 27.0455 19.5699 27.0455 19C27.0455 18.4302 26.5819 17.9666 26.012 17.9666Z" fill="#0E5185"/>
</g>
</g>
<defs>
<filter id="filter0_d_622_1477" x="0" y="0" width="41" height="42" filterUnits="userSpaceOnUse" color-interpolation-filters="sRGB">
<feFlood flood-opacity="0" result="BackgroundImageFix"/>
<feColorMatrix in="SourceAlpha" type="matrix" values="0 0 0 0 0 0 0 0 0 0 0 0 0 0 0 0 0 0 127 0" result="hardAlpha"/>
<feOffset dy="2"/>
<feGaussianBlur stdDeviation="1.5"/>
<feColorMatrix type="matrix" values="0 0 0 0 0 0 0 0 0 0 0 0 0 0 0 0 0 0 0.08 0"/>
<feBlend mode="normal" in2="BackgroundImageFix" result="effect1_dropShadow_622_1477"/>
<feBlend mode="normal" in="SourceGraphic" in2="effect1_dropShadow_622_1477" result="shape"/>
</filter>
<clipPath id="clip0_622_1477">
<rect width="13.0909" height="13.0909" fill="white" transform="translate(13.9546 12.4546)"/>
</clipPath>
</defs>
</svg>
