<svg width="16" height="16" viewBox="0 0 16 16" fill="none" xmlns="http://www.w3.org/2000/svg">
<rect x="0.214286" y="0.214286" width="15.5714" height="15.5714" rx="7.78571" fill="white"/>
<rect x="0.214286" y="0.214286" width="15.5714" height="15.5714" rx="7.78571" stroke="#8B8B8B" stroke-width="0.428571"/>
<path d="M8.00003 11.6958C7.7226 11.6958 7.4978 11.471 7.4978 11.1935V4.80594C7.4978 4.52851 7.7226 4.30371 8.00003 4.30371C8.27747 4.30371 8.50227 4.52851 8.50227 4.80594V11.1935C8.50227 11.471 8.27747 11.6958 8.00003 11.6958Z" fill="#8B8B8B"/>
<path d="M11.1938 8.50202H4.80619C4.52875 8.50202 4.30396 8.27722 4.30396 7.99979C4.30396 7.72236 4.52875 7.49756 4.80619 7.49756H11.1938C11.4712 7.49756 11.696 7.72236 11.696 7.99979C11.696 8.27722 11.4712 8.50202 11.1938 8.50202Z" fill="#8B8B8B"/>
</svg>
