<svg width="18" height="18" viewBox="0 0 18 18" fill="none" xmlns="http://www.w3.org/2000/svg">
<path d="M16.0207 12.3476L14.9748 11.282C14.8285 11.1333 14.748 10.9364 14.748 10.7279V7.50586C14.748 4.905 13.0117 2.70246 10.6372 1.99582C10.6587 1.88895 10.6699 1.77961 10.6699 1.66992C10.6699 0.74918 9.92073 0 8.99999 0C8.07925 0 7.33007 0.74918 7.33007 1.66992C7.33007 1.78066 7.34097 1.88965 7.36171 1.99617C4.98796 2.70316 3.25194 4.90535 3.25194 7.50586V10.7279C3.25194 10.9364 3.17143 11.1333 3.02518 11.282L1.97929 12.3476C1.3985 12.9389 1.23679 13.7812 1.55776 14.5459C1.87839 15.3102 2.59276 15.7852 3.42175 15.7852H6.5046C6.65296 17.0307 7.71503 18 8.99999 18C10.2849 18 11.347 17.0307 11.4954 15.7852H14.5782C15.4072 15.7852 16.1216 15.3102 16.4422 14.5459C16.7632 13.7812 16.6015 12.9389 16.0207 12.3476ZM8.56054 1.66992C8.56054 1.4277 8.75776 1.23047 8.99999 1.23047C9.24222 1.23047 9.43944 1.4277 9.43944 1.66992C9.43944 1.70789 9.43452 1.74199 9.42679 1.77363C9.28581 1.76344 9.14343 1.75781 8.99999 1.75781C8.85655 1.75781 8.71417 1.76344 8.57319 1.77363C8.56546 1.74234 8.56054 1.70789 8.56054 1.66992ZM8.99999 16.7695C8.3953 16.7695 7.88729 16.3491 7.75229 15.7852H10.2477C10.1127 16.3491 9.60468 16.7695 8.99999 16.7695ZM15.3077 14.0699C15.2599 14.1838 15.0662 14.5547 14.5782 14.5547H3.42175C2.93378 14.5547 2.74007 14.1834 2.69225 14.0699C2.64444 13.956 2.51542 13.558 2.85714 13.2096L3.90339 12.144C4.27675 11.7636 4.48241 11.2609 4.48241 10.7279V7.50586C4.48241 5.01504 6.50882 2.98828 8.99999 2.98828C11.4912 2.98828 13.5176 5.01504 13.5176 7.50586V10.7279C13.5176 11.2609 13.7232 11.7636 14.0966 12.144L15.1428 13.2096C15.4846 13.5577 15.3555 13.956 15.3077 14.0699Z" fill="#082343"/>
</svg>
