<svg width="16" height="16" viewBox="0 0 16 16" fill="none" xmlns="http://www.w3.org/2000/svg">
<g clip-path="url(#clip0_483_134)">
<path d="M13.9294 0.941406H12.5176V2.35317C12.5176 2.63552 12.2823 2.82376 12.0471 2.82376C11.8118 2.82376 11.5765 2.63552 11.5765 2.35317V0.941406H4.04705V2.35317C4.04705 2.63552 3.81176 2.82376 3.57646 2.82376C3.34117 2.82376 3.10588 2.63552 3.10588 2.35317V0.941406H1.69411C0.988228 0.941406 0.470581 1.55317 0.470581 2.35317V4.04729H15.5294V2.35317C15.5294 1.55317 14.6823 0.941406 13.9294 0.941406ZM0.470581 5.03552V13.6473C0.470581 14.4943 0.988228 15.0591 1.74117 15.0591H13.9765C14.7294 15.0591 15.5765 14.4473 15.5765 13.6473V5.03552H0.470581ZM4.65882 12.9414H3.5294C3.34117 12.9414 3.15293 12.8002 3.15293 12.5649V11.3885C3.15293 11.2002 3.29411 11.012 3.5294 11.012H4.70588C4.89411 11.012 5.08235 11.1532 5.08235 11.3885V12.5649C5.03529 12.8002 4.89411 12.9414 4.65882 12.9414ZM4.65882 8.70611H3.5294C3.34117 8.70611 3.15293 8.56494 3.15293 8.32964V7.15317C3.15293 6.96494 3.29411 6.7767 3.5294 6.7767H4.70588C4.89411 6.7767 5.08235 6.91788 5.08235 7.15317V8.32964C5.03529 8.56494 4.89411 8.70611 4.65882 8.70611ZM8.42352 12.9414H7.24705C7.05882 12.9414 6.87058 12.8002 6.87058 12.5649V11.3885C6.87058 11.2002 7.01176 11.012 7.24705 11.012H8.42352C8.61176 11.012 8.79999 11.1532 8.79999 11.3885V12.5649C8.79999 12.8002 8.65882 12.9414 8.42352 12.9414ZM8.42352 8.70611H7.24705C7.05882 8.70611 6.87058 8.56494 6.87058 8.32964V7.15317C6.87058 6.96494 7.01176 6.7767 7.24705 6.7767H8.42352C8.61176 6.7767 8.79999 6.91788 8.79999 7.15317V8.32964C8.79999 8.56494 8.65882 8.70611 8.42352 8.70611ZM12.1882 12.9414H11.0118C10.8235 12.9414 10.6353 12.8002 10.6353 12.5649V11.3885C10.6353 11.2002 10.7765 11.012 11.0118 11.012H12.1882C12.3765 11.012 12.5647 11.1532 12.5647 11.3885V12.5649C12.5647 12.8002 12.4235 12.9414 12.1882 12.9414ZM12.1882 8.70611H11.0118C10.8235 8.70611 10.6353 8.56494 10.6353 8.32964V7.15317C10.6353 6.96494 10.7765 6.7767 11.0118 6.7767H12.1882C12.3765 6.7767 12.5647 6.91788 12.5647 7.15317V8.32964C12.5647 8.56494 12.4235 8.70611 12.1882 8.70611Z" fill="#81817C"/>
</g>
<defs>
<clipPath id="clip0_483_134">
<rect width="16" height="16" fill="white"/>
</clipPath>
</defs>
</svg>
