<svg width="16" height="16" viewBox="0 0 16 16" fill="none" xmlns="http://www.w3.org/2000/svg">
<mask id="path-1-inside-1_832_49" fill="white">
<path d="M14.4136 10.079C13.8844 9.7735 13.2372 9.85238 12.7968 10.2281L11.9151 9.71906L12.9076 8L11.9151 6.28094L12.7967 5.77194C13.0532 5.99087 13.38 6.10909 13.7128 6.10909C13.9512 6.10909 14.1927 6.0485 14.4136 5.92094C15.0851 5.53325 15.316 4.6715 14.9283 3.99997C14.5406 3.32844 13.6789 3.09756 13.0073 3.48525C12.4781 3.79078 12.2228 4.39072 12.3281 4.95994L11.4463 5.469L10.4538 3.75H8.46885V2.73187C9.01444 2.53837 9.40635 2.01734 9.40635 1.40625C9.40635 0.630844 8.7755 0 8.0001 0C7.22469 0 6.59385 0.630844 6.59385 1.40625C6.59385 2.01734 6.98575 2.53837 7.53135 2.73187V3.75H5.54635L4.55385 5.46906L3.6721 4.96C3.77732 4.39075 3.52204 3.79084 2.99285 3.48531C2.32141 3.09756 1.45963 3.32847 1.07191 4C0.684223 4.6715 0.915098 5.53325 1.58663 5.92097C1.80754 6.04853 2.04894 6.10913 2.28741 6.10913C2.62016 6.10913 2.94694 5.99091 3.2035 5.77197L4.08513 6.28097L3.09263 8L4.08513 9.71906L3.20341 10.2281C2.76307 9.85238 2.11585 9.7735 1.58663 10.0791C0.915098 10.4668 0.684223 11.3285 1.07191 12C1.33207 12.4507 1.80569 12.7028 2.2921 12.7028C2.5305 12.7028 2.77197 12.6423 2.99288 12.5147C3.52207 12.2092 3.77735 11.6092 3.67213 11.04L4.55388 10.5309L5.54635 12.25H7.53135V13.2681C6.98575 13.4616 6.59385 13.9827 6.59385 14.5938C6.59385 15.3692 7.22469 16 8.0001 16C8.7755 16 9.40635 15.3692 9.40635 14.5938C9.40635 13.9827 9.01444 13.4616 8.46885 13.2681V12.25H10.4538L11.4463 10.5309L12.3281 11.04C12.2229 11.6093 12.4782 12.2092 13.0073 12.5147C13.2283 12.6423 13.4697 12.7028 13.7081 12.7028C14.1944 12.7028 14.6682 12.4506 14.9283 12C15.316 11.3285 15.0851 10.4668 14.4136 10.079ZM13.4761 4.29719C13.5497 4.25469 13.6302 4.23447 13.7097 4.23447C13.8718 4.23447 14.0297 4.31853 14.1164 4.46875C14.2457 4.69259 14.1687 4.97981 13.9448 5.10906C13.721 5.23825 13.4338 5.16131 13.3045 4.9375C13.1753 4.71366 13.2522 4.42644 13.4761 4.29719ZM8.0001 0.9375C8.25857 0.9375 8.46885 1.14778 8.46885 1.40625C8.46885 1.66472 8.25857 1.875 8.0001 1.875C7.74163 1.875 7.53135 1.66472 7.53135 1.40625C7.53135 1.14778 7.74163 0.9375 8.0001 0.9375ZM2.69569 4.9375C2.56644 5.16134 2.27929 5.23838 2.05538 5.10906C1.83154 4.97981 1.75457 4.69259 1.88382 4.46875C1.97054 4.31853 2.12841 4.23447 2.29057 4.23447C2.37004 4.23447 2.4505 4.25466 2.52416 4.29719C2.74797 4.42644 2.82494 4.71366 2.69569 4.9375ZM2.52413 11.7028C2.30022 11.832 2.01307 11.7551 1.88382 11.5312C1.75457 11.3074 1.83154 11.0202 2.05538 10.8909C2.129 10.8484 2.2095 10.8282 2.28897 10.8282C2.4511 10.8282 2.60897 10.9123 2.69572 11.0625C2.82494 11.2863 2.74797 11.5736 2.52413 11.7028ZM8.0001 15.0625C7.74163 15.0625 7.53135 14.8522 7.53135 14.5938C7.53135 14.3353 7.74163 14.125 8.0001 14.125C8.25857 14.125 8.46885 14.3353 8.46885 14.5938C8.46885 14.8522 8.25857 15.0625 8.0001 15.0625ZM6.08763 4.6875H9.91257L11.825 8L10.5352 10.2341C10.3378 9.59269 9.90297 9.05469 9.33397 8.72203C9.64519 8.39284 9.83663 7.94928 9.83663 7.46156C9.83669 6.44888 9.01279 5.625 8.0001 5.625C6.98741 5.625 6.1635 6.44887 6.1635 7.46159C6.1635 7.94928 6.35494 8.39287 6.66616 8.72206C6.09716 9.05472 5.66235 9.59269 5.46497 10.2342L4.17516 8L6.08763 4.6875ZM7.101 7.46159C7.101 6.96581 7.50435 6.5625 8.0001 6.5625C8.49585 6.5625 8.89919 6.96581 8.89919 7.46159C8.89919 7.95738 8.49585 8.36069 8.0001 8.36069C7.50435 8.36069 7.101 7.95734 7.101 7.46159ZM8.0001 9.29819C8.94541 9.29819 9.71444 10.0672 9.71444 11.0125V11.3125H6.28575V11.0125C6.28575 10.0672 7.05479 9.29819 8.0001 9.29819ZM14.1164 11.5312C13.9872 11.7551 13.7 11.8321 13.4761 11.7028C13.2523 11.5736 13.1753 11.2863 13.3045 11.0625C13.3913 10.9123 13.5491 10.8282 13.7113 10.8282C13.7908 10.8282 13.8712 10.8484 13.9449 10.8909C14.1687 11.0202 14.2456 11.3074 14.1164 11.5312Z"/>
</mask>
<path d="M14.4136 10.079C13.8844 9.7735 13.2372 9.85238 12.7968 10.2281L11.9151 9.71906L12.9076 8L11.9151 6.28094L12.7967 5.77194C13.0532 5.99087 13.38 6.10909 13.7128 6.10909C13.9512 6.10909 14.1927 6.0485 14.4136 5.92094C15.0851 5.53325 15.316 4.6715 14.9283 3.99997C14.5406 3.32844 13.6789 3.09756 13.0073 3.48525C12.4781 3.79078 12.2228 4.39072 12.3281 4.95994L11.4463 5.469L10.4538 3.75H8.46885V2.73187C9.01444 2.53837 9.40635 2.01734 9.40635 1.40625C9.40635 0.630844 8.7755 0 8.0001 0C7.22469 0 6.59385 0.630844 6.59385 1.40625C6.59385 2.01734 6.98575 2.53837 7.53135 2.73187V3.75H5.54635L4.55385 5.46906L3.6721 4.96C3.77732 4.39075 3.52204 3.79084 2.99285 3.48531C2.32141 3.09756 1.45963 3.32847 1.07191 4C0.684223 4.6715 0.915098 5.53325 1.58663 5.92097C1.80754 6.04853 2.04894 6.10913 2.28741 6.10913C2.62016 6.10913 2.94694 5.99091 3.2035 5.77197L4.08513 6.28097L3.09263 8L4.08513 9.71906L3.20341 10.2281C2.76307 9.85238 2.11585 9.7735 1.58663 10.0791C0.915098 10.4668 0.684223 11.3285 1.07191 12C1.33207 12.4507 1.80569 12.7028 2.2921 12.7028C2.5305 12.7028 2.77197 12.6423 2.99288 12.5147C3.52207 12.2092 3.77735 11.6092 3.67213 11.04L4.55388 10.5309L5.54635 12.25H7.53135V13.2681C6.98575 13.4616 6.59385 13.9827 6.59385 14.5938C6.59385 15.3692 7.22469 16 8.0001 16C8.7755 16 9.40635 15.3692 9.40635 14.5938C9.40635 13.9827 9.01444 13.4616 8.46885 13.2681V12.25H10.4538L11.4463 10.5309L12.3281 11.04C12.2229 11.6093 12.4782 12.2092 13.0073 12.5147C13.2283 12.6423 13.4697 12.7028 13.7081 12.7028C14.1944 12.7028 14.6682 12.4506 14.9283 12C15.316 11.3285 15.0851 10.4668 14.4136 10.079ZM13.4761 4.29719C13.5497 4.25469 13.6302 4.23447 13.7097 4.23447C13.8718 4.23447 14.0297 4.31853 14.1164 4.46875C14.2457 4.69259 14.1687 4.97981 13.9448 5.10906C13.721 5.23825 13.4338 5.16131 13.3045 4.9375C13.1753 4.71366 13.2522 4.42644 13.4761 4.29719ZM8.0001 0.9375C8.25857 0.9375 8.46885 1.14778 8.46885 1.40625C8.46885 1.66472 8.25857 1.875 8.0001 1.875C7.74163 1.875 7.53135 1.66472 7.53135 1.40625C7.53135 1.14778 7.74163 0.9375 8.0001 0.9375ZM2.69569 4.9375C2.56644 5.16134 2.27929 5.23838 2.05538 5.10906C1.83154 4.97981 1.75457 4.69259 1.88382 4.46875C1.97054 4.31853 2.12841 4.23447 2.29057 4.23447C2.37004 4.23447 2.4505 4.25466 2.52416 4.29719C2.74797 4.42644 2.82494 4.71366 2.69569 4.9375ZM2.52413 11.7028C2.30022 11.832 2.01307 11.7551 1.88382 11.5312C1.75457 11.3074 1.83154 11.0202 2.05538 10.8909C2.129 10.8484 2.2095 10.8282 2.28897 10.8282C2.4511 10.8282 2.60897 10.9123 2.69572 11.0625C2.82494 11.2863 2.74797 11.5736 2.52413 11.7028ZM8.0001 15.0625C7.74163 15.0625 7.53135 14.8522 7.53135 14.5938C7.53135 14.3353 7.74163 14.125 8.0001 14.125C8.25857 14.125 8.46885 14.3353 8.46885 14.5938C8.46885 14.8522 8.25857 15.0625 8.0001 15.0625ZM6.08763 4.6875H9.91257L11.825 8L10.5352 10.2341C10.3378 9.59269 9.90297 9.05469 9.33397 8.72203C9.64519 8.39284 9.83663 7.94928 9.83663 7.46156C9.83669 6.44888 9.01279 5.625 8.0001 5.625C6.98741 5.625 6.1635 6.44887 6.1635 7.46159C6.1635 7.94928 6.35494 8.39287 6.66616 8.72206C6.09716 9.05472 5.66235 9.59269 5.46497 10.2342L4.17516 8L6.08763 4.6875ZM7.101 7.46159C7.101 6.96581 7.50435 6.5625 8.0001 6.5625C8.49585 6.5625 8.89919 6.96581 8.89919 7.46159C8.89919 7.95738 8.49585 8.36069 8.0001 8.36069C7.50435 8.36069 7.101 7.95734 7.101 7.46159ZM8.0001 9.29819C8.94541 9.29819 9.71444 10.0672 9.71444 11.0125V11.3125H6.28575V11.0125C6.28575 10.0672 7.05479 9.29819 8.0001 9.29819ZM14.1164 11.5312C13.9872 11.7551 13.7 11.8321 13.4761 11.7028C13.2523 11.5736 13.1753 11.2863 13.3045 11.0625C13.3913 10.9123 13.5491 10.8282 13.7113 10.8282C13.7908 10.8282 13.8712 10.8484 13.9449 10.8909C14.1687 11.0202 14.2456 11.3074 14.1164 11.5312Z" fill="#81817C" stroke="white" stroke-width="0.2" mask="url(#path-1-inside-1_832_49)"/>
</svg>
