<svg width="24" height="25" viewBox="0 0 24 25" fill="none" xmlns="http://www.w3.org/2000/svg">
<rect y="0.5" width="24" height="24" rx="4.11429" fill="#B3261E"/>
<g clip-path="url(#clip0_1011_221)">
<path d="M16.3393 7.77455H14.5312V7.41295C14.5312 6.81478 14.0446 6.32812 13.4464 6.32812H10.5535C9.95537 6.32812 9.46872 6.81478 9.46872 7.41295V7.77455H7.66069C7.06252 7.77455 6.57587 8.2612 6.57587 8.85938C6.57587 9.33978 6.88986 9.74799 7.32331 9.89022L7.9683 17.6762C8.01475 18.234 8.48961 18.671 9.04936 18.671H14.9506C15.5104 18.671 15.9852 18.234 16.0317 17.6761L16.6766 9.8902C17.1101 9.74799 17.4241 9.33978 17.4241 8.85938C17.4241 8.2612 16.9374 7.77455 16.3393 7.77455ZM10.1919 7.41295C10.1919 7.21356 10.3542 7.05134 10.5535 7.05134H13.4464C13.6458 7.05134 13.808 7.21356 13.808 7.41295V7.77455H10.1919V7.41295ZM15.3109 17.6162C15.2954 17.8021 15.1372 17.9478 14.9506 17.9478H9.04936C8.86279 17.9478 8.7045 17.8021 8.68905 17.6164L8.05349 9.9442H15.9465L15.3109 17.6162ZM16.3393 9.22098H7.66069C7.4613 9.22098 7.29908 9.05877 7.29908 8.85938C7.29908 8.65998 7.4613 8.49777 7.66069 8.49777H16.3393C16.5386 8.49777 16.7009 8.65998 16.7009 8.85938C16.7009 9.05877 16.5386 9.22098 16.3393 9.22098Z" fill="white"/>
<path d="M10.5528 16.8411L10.1912 11.0072C10.1789 10.8079 10.0063 10.6563 9.80795 10.6687C9.60861 10.681 9.45705 10.8526 9.46939 11.052L9.831 16.8859C9.84288 17.0776 10.0021 17.2251 10.1916 17.2251C10.401 17.2251 10.5657 17.0488 10.5528 16.8411Z" fill="white"/>
<path d="M12 10.668C11.8003 10.668 11.6384 10.8299 11.6384 11.0296V16.8635C11.6384 17.0632 11.8003 17.2251 12 17.2251C12.1997 17.2251 12.3616 17.0632 12.3616 16.8635V11.0296C12.3616 10.8299 12.1997 10.668 12 10.668Z" fill="white"/>
<path d="M14.192 10.6687C13.9931 10.6563 13.8211 10.8079 13.8087 11.0072L13.4471 16.8411C13.4348 17.0405 13.5864 17.2121 13.7857 17.2244C13.9851 17.2368 14.1566 17.0851 14.169 16.8859L14.5306 11.052C14.5429 10.8526 14.3913 10.681 14.192 10.6687Z" fill="white"/>
</g>
<defs>
<clipPath id="clip0_1011_221">
<rect width="12.3429" height="12.3429" fill="white" transform="translate(5.82855 6.32812)"/>
</clipPath>
</defs>
</svg>
