<svg width="13" height="12" viewBox="0 0 13 12" fill="none" xmlns="http://www.w3.org/2000/svg">
<g clip-path="url(#clip0_622_1439)">
<path d="M3.57791 4.65616L1.16861 7.06491C0.0549622 8.17838 0.0549622 9.99002 1.16861 11.1035L1.22876 11.1636C1.76828 11.7029 2.4855 12 3.2485 12C4.01151 12 4.72882 11.7029 5.26825 11.1636L7.58646 8.84598C7.41663 8.87051 7.24396 8.88315 7.06927 8.88315C6.58871 8.88315 6.1228 8.78848 5.69269 8.60812L4.23251 10.0679C3.96967 10.3307 3.62021 10.4754 3.2485 10.4754C2.87689 10.4754 2.52744 10.3308 2.26459 10.068C2.00211 9.80563 1.85754 9.45627 1.85754 9.0842C1.85754 8.71222 2.00211 8.36276 2.2645 8.10037L4.61365 5.75186C4.8765 5.48901 5.22595 5.34436 5.59766 5.34436C5.95709 5.34436 6.29547 5.47995 6.55511 5.7265C6.56454 5.73419 6.57361 5.74234 6.5824 5.75113C6.71249 5.88113 6.88535 5.95273 7.06927 5.95273C7.25311 5.95273 7.42606 5.88113 7.55606 5.75113L8.08203 5.22534C7.9675 5.04169 7.83228 4.87094 7.67755 4.71631L7.61749 4.65625C7.07797 4.11682 6.36066 3.81982 5.59775 3.81982C4.83475 3.81982 4.11743 4.11682 3.57791 4.65616Z" fill="#34C759"/>
<path d="M11.4982 4.93506C12.0368 4.39673 12.3333 3.6796 12.3333 2.91577C12.3333 2.15204 12.0367 1.43491 11.4982 0.896484L11.4381 0.836426C10.8986 0.297089 10.1813 0 9.41827 0C8.65536 0 7.93805 0.297089 7.39853 0.836426L5.08032 3.15399C5.25015 3.12946 5.42291 3.11682 5.5976 3.11682C6.07806 3.11682 6.54398 3.21158 6.97409 3.39185L8.43427 1.93204C8.69711 1.66928 9.04657 1.52454 9.41827 1.52454C9.78998 1.52454 10.1394 1.66919 10.4023 1.93204C10.6648 2.19443 10.8092 2.54379 10.8092 2.91577C10.8092 3.28784 10.6648 3.63721 10.4023 3.89951L8.05313 6.24811C7.79028 6.51096 7.44083 6.65561 7.06912 6.65561C6.70978 6.65561 6.3714 6.52002 6.11176 6.27347C6.10233 6.26578 6.09317 6.25763 6.08438 6.24884C5.95438 6.11884 5.78143 6.04724 5.5976 6.04724C5.41367 6.04724 5.24081 6.11884 5.11081 6.24884L4.58484 6.77472C4.69928 6.95828 4.8345 7.12894 4.98923 7.28366L5.04938 7.34381C5.5889 7.88315 6.30612 8.18015 7.06912 8.18015C7.83212 8.18015 8.54944 7.88315 9.08887 7.34381L11.4982 4.93506Z" fill="#34C759"/>
</g>
<defs>
<clipPath id="clip0_622_1439">
<rect width="12" height="12" fill="white" transform="translate(0.333374)"/>
</clipPath>
</defs>
</svg>
