<svg width="16" height="16" viewBox="0 0 16 16" fill="none" xmlns="http://www.w3.org/2000/svg">
<g clip-path="url(#clip0_639_197)">
<path d="M9.88087 2.6875L1.07744 11.4916C1.03315 11.536 1.00117 11.5921 0.985939 11.6524L0.0101637 15.5689C-0.0190245 15.6868 0.0156207 15.8122 0.101663 15.8982C0.166765 15.9633 0.255472 15.9994 0.346209 15.9994C0.374002 15.9994 0.402428 15.9959 0.430094 15.989L4.34665 15.0131C4.40769 14.9978 4.46315 14.966 4.50744 14.9217L13.3116 6.11826L9.88087 2.6875Z" fill="#D8D8D8"/>
<path d="M15.4926 1.48657L14.5126 0.506606C13.8577 -0.148353 12.7162 -0.147718 12.062 0.506606L10.8616 1.707L14.2922 5.13764L15.4926 3.93724C15.8198 3.6102 16 3.17492 16 2.71197C16 2.24902 15.8198 1.81373 15.4926 1.48657Z" fill="#D8D8D8"/>
</g>
<defs>
<clipPath id="clip0_639_197">
<rect width="16" height="16" fill="white"/>
</clipPath>
</defs>
</svg>
