<svg width="16" height="16" viewBox="0 0 16 16" fill="none" xmlns="http://www.w3.org/2000/svg">
<g clip-path="url(#clip0_633_1770)">
<path d="M12.5712 7.99956C12.2907 7.99956 12.0633 8.22697 12.0633 8.5075V13.5869C12.0633 13.8674 11.8359 14.0948 11.5553 14.0948H2.41249C2.13195 14.0948 1.90454 13.8674 1.90454 13.5869V3.42811C1.90454 3.14758 2.13195 2.92016 2.41249 2.92016H8.50775C8.78828 2.92016 9.01569 2.69275 9.01569 2.41222C9.01569 2.13168 8.78828 1.9043 8.50775 1.9043H2.41249C1.57091 1.9043 0.888672 2.58653 0.888672 3.42811V13.5869C0.888672 14.4284 1.57091 15.1107 2.41249 15.1107H11.5554C12.397 15.1107 13.0792 14.4284 13.0792 13.5869V8.50747C13.0792 8.22697 12.8518 7.99956 12.5712 7.99956Z" fill="#81817C"/>
<path d="M14.5417 1.45827C14.177 1.0935 13.6823 0.88862 13.1665 0.88868C12.6504 0.887192 12.1553 1.09243 11.7916 1.45859L5.10097 8.14862C5.04547 8.20454 5.00359 8.27252 4.97856 8.34722L3.9627 11.3948C3.87403 11.661 4.01793 11.9486 4.2841 12.0373C4.33573 12.0545 4.38981 12.0632 4.44421 12.0633C4.49874 12.0632 4.55294 12.0545 4.60472 12.0374L7.65235 11.0215C7.7272 10.9965 7.79521 10.9545 7.85095 10.8986L14.5415 4.20807C15.3009 3.44878 15.301 2.21764 14.5417 1.45827ZM13.8233 3.49033L7.22009 10.0935L5.24725 10.7523L5.90401 8.78201L12.5097 2.17883C12.8729 1.81639 13.4612 1.81699 13.8236 2.18014C13.9967 2.35363 14.0943 2.58848 14.095 2.83357C14.0956 3.07997 13.9978 3.3164 13.8233 3.49033Z" fill="#81817C"/>
</g>
<defs>
<clipPath id="clip0_633_1770">
<rect width="16" height="16" fill="white"/>
</clipPath>
</defs>
</svg>
