<svg width="18" height="19" viewBox="0 0 18 19" fill="none" xmlns="http://www.w3.org/2000/svg">
<g clip-path="url(#clip0_967_98)">
<path d="M4.86681 7.48497L1.25285 11.0981C-0.417618 12.7683 -0.417618 15.4858 1.25285 17.156L1.34308 17.2462C2.15236 18.0551 3.2282 18.5007 4.3727 18.5007C5.5172 18.5007 6.59317 18.0551 7.40231 17.2462L10.8796 13.7697C10.6249 13.8065 10.3659 13.8255 10.1039 13.8255C9.38301 13.8255 8.68414 13.6835 8.03897 13.4129L5.84871 15.6026C5.45444 15.9968 4.93025 16.2139 4.3727 16.2139C3.81528 16.2139 3.29109 15.9969 2.89682 15.6028C2.5031 15.2092 2.28625 14.6851 2.28625 14.127C2.28625 13.5691 2.5031 13.0449 2.89668 12.6513L6.42041 9.12852C6.81468 8.73425 7.33887 8.51727 7.89642 8.51727C8.43558 8.51727 8.94315 8.72066 9.33261 9.09048C9.34676 9.10202 9.36035 9.11424 9.37354 9.12743C9.56868 9.32243 9.82796 9.42982 10.1039 9.42982C10.3796 9.42982 10.639 9.32243 10.834 9.12743L11.623 8.33875C11.4512 8.06326 11.2484 7.80714 11.0163 7.5752L10.9262 7.48511C10.1169 6.67596 9.04092 6.23047 7.89656 6.23047C6.75206 6.23047 5.67609 6.67596 4.86681 7.48497Z" fill="#123258"/>
<path d="M16.7473 7.90259C17.5552 7.09509 18 6.01939 18 4.87366C18 3.72806 17.555 2.65236 16.7473 1.84473L16.6572 1.75464C15.8479 0.945633 14.7719 0.5 13.6274 0.5C12.483 0.5 11.4071 0.945633 10.5978 1.75464L7.12048 5.23099C7.37523 5.19418 7.63437 5.17523 7.89639 5.17523C8.6171 5.17523 9.31596 5.31737 9.96114 5.58777L12.1514 3.39806C12.5457 3.00392 13.0699 2.7868 13.6274 2.7868C14.185 2.7868 14.7092 3.00378 15.1034 3.39806C15.4971 3.79164 15.7139 4.31569 15.7139 4.87366C15.7139 5.43176 15.4971 5.95581 15.1034 6.34926L11.5797 9.87216C11.1854 10.2664 10.6612 10.4834 10.1037 10.4834C9.56467 10.4834 9.0571 10.28 8.66763 9.9102C8.65349 9.89867 8.63976 9.88644 8.62657 9.87326C8.43156 9.67825 8.17215 9.57086 7.89639 9.57086C7.6205 9.57086 7.36122 9.67825 7.16621 9.87326L6.37726 10.6621C6.54892 10.9374 6.75175 11.1934 6.98384 11.4255L7.07407 11.5157C7.88335 12.3247 8.95918 12.7702 10.1037 12.7702C11.2482 12.7702 12.3242 12.3247 13.1333 11.5157L16.7473 7.90259Z" fill="#123258"/>
</g>
<defs>
<clipPath id="clip0_967_98">
<rect width="18" height="18" fill="white" transform="translate(0 0.5)"/>
</clipPath>
</defs>
</svg>
