<svg width="16" height="16" viewBox="0 0 16 16" fill="none" xmlns="http://www.w3.org/2000/svg">
<mask id="path-1-outside-1_1494_1829" maskUnits="userSpaceOnUse" x="-0.756836" y="-0.391113" width="17" height="17" fill="black">
<rect fill="white" x="-0.756836" y="-0.391113" width="17" height="17"/>
<path d="M14.3675 6.42514H13.926C13.8507 6.42541 13.7773 6.4019 13.7162 6.35796C13.655 6.31402 13.6094 6.25189 13.5857 6.18045C13.4564 5.7961 13.2887 5.42578 13.085 5.07514L14.8175 3.36232C15.0698 3.10972 15.2115 2.76731 15.2115 2.41029C15.2115 2.05328 15.0698 1.71086 14.8175 1.45826L14.3732 1.02795C14.121 0.77832 13.7802 0.638763 13.4254 0.639824C13.2489 0.639632 13.0743 0.674603 12.9115 0.742693C12.7488 0.810782 12.6012 0.910625 12.4775 1.03639L10.7338 2.75764C10.4121 2.58248 10.0762 2.43477 9.72973 2.31607C9.65858 2.29226 9.59682 2.24648 9.55335 2.18532C9.50988 2.12416 9.48695 2.05079 9.48785 1.97576V1.53139C9.48711 1.28647 9.38929 1.05183 9.21584 0.878909C9.04239 0.705987 8.80746 0.608886 8.56254 0.608887H6.98473C6.7398 0.608886 6.50487 0.705987 6.33142 0.878909C6.15797 1.05183 6.06016 1.28647 6.05941 1.53139V1.97295C6.05969 2.04822 6.03618 2.12165 5.99223 2.18277C5.94829 2.24388 5.88617 2.28955 5.81473 2.31326C5.5483 2.40408 5.28807 2.51212 5.03566 2.6367C4.96865 2.66934 4.89316 2.68038 4.81961 2.66829C4.74606 2.6562 4.67807 2.62158 4.62504 2.5692L4.31566 2.25701C4.14133 2.08423 3.9058 1.98729 3.66035 1.98729C3.4149 1.98729 3.17938 2.08423 3.00504 2.25701L1.89691 3.36514C1.81069 3.4511 1.74227 3.55323 1.69559 3.66568C1.64891 3.77813 1.62488 3.89869 1.62488 4.02045C1.62488 4.14221 1.64891 4.26276 1.69559 4.37522C1.74227 4.48767 1.81069 4.5898 1.89691 4.67576L2.20629 4.98795C2.25973 5.04088 2.29525 5.10922 2.30786 5.18337C2.32047 5.25753 2.30954 5.33377 2.2766 5.40139C2.15126 5.65308 2.04411 5.91344 1.95598 6.18045C1.93138 6.25188 1.8851 6.31386 1.82358 6.35772C1.76207 6.40159 1.6884 6.42515 1.61285 6.42514H1.16848C0.923068 6.42514 0.687712 6.52262 0.514182 6.69615C0.340652 6.86968 0.243164 7.10504 0.243164 7.35045V8.91701C0.243164 9.16242 0.340652 9.39778 0.514182 9.57131C0.687712 9.74484 0.923068 9.84232 1.16848 9.84232H1.61004C1.68531 9.84205 1.75874 9.86556 1.81986 9.9095C1.88097 9.95344 1.92664 10.0156 1.95035 10.087C2.04117 10.3534 2.14921 10.6137 2.27379 10.8661C2.30673 10.9337 2.31766 11.0099 2.30505 11.0841C2.29244 11.1582 2.25692 11.2266 2.20348 11.2795L1.8941 11.5917C1.80557 11.6764 1.73504 11.7781 1.68671 11.8907C1.63839 12.0033 1.61327 12.1245 1.61285 12.247C1.61406 12.3694 1.63953 12.4904 1.68781 12.6028C1.73609 12.7153 1.80621 12.8171 1.8941 12.9023L3.00223 14.0104C3.17656 14.1832 3.41209 14.2802 3.65754 14.2802C3.90299 14.2802 4.13851 14.1832 4.31285 14.0104L4.62504 13.6983C4.67742 13.645 4.7451 13.6093 4.81868 13.5962C4.89226 13.5831 4.9681 13.5932 5.03566 13.6251C5.28758 13.75 5.5479 13.8571 5.81473 13.9458C5.88616 13.9704 5.94813 14.0166 5.992 14.0782C6.03586 14.1397 6.05943 14.2133 6.05941 14.2889V14.7304C6.05941 14.9759 6.1569 15.2112 6.33043 15.3847C6.50396 15.5583 6.73932 15.6558 6.98473 15.6558H8.56254C8.68429 15.6561 8.80491 15.6325 8.9175 15.5861C9.03009 15.5398 9.13243 15.4717 9.21865 15.3857C9.30487 15.2998 9.37328 15.1976 9.41996 15.0852C9.46664 14.9728 9.49066 14.8522 9.49066 14.7304V14.2917C9.4896 14.2163 9.51242 14.1425 9.55587 14.0809C9.59932 14.0192 9.66116 13.9729 9.73254 13.9486C9.99671 13.859 10.2542 13.751 10.5032 13.6251C10.5704 13.5924 10.6461 13.5816 10.7198 13.5942C10.7935 13.6068 10.8613 13.6422 10.9138 13.6954L11.226 14.0076C11.4003 14.1804 11.6358 14.2774 11.8813 14.2774C12.1267 14.2774 12.3623 14.1804 12.5366 14.0076L13.6447 12.8995C13.8175 12.7252 13.9144 12.4897 13.9144 12.2442C13.9144 11.9987 13.8175 11.7632 13.6447 11.5889L13.3438 11.2795C13.2903 11.2266 13.2548 11.1582 13.2422 11.0841C13.2296 11.0099 13.2405 10.9337 13.2735 10.8661C13.3997 10.6144 13.5078 10.3541 13.5969 10.087C13.6206 10.0156 13.6663 9.95344 13.7274 9.9095C13.7885 9.86556 13.862 9.84205 13.9372 9.84232H14.3788C14.6242 9.84232 14.8596 9.74484 15.0331 9.57131C15.2066 9.39778 15.3041 9.16242 15.3041 8.91701V7.35045C15.3041 7.22798 15.2798 7.10673 15.2326 6.99373C15.1854 6.88073 15.1162 6.77822 15.0291 6.69214C14.942 6.60607 14.8387 6.53815 14.7251 6.49232C14.6115 6.44648 14.49 6.42365 14.3675 6.42514ZM11.8363 6.80764C12.1168 7.67019 12.1169 8.59945 11.8365 9.46204C11.556 10.3246 11.0095 11.0762 10.2754 11.6089C9.54126 12.1416 8.65724 12.428 7.75021 12.427C6.84318 12.426 5.95978 12.1377 5.2268 11.6034C4.49382 11.0691 3.94895 10.3164 3.6704 9.45318C3.39184 8.58998 3.39392 7.66072 3.67634 6.79878C3.95875 5.93684 4.50698 5.18653 5.24235 4.65554C5.97771 4.12455 6.86239 3.84019 7.76941 3.84326C8.30274 3.84279 8.83137 3.94298 9.32754 4.13857L5.95254 7.48545C5.91554 7.52168 5.88926 7.56742 5.8766 7.61764L5.23254 10.1826C5.21797 10.2317 5.21708 10.2839 5.22996 10.3334C5.24285 10.383 5.26902 10.4281 5.30566 10.4639C5.33171 10.4905 5.36277 10.5116 5.39705 10.5261C5.43133 10.5406 5.46814 10.5481 5.50535 10.5483C5.52777 10.551 5.55043 10.551 5.57285 10.5483L8.16598 9.90982C8.21557 9.89928 8.26073 9.87375 8.29535 9.8367L11.7154 6.4617C11.766 6.57472 11.8111 6.69017 11.8503 6.80764H11.8363ZM6.29285 8.23076L7.53598 9.45982L5.88504 9.86764L6.29285 8.23076ZM8.09004 9.21795L6.54035 7.68514L12.1204 2.17264L13.67 3.70545L8.09004 9.21795ZM13.4338 1.20232C13.6436 1.20024 13.8458 1.28111 13.9963 1.42732L14.4294 1.85764C14.5761 2.00473 14.6584 2.20398 14.6584 2.4117C14.6584 2.61942 14.5761 2.81867 14.4294 2.96576L14.0807 3.30889L12.5197 1.77607L12.8657 1.43295C12.9382 1.35979 13.0245 1.30173 13.1196 1.26214C13.2147 1.22256 13.3167 1.20223 13.4197 1.20232H13.4338ZM14.7444 8.91701C14.7444 9.01324 14.7062 9.10552 14.6381 9.17356C14.5701 9.2416 14.4778 9.27982 14.3816 9.27982H13.926C13.7345 9.28221 13.5484 9.34414 13.3937 9.45703C13.239 9.56993 13.1233 9.72817 13.0625 9.90982C12.984 10.1509 12.8901 10.3867 12.7813 10.6158C12.6964 10.7887 12.6675 10.9837 12.6988 11.1738C12.7301 11.3639 12.8198 11.5395 12.9557 11.6761L13.2678 11.9883C13.3018 12.022 13.3287 12.0621 13.3471 12.1062C13.3655 12.1504 13.3749 12.1978 13.3749 12.2456C13.3749 12.2934 13.3655 12.3408 13.3471 12.385C13.3287 12.4291 13.3018 12.4692 13.2678 12.5029L12.1372 13.6251C12.1035 13.6591 12.0634 13.686 12.0192 13.7044C11.9751 13.7227 11.9277 13.7322 11.8799 13.7322C11.832 13.7322 11.7847 13.7227 11.7405 13.7044C11.6964 13.686 11.6563 13.6591 11.6225 13.6251L11.3104 13.3129C11.1761 13.1737 11.0012 13.0805 10.8108 13.0467C10.6203 13.0128 10.4241 13.0401 10.25 13.1245C10.0202 13.2338 9.78347 13.3277 9.54129 13.4058C9.35765 13.4665 9.198 13.5838 9.0853 13.741C8.9726 13.8982 8.91266 14.0871 8.9141 14.2804V14.722C8.91639 14.818 8.88079 14.9111 8.815 14.9811C8.74922 15.0511 8.65853 15.0924 8.56254 15.0961H6.98473C6.8885 15.0961 6.79622 15.0578 6.72818 14.9898C6.66014 14.9218 6.62191 14.8295 6.62191 14.7333V14.2917C6.62292 14.0984 6.56281 13.9097 6.45017 13.7526C6.33753 13.5956 6.17812 13.4781 5.99473 13.417C5.75254 13.339 5.51577 13.245 5.28598 13.1358C5.11337 13.0496 4.91797 13.02 4.7276 13.0513C4.53723 13.0826 4.36158 13.1732 4.22566 13.3101L3.91348 13.6251C3.87976 13.6591 3.83966 13.686 3.7955 13.7044C3.75133 13.7227 3.70397 13.7322 3.65613 13.7322C3.6083 13.7322 3.56093 13.7227 3.51677 13.7044C3.4726 13.686 3.43251 13.6591 3.39879 13.6251L2.29066 12.5001C2.25642 12.467 2.22929 12.4272 2.21092 12.3832C2.19255 12.3392 2.18332 12.2919 2.18379 12.2442C2.18342 12.1961 2.19269 12.1484 2.21104 12.104C2.2294 12.0596 2.25647 12.0193 2.29066 11.9854L2.60285 11.6733C2.74015 11.5376 2.83097 11.3619 2.8623 11.1714C2.89362 10.981 2.86384 10.7855 2.77723 10.6129C2.66797 10.3832 2.57402 10.1464 2.49598 9.9042C2.43416 9.72127 2.3165 9.56234 2.15958 9.44982C2.00266 9.3373 1.81438 9.27686 1.62129 9.27701H1.16848C1.07225 9.27701 0.97997 9.23879 0.911929 9.17075C0.843889 9.10271 0.805664 9.01042 0.805664 8.9142V7.35045C0.805664 7.25423 0.843889 7.16194 0.911929 7.0939C0.97997 7.02586 1.07225 6.98764 1.16848 6.98764H1.61004C1.80334 6.98864 1.99201 6.92853 2.1491 6.81589C2.30618 6.70325 2.42366 6.54385 2.48473 6.36045C2.56276 6.11735 2.65671 5.87964 2.76598 5.64889C2.85237 5.4768 2.88203 5.28178 2.8507 5.09179C2.81937 4.9018 2.72867 4.72662 2.5916 4.59139L2.29066 4.2792C2.22282 4.21073 2.18476 4.11824 2.18476 4.02186C2.18476 3.92547 2.22282 3.83298 2.29066 3.76451L3.39879 2.65639C3.43251 2.62246 3.4726 2.59553 3.51677 2.57716C3.56093 2.55878 3.6083 2.54932 3.65613 2.54932C3.70397 2.54932 3.75133 2.55878 3.7955 2.57716C3.83966 2.59553 3.87976 2.62246 3.91348 2.65639L4.22566 2.96857C4.36181 3.10513 4.53743 3.19543 4.7277 3.22672C4.91798 3.25801 5.11327 3.22871 5.28598 3.14295C5.51577 3.03369 5.75254 2.93974 5.99473 2.8617C6.17789 2.80026 6.33706 2.68269 6.44964 2.52568C6.56222 2.36868 6.62249 2.18021 6.62191 1.98701V1.53139C6.62191 1.43516 6.66014 1.34288 6.72818 1.27484C6.79622 1.2068 6.8885 1.16857 6.98473 1.16857H8.56254C8.65706 1.17148 8.74678 1.2109 8.81286 1.27855C8.87893 1.3462 8.91623 1.43682 8.91691 1.53139V1.97295C8.91591 2.16625 8.97602 2.35492 9.08866 2.51201C9.2013 2.6691 9.3607 2.78657 9.5441 2.84764C9.80463 2.93827 10.0584 3.04729 10.3035 3.17389L9.76348 3.70545C9.13727 3.4212 8.45711 3.27539 7.76941 3.27795C6.74829 3.28013 5.75402 3.60519 4.92881 4.20663C4.10361 4.80806 3.48975 5.65507 3.17504 6.62649C2.86034 7.59791 2.86091 8.64397 3.17668 9.61505C3.49244 10.5861 4.10723 11.4325 4.93309 12.033C5.75896 12.6335 6.75359 12.9575 7.77471 12.9586C8.79583 12.9596 9.79113 12.6377 10.6182 12.0389C11.4454 11.4401 12.0619 10.595 12.3797 9.62462C12.6975 8.6542 12.7002 7.60815 12.3875 6.63607C12.3163 6.42427 12.2308 6.21755 12.1316 6.01732L12.666 5.48857C12.8239 5.7668 12.9566 6.05859 13.0625 6.36045C13.1244 6.54338 13.242 6.70231 13.3989 6.81483C13.5559 6.92735 13.7441 6.98779 13.9372 6.98764H14.3788C14.475 6.98764 14.5673 7.02586 14.6353 7.0939C14.7034 7.16194 14.7416 7.25423 14.7416 7.35045L14.7444 8.91701Z"/>
</mask>
<path d="M14.3675 6.42514H13.926C13.8507 6.42541 13.7773 6.4019 13.7162 6.35796C13.655 6.31402 13.6094 6.25189 13.5857 6.18045C13.4564 5.7961 13.2887 5.42578 13.085 5.07514L14.8175 3.36232C15.0698 3.10972 15.2115 2.76731 15.2115 2.41029C15.2115 2.05328 15.0698 1.71086 14.8175 1.45826L14.3732 1.02795C14.121 0.77832 13.7802 0.638763 13.4254 0.639824C13.2489 0.639632 13.0743 0.674603 12.9115 0.742693C12.7488 0.810782 12.6012 0.910625 12.4775 1.03639L10.7338 2.75764C10.4121 2.58248 10.0762 2.43477 9.72973 2.31607C9.65858 2.29226 9.59682 2.24648 9.55335 2.18532C9.50988 2.12416 9.48695 2.05079 9.48785 1.97576V1.53139C9.48711 1.28647 9.38929 1.05183 9.21584 0.878909C9.04239 0.705987 8.80746 0.608886 8.56254 0.608887H6.98473C6.7398 0.608886 6.50487 0.705987 6.33142 0.878909C6.15797 1.05183 6.06016 1.28647 6.05941 1.53139V1.97295C6.05969 2.04822 6.03618 2.12165 5.99223 2.18277C5.94829 2.24388 5.88617 2.28955 5.81473 2.31326C5.5483 2.40408 5.28807 2.51212 5.03566 2.6367C4.96865 2.66934 4.89316 2.68038 4.81961 2.66829C4.74606 2.6562 4.67807 2.62158 4.62504 2.5692L4.31566 2.25701C4.14133 2.08423 3.9058 1.98729 3.66035 1.98729C3.4149 1.98729 3.17938 2.08423 3.00504 2.25701L1.89691 3.36514C1.81069 3.4511 1.74227 3.55323 1.69559 3.66568C1.64891 3.77813 1.62488 3.89869 1.62488 4.02045C1.62488 4.14221 1.64891 4.26276 1.69559 4.37522C1.74227 4.48767 1.81069 4.5898 1.89691 4.67576L2.20629 4.98795C2.25973 5.04088 2.29525 5.10922 2.30786 5.18337C2.32047 5.25753 2.30954 5.33377 2.2766 5.40139C2.15126 5.65308 2.04411 5.91344 1.95598 6.18045C1.93138 6.25188 1.8851 6.31386 1.82358 6.35772C1.76207 6.40159 1.6884 6.42515 1.61285 6.42514H1.16848C0.923068 6.42514 0.687712 6.52262 0.514182 6.69615C0.340652 6.86968 0.243164 7.10504 0.243164 7.35045V8.91701C0.243164 9.16242 0.340652 9.39778 0.514182 9.57131C0.687712 9.74484 0.923068 9.84232 1.16848 9.84232H1.61004C1.68531 9.84205 1.75874 9.86556 1.81986 9.9095C1.88097 9.95344 1.92664 10.0156 1.95035 10.087C2.04117 10.3534 2.14921 10.6137 2.27379 10.8661C2.30673 10.9337 2.31766 11.0099 2.30505 11.0841C2.29244 11.1582 2.25692 11.2266 2.20348 11.2795L1.8941 11.5917C1.80557 11.6764 1.73504 11.7781 1.68671 11.8907C1.63839 12.0033 1.61327 12.1245 1.61285 12.247C1.61406 12.3694 1.63953 12.4904 1.68781 12.6028C1.73609 12.7153 1.80621 12.8171 1.8941 12.9023L3.00223 14.0104C3.17656 14.1832 3.41209 14.2802 3.65754 14.2802C3.90299 14.2802 4.13851 14.1832 4.31285 14.0104L4.62504 13.6983C4.67742 13.645 4.7451 13.6093 4.81868 13.5962C4.89226 13.5831 4.9681 13.5932 5.03566 13.6251C5.28758 13.75 5.5479 13.8571 5.81473 13.9458C5.88616 13.9704 5.94813 14.0166 5.992 14.0782C6.03586 14.1397 6.05943 14.2133 6.05941 14.2889V14.7304C6.05941 14.9759 6.1569 15.2112 6.33043 15.3847C6.50396 15.5583 6.73932 15.6558 6.98473 15.6558H8.56254C8.68429 15.6561 8.80491 15.6325 8.9175 15.5861C9.03009 15.5398 9.13243 15.4717 9.21865 15.3857C9.30487 15.2998 9.37328 15.1976 9.41996 15.0852C9.46664 14.9728 9.49066 14.8522 9.49066 14.7304V14.2917C9.4896 14.2163 9.51242 14.1425 9.55587 14.0809C9.59932 14.0192 9.66116 13.9729 9.73254 13.9486C9.99671 13.859 10.2542 13.751 10.5032 13.6251C10.5704 13.5924 10.6461 13.5816 10.7198 13.5942C10.7935 13.6068 10.8613 13.6422 10.9138 13.6954L11.226 14.0076C11.4003 14.1804 11.6358 14.2774 11.8813 14.2774C12.1267 14.2774 12.3623 14.1804 12.5366 14.0076L13.6447 12.8995C13.8175 12.7252 13.9144 12.4897 13.9144 12.2442C13.9144 11.9987 13.8175 11.7632 13.6447 11.5889L13.3438 11.2795C13.2903 11.2266 13.2548 11.1582 13.2422 11.0841C13.2296 11.0099 13.2405 10.9337 13.2735 10.8661C13.3997 10.6144 13.5078 10.3541 13.5969 10.087C13.6206 10.0156 13.6663 9.95344 13.7274 9.9095C13.7885 9.86556 13.862 9.84205 13.9372 9.84232H14.3788C14.6242 9.84232 14.8596 9.74484 15.0331 9.57131C15.2066 9.39778 15.3041 9.16242 15.3041 8.91701V7.35045C15.3041 7.22798 15.2798 7.10673 15.2326 6.99373C15.1854 6.88073 15.1162 6.77822 15.0291 6.69214C14.942 6.60607 14.8387 6.53815 14.7251 6.49232C14.6115 6.44648 14.49 6.42365 14.3675 6.42514ZM11.8363 6.80764C12.1168 7.67019 12.1169 8.59945 11.8365 9.46204C11.556 10.3246 11.0095 11.0762 10.2754 11.6089C9.54126 12.1416 8.65724 12.428 7.75021 12.427C6.84318 12.426 5.95978 12.1377 5.2268 11.6034C4.49382 11.0691 3.94895 10.3164 3.6704 9.45318C3.39184 8.58998 3.39392 7.66072 3.67634 6.79878C3.95875 5.93684 4.50698 5.18653 5.24235 4.65554C5.97771 4.12455 6.86239 3.84019 7.76941 3.84326C8.30274 3.84279 8.83137 3.94298 9.32754 4.13857L5.95254 7.48545C5.91554 7.52168 5.88926 7.56742 5.8766 7.61764L5.23254 10.1826C5.21797 10.2317 5.21708 10.2839 5.22996 10.3334C5.24285 10.383 5.26902 10.4281 5.30566 10.4639C5.33171 10.4905 5.36277 10.5116 5.39705 10.5261C5.43133 10.5406 5.46814 10.5481 5.50535 10.5483C5.52777 10.551 5.55043 10.551 5.57285 10.5483L8.16598 9.90982C8.21557 9.89928 8.26073 9.87375 8.29535 9.8367L11.7154 6.4617C11.766 6.57472 11.8111 6.69017 11.8503 6.80764H11.8363ZM6.29285 8.23076L7.53598 9.45982L5.88504 9.86764L6.29285 8.23076ZM8.09004 9.21795L6.54035 7.68514L12.1204 2.17264L13.67 3.70545L8.09004 9.21795ZM13.4338 1.20232C13.6436 1.20024 13.8458 1.28111 13.9963 1.42732L14.4294 1.85764C14.5761 2.00473 14.6584 2.20398 14.6584 2.4117C14.6584 2.61942 14.5761 2.81867 14.4294 2.96576L14.0807 3.30889L12.5197 1.77607L12.8657 1.43295C12.9382 1.35979 13.0245 1.30173 13.1196 1.26214C13.2147 1.22256 13.3167 1.20223 13.4197 1.20232H13.4338ZM14.7444 8.91701C14.7444 9.01324 14.7062 9.10552 14.6381 9.17356C14.5701 9.2416 14.4778 9.27982 14.3816 9.27982H13.926C13.7345 9.28221 13.5484 9.34414 13.3937 9.45703C13.239 9.56993 13.1233 9.72817 13.0625 9.90982C12.984 10.1509 12.8901 10.3867 12.7813 10.6158C12.6964 10.7887 12.6675 10.9837 12.6988 11.1738C12.7301 11.3639 12.8198 11.5395 12.9557 11.6761L13.2678 11.9883C13.3018 12.022 13.3287 12.0621 13.3471 12.1062C13.3655 12.1504 13.3749 12.1978 13.3749 12.2456C13.3749 12.2934 13.3655 12.3408 13.3471 12.385C13.3287 12.4291 13.3018 12.4692 13.2678 12.5029L12.1372 13.6251C12.1035 13.6591 12.0634 13.686 12.0192 13.7044C11.9751 13.7227 11.9277 13.7322 11.8799 13.7322C11.832 13.7322 11.7847 13.7227 11.7405 13.7044C11.6964 13.686 11.6563 13.6591 11.6225 13.6251L11.3104 13.3129C11.1761 13.1737 11.0012 13.0805 10.8108 13.0467C10.6203 13.0128 10.4241 13.0401 10.25 13.1245C10.0202 13.2338 9.78347 13.3277 9.54129 13.4058C9.35765 13.4665 9.198 13.5838 9.0853 13.741C8.9726 13.8982 8.91266 14.0871 8.9141 14.2804V14.722C8.91639 14.818 8.88079 14.9111 8.815 14.9811C8.74922 15.0511 8.65853 15.0924 8.56254 15.0961H6.98473C6.8885 15.0961 6.79622 15.0578 6.72818 14.9898C6.66014 14.9218 6.62191 14.8295 6.62191 14.7333V14.2917C6.62292 14.0984 6.56281 13.9097 6.45017 13.7526C6.33753 13.5956 6.17812 13.4781 5.99473 13.417C5.75254 13.339 5.51577 13.245 5.28598 13.1358C5.11337 13.0496 4.91797 13.02 4.7276 13.0513C4.53723 13.0826 4.36158 13.1732 4.22566 13.3101L3.91348 13.6251C3.87976 13.6591 3.83966 13.686 3.7955 13.7044C3.75133 13.7227 3.70397 13.7322 3.65613 13.7322C3.6083 13.7322 3.56093 13.7227 3.51677 13.7044C3.4726 13.686 3.43251 13.6591 3.39879 13.6251L2.29066 12.5001C2.25642 12.467 2.22929 12.4272 2.21092 12.3832C2.19255 12.3392 2.18332 12.2919 2.18379 12.2442C2.18342 12.1961 2.19269 12.1484 2.21104 12.104C2.2294 12.0596 2.25647 12.0193 2.29066 11.9854L2.60285 11.6733C2.74015 11.5376 2.83097 11.3619 2.8623 11.1714C2.89362 10.981 2.86384 10.7855 2.77723 10.6129C2.66797 10.3832 2.57402 10.1464 2.49598 9.9042C2.43416 9.72127 2.3165 9.56234 2.15958 9.44982C2.00266 9.3373 1.81438 9.27686 1.62129 9.27701H1.16848C1.07225 9.27701 0.97997 9.23879 0.911929 9.17075C0.843889 9.10271 0.805664 9.01042 0.805664 8.9142V7.35045C0.805664 7.25423 0.843889 7.16194 0.911929 7.0939C0.97997 7.02586 1.07225 6.98764 1.16848 6.98764H1.61004C1.80334 6.98864 1.99201 6.92853 2.1491 6.81589C2.30618 6.70325 2.42366 6.54385 2.48473 6.36045C2.56276 6.11735 2.65671 5.87964 2.76598 5.64889C2.85237 5.4768 2.88203 5.28178 2.8507 5.09179C2.81937 4.9018 2.72867 4.72662 2.5916 4.59139L2.29066 4.2792C2.22282 4.21073 2.18476 4.11824 2.18476 4.02186C2.18476 3.92547 2.22282 3.83298 2.29066 3.76451L3.39879 2.65639C3.43251 2.62246 3.4726 2.59553 3.51677 2.57716C3.56093 2.55878 3.6083 2.54932 3.65613 2.54932C3.70397 2.54932 3.75133 2.55878 3.7955 2.57716C3.83966 2.59553 3.87976 2.62246 3.91348 2.65639L4.22566 2.96857C4.36181 3.10513 4.53743 3.19543 4.7277 3.22672C4.91798 3.25801 5.11327 3.22871 5.28598 3.14295C5.51577 3.03369 5.75254 2.93974 5.99473 2.8617C6.17789 2.80026 6.33706 2.68269 6.44964 2.52568C6.56222 2.36868 6.62249 2.18021 6.62191 1.98701V1.53139C6.62191 1.43516 6.66014 1.34288 6.72818 1.27484C6.79622 1.2068 6.8885 1.16857 6.98473 1.16857H8.56254C8.65706 1.17148 8.74678 1.2109 8.81286 1.27855C8.87893 1.3462 8.91623 1.43682 8.91691 1.53139V1.97295C8.91591 2.16625 8.97602 2.35492 9.08866 2.51201C9.2013 2.6691 9.3607 2.78657 9.5441 2.84764C9.80463 2.93827 10.0584 3.04729 10.3035 3.17389L9.76348 3.70545C9.13727 3.4212 8.45711 3.27539 7.76941 3.27795C6.74829 3.28013 5.75402 3.60519 4.92881 4.20663C4.10361 4.80806 3.48975 5.65507 3.17504 6.62649C2.86034 7.59791 2.86091 8.64397 3.17668 9.61505C3.49244 10.5861 4.10723 11.4325 4.93309 12.033C5.75896 12.6335 6.75359 12.9575 7.77471 12.9586C8.79583 12.9596 9.79113 12.6377 10.6182 12.0389C11.4454 11.4401 12.0619 10.595 12.3797 9.62462C12.6975 8.6542 12.7002 7.60815 12.3875 6.63607C12.3163 6.42427 12.2308 6.21755 12.1316 6.01732L12.666 5.48857C12.8239 5.7668 12.9566 6.05859 13.0625 6.36045C13.1244 6.54338 13.242 6.70231 13.3989 6.81483C13.5559 6.92735 13.7441 6.98779 13.9372 6.98764H14.3788C14.475 6.98764 14.5673 7.02586 14.6353 7.0939C14.7034 7.16194 14.7416 7.25423 14.7416 7.35045L14.7444 8.91701Z" fill="#0E5185"/>
<path d="M14.3675 6.42514H13.926C13.8507 6.42541 13.7773 6.4019 13.7162 6.35796C13.655 6.31402 13.6094 6.25189 13.5857 6.18045C13.4564 5.7961 13.2887 5.42578 13.085 5.07514L14.8175 3.36232C15.0698 3.10972 15.2115 2.76731 15.2115 2.41029C15.2115 2.05328 15.0698 1.71086 14.8175 1.45826L14.3732 1.02795C14.121 0.77832 13.7802 0.638763 13.4254 0.639824C13.2489 0.639632 13.0743 0.674603 12.9115 0.742693C12.7488 0.810782 12.6012 0.910625 12.4775 1.03639L10.7338 2.75764C10.4121 2.58248 10.0762 2.43477 9.72973 2.31607C9.65858 2.29226 9.59682 2.24648 9.55335 2.18532C9.50988 2.12416 9.48695 2.05079 9.48785 1.97576V1.53139C9.48711 1.28647 9.38929 1.05183 9.21584 0.878909C9.04239 0.705987 8.80746 0.608886 8.56254 0.608887H6.98473C6.7398 0.608886 6.50487 0.705987 6.33142 0.878909C6.15797 1.05183 6.06016 1.28647 6.05941 1.53139V1.97295C6.05969 2.04822 6.03618 2.12165 5.99223 2.18277C5.94829 2.24388 5.88617 2.28955 5.81473 2.31326C5.5483 2.40408 5.28807 2.51212 5.03566 2.6367C4.96865 2.66934 4.89316 2.68038 4.81961 2.66829C4.74606 2.6562 4.67807 2.62158 4.62504 2.5692L4.31566 2.25701C4.14133 2.08423 3.9058 1.98729 3.66035 1.98729C3.4149 1.98729 3.17938 2.08423 3.00504 2.25701L1.89691 3.36514C1.81069 3.4511 1.74227 3.55323 1.69559 3.66568C1.64891 3.77813 1.62488 3.89869 1.62488 4.02045C1.62488 4.14221 1.64891 4.26276 1.69559 4.37522C1.74227 4.48767 1.81069 4.5898 1.89691 4.67576L2.20629 4.98795C2.25973 5.04088 2.29525 5.10922 2.30786 5.18337C2.32047 5.25753 2.30954 5.33377 2.2766 5.40139C2.15126 5.65308 2.04411 5.91344 1.95598 6.18045C1.93138 6.25188 1.8851 6.31386 1.82358 6.35772C1.76207 6.40159 1.6884 6.42515 1.61285 6.42514H1.16848C0.923068 6.42514 0.687712 6.52262 0.514182 6.69615C0.340652 6.86968 0.243164 7.10504 0.243164 7.35045V8.91701C0.243164 9.16242 0.340652 9.39778 0.514182 9.57131C0.687712 9.74484 0.923068 9.84232 1.16848 9.84232H1.61004C1.68531 9.84205 1.75874 9.86556 1.81986 9.9095C1.88097 9.95344 1.92664 10.0156 1.95035 10.087C2.04117 10.3534 2.14921 10.6137 2.27379 10.8661C2.30673 10.9337 2.31766 11.0099 2.30505 11.0841C2.29244 11.1582 2.25692 11.2266 2.20348 11.2795L1.8941 11.5917C1.80557 11.6764 1.73504 11.7781 1.68671 11.8907C1.63839 12.0033 1.61327 12.1245 1.61285 12.247C1.61406 12.3694 1.63953 12.4904 1.68781 12.6028C1.73609 12.7153 1.80621 12.8171 1.8941 12.9023L3.00223 14.0104C3.17656 14.1832 3.41209 14.2802 3.65754 14.2802C3.90299 14.2802 4.13851 14.1832 4.31285 14.0104L4.62504 13.6983C4.67742 13.645 4.7451 13.6093 4.81868 13.5962C4.89226 13.5831 4.9681 13.5932 5.03566 13.6251C5.28758 13.75 5.5479 13.8571 5.81473 13.9458C5.88616 13.9704 5.94813 14.0166 5.992 14.0782C6.03586 14.1397 6.05943 14.2133 6.05941 14.2889V14.7304C6.05941 14.9759 6.1569 15.2112 6.33043 15.3847C6.50396 15.5583 6.73932 15.6558 6.98473 15.6558H8.56254C8.68429 15.6561 8.80491 15.6325 8.9175 15.5861C9.03009 15.5398 9.13243 15.4717 9.21865 15.3857C9.30487 15.2998 9.37328 15.1976 9.41996 15.0852C9.46664 14.9728 9.49066 14.8522 9.49066 14.7304V14.2917C9.4896 14.2163 9.51242 14.1425 9.55587 14.0809C9.59932 14.0192 9.66116 13.9729 9.73254 13.9486C9.99671 13.859 10.2542 13.751 10.5032 13.6251C10.5704 13.5924 10.6461 13.5816 10.7198 13.5942C10.7935 13.6068 10.8613 13.6422 10.9138 13.6954L11.226 14.0076C11.4003 14.1804 11.6358 14.2774 11.8813 14.2774C12.1267 14.2774 12.3623 14.1804 12.5366 14.0076L13.6447 12.8995C13.8175 12.7252 13.9144 12.4897 13.9144 12.2442C13.9144 11.9987 13.8175 11.7632 13.6447 11.5889L13.3438 11.2795C13.2903 11.2266 13.2548 11.1582 13.2422 11.0841C13.2296 11.0099 13.2405 10.9337 13.2735 10.8661C13.3997 10.6144 13.5078 10.3541 13.5969 10.087C13.6206 10.0156 13.6663 9.95344 13.7274 9.9095C13.7885 9.86556 13.862 9.84205 13.9372 9.84232H14.3788C14.6242 9.84232 14.8596 9.74484 15.0331 9.57131C15.2066 9.39778 15.3041 9.16242 15.3041 8.91701V7.35045C15.3041 7.22798 15.2798 7.10673 15.2326 6.99373C15.1854 6.88073 15.1162 6.77822 15.0291 6.69214C14.942 6.60607 14.8387 6.53815 14.7251 6.49232C14.6115 6.44648 14.49 6.42365 14.3675 6.42514ZM11.8363 6.80764C12.1168 7.67019 12.1169 8.59945 11.8365 9.46204C11.556 10.3246 11.0095 11.0762 10.2754 11.6089C9.54126 12.1416 8.65724 12.428 7.75021 12.427C6.84318 12.426 5.95978 12.1377 5.2268 11.6034C4.49382 11.0691 3.94895 10.3164 3.6704 9.45318C3.39184 8.58998 3.39392 7.66072 3.67634 6.79878C3.95875 5.93684 4.50698 5.18653 5.24235 4.65554C5.97771 4.12455 6.86239 3.84019 7.76941 3.84326C8.30274 3.84279 8.83137 3.94298 9.32754 4.13857L5.95254 7.48545C5.91554 7.52168 5.88926 7.56742 5.8766 7.61764L5.23254 10.1826C5.21797 10.2317 5.21708 10.2839 5.22996 10.3334C5.24285 10.383 5.26902 10.4281 5.30566 10.4639C5.33171 10.4905 5.36277 10.5116 5.39705 10.5261C5.43133 10.5406 5.46814 10.5481 5.50535 10.5483C5.52777 10.551 5.55043 10.551 5.57285 10.5483L8.16598 9.90982C8.21557 9.89928 8.26073 9.87375 8.29535 9.8367L11.7154 6.4617C11.766 6.57472 11.8111 6.69017 11.8503 6.80764H11.8363ZM6.29285 8.23076L7.53598 9.45982L5.88504 9.86764L6.29285 8.23076ZM8.09004 9.21795L6.54035 7.68514L12.1204 2.17264L13.67 3.70545L8.09004 9.21795ZM13.4338 1.20232C13.6436 1.20024 13.8458 1.28111 13.9963 1.42732L14.4294 1.85764C14.5761 2.00473 14.6584 2.20398 14.6584 2.4117C14.6584 2.61942 14.5761 2.81867 14.4294 2.96576L14.0807 3.30889L12.5197 1.77607L12.8657 1.43295C12.9382 1.35979 13.0245 1.30173 13.1196 1.26214C13.2147 1.22256 13.3167 1.20223 13.4197 1.20232H13.4338ZM14.7444 8.91701C14.7444 9.01324 14.7062 9.10552 14.6381 9.17356C14.5701 9.2416 14.4778 9.27982 14.3816 9.27982H13.926C13.7345 9.28221 13.5484 9.34414 13.3937 9.45703C13.239 9.56993 13.1233 9.72817 13.0625 9.90982C12.984 10.1509 12.8901 10.3867 12.7813 10.6158C12.6964 10.7887 12.6675 10.9837 12.6988 11.1738C12.7301 11.3639 12.8198 11.5395 12.9557 11.6761L13.2678 11.9883C13.3018 12.022 13.3287 12.0621 13.3471 12.1062C13.3655 12.1504 13.3749 12.1978 13.3749 12.2456C13.3749 12.2934 13.3655 12.3408 13.3471 12.385C13.3287 12.4291 13.3018 12.4692 13.2678 12.5029L12.1372 13.6251C12.1035 13.6591 12.0634 13.686 12.0192 13.7044C11.9751 13.7227 11.9277 13.7322 11.8799 13.7322C11.832 13.7322 11.7847 13.7227 11.7405 13.7044C11.6964 13.686 11.6563 13.6591 11.6225 13.6251L11.3104 13.3129C11.1761 13.1737 11.0012 13.0805 10.8108 13.0467C10.6203 13.0128 10.4241 13.0401 10.25 13.1245C10.0202 13.2338 9.78347 13.3277 9.54129 13.4058C9.35765 13.4665 9.198 13.5838 9.0853 13.741C8.9726 13.8982 8.91266 14.0871 8.9141 14.2804V14.722C8.91639 14.818 8.88079 14.9111 8.815 14.9811C8.74922 15.0511 8.65853 15.0924 8.56254 15.0961H6.98473C6.8885 15.0961 6.79622 15.0578 6.72818 14.9898C6.66014 14.9218 6.62191 14.8295 6.62191 14.7333V14.2917C6.62292 14.0984 6.56281 13.9097 6.45017 13.7526C6.33753 13.5956 6.17812 13.4781 5.99473 13.417C5.75254 13.339 5.51577 13.245 5.28598 13.1358C5.11337 13.0496 4.91797 13.02 4.7276 13.0513C4.53723 13.0826 4.36158 13.1732 4.22566 13.3101L3.91348 13.6251C3.87976 13.6591 3.83966 13.686 3.7955 13.7044C3.75133 13.7227 3.70397 13.7322 3.65613 13.7322C3.6083 13.7322 3.56093 13.7227 3.51677 13.7044C3.4726 13.686 3.43251 13.6591 3.39879 13.6251L2.29066 12.5001C2.25642 12.467 2.22929 12.4272 2.21092 12.3832C2.19255 12.3392 2.18332 12.2919 2.18379 12.2442C2.18342 12.1961 2.19269 12.1484 2.21104 12.104C2.2294 12.0596 2.25647 12.0193 2.29066 11.9854L2.60285 11.6733C2.74015 11.5376 2.83097 11.3619 2.8623 11.1714C2.89362 10.981 2.86384 10.7855 2.77723 10.6129C2.66797 10.3832 2.57402 10.1464 2.49598 9.9042C2.43416 9.72127 2.3165 9.56234 2.15958 9.44982C2.00266 9.3373 1.81438 9.27686 1.62129 9.27701H1.16848C1.07225 9.27701 0.97997 9.23879 0.911929 9.17075C0.843889 9.10271 0.805664 9.01042 0.805664 8.9142V7.35045C0.805664 7.25423 0.843889 7.16194 0.911929 7.0939C0.97997 7.02586 1.07225 6.98764 1.16848 6.98764H1.61004C1.80334 6.98864 1.99201 6.92853 2.1491 6.81589C2.30618 6.70325 2.42366 6.54385 2.48473 6.36045C2.56276 6.11735 2.65671 5.87964 2.76598 5.64889C2.85237 5.4768 2.88203 5.28178 2.8507 5.09179C2.81937 4.9018 2.72867 4.72662 2.5916 4.59139L2.29066 4.2792C2.22282 4.21073 2.18476 4.11824 2.18476 4.02186C2.18476 3.92547 2.22282 3.83298 2.29066 3.76451L3.39879 2.65639C3.43251 2.62246 3.4726 2.59553 3.51677 2.57716C3.56093 2.55878 3.6083 2.54932 3.65613 2.54932C3.70397 2.54932 3.75133 2.55878 3.7955 2.57716C3.83966 2.59553 3.87976 2.62246 3.91348 2.65639L4.22566 2.96857C4.36181 3.10513 4.53743 3.19543 4.7277 3.22672C4.91798 3.25801 5.11327 3.22871 5.28598 3.14295C5.51577 3.03369 5.75254 2.93974 5.99473 2.8617C6.17789 2.80026 6.33706 2.68269 6.44964 2.52568C6.56222 2.36868 6.62249 2.18021 6.62191 1.98701V1.53139C6.62191 1.43516 6.66014 1.34288 6.72818 1.27484C6.79622 1.2068 6.8885 1.16857 6.98473 1.16857H8.56254C8.65706 1.17148 8.74678 1.2109 8.81286 1.27855C8.87893 1.3462 8.91623 1.43682 8.91691 1.53139V1.97295C8.91591 2.16625 8.97602 2.35492 9.08866 2.51201C9.2013 2.6691 9.3607 2.78657 9.5441 2.84764C9.80463 2.93827 10.0584 3.04729 10.3035 3.17389L9.76348 3.70545C9.13727 3.4212 8.45711 3.27539 7.76941 3.27795C6.74829 3.28013 5.75402 3.60519 4.92881 4.20663C4.10361 4.80806 3.48975 5.65507 3.17504 6.62649C2.86034 7.59791 2.86091 8.64397 3.17668 9.61505C3.49244 10.5861 4.10723 11.4325 4.93309 12.033C5.75896 12.6335 6.75359 12.9575 7.77471 12.9586C8.79583 12.9596 9.79113 12.6377 10.6182 12.0389C11.4454 11.4401 12.0619 10.595 12.3797 9.62462C12.6975 8.6542 12.7002 7.60815 12.3875 6.63607C12.3163 6.42427 12.2308 6.21755 12.1316 6.01732L12.666 5.48857C12.8239 5.7668 12.9566 6.05859 13.0625 6.36045C13.1244 6.54338 13.242 6.70231 13.3989 6.81483C13.5559 6.92735 13.7441 6.98779 13.9372 6.98764H14.3788C14.475 6.98764 14.5673 7.02586 14.6353 7.0939C14.7034 7.16194 14.7416 7.25423 14.7416 7.35045L14.7444 8.91701Z" stroke="#0E5185" stroke-width="0.2" mask="url(#path-1-outside-1_1494_1829)"/>
</svg>
