<svg width="18" height="18" viewBox="0 0 18 18" fill="none" xmlns="http://www.w3.org/2000/svg">
<path d="M8.00293 7.00391C8.22224 7.00391 8.42892 7.09005 8.58398 7.24512C8.90404 7.5654 8.90412 8.08599 8.58398 8.40625L7.2666 9.72363L8.27637 10.7334L9.59375 9.41602C9.74881 9.261 9.95553 9.17578 10.1748 9.17578C10.3939 9.17589 10.5999 9.26114 10.7549 9.41602C11.0752 9.73625 11.0751 10.2568 10.7549 10.5771L9.4375 11.8945L10.127 12.584C10.2424 12.6996 10.2425 12.8874 10.127 13.0029L8.19824 14.9307C8.16372 14.9651 8.12091 14.9908 8.07422 15.0049L5.13379 15.8896L4.24316 16.7812C3.94986 17.0745 3.56474 17.2207 3.17969 17.2207C2.8429 17.2207 2.50591 17.1091 2.23047 16.8848L2.11621 16.7812L1.87598 16.541L0.771484 17.6465C0.713688 17.7042 0.638221 17.7334 0.5625 17.7334C0.486777 17.7334 0.41131 17.7042 0.353516 17.6465C0.237883 17.5309 0.237905 17.3442 0.353516 17.2285L1.45801 16.123L1.21875 15.8838C0.632366 15.2972 0.632378 14.3434 1.21875 13.7568L2.10938 12.8652L2.99512 9.92578C3.0092 9.87911 3.03488 9.83629 3.06934 9.80176L4.99707 7.87305C5.11262 7.75754 5.3004 7.75765 5.41602 7.87305L6.10449 8.56152L7.42188 7.24512C7.5769 7.0901 7.78373 7.00396 8.00293 7.00391ZM3.54004 10.167L2.65527 13.1074C2.64116 13.1542 2.61563 13.1969 2.58105 13.2314L1.6377 14.1748C1.2821 14.5304 1.28217 15.1092 1.6377 15.4648L2.53418 16.3623C2.88984 16.718 3.46953 16.718 3.8252 16.3623L4.76855 15.4189C4.80309 15.3844 4.84576 15.3589 4.89258 15.3447L7.83008 14.46L8.32422 13.9658L4.0332 9.6748L3.54004 10.167ZM4.45117 9.25586L8.74316 13.5479L9.49902 12.793L5.20703 8.50098L4.45117 9.25586ZM10.1748 9.76758C10.1135 9.76758 10.056 9.79168 10.0127 9.83496L8.69434 11.1514L9.01855 11.4756L10.3369 10.1592C10.3802 10.1159 10.4032 10.0583 10.4033 9.99707C10.4033 9.9359 10.3801 9.87824 10.3369 9.83496C10.2936 9.79169 10.236 9.76768 10.1748 9.76758ZM17.2285 0.353516C17.3442 0.237958 17.5309 0.237988 17.6465 0.353516C17.7621 0.469156 17.7621 0.655877 17.6465 0.771484L16.542 1.87598L16.7812 2.11621C17.3677 2.70283 17.3677 3.65658 16.7812 4.24316L15.8887 5.13574L15.0049 8.07422C14.9908 8.12094 14.9652 8.16369 14.9307 8.19824L13.0029 10.127C12.9474 10.1825 12.8715 10.2129 12.793 10.2129C12.7146 10.2128 12.6394 10.1823 12.584 10.127L7.87305 5.41602C7.75762 5.30036 7.7575 5.11264 7.87305 4.99707L9.80176 3.06934C9.83627 3.03491 9.87902 3.00922 9.92578 2.99512L12.8633 2.11035L13.7568 1.21875C14.3435 0.63227 15.2973 0.632399 15.8838 1.21875L16.123 1.45703L17.2285 0.353516ZM8.50098 5.20605L12.793 9.49805L13.5479 8.74316L9.25586 4.45117L8.50098 5.20605ZM8.16504 7.66309C8.07571 7.57404 7.93007 7.57386 7.84082 7.66309L6.52344 8.98047L6.84766 9.30469L8.16504 7.9873C8.20836 7.944 8.23242 7.88649 8.23242 7.8252C8.23234 7.76404 8.20831 7.70632 8.16504 7.66309ZM15.4658 1.6377C15.1102 1.28197 14.5304 1.282 14.1748 1.6377L13.2314 2.58105C13.1969 2.61558 13.1542 2.64115 13.1074 2.65527L10.1689 3.53906L9.6748 4.0332L13.9658 8.32422L14.46 7.83008L15.3447 4.89258C15.3588 4.84582 15.3844 4.80313 15.4189 4.76855L16.3623 3.82422C16.7179 3.46858 16.7179 2.88977 16.3623 2.53418L15.4658 1.6377Z" fill="#0E5185" stroke="#0E5185" stroke-width="0.1"/>
</svg>
