<svg width="24" height="24" viewBox="0 0 24 24" fill="none" xmlns="http://www.w3.org/2000/svg">
<path fill-rule="evenodd" clip-rule="evenodd" d="M3 6C3 5.58579 3.33579 5.25 3.75 5.25H20.25C20.6642 5.25 21 5.58579 21 6C21 6.41421 20.6642 6.75 20.25 6.75H3.75C3.33579 6.75 3 6.41421 3 6Z" fill="#082343"/>
<path fill-rule="evenodd" clip-rule="evenodd" d="M3 12C3 11.5858 3.33579 11.25 3.75 11.25H20.25C20.6642 11.25 21 11.5858 21 12C21 12.4142 20.6642 12.75 20.25 12.75H3.75C3.33579 12.75 3 12.4142 3 12Z" fill="#082343"/>
<path fill-rule="evenodd" clip-rule="evenodd" d="M3 18C3 17.5858 3.33579 17.25 3.75 17.25H13.5C13.9142 17.25 14.25 17.5858 14.25 18C14.25 18.4142 13.9142 18.75 13.5 18.75H3.75C3.33579 18.75 3 18.4142 3 18Z" fill="#082343"/>
<path fill-rule="evenodd" clip-rule="evenodd" d="M16.5 18C16.5 17.5858 16.8358 17.25 17.25 17.25H21.75C22.1642 17.25 22.5 17.5858 22.5 18C22.5 18.4142 22.1642 18.75 21.75 18.75H17.25C16.8358 18.75 16.5 18.4142 16.5 18Z" fill="#082343"/>
<path fill-rule="evenodd" clip-rule="evenodd" d="M19.5 15C19.9142 15 20.25 15.3358 20.25 15.75V20.25C20.25 20.6642 19.9142 21 19.5 21C19.0858 21 18.75 20.6642 18.75 20.25V15.75C18.75 15.3358 19.0858 15 19.5 15Z" fill="#082343"/>
</svg>
