<svg width="13" height="12" viewBox="0 0 13 12" fill="none" xmlns="http://www.w3.org/2000/svg">
<g clip-path="url(#clip0_234_91)">
<path d="M12.8333 2.02502V4.1625C12.8333 4.57671 12.4975 4.9125 12.0833 4.9125H9.94578C9.53156 4.9125 9.19578 4.57671 9.19578 4.1625C9.19578 3.74829 9.53156 3.4125 9.94578 3.4125H10.5188C9.69066 2.22551 8.33342 1.5 6.83325 1.5C4.96671 1.5 3.32119 2.62296 2.64108 4.36085C2.4901 4.74659 2.055 4.93687 1.66931 4.78594C1.28358 4.63498 1.09327 4.19991 1.24423 3.8142C1.67921 2.70272 2.42892 1.7539 3.41234 1.0703C4.41961 0.370102 5.60253 0 6.83325 0C8.06398 0 9.24689 0.370102 10.2542 1.07027C10.6544 1.34848 11.0159 1.67065 11.3333 2.0298V2.02505C11.3333 1.61084 11.669 1.27505 12.0833 1.27505C12.4975 1.27505 12.8333 1.61081 12.8333 2.02502ZM11.9972 7.21409C11.6115 7.0631 11.1764 7.25346 11.0254 7.63917C10.3453 9.37706 8.69979 10.5 6.83325 10.5C5.36496 10.5 4.03355 9.80498 3.20114 8.6625H3.72073C4.13494 8.6625 4.47073 8.32671 4.47073 7.9125C4.47073 7.49829 4.13494 7.1625 3.72073 7.1625H1.58325C1.16904 7.1625 0.833252 7.49829 0.833252 7.9125V10.05C0.833252 10.4642 1.16904 10.8 1.58325 10.8C1.99746 10.8 2.33325 10.4642 2.33325 10.05V9.97022C2.6506 10.3294 3.01212 10.6515 3.41234 10.9297C4.41961 11.6299 5.60253 12 6.83325 12C8.06398 12 9.24689 11.6299 10.2542 10.9297C11.2376 10.2461 11.9873 9.2973 12.4223 8.18583C12.5732 7.80012 12.3829 7.36505 11.9972 7.21409Z" fill="#FF3B30"/>
</g>
<defs>
<clipPath id="clip0_234_91">
<rect width="12" height="12" fill="white" transform="translate(0.833252)"/>
</clipPath>
</defs>
</svg>
