<svg width="18" height="18" viewBox="0 0 18 18" fill="none" xmlns="http://www.w3.org/2000/svg">
<g clip-path="url(#clip0_852_64)">
<path d="M17.8294 17.0207L13.1821 12.4477C14.3991 11.1255 15.1468 9.37682 15.1468 7.45261C15.1462 3.33639 11.7558 0 7.57321 0C3.3906 0 0.000183105 3.33639 0.000183105 7.45261C0.000183105 11.5688 3.3906 14.9052 7.57321 14.9052C9.38038 14.9052 11.0379 14.2802 12.3398 13.241L17.0052 17.832C17.2325 18.056 17.6015 18.056 17.8289 17.832C18.0567 17.6081 18.0567 17.2447 17.8294 17.0207ZM7.57321 13.7586C4.03426 13.7586 1.1654 10.9353 1.1654 7.45261C1.1654 3.96991 4.03426 1.14663 7.57321 1.14663C11.1122 1.14663 13.981 3.96991 13.981 7.45261C13.981 10.9353 11.1122 13.7586 7.57321 13.7586Z" fill="black"/>
</g>
<defs>
<clipPath id="clip0_852_64">
<rect width="18" height="18" fill="white"/>
</clipPath>
</defs>
</svg>
