<svg width="24" height="24" viewBox="0 0 24 24" fill="none" xmlns="http://www.w3.org/2000/svg">
<path d="M20.25 8.58016V6.56266C20.25 5.01016 18.99 3.75016 17.4375 3.75016H15.42L13.995 2.32516C12.9 1.23016 11.115 1.23016 10.02 2.32516L8.58003 3.75016H6.56253C5.01003 3.75016 3.75003 5.01016 3.75003 6.56266V8.58016L2.32503 10.0052C1.23003 11.1002 1.23003 12.8852 2.32503 13.9802L3.75003 15.4052V17.4227C3.75003 18.9902 5.01003 20.2502 6.56253 20.2502H8.58003L10.005 21.6752C10.56 22.2302 11.28 22.5002 12 22.5002C12.72 22.5002 13.44 22.2227 13.9875 21.6752L15.4125 20.2502H17.43C18.9825 20.2502 20.2425 18.9902 20.2425 17.4377V15.4202L21.6675 13.9952C22.7625 12.9002 22.7625 11.1152 21.6675 10.0202L20.25 8.58016ZM20.6175 12.9302L18.9675 14.5802C18.8325 14.7152 18.75 14.9102 18.75 15.1052V17.4377C18.75 18.1652 18.1575 18.7502 17.4375 18.7502H15.105C14.9025 18.7502 14.715 18.8327 14.5725 18.9677L12.9225 20.6177C12.4125 21.1277 11.58 21.1277 11.0625 20.6177L9.41253 18.9677C9.28503 18.8327 9.09003 18.7502 8.89503 18.7502H6.56253C5.84253 18.7502 5.25003 18.1577 5.25003 17.4377V15.1052C5.25003 14.9027 5.16753 14.7152 5.03253 14.5727L3.38253 12.9227C2.87253 12.4127 2.87253 11.5802 3.38253 11.0627L5.03253 9.41266C5.16753 9.28516 5.25003 9.09016 5.25003 8.89516V6.56266C5.25003 5.84266 5.84253 5.25016 6.56253 5.25016H8.89503C9.09753 5.25016 9.28503 5.16766 9.42753 5.03266L11.0775 3.38266C11.5875 2.87266 12.42 2.87266 12.9375 3.38266L14.5875 5.03266C14.715 5.16766 14.91 5.25016 15.105 5.25016H17.4375C18.1575 5.25016 18.75 5.84266 18.75 6.56266V8.89516C18.75 9.09766 18.8325 9.28516 18.9675 9.42766L20.6175 11.0777C21.1275 11.5802 21.1275 12.4202 20.6175 12.9302Z" fill="#81817C"/>
<path d="M12 8.25C9.93 8.25 8.25 9.93 8.25 12C8.25 14.07 9.93 15.75 12 15.75C14.07 15.75 15.75 14.07 15.75 12C15.75 9.93 14.07 8.25 12 8.25ZM12 14.25C10.7625 14.25 9.75 13.2375 9.75 12C9.75 10.7625 10.7625 9.75 12 9.75C13.2375 9.75 14.25 10.7625 14.25 12C14.25 13.2375 13.2375 14.25 12 14.25Z" fill="#81817C"/>
</svg>
