<svg width="16" height="16" viewBox="0 0 16 16" fill="none" xmlns="http://www.w3.org/2000/svg">
<path d="M11.8285 10.4552C11.1471 10.4552 10.5331 10.7495 10.107 11.2176L6.27447 8.84386C6.37679 8.58192 6.43354 8.29742 6.43354 7.99978C6.43354 7.70204 6.37679 7.41753 6.27447 7.15571L10.107 4.7819C10.5331 5.25 11.1471 5.54438 11.8285 5.54438C13.1121 5.54438 14.1564 4.50011 14.1564 3.21647C14.1564 1.93283 13.1121 0.888672 11.8285 0.888672C10.5449 0.888672 9.5006 1.93294 9.5006 3.21658C9.5006 3.51421 9.55745 3.79872 9.65967 4.06066L5.8272 6.43435C5.4011 5.96625 4.78716 5.67188 4.10574 5.67188C2.8221 5.67188 1.77783 6.71625 1.77783 7.99978C1.77783 9.28342 2.8221 10.3277 4.10574 10.3277C4.78716 10.3277 5.4011 10.0334 5.8272 9.56521L9.65967 11.9389C9.55745 12.2008 9.5006 12.4854 9.5006 12.7831C9.5006 14.0666 10.5449 15.1109 11.8285 15.1109C13.1121 15.1109 14.1564 14.0666 14.1564 12.7831C14.1564 11.4995 13.1121 10.4552 11.8285 10.4552ZM10.3494 3.21658C10.3494 2.40104 11.013 1.73752 11.8285 1.73752C12.644 1.73752 13.3076 2.40104 13.3076 3.21658C13.3076 4.03212 12.644 4.69564 11.8285 4.69564C11.013 4.69564 10.3494 4.03212 10.3494 3.21658ZM4.10574 9.47884C3.29009 9.47884 2.62657 8.81532 2.62657 7.99978C2.62657 7.18424 3.29009 6.52072 4.10574 6.52072C4.92128 6.52072 5.58469 7.18424 5.58469 7.99978C5.58469 8.81532 4.92128 9.47884 4.10574 9.47884ZM10.3494 12.783C10.3494 11.9674 11.013 11.3039 11.8285 11.3039C12.644 11.3039 13.3076 11.9674 13.3076 12.783C13.3076 13.5985 12.644 14.262 11.8285 14.262C11.013 14.262 10.3494 13.5985 10.3494 12.783Z" fill="#81817C"/>
</svg>
