<svg width="18" height="18" viewBox="0 0 18 18" fill="none" xmlns="http://www.w3.org/2000/svg">
<path d="M9 17.0156C13.4269 17.0156 17.0156 13.4269 17.0156 9C17.0156 4.57309 13.4269 0.984375 9 0.984375C4.57309 0.984375 0.984375 4.57309 0.984375 9C0.984375 13.4269 4.57309 17.0156 9 17.0156Z" fill="#FEDA2C"/>
<path d="M8.99999 15.1789C12.4126 15.1789 15.179 12.4125 15.179 8.99986C15.179 5.58726 12.4126 2.8208 8.99999 2.8208C5.58738 2.8208 2.82092 5.58726 2.82092 8.99986C2.82092 12.4125 5.58738 15.1789 8.99999 15.1789Z" fill="#FCAA17"/>
<path d="M8.99998 4.25146L10.4052 7.09884L13.5474 7.55545L11.2737 9.77184L11.8105 12.9013L8.99998 11.4238L6.18945 12.9013L6.72622 9.77184L4.45245 7.55545L7.59472 7.09884L8.99998 4.25146Z" fill="#FEDA2C"/>
</svg>
