<svg width="60" height="60" viewBox="0 0 60 60" fill="none" xmlns="http://www.w3.org/2000/svg">
<path opacity="0.4" d="M54.3751 22.2048V42.4998C54.5229 43.7667 54.382 45.0505 53.9632 46.2552C53.5443 47.4599 52.8582 48.5542 51.9563 49.4561C51.0544 50.3579 49.9602 51.044 48.7555 51.4629C47.5508 51.8818 46.2669 52.0226 45.0001 51.8748H15.0001C13.7332 52.0226 12.4493 51.8818 11.2446 51.4629C10.0399 51.044 8.94567 50.3579 8.0438 49.4561C7.14192 48.5542 6.45584 47.4599 6.03696 46.2552C5.61808 45.0505 5.47726 43.7667 5.62505 42.4998V17.4998C5.47726 16.233 5.61808 14.9491 6.03696 13.7444C6.45584 12.5397 7.14192 11.4454 8.0438 10.5436C8.94567 9.64168 10.0399 8.9556 11.2446 8.53672C12.4493 8.11784 13.7332 7.97702 15.0001 8.12481H37.0001C37.1107 8.12771 37.2193 8.15505 37.3181 8.20487C37.4169 8.25469 37.5035 8.32576 37.5716 8.41298C37.6397 8.5002 37.6876 8.60141 37.712 8.70935C37.7364 8.81729 37.7366 8.92929 37.7126 9.03731C37.1227 11.9584 37.7159 14.9942 39.362 17.4783C41.0081 19.9624 43.5726 21.692 46.4926 22.2873C48.8036 22.7493 51.2015 22.4739 53.3476 21.4998C53.462 21.4542 53.5859 21.4375 53.7083 21.4512C53.8307 21.4649 53.9479 21.5085 54.0494 21.5781C54.151 21.6478 54.2338 21.7415 54.2906 21.8507C54.3474 21.96 54.3764 22.0816 54.3751 22.2048Z" fill="#0E5185"/>
<path d="M50.405 35.4048L39.275 24.2748C38.8036 23.8052 38.1654 23.5415 37.5 23.5415C36.8346 23.5415 36.1964 23.8052 35.725 24.2748L23.375 36.6248C23.1413 36.8538 22.8272 36.9821 22.5 36.9821C22.1728 36.9821 21.8587 36.8538 21.625 36.6248L19.275 34.2748C18.8036 33.8052 18.1654 33.5415 17.5 33.5415C16.8346 33.5415 16.1964 33.8052 15.725 34.2748L9.595 40.4048C9.45431 40.5453 9.37518 40.7359 9.375 40.9348V42.4998C9.375 46.4498 11.05 48.1248 15 48.1248H45C48.95 48.1248 50.625 46.4498 50.625 42.4998V35.9348C50.6248 35.7359 50.5457 35.5453 50.405 35.4048Z" fill="#0E5185"/>
<path d="M20 25.625C19.5897 25.6265 19.183 25.5471 18.8033 25.3914C18.4236 25.2357 18.0783 25.0068 17.787 24.7177C17.1989 24.1337 16.8668 23.3401 16.8638 22.5113C16.8608 21.6824 17.1872 20.8864 17.7711 20.2982C18.3551 19.7101 19.1487 19.378 19.9775 19.375H20C20.8288 19.375 21.6237 19.7042 22.2097 20.2903C22.7958 20.8763 23.125 21.6712 23.125 22.5C23.125 23.3288 22.7958 24.1237 22.2097 24.7097C21.6237 25.2958 20.8288 25.625 20 25.625Z" fill="#0E5185"/>
<path d="M53.8251 9.92476L50.0751 6.17476C49.7232 5.82424 49.2468 5.62744 48.7501 5.62744C48.2534 5.62744 47.777 5.82424 47.4251 6.17476L43.6751 9.92476C43.3439 10.2802 43.1636 10.7503 43.1722 11.2361C43.1807 11.7218 43.3775 12.1853 43.721 12.5288C44.0646 12.8723 44.528 13.0691 45.0138 13.0777C45.4996 13.0863 45.9697 12.906 46.3251 12.5748L46.8751 12.0273V17.4998C46.8751 17.997 47.0726 18.474 47.4243 18.8256C47.7759 19.1772 48.2528 19.3748 48.7501 19.3748C49.2474 19.3748 49.7243 19.1772 50.0759 18.8256C50.4276 18.474 50.6251 17.997 50.6251 17.4998V12.0273L51.1751 12.5748C51.5305 12.906 52.0007 13.0863 52.4864 13.0777C52.9722 13.0691 53.4356 12.8723 53.7792 12.5288C54.1227 12.1853 54.3195 11.7218 54.328 11.2361C54.3366 10.7503 54.1563 10.2802 53.8251 9.92476Z" fill="#0E5185"/>
</svg>
