<svg width="20" height="20" viewBox="0 0 20 20" fill="none" xmlns="http://www.w3.org/2000/svg">
<path d="M0.219977 0.220073C0.0929589 0.347061 0.0157307 0.515415 0.00233427 0.694524C-0.0110622 0.873633 0.0402627 1.0516 0.146977 1.19607L0.219977 1.28007L4.25398 5.31507C2.28791 6.6946 0.884024 8.73565 0.298977 11.0651C0.253956 11.2569 0.286215 11.4587 0.388782 11.6269C0.491349 11.7951 0.655986 11.9162 0.847113 11.964C1.03824 12.0118 1.24051 11.9825 1.4102 11.8824C1.57989 11.7823 1.70338 11.6195 1.75398 11.4291C2.27378 9.36149 3.55157 7.56474 5.33398 6.39507L7.14398 8.20507C6.42097 8.96057 6.02257 9.96915 6.0341 11.0148C6.04563 12.0604 6.46619 13.06 7.20568 13.7994C7.94517 14.5387 8.9448 14.9591 9.99045 14.9704C11.0361 14.9818 12.0446 14.5832 12.8 13.8601L18.719 19.7801C18.8528 19.9143 19.0325 19.9928 19.2219 19.9999C19.4112 20.0071 19.5963 19.9422 19.7398 19.8185C19.8833 19.6947 19.9747 19.5212 19.9955 19.3328C20.0163 19.1444 19.965 18.9552 19.852 18.8031L19.779 18.7191L13.666 12.6051L13.667 12.6031L6.71698 5.65707L6.71898 5.65507L5.58598 4.52507L1.27998 0.220073C1.13935 0.079622 0.948727 0.000732422 0.749977 0.000732422C0.551226 0.000732422 0.360602 0.079622 0.219977 0.220073ZM9.99998 3.50007C8.99998 3.50007 8.02998 3.64807 7.11098 3.92507L8.34798 5.16107C10.4875 4.73743 12.7081 5.15215 14.5505 6.3195C16.3929 7.48685 17.7162 9.31754 18.247 11.4331C18.2988 11.622 18.4225 11.7832 18.5916 11.8821C18.7607 11.981 18.9617 12.0098 19.1518 11.9624C19.3419 11.915 19.5059 11.7951 19.6087 11.6283C19.7115 11.4616 19.745 11.2612 19.702 11.0701C19.1602 8.90727 17.9111 6.98758 16.1533 5.61601C14.3954 4.24444 12.2296 3.49969 9.99998 3.50007ZM10.195 7.01007L13.996 10.8101C13.9468 9.81797 13.5305 8.87959 12.8281 8.1773C12.1256 7.47501 11.1871 7.05898 10.195 7.01007Z" fill="#0E5185"/>
</svg>
