<svg width="25" height="25" viewBox="0 0 25 25" fill="none" xmlns="http://www.w3.org/2000/svg">
<path d="M24.375 13.1143C24.375 12.1543 24.315 11.4343 24.135 10.6543H12.6151V15.0943H19.335C19.215 16.1742 18.4351 17.8542 16.8151 18.9942V19.1142L20.475 21.8742H20.715C23.055 19.8942 24.375 16.7742 24.375 13.1143Z" fill="#4285F4"/>
<path d="M12.6152 24.8753C15.9152 24.8753 18.6751 23.7953 20.7151 21.9953L16.8752 19.0554C15.8552 19.7753 14.4752 20.2553 12.6152 20.2553C9.37524 20.2553 6.61526 18.1554 5.65527 15.2754H5.53528L1.75531 18.1554L1.69531 18.2754C3.67529 22.1753 7.81525 24.8753 12.6152 24.8753Z" fill="#34A853"/>
<path d="M5.65495 15.2754C5.41495 14.5554 5.23495 13.7154 5.23495 12.8754C5.23495 12.0354 5.35495 11.2554 5.65495 10.4754V10.2954L1.81499 7.35547L1.69499 7.47547C0.854995 9.09545 0.375 10.9554 0.375 12.8754C0.375 14.7954 0.854995 16.6554 1.69499 18.2754L5.65495 15.2754Z" fill="#FBBC05"/>
<path d="M12.6152 5.49495C14.8952 5.49495 16.4552 6.45495 17.3552 7.29494L20.8351 3.99497C18.6751 2.07499 15.9152 0.875 12.6152 0.875C7.81525 0.875 3.67529 3.57497 1.69531 7.47494L5.65527 10.4749C6.61526 7.59493 9.37524 5.49495 12.6152 5.49495Z" fill="#EB4335"/>
</svg>
